<?xml version="1.0" encoding="UTF-8"?>
<svg xmlns="http://www.w3.org/2000/svg" version="1.1" viewBox="1942.49 1338.24 588.64 588.64" width="320" height="320"><g>
		<path fill="#97EBFF" d="M2266.947,1413.405c0,0-182.279,41.113-171.14,238.557c0,0-7.86,153.443,177.14,198.443    c0,0,187-23.639,185-226.82C2457.947,1623.585,2447.947,1444.466,2266.947,1413.405z" />
		<path fill="#FFB959" d="M2253.947,1409.905c0,0-215-17.5-241,222c0,0-4,209.5,232,218.5c0,0-91.268-38.617-138.134-135.809    c0,0-46.225-105.641,23.134-203.192C2129.947,1511.405,2173.947,1447.405,2253.947,1409.905z" />
		<path fill="#FF7676" d="M2223.958,1410.535c0,0-182.011,65.331-153.011,250.601c0,0,8,123.27,147,189.27h36    c0,0-124.104-47.199-151.552-148.1c0,0-48.448-152.901,79.552-245.901l72-39.191L2223.958,1410.535z" />
		<path fill="#56C1CC" d="M2266.947,1413.405c0,0-205.49,222.991,6,437c0,0,141.408-14.684,177.704-159.074    C2450.651,1691.331,2506.934,1471.862,2266.947,1413.405z" />
		<path fill="#FFDFBD" d="M2097.519,1485.483c3.751,3.28-3.655,8.699-10.927,17.014c-7.272,8.314-11.656,16.375-15.407,13.095    c-3.752-3.281-0.897-12.681,6.375-20.995C2084.831,1486.282,2093.767,1482.202,2097.519,1485.483z" />
		<circle fill="#FFDFBD" cx="2102.248" cy="1479.626" r="4.722" />
		<path fill="#D4FBFF" d="M2183.237,1494.307c-10.619,12.122-16.411,24.418-21.699,19.784c-5.289-4.633-0.968-18.216,9.649-30.338    c10.62-12.124,23.516-18.196,28.806-13.563C2205.281,1474.822,2193.856,1482.183,2183.237,1494.307z" />
		<circle fill="#D4FBFF" cx="2209.409" cy="1464.764" r="6.896" />
		<g>
			<path fill="#140F16" d="M2425.269,1502.032c-25.468-36.753-61.299-65.021-102.56-82.034     c-42.705-17.608-90.736-20.973-135.745-11.184c-88.463,19.242-158.771,92.852-175.229,181.615     c-6.39,34.467-4.707,70.187,4.623,103.96c2.572,9.312,17.045,5.353,14.465-3.988c-13.373-48.406-9.73-100.753,11.11-146.528     c18.046-39.634,48.152-73.021,85.445-95.416c31.706-19.04,67.905-29.048,104.627-29.981c-25.227,9.7-48.648,23.841-69.229,41.682     c-7.321,6.348,3.336,16.91,10.607,10.607c29.087-25.217,64.37-41.959,102.153-49.035c36.841,6.688,71.817,23.476,100.277,47.746     c33.329,28.424,57.207,66.729,68.34,109.055c12.94,49.201,7.358,102.632-15.026,148.258     c-7.408,15.101-16.664,29.335-27.399,42.275c-6.126,7.386,4.425,18.06,10.607,10.607c35.002-42.195,54.148-95.203,53.635-150.093     C2465.546,1584.189,2451.1,1539.308,2425.269,1502.032z" />
			<path fill="#140F16" d="M2379.826,1791.794c-29.749,26.598-66.184,44.112-104.953,51.152     c-38.641-7.358-74.566-24.852-103.95-51.096c-7.189-6.421-17.836,4.151-10.607,10.607c21.19,18.926,45.565,33.851,71.899,43.944     c-47.359-0.864-93.894-18.107-130.569-48.057c-24.487-19.996-44.135-45.248-57.938-73.651c-4.229-8.699-17.162-1.091-12.953,7.57     c20.881,42.964,55.143,78.713,97.064,101.582c44.929,24.509,97.185,32.503,147.547,24.36     c42.781-6.916,82.857-27.009,115.066-55.806C2397.657,1795.941,2387.012,1785.369,2379.826,1791.794z" />
			<circle fill="#140F16" cx="2075.471" cy="1553.782" r="11.559" />
			<path fill="#140F16" d="M2043.512,1643.77c1.896,3.237,6.971,5.133,10.261,2.69c9.31-6.91,19.966-11.167,30.933-12.541     c0.178,52.226,18.99,102.831,51.683,143.373c2.57,3.187,7.948,2.658,10.607,0c3.119-3.12,2.563-7.428,0-10.607     c-30.239-37.499-46.745-84.463-47.295-132.56c-0.001-0.09,0.001-0.181,0-0.271c-0.051-4.988,0.089-9.972,0.396-14.94     c2.689-43.355,18.868-85.572,45.951-119.628c2.542-3.197,3.134-7.473,0-10.607c-2.645-2.644-8.059-3.204-10.607,0     c-29.749,37.41-47.321,82.642-50.29,130.127c-13.836,1.212-27.345,6.091-38.948,14.704     C2042.926,1635.94,2041.274,1639.951,2043.512,1643.77z" />
		</g>
		<g>
			<circle fill="#FFFFFF" cx="2079.75" cy="1549.444" r="4.103" />
			<circle fill="#FFFFFF" cx="2070.938" cy="1560.645" r="1.579" />
		</g>
	</g>
	</svg>