<?xml version="1.0" encoding="UTF-8"?>
<svg version="1.1" xmlns="http://www.w3.org/2000/svg" viewBox="2660.61 998.65 442.2 197.06">
<g>
		<g>
			<path fill="#97EBFF" d="M2643.053,1155.003c0,0,0.768-24.725,24.092-26.082c0,0,3.877-22.726,24.429-22.433
				c0,0,4.163-27.739,29.626-25.431c0,0,21.952,4.358,20.782,24.26c0,0,23.414,0.668,25.755,23.604c0,0,22.83,1.567,24.877,24.397
				c0,0,21.66,3.22,24.879,22.538c0,0,2.342,32.485-29.562,26.632c0,0-16.243,22.485-38.999,0.706l-11.928-0.12
				c0,0-17.854,20.782-37.756,0.879l-10.9-0.586c0,0-20.781,21.367-39.186-0.293c0,0-23.379,6.246-29.525-15.462
				c0,0-3.218-14.685,2.927-22.001C2622.563,1165.612,2629.882,1154.055,2643.053,1155.003z"/>
			<path fill="#56C1CC" d="M2624.626,1163.001c0,0,3.865,23.732,34.158,10.976c0,0,9.527,18.622,31.105,6.665
				c0,0,15.503,20.53,43.456,2.311c0,0,13.683,16.025,33.439,0.439c0,0,12.951,11.634,25.463-4.171c0,0,13.98,8.406,23.784-8.64
				c0,0,5.558,38.714-28.102,31.907c0,0-20.194,21.607-38.999,0.706l-11.928-0.12c0,0-22.098,19.685-37.756,0.879l-10.9-0.586
				c0,0-20.701,21.469-37.864,1.184c0,0-25.212,3.526-30.847-16.938C2619.637,1187.613,2616.15,1167.635,2624.626,1163.001z"/>
			<g>
				<path fill="#D4FBFF" d="M2731.798,1095.738c-0.923,1.799-3.861-1.156-8.215-3.386c-4.352-2.229-8.467-2.89-7.546-4.688
					c0.923-1.8,5.196-1.45,9.548,0.779C2729.937,1090.674,2732.719,1093.94,2731.798,1095.738z"/>
				<circle fill="#D4FBFF" cx="2733.273" cy="1098.013" r="1.719"/>
			</g>
			<g>
				<path fill="#D4FBFF" d="M2756.891,1121.054c-0.921,1.8-3.861-1.155-8.213-3.385c-4.353-2.23-8.468-2.891-7.546-4.688
					c0.921-1.799,5.195-1.448,9.548,0.781C2755.031,1115.991,2757.813,1119.256,2756.891,1121.054z"/>
				<circle fill="#D4FBFF" cx="2758.367" cy="1123.331" r="1.719"/>
			</g>
			<g>
				<path fill="#D4FBFF" d="M2781.623,1143.717c-0.921,1.798-3.86-1.157-8.214-3.388c-4.353-2.229-8.468-2.89-7.546-4.688
					c0.92-1.799,5.196-1.448,9.548,0.781C2779.763,1138.652,2782.545,1141.917,2781.623,1143.717z"/>
				<circle fill="#D4FBFF" cx="2783.098" cy="1145.99" r="1.719"/>
			</g>
		</g>
		<g>
			<path fill="#97EBFF" d="M2913.053,1154.757c0,0,0.768-24.725,24.092-26.082c0,0,3.877-22.726,24.429-22.433
				c0,0,4.163-27.739,29.626-25.431c0,0,21.952,4.358,20.782,24.26c0,0,23.414,0.668,25.755,23.604c0,0,22.83,1.567,24.877,24.397
				c0,0,21.66,3.22,24.879,22.538c0,0,2.342,32.485-29.562,26.632c0,0-16.243,22.485-38.999,0.706l-11.928-0.12
				c0,0-17.854,20.782-37.756,0.879l-10.9-0.586c0,0-20.781,21.367-39.186-0.293c0,0-23.379,6.246-29.525-15.462
				c0,0-3.218-14.685,2.927-22.001C2892.563,1165.366,2899.882,1153.809,2913.053,1154.757z"/>
			<path fill="#56C1CC" d="M2894.626,1162.755c0,0,3.865,23.732,34.158,10.976c0,0,9.527,18.622,31.105,6.665
				c0,0,15.503,20.53,43.456,2.311c0,0,13.683,16.025,33.439,0.439c0,0,12.951,11.634,25.463-4.171c0,0,13.98,8.406,23.784-8.64
				c0,0,5.558,38.714-28.102,31.907c0,0-20.194,21.607-38.999,0.706l-11.928-0.12c0,0-22.098,19.685-37.756,0.879l-10.9-0.586
				c0,0-20.701,21.469-37.864,1.184c0,0-25.212,3.526-30.847-16.938C2889.637,1187.367,2886.15,1167.389,2894.626,1162.755z"/>
			<g>
				<path fill="#D4FBFF" d="M3001.798,1095.492c-0.923,1.799-3.861-1.156-8.215-3.386c-4.352-2.229-8.467-2.89-7.546-4.688
					c0.923-1.8,5.196-1.45,9.548,0.779C2999.937,1090.428,3002.719,1093.694,3001.798,1095.492z"/>
				<circle fill="#D4FBFF" cx="3003.273" cy="1097.767" r="1.719"/>
			</g>
			<g>
				<path fill="#D4FBFF" d="M3026.891,1120.808c-0.921,1.8-3.861-1.155-8.213-3.385c-4.353-2.23-8.468-2.891-7.546-4.688
					c0.921-1.799,5.195-1.448,9.548,0.781C3025.031,1115.745,3027.813,1119.01,3026.891,1120.808z"/>
				<circle fill="#D4FBFF" cx="3028.367" cy="1123.084" r="1.719"/>
			</g>
			<g>
				<path fill="#D4FBFF" d="M3051.623,1143.471c-0.921,1.798-3.86-1.157-8.214-3.388c-4.353-2.229-8.468-2.89-7.546-4.688
					c0.92-1.799,5.196-1.448,9.548,0.781C3049.763,1138.406,3052.545,1141.671,3051.623,1143.471z"/>
				<circle fill="#D4FBFF" cx="3053.098" cy="1145.744" r="1.719"/>
			</g>
		</g>
		<path fill="#97EBFF" d="M2741.002,1091.404c0,0,1.612-123.999,97.612-127.332c0,0,84.666-9.335,113.333,63.666
			c0,0,18.001,45.725,8.667,70.029c0,0,20.719-32.361,41.359-20.361c0,0,3.308-78.776-45.359-113.722c0,0-56-67.612-158.667-30.945
			c0,0-92.56,30.634-92,144C2705.947,1076.739,2731.324,1069.045,2741.002,1091.404z"/>
		<path fill="#FF7676" d="M2669.948,1111.585c0,0-33.333-135.51,100.667-208.843c0,0,122.666-60.666,206.666,29.334
			c0,0,84.237,69.019,58.451,179.509l-24.02-11.853l-10.159-19.058c0,0,3.727-122.6-103.607-149.933
			c0,0-99.333-37.137-169.334,59.333c0,0-26.001,49.865-22.667,90.6l-10.994,15.618L2669.948,1111.585z"/>
		<path fill="#FFB959" d="M2669.948,1111.585c0,0-30.929-130.867,92.535-204.19c0,0,122.979-68.246,223.424,32.817
			c0,0,65.61,55.825,49.825,176.509l30.215,27.305c0,0,53.442-139.954-54.945-235.287c0,0-118.387-123.825-281.721-32.579
			c0,0-91.333,43.912-104.667,191.245c0,0,3.332,51.734,14.666,76.867l21.334-19.223L2669.948,1111.585z"/>
		<path fill="#56C1CC" d="M2708.614,1046.649c0,0,8.942,22.256,32.388,2.756v37.109l-34.555-9.609L2708.614,1046.649z"/>
		<path fill="#56C1CC" d="M2961.947,1046.649c0,0,19.711,17.525,35.355-5.109l4.671,35.859l-33.526,3.522l-8.5,5.593
			L2961.947,1046.649z"/>
		<path fill="#E54E4E" d="M3003.273,1044.405c0,0,15.662,21.375,33.168,6.188l-0.709,63.313l-21.355-12.857l-12.823-20.372
			L3003.273,1044.405z"/>
		<path fill="#E54E4E" d="M2668.817,1041.54c0,0,16.63,18.365,34.63,2.865v34.75l-9.887,20.332l-23.612,12.099
			C2669.948,1111.585,2660.188,1058.674,2668.817,1041.54z"/>
		<path fill="#E0943B" d="M2625.834,1055.953c0,0,15.229,14.94,39.421-9.304l7.192,65.183l-7.192,13.218l-25.975,19.223
			C2639.28,1144.272,2619.417,1092.167,2625.834,1055.953z"/>
		<path fill="#E0943B" d="M3040.64,1056.905c0,0,14.657,27.354,38.482,9.677l-10.675,79.409l-27.808-20.941l-4.88-13.582
			L3040.64,1056.905z"/>
		<g>
			<path fill="#FFDFBD" d="M3057.012,1017.324c0.918,3.249,1.759,6.517,2.525,9.806c0.732,3.139,5.554,1.808,4.822-1.33
				c-0.768-3.288-1.609-6.556-2.525-9.806C3060.959,1012.896,3056.135,1014.213,3057.012,1017.324L3057.012,1017.324z"/>
		</g>
		<g>
			<path fill="#FFDFBD" d="M2945.686,880.563c14.377,7.416,27.631,17.643,39.818,28.163c28.28,24.413,51.39,55.001,65.186,89.838
				c1.172,2.961,6.01,1.671,4.82-1.33c-13.887-35.066-36.671-65.698-64.84-90.618c-12.879-11.394-27.104-22.449-42.461-30.369
				C2945.349,874.771,2942.819,879.085,2945.686,880.563L2945.686,880.563z"/>
		</g>
		<g>
			<path fill="#FFDFBD" d="M2667.414,968.667c5.271-8.686,11.266-16.99,17.51-24.994c11.254-14.428,24.127-28.78,40.063-38.109
				c2.78-1.627,0.266-5.949-2.523-4.316c-16.355,9.573-29.465,24.142-41.075,38.891c-6.54,8.308-12.801,16.959-18.292,26.006
				C2661.419,968.907,2665.744,971.418,2667.414,968.667L2667.414,968.667z"/>
		</g>
		<g>
			<path fill="#FFB6B6" d="M3010.637,1009.628c2.283,5.737,4.275,11.567,5.986,17.501c0.893,3.092,5.718,1.775,4.822-1.33
				c-1.712-5.933-3.703-11.763-5.986-17.501C3014.281,1005.34,3009.443,1006.629,3010.637,1009.628L3010.637,1009.628z"/>
		</g>
		<g>
			<path fill="#FFB6B6" d="M2920.021,914.231c10.698,4.561,20.706,11.252,30.012,18.131c22.264,16.458,40.776,37.845,53.698,62.327
				c1.506,2.853,5.821,0.325,4.318-2.523c-13.049-24.72-31.602-45.87-53.76-62.817c-9.734-7.445-20.414-14.604-31.745-19.436
				C2919.613,908.664,2917.063,912.969,2920.021,914.231L2920.021,914.231z"/>
		</g>
		<g>
			<path fill="#D4FBFF" d="M2859.955,940.652c33.474,1.069,71.171,15.896,89.842,44.683c1.747,2.694,6.077,0.19,4.316-2.523
				c-19.675-30.336-58.854-46.031-94.158-47.159C2856.729,935.549,2856.739,940.549,2859.955,940.652L2859.955,940.652z"/>
		</g>
		<g>
			<path fill="#140F16" d="M2820.783,1157.554c-0.33-0.668-0.742-1.312-1.227-1.916c-0.389-0.485-0.789-0.956-1.201-1.413
				c-0.26-0.346-0.549-0.688-0.891-1.018c-0.506-0.488-1.023-0.951-1.547-1.403c-3.92-3.505-8.587-5.918-13.639-7.237
				c-0.077-0.021-0.154-0.04-0.232-0.061c-0.416-0.105-0.834-0.204-1.255-0.295c-0.036-0.008-0.071-0.018-0.107-0.025
				c-2.923-12.75-12.756-22.964-25.688-25.495c-0.02-0.071-0.041-0.142-0.062-0.213c-0.11-0.388-0.224-0.773-0.347-1.154
				c-0.01-0.028-0.02-0.056-0.028-0.084c-0.3-0.924-0.634-1.829-1.004-2.712c-3.685-8.847-10.823-15.867-20.244-18.829
				c-8.764-36.759,2.951-75.1,30.905-100.812c7.134-6.562-3.502-17.142-10.605-10.607c-25.321,23.291-38.805,56.266-38.104,89.817
				c-4.985-3.157-10.905-5.046-17.366-5.247c-2.677-0.083-5.26,0.198-7.726,0.779c0.688-41.224,18.745-80.072,50.294-107.281
				c36.597-31.562,88.133-41.24,134.111-27.45c5.471,1.641,10.834,3.66,16.047,5.985c3.732,1.666,8.029,1.12,10.26-2.69
				c1.895-3.233,1.045-8.595-2.689-10.261c-47.27-21.087-102.061-18.463-146.616,8.076c-38.576,22.978-65.955,62.759-73.94,106.883
				c-2.101,11.606-2.866,23.42-2.361,35.195c-4.549,4.569-7.824,10.467-9.31,16.865c-0.291,0.063-0.574,0.145-0.862,0.214
				c-0.237,0.059-0.476,0.115-0.711,0.178c-0.438,0.117-0.871,0.243-1.303,0.376c-0.039,0.013-0.076,0.024-0.114,0.037
				c-2.876,0.897-5.591,2.16-8.097,3.766c-9.076-58.21,10.913-117.823,53.738-158.928c6.99-6.709-3.63-17.303-10.605-10.607
				c-49.435,47.448-70.332,117.836-55.512,184.588c-0.556,1.326-1.029,2.7-1.428,4.114c-8.43,1.649-15.598,6.576-20.365,13.348
				c-12.52-44.334-11.174-91.592,4.211-135.294c14.31-40.646,41.433-76.842,75.955-102.544
				c69.285-51.586,164.561-57.472,239.924-15.247c8.447,4.733,16.008-8.225,7.57-12.951
				c-47.926-26.853-103.668-36.02-157.723-26.635c-44.008,7.64-85.169,28.754-117.99,58.885
				c-67.673,62.126-92.305,161.13-63.311,247.86c-13.67,5.826-21.752,20.232-19.588,36.189
				c2.331,17.192,19.231,27.458,35.385,26.389c7.313,6.593,16.952,9.319,26.195,8.194c0.655,0.036,1.342,0.001,2.064-0.141
				c4.828-0.944,9.301-2.942,13.205-5.79c0.039-0.028,0.078-0.059,0.116-0.087c0.641-0.471,1.267-0.962,1.874-1.479
				c0.254-0.215,0.512-0.426,0.762-0.649c2.157,0.191,4.297,0.191,6.455,0c12.466,11.208,31.683,11.194,44.154-0.001
				c2.16,0.191,4.303,0.192,6.463,0.001c12.502,11.253,31.695,11.16,44.201-0.055c18.546,1.239,36.736-12.746,35.986-32.741
				C2826.611,1169.038,2824.41,1162.738,2820.783,1157.554z M2790.135,1193.578c-2.55-0.538-5.459-0.119-7.297,1.929
				c-7.951,8.861-20.246,8.911-28.164,0c-1.826-2.055-4.758-2.464-7.298-1.929c-2.635,0.556-5.227,0.556-7.861,0
				c-2.542-0.535-5.47-0.124-7.298,1.929c-7.905,8.88-20.262,8.892-28.164,0c-1.825-2.054-4.757-2.465-7.297-1.929
				c-2.632,0.556-5.22,0.556-7.852,0c-2.541-0.536-5.47-0.125-7.297,1.929c-7.917,8.896-20.264,8.886-28.174,0
				c-1.828-2.053-4.756-2.465-7.298-1.929c-9.403,1.985-18.332-3.531-21.1-12.642c-3.462-11.399,5.856-22.201,17.174-22.546
				c4.171-0.127,7.388-3.318,7.5-7.5c0.264-9.761,7.902-17.81,17.851-17.81c4.356,0,7.146-3.429,7.5-7.5
				c0.248-2.851,1.138-5.455,2.505-7.715c1.11-1.735,2.413-3.234,3.888-4.479c0.119-0.099,0.235-0.201,0.357-0.297
				c0.133-0.107,0.271-0.208,0.407-0.312c2.515-1.855,5.528-3.081,8.798-3.484c0.06-0.008,0.119-0.016,0.179-0.022
				c0.539-0.062,1.084-0.104,1.636-0.12c4.182-0.123,7.373-3.321,7.5-7.5c0.203-6.711,3.703-12.301,9.008-15.341
				c8.092-4.112,17.426-2.055,22.611,4.276c2.402,3.113,3.865,7.009,3.991,11.064c0.13,4.198,3.317,7.351,7.5,7.5
				c1.732,0.062,3.413,0.347,5.007,0.831c3.428,1.141,6.438,3.067,8.68,5.669c0.01,0.013,0.02,0.024,0.03,0.036
				c0.278,0.325,0.54,0.664,0.794,1.01c0.114,0.157,0.224,0.318,0.333,0.48c0.157,0.229,0.311,0.461,0.456,0.699
				c0.176,0.29,0.341,0.587,0.5,0.888c0.076,0.144,0.156,0.284,0.229,0.431c0.191,0.389,0.365,0.788,0.529,1.194
				c0.034,0.087,0.074,0.17,0.107,0.257c0.17,0.445,0.319,0.903,0.455,1.367c0.02,0.067,0.044,0.132,0.063,0.2
				c0.129,0.464,0.232,0.939,0.325,1.421c0.015,0.08,0.037,0.156,0.052,0.236c0.099,0.56,0.174,1.129,0.221,1.71
				c0.331,4.073,3.161,7.5,7.5,7.5c9.998,0,17.508,8.053,17.84,17.81c0.055,1.599,0.553,3.048,1.377,4.24
				c0.112,0.162,0.229,0.32,0.354,0.473c1.353,1.663,3.396,2.724,5.77,2.787c0.563,0.018,1.111,0.063,1.654,0.122
				c0.101,0.012,0.201,0.021,0.3,0.034c1.69,0.217,3.301,0.649,4.804,1.274c0.088,0.037,0.177,0.076,0.265,0.115
				c0.354,0.153,0.698,0.323,1.04,0.499c0.354,0.185,0.704,0.38,1.047,0.588c0.063,0.038,0.126,0.075,0.188,0.114
				c0.843,0.527,1.648,1.128,2.422,1.794c0.128,0.112,0.256,0.225,0.38,0.34c0.13,0.117,0.26,0.233,0.387,0.354
				c3.153,3.122,5.137,7.424,5.313,12.315C2812.293,1187.464,2801.065,1195.885,2790.135,1193.578z"/>
			<path fill="#140F16" d="M3096.18,1174.991c-0.797-13.183-8.746-24-20.139-28.855c16.502-49.292,16.242-103.586-0.867-152.726
				c-16.018-46.007-46.486-85.774-85.895-114.215c-3.322-2.397-8.346-0.582-10.262,2.69c-2.217,3.783-0.617,7.874,2.691,10.261
				c36.633,26.438,64.645,64.016,79.496,106.674c14.947,42.934,15.793,89.72,3.48,133.246c-4.75-6.794-11.891-11.734-20.363-13.382
				c-0.395-1.405-0.865-2.772-1.418-4.091c10.697-48.118,3.205-98.793-21.494-141.53c-22.381-38.726-58.191-68.395-99.787-84.433
				c-57.799-22.284-124.951-14.132-176.459,19.883c-1.003,0.669-2,1.347-2.99,2.034c-0.718,0.499-1.432,1.003-2.143,1.512
				c-0.506,0.391-1.012,0.781-1.518,1.172c-0.93,0.937-1.573,2.039-1.93,3.31c-0.532,1.937-0.258,4.047,0.756,5.779
				c0.982,1.677,2.608,2.932,4.482,3.447c1.79,0.492,4.214,0.363,5.779-0.757c0.711-0.508,1.426-1.012,2.143-1.512
				c0.99-0.687,1.987-1.364,2.99-2.034c44.078-29.107,98.809-37.759,149.664-23.44c41.865,11.788,78.41,39.414,101.943,75.875
				c23.943,37.095,32.986,82.255,26.197,125.637c-2.512-1.612-5.234-2.88-8.117-3.779c-0.039-0.013-0.076-0.024-0.115-0.037
				c-0.432-0.133-0.865-0.259-1.303-0.376c-0.234-0.063-0.473-0.119-0.711-0.178c-0.281-0.068-0.559-0.148-0.844-0.211
				c-1.484-6.497-4.783-12.292-9.34-16.762c2.383-55.65-25.189-108.67-71.703-139.311c-8.104-5.339-15.609,7.656-7.57,12.951
				c39.92,26.298,63.625,70.755,64.383,117.995c-3.313-0.818-6.828-1.126-10.475-0.83c-5.404,0.438-10.348,2.191-14.602,4.91
				c0.68-35.872-14.842-71.091-43.492-94.204c-38.545-31.095-93.504-34.406-135.734-8.526c-8.23,5.043-0.701,18.021,7.57,12.951
				c36.371-22.288,83.857-20.351,117.557,6.183c31.754,25,45.559,66.412,36.287,105.387c-9.422,2.962-16.561,9.982-20.244,18.829
				c-0.371,0.883-0.705,1.788-1.004,2.712c-0.01,0.028-0.02,0.056-0.029,0.084c-0.123,0.381-0.236,0.767-0.346,1.154
				c-0.021,0.072-0.043,0.145-0.064,0.218c-12.904,2.542-22.852,12.771-25.727,25.526c-0.027,0.006-0.053,0.014-0.078,0.02
				c-3.561,0.794-6.846,2.116-9.795,3.879c-0.174,0.103-0.348,0.205-0.518,0.311c-0.203,0.126-0.404,0.256-0.604,0.386
				c-0.354,0.229-0.703,0.466-1.049,0.708c-0.035,0.025-0.07,0.051-0.105,0.076c-8.213,5.829-13.551,15.277-13.986,26.34
				c-0.154,4.068,0.479,7.889,1.736,11.383c4.102,12.568,16.498,20.43,29.395,21.349c0.191,0.014,0.385,0.022,0.576,0.033
				c0.365,0.021,0.73,0.037,1.096,0.046c0.285,0.008,0.57,0.01,0.857,0.01c0.289,0.001,0.576-0.003,0.865-0.01
				c0.311-0.008,0.623-0.018,0.934-0.034c0.178-0.009,0.354-0.019,0.531-0.03c12.506,11.21,31.695,11.301,44.195,0.05
				c2.16,0.191,4.303,0.191,6.463,0c12.473,11.194,31.688,11.208,44.154,0c2.16,0.191,4.301,0.191,6.461-0.001
				c0.232,0.209,0.473,0.405,0.711,0.606c4.35,3.718,9.547,6.287,15.24,7.4c0.729,0.143,1.422,0.178,2.082,0.14
				c9.229,1.122,18.85-1.595,26.16-8.177c18.543,1.403,34.736-12.094,35.932-31.226c0.051-0.408,0.082-0.83,0.07-1.279
				C3096.252,1175.776,3096.225,1175.377,3096.18,1174.991z M3059.506,1193.578c-2.543-0.536-5.471-0.124-7.299,1.929
				c-7.916,8.892-20.248,8.888-28.174,0c-1.83-2.052-4.754-2.465-7.297-1.929c-2.631,0.556-5.219,0.556-7.852,0
				c-2.539-0.536-5.471-0.125-7.297,1.929c-7.902,8.891-20.26,8.88-28.164,0c-1.828-2.053-4.756-2.465-7.297-1.929
				c-2.635,0.557-5.227,0.556-7.861,0c-2.541-0.535-5.473-0.126-7.299,1.929c-7.918,8.911-20.213,8.861-28.164,0
				c-1.838-2.048-4.746-2.467-7.297-1.929c-0.52,0.109-1.033,0.183-1.547,0.248c-0.398,0.048-0.797,0.083-1.195,0.104
				c-0.115,0.008-0.23,0.016-0.346,0.021c-3.822,0.124-7.537-0.99-10.637-3.005c-3.723-2.539-6.51-6.506-7.695-11.308
				c-0.057-0.232-0.102-0.464-0.148-0.695c-0.137-0.973-0.195-1.974-0.156-3.001c0.17-4.299,1.707-8.127,4.201-11.103
				c3.072-3.447,7.461-5.808,12.154-6.338c0.477-0.049,0.955-0.095,1.443-0.11c4.172-0.13,7.387-3.316,7.5-7.5
				c0.264-9.753,7.896-17.81,17.84-17.81c4.34,0,7.17-3.427,7.5-7.5c0.047-0.581,0.123-1.15,0.221-1.71
				c0.016-0.08,0.037-0.156,0.053-0.236c0.092-0.481,0.195-0.957,0.324-1.421c0.02-0.068,0.043-0.133,0.063-0.2
				c0.137-0.464,0.285-0.922,0.455-1.367c0.033-0.087,0.074-0.171,0.109-0.258c0.162-0.405,0.336-0.805,0.527-1.193
				c0.072-0.146,0.152-0.287,0.23-0.432c0.158-0.301,0.322-0.598,0.498-0.887c0.146-0.238,0.299-0.47,0.457-0.699
				c0.109-0.162,0.219-0.323,0.332-0.48c0.254-0.346,0.516-0.685,0.795-1.01c0.01-0.012,0.02-0.023,0.029-0.036
				c2.242-2.602,5.252-4.528,8.68-5.669c1.594-0.484,3.275-0.77,5.008-0.831c4.17-0.149,7.387-3.302,7.5-7.5
				c0.014-0.546,0.055-1.079,0.109-1.606c0.014-0.128,0.033-0.252,0.051-0.378c0.053-0.421,0.115-0.836,0.193-1.244
				c0.02-0.099,0.039-0.196,0.059-0.294c0.889-4.236,3.154-7.75,6.373-10.272c0.033-0.024,0.064-0.051,0.098-0.076
				c0.215-0.167,0.445-0.319,0.67-0.478c5.855-3.996,14.102-4.373,21.021,0.16c4.152,3.461,6.869,8.824,7.035,14.188
				c0.131,4.179,3.316,7.377,7.5,7.5c0.553,0.017,1.098,0.059,1.637,0.12c0.059,0.007,0.119,0.015,0.178,0.022
				c3.27,0.403,6.283,1.629,8.799,3.484c0.135,0.104,0.273,0.204,0.406,0.312c0.123,0.096,0.238,0.198,0.357,0.297
				c1.475,1.245,2.777,2.744,3.889,4.48c1.367,2.259,2.256,4.863,2.504,7.714c0.354,4.071,3.145,7.5,7.5,7.5
				c10.004,0,17.518,8.044,17.852,17.81c0.143,4.182,3.307,7.372,7.5,7.5c9.936,0.303,17.541,7.854,17.809,17.811
				C3080.936,1187.547,3070.752,1195.953,3059.506,1193.578z"/>
		</g>
	</g>
</svg>
