<?xml version="1.0" encoding="UTF-8"?>
<svg version="1.1" xmlns="http://www.w3.org/2000/svg" viewBox="265.72 178.74 474.22 462.26">
<g>
		<polygon fill="#FFB959" points="359.947,284.558 396.114,222.405 466.947,253.481 537.78,222.405 574.947,284.558 
			648.947,305.405 642.947,379.342 691.947,438.778 643.947,496.405 650.947,572.546 577.947,587.405 537.78,651.405 
			466.947,624.405 396.114,651.405 359.947,589.405 283.947,572.546 291.947,496.405 241.947,438.778 291.947,379.342 
			285.947,305.405 		"/>
		<polygon fill="#E0943B" points="396.114,226.738 537.78,651.405 466.947,624.405 396.114,651.405 359.947,589.405 
			283.947,572.546 291.947,496.405 241.947,438.778 291.947,379.342 285.947,305.405 359.28,286.07 		"/>
		<circle fill="#97EBFF" cx="467.944" cy="438.778" r="154.221"/>
		<circle fill="#FF7676" cx="555.39" cy="467.173" r="28.898"/>
		<circle fill="#FF7676" cx="380.056" cy="467.173" r="28.898"/>
		<path fill="#56C1CC" d="M411.947,298.07c0,0-166.625,196.606,73.188,293.971c0,0-140.489,11.149-168.793-124.868
			C316.341,467.173,287.947,357.736,411.947,298.07z"/>
		<path fill="#D4FBFF" d="M576.118,362.799c-5.069,7.407-19.896-8.635-42.436-24.062s-44.26-24.396-39.187-31.804
			c5.066-7.407,27.45-0.907,49.99,14.52C567.025,336.88,581.188,355.392,576.118,362.799z"/>
		<path fill="#FFB6B6" d="M394.994,457.329c-1.056,1.542-2.924-0.964-6.055-3.106c-3.13-2.142-6.336-3.109-5.28-4.652
			c1.055-1.542,4.449-1.056,7.579,1.087C394.368,452.8,396.05,455.787,394.994,457.329z"/>
		<path fill="#FFB6B6" d="M567.661,457.329c-1.056,1.542-2.925-0.964-6.055-3.106c-3.13-2.142-6.337-3.109-5.28-4.652
			c1.055-1.542,4.449-1.056,7.578,1.087C567.035,452.8,568.717,455.787,567.661,457.329z"/>
		<circle fill="#D4FBFF" cx="582.031" cy="372.496" r="7.833"/>
		<path fill="#E54E4E" d="M364.447,449.905c0,0,0.5,31.992,28,37.996c0,0-32.5,16.504-39.5-12.496
			C352.947,475.405,347.947,453.905,364.447,449.905z"/>
		<path fill="#E54E4E" d="M535.449,449.905c0,0,4.998,36,35.498,32.5c0,0-31.41,28-44.455-6
			C526.492,476.405,520.451,457.405,535.449,449.905z"/>
		<polygon fill="#FFDFBD" points="570.947,582.438 626.831,556.738 635.461,496.071 650.947,572.546 		"/>
		<polygon fill="#FFDFBD" points="635.961,493.246 666.447,438.405 635.961,383.188 691.947,438.778 		"/>
		<polygon fill="#FFDFBD" points="635.591,379.342 626.831,316.905 570.947,294.388 648.947,305.405 		"/>
		<polygon fill="#FFDFBD" points="467.944,260.551 527.739,247.405 570.947,294.388 537.78,226.738 		"/>
		<g>
			<path fill="#140F16" d="M698.466,432.977c-15.827-18.13-31.653-36.26-47.48-54.391c2.185-24.363,4.369-48.728,6.555-73.091
				c0.291-3.252-2.545-6.699-5.638-7.404c-23.742-5.413-47.483-10.825-71.226-16.237c-12.407-20.801-24.814-41.602-37.222-62.402
				c-2.34-3.924-6.633-4.414-10.506-2.755c-22,9.428-44.002,18.854-66.002,28.28c-22.001-9.427-44.002-18.853-66.004-28.28
				c-3.873-1.659-8.165-1.169-10.506,2.755c-12.406,20.801-24.813,41.602-37.221,62.402c-23.742,5.412-47.484,10.825-71.226,16.237
				c-3.093,0.705-5.929,4.152-5.638,7.404c2.186,24.363,4.37,48.728,6.555,73.091c-15.826,18.131-31.652,36.261-47.479,54.391
				c-2.896,3.317-2.896,7.541,0,10.859c4.982,5.707,9.965,11.415,14.947,17.122c6.524,7.474,17.341-3.435,10.859-10.859
				c-3.402-3.897-6.805-7.795-10.208-11.692c14.383-16.476,28.764-32.951,43.146-49.426c2.28-2.612,4.566-5.11,4.229-8.873
				c-0.428-4.762-0.854-9.524-1.281-14.287c-1.393-15.526-2.785-31.054-4.178-46.58c-0.231-2.583-0.463-5.166-0.695-7.749
				c21.492-4.899,42.982-9.798,64.474-14.697c3.54-0.808,6.38-1.528,8.458-5.013c2.316-3.884,4.633-7.769,6.951-11.653
				c7.93-13.295,15.859-26.59,23.789-39.885c1.444-2.421,2.888-4.841,4.332-7.262c19.854,8.507,39.709,17.014,59.563,25.521
				c3.995,1.712,7.097,3.071,11.559,1.159c3.981-1.706,7.963-3.411,11.944-5.117c14.224-6.095,28.446-12.188,42.67-18.283
				c2.552-1.093,5.103-2.186,7.654-3.279c11.225,18.818,22.449,37.636,33.674,56.454c1.804,3.025,3.382,5.882,7.193,6.751
				c4.41,1.006,8.819,2.011,13.229,3.016c15.093,3.441,30.185,6.882,45.277,10.322c2.876,0.655,5.752,1.312,8.628,1.967
				c-1.988,22.18-3.979,44.359-5.967,66.539c-0.331,3.686,0.027,6.351,2.671,9.379c3.144,3.602,6.288,7.203,9.432,10.805
				c10.251,11.742,20.502,23.484,30.752,35.227c1.445,1.655,2.89,3.311,4.334,4.966c-14.382,16.475-28.764,32.949-43.146,49.425
				c-2.28,2.612-4.565,5.11-4.229,8.872c0.427,4.763,0.854,9.525,1.281,14.288c1.393,15.526,2.785,31.054,4.178,46.58
				c0.231,2.583,0.463,5.166,0.694,7.749c-21.491,4.898-42.982,9.798-64.473,14.697c-3.54,0.807-6.38,1.528-8.457,5.012
				c-2.317,3.885-4.635,7.77-6.951,11.654c-7.93,13.295-15.86,26.589-23.79,39.883c-1.443,2.42-2.888,4.841-4.331,7.262
				c-19.854-8.507-39.708-17.013-59.563-25.521c-3.995-1.711-7.097-3.07-11.558-1.159c-3.982,1.706-7.964,3.412-11.945,5.118
				c-14.223,6.094-28.447,12.188-42.67,18.283c-2.551,1.093-5.103,2.187-7.654,3.279c-11.225-18.818-22.449-37.636-33.674-56.454
				c-1.805-3.024-3.382-5.882-7.193-6.75c-4.41-1.006-8.819-2.011-13.229-3.017c-15.093-3.44-30.185-6.881-45.277-10.321
				c-2.876-0.655-5.752-1.312-8.628-1.967c1.332-14.854,2.664-29.71,3.996-44.563c0.71-7.927,1.421-15.853,2.131-23.778
				c0.606-6.754-7.925-13.411-12.027-18.11c-6.523-7.474-17.34,3.434-10.859,10.859c2.473,2.832,4.945,5.665,7.418,8.498
				c-2.184,24.363-4.369,48.727-6.554,73.091c-0.292,3.252,2.545,6.699,5.638,7.404c23.742,5.412,47.483,10.824,71.225,16.237
				c12.408,20.8,24.814,41.6,37.223,62.4c2.34,3.924,6.633,4.414,10.506,2.755c22-9.426,44.002-18.853,66.002-28.28
				c22.001,9.428,44.003,18.854,66.004,28.28c3.872,1.659,8.165,1.169,10.505-2.755c12.407-20.8,24.813-41.6,37.22-62.4
				c23.743-5.412,47.484-10.825,71.227-16.237c3.093-0.705,5.929-4.152,5.638-7.404c-2.186-24.364-4.37-48.728-6.555-73.091
				c15.827-18.13,31.653-36.26,47.48-54.39C701.362,440.519,701.362,436.294,698.466,432.977z"/>
			<path fill="#140F16" d="M604.327,356.343c-26.087-43.068-70.541-71.25-120.467-77.011
				c-46.157-5.325-92.991,11.202-126.765,42.747c-33.384,31.181-51.489,76.443-50.047,121.948
				c1.438,45.343,23.021,88.733,57.906,117.618c35.917,29.737,82.975,41.788,128.857,34.474
				c44.466-7.089,84.104-34.449,108.318-72.096c25.843-40.18,31.523-91.481,16.492-136.652c-3.039-9.131-17.527-5.218-14.465,3.987
				c15.527,46.661,7.073,98.865-23.751,137.416c-27.824,34.799-70.407,54.826-114.87,54.624
				c-43.898-0.198-86.495-21.465-113.305-56.196c-27.543-35.682-36.82-82.727-25.399-126.261
				c11.142-42.467,42.002-77.411,81.802-95.386c43.334-19.571,95.055-14.921,135.198,9.886
				c19.474,12.033,35.708,28.934,47.543,48.473C596.379,372.173,609.353,364.639,604.327,356.343z"/>
			<circle fill="#140F16" cx="521.947" cy="401.739" r="15.833"/>
			<circle fill="#140F16" cx="411.947" cy="401.739" r="15.833"/>
			<path fill="#140F16" d="M344.03,467.155c-0.478,20.066,16.9,35.789,36.25,36.25c0.938,0.022,1.863-0.007,2.781-0.061
				c19.896,25.507,50.425,41.312,84.021,41.561c33.498,0.248,64.158-16.07,84.062-41.652c0.819,0.075,1.642,0.133,2.47,0.152
				c19.673,0.468,35.16-16.228,36.195-35.116c0.021-0.377,0.046-0.755,0.055-1.134c-0.009-0.377-0.034-0.749-0.054-1.123
				c-1.026-19.527-16.504-34.658-36.196-35.127c-20.066-0.478-35.789,16.9-36.25,36.25c-0.323,13.582,7.538,25.166,18.649,31.383
				c-17.175,19.439-42.349,31.172-68.931,31.367c-26.449,0.194-51.635-11.841-68.811-31.266
				c10.444-6.221,17.516-17.797,18.203-30.351c0.021-0.378,0.046-0.755,0.055-1.134c-0.009-0.377-0.034-0.749-0.054-1.123
				c-1.025-19.527-16.504-34.658-36.196-35.127C360.214,430.428,344.49,447.806,344.03,467.155z M532.364,467.155
				c-0.281-11.813,9.857-20.979,21.25-21.25c11.813-0.281,20.979,9.857,21.25,21.25c-0.211,8.876-5.433,16.249-13.026,19.487
				c-2.514,1.072-5.286,1.692-8.224,1.763c-3.127,0.074-6.064-0.587-8.704-1.802C537.576,483.227,532.563,475.533,532.364,467.155z
				 M401.53,467.155c-0.206,8.628-5.154,15.819-12.404,19.189c-2.678,1.245-5.659,1.984-8.846,2.061
				c-2.767,0.065-5.386-0.446-7.782-1.405c-7.834-3.138-13.26-11.12-13.468-19.845c-0.281-11.814,9.857-20.979,21.25-21.25
				C392.094,445.624,401.26,455.763,401.53,467.155z"/>
		</g>
		<g>
			<circle fill="#FFFFFF" cx="527.739" cy="395.947" r="5.792"/>
			<circle fill="#FFFFFF" cx="515.302" cy="411.76" r="2.229"/>
		</g>
		<g>
			<circle fill="#FFFFFF" cx="417.989" cy="395.614" r="5.792"/>
			<circle fill="#FFFFFF" cx="405.552" cy="411.427" r="2.229"/>
		</g>
	</g>
</svg>
