<?xml version="1.0" encoding="UTF-8"?>
<svg version="1.1" xmlns="http://www.w3.org/2000/svg" viewBox="2661.44 2023.51 391.49 319.71">
<g>
		<path fill="#FF7676" d="M2829.228,2099.104c3.146,8.565,5.025,17.539,5.556,26.594c5.189-1.557,10.653-2.436,16.305-2.539
			c-0.992-1.139-1.985-2.275-2.978-3.412c-3.133-3.588-6.265-7.176-9.397-10.764c-1.153-1.321-2.729-2.834-3.931-4.454l-0.101,0.317
			L2829.228,2099.104z"/>
		<path fill="#FF7676" d="M2704.581,2049.655c23.375-11.234,50.4-12.58,74.528-2.668c3.778,1.553,6.422,4.922,5.238,9.227
			c-0.38,1.382-1.279,2.705-2.453,3.724c4.358,2.098,8.751,4.66,13.011,7.788c1.963-4.229,7.812-6.892,12.209-2.656
			c9.532,9.184,16.681,20.14,21.345,31.951l3.246-33.667c-3.522-0.803-7.044-1.605-10.565-2.409
			c-4.646-1.059-9.292-2.119-13.938-3.178c-2.218-0.505-4.81-0.813-6.893-1.92h-7.775l-17.395-30.586
			c-2.929,1.255-5.856,2.51-8.785,3.764c-4.282,1.836-8.565,3.67-12.848,5.506c-2.499,1.07-5.956,3.104-8.671,3.104
			c-0.176,0-0.362-0.032-0.544-0.048l-7.944,2.927l-29.342-12.133c-1.546,2.592-3.092,5.184-4.638,7.775
			c-2.441,4.092-4.882,8.186-7.323,12.277c-1.472,2.469-2.939,5.863-5.506,7.367c-2.229,1.307-5.309,1.566-7.769,2.127
			c-4.737,1.08-9.476,2.16-14.213,3.24c-4.657,1.061-9.315,2.123-13.973,3.186c0.171,1.907,0.342,3.814,0.513,5.723l13.154,14.441
			C2676.104,2069.678,2688.826,2057.228,2704.581,2049.655z"/>
		<path fill="#E54E4E" d="M2635.591,2115.726c3.108,3.109,2.749,7.709,0,10.859c-1.177,1.35-2.354,2.697-3.531,4.047
			c3.167,3.627,6.335,7.256,9.502,10.883c3.132,3.59,6.265,7.178,9.396,10.766c1.837,2.104,4.751,4.691,5.505,7.432
			c0.693,2.521-0.043,5.574-0.27,8.102c-0.434,4.84-0.867,9.678-1.301,14.516c-0.436,4.861-0.871,9.721-1.307,14.582
			c4.982,1.135,9.965,2.271,14.946,3.406c4.646,1.061,9.292,2.119,13.938,3.178c2.889,0.658,6.422,0.967,8.624,3.168
			c1.82,1.82,3.023,4.609,4.318,6.781c2.49,4.174,4.979,8.348,7.469,12.521c2.379,3.988,4.759,7.979,7.139,11.969
			c4.433-1.9,8.865-3.799,13.298-5.697c3.766-1.615,7.532-3.229,11.298-4.842c0.645-2.33,1.412-4.604,2.297-6.818
			c-10.182-0.836-20.318-3.408-29.952-7.85c-42.149-19.439-64.134-70.951-46.517-114.537c1.911-4.728,4.199-9.3,6.809-13.674
			l-13.154-14.441c0.88,9.811,1.759,19.622,2.64,29.434c0.675,7.527-8.103,9.256-12.694,5.313l-9.359,10.152
			C2635.006,2115.202,2635.313,2115.448,2635.591,2115.726z"/>
		<path fill="#97EBFF" d="M2644.84,2323.179c-0.849,1.055-1.646,2.141-2.394,3.252c5.651,13.814,23.488,38.996,75.401,17.137
			c0,0,21.703,42.414,70.852,15.18c0,0,35.311,46.766,98.979,5.266c0,0,31.169,36.5,76.169,1c0,0,29.5,26.5,58-9.5
			c0,0,27.112,16.3,48.844-11.682c-0.934-4.519-2.489-8.936-4.674-13.098c-1.886-3.592-0.693-7.006,1.652-9.132
			c-2.688-3.317-5.652-6.213-8.742-8.737c-2.094,1.961-5.168,2.686-8.341,0.607c-8.477-5.549-17.712-8.486-27.857-8.641
			c-4.129-0.063-7.444-3.365-7.5-7.5c-0.238-17.863-9.57-33.766-24.978-42.775c-7.377-4.045-15.727-6.518-24.2-6.318
			c-4.288,0.1-7.236-3.498-7.5-7.5c-1.702-25.799-23.339-45.699-49.01-46.014c-4.125-0.051-7.45-3.373-7.5-7.5
			c-0.254-20.982-13.908-39.67-32.975-46.416c-5.045-1.785-10.464-2.744-16.12-2.676c-0.652,0.008-1.299,0.039-1.945,0.07
			c-5.903,0.299-11.53,1.617-16.709,3.787c-6.969,2.924-13.119,7.387-18.039,12.967c-5.107,5.793-8.883,12.787-10.853,20.516
			c-0.959,3.764-1.499,7.697-1.548,11.752c-0.05,4.127-3.375,7.449-7.5,7.5c-6.777,0.084-13.267,1.543-19.188,4.104
			c-0.434,0.188-0.868,0.373-1.296,0.572c-9.538,4.449-17.484,11.822-22.566,21.02c-0.9,1.631-1.706,3.32-2.42,5.059
			c-1.608,3.918-2.726,8.092-3.266,12.461c-0.021,0.166-0.046,0.33-0.064,0.496c-0.084,0.742-0.152,1.488-0.203,2.24
			c-0.002,0.021-0.004,0.041-0.006,0.063c-0.264,4.002-3.212,7.6-7.5,7.5c-27.061-0.637-48.86,22.723-49.179,49.094
			c-0.05,4.135-3.375,7.436-7.5,7.5c-5.846,0.09-11.301,1.08-16.842,2.941c-3.714,1.247-6.563-0.373-8.044-2.949
			c-5.096,2.406-9.382,5.461-12.822,8.448C2647.865,2316.315,2647.213,2320.227,2644.84,2323.179z M3001.007,2275.905
			c2.163,0,3.916,1.753,3.916,3.916c0,2.164-1.753,3.917-3.916,3.917c-2.164,0-3.917-1.753-3.917-3.917
			C2997.09,2277.658,2998.843,2275.905,3001.007,2275.905z M2961.748,2256.25c2.099-4.097,11.835-3.3,21.748,1.778
			s16.247,12.516,14.149,16.611c-2.099,4.097-8.797-2.633-18.709-7.711C2969.023,2261.851,2959.649,2260.347,2961.748,2256.25z
			 M2944.674,2224.288c2.163,0,3.916,1.754,3.916,3.918c0,2.162-1.753,3.916-3.916,3.916c-2.164,0-3.917-1.754-3.917-3.916
			C2940.757,2226.042,2942.51,2224.288,2944.674,2224.288z M2905.415,2204.634c2.099-4.097,11.835-3.301,21.748,1.777
			c9.913,5.079,16.247,12.517,14.149,16.613c-2.099,4.096-8.797-2.634-18.709-7.712
			C2912.69,2210.233,2903.316,2208.729,2905.415,2204.634z M2907.947,2267.394c8.745,0,15.833,7.088,15.833,15.832
			s-7.088,15.834-15.833,15.834c-8.744,0-15.833-7.09-15.833-15.834S2899.203,2267.394,2907.947,2267.394z M2887.516,2166.622
			c2.163,0,3.916,1.754,3.916,3.917s-1.753,3.917-3.916,3.917c-2.164,0-3.917-1.754-3.917-3.917
			S2885.352,2166.622,2887.516,2166.622z M2848.257,2146.968c2.099-4.098,11.835-3.301,21.748,1.777s16.247,12.516,14.149,16.612
			c-2.099,4.097-8.797-2.634-18.709-7.712C2855.532,2152.567,2846.158,2151.063,2848.257,2146.968z M2831.722,2330.654
			c9.773,15.953,32.633,16.004,42.445,0.061c5.059-8.221,18.037-0.693,12.951,7.57c-15.738,25.574-52.656,25.557-68.348-0.061
			C2813.702,2329.951,2826.681,2322.422,2831.722,2330.654z M2797.947,2267.394c8.745,0,15.833,7.088,15.833,15.832
			s-7.088,15.834-15.833,15.834c-8.744,0-15.833-7.09-15.833-15.834S2789.203,2267.394,2797.947,2267.394z"/>
		<path fill="#56C1CC" d="M3021.848,2355.513c-28.5,36-58,9.5-58,9.5c-45,35.5-76.169-1-76.169-1
			c-63.669,41.5-98.979-5.266-98.979-5.266c-49.148,27.234-70.852-15.18-70.852-15.18c-51.913,21.859-69.75-3.322-75.401-17.137
			c-11.323,16.835-11.065,39.706,0.913,56.287c11.584,16.033,31.871,23.316,51.054,19.006c2.492-0.561,5.527-0.125,7.298,1.928
			c20.311,23.557,55.786,23.561,76.096,0c1.771-2.053,4.806-2.488,7.298-1.928c7.475,1.68,15.021,1.68,22.496,0
			c2.492-0.561,5.527-0.125,7.298,1.928c20.313,23.559,55.784,23.559,76.097,0c1.771-2.053,4.806-2.488,7.298-1.928
			c7.476,1.68,15.021,1.68,22.496,0c2.492-0.561,5.527-0.125,7.298,1.928c20.313,23.557,55.784,23.559,76.096,0
			c1.771-2.053,4.806-2.488,7.298-1.928c18.563,4.172,37.996-2.467,49.874-17.418c9.126-11.486,12.231-26.473,9.337-40.475
			C3048.96,2371.813,3021.848,2355.513,3021.848,2355.513z"/>
		<path fill="#D4FBFF" d="M2865.445,2157.646c9.912,5.078,16.61,11.809,18.709,7.712c2.098-4.097-4.236-11.534-14.149-16.612
			s-19.649-5.875-21.748-1.777C2846.158,2151.063,2855.532,2152.567,2865.445,2157.646z"/>
		<circle fill="#D4FBFF" cx="2887.516" cy="2170.539" r="3.917"/>
		<path fill="#D4FBFF" d="M2922.604,2215.313c9.912,5.078,16.61,11.808,18.709,7.712c2.098-4.097-4.236-11.534-14.149-16.613
			c-9.913-5.078-19.649-5.874-21.748-1.777C2903.316,2208.729,2912.69,2210.233,2922.604,2215.313z"/>
		<circle fill="#D4FBFF" cx="2944.674" cy="2228.205" r="3.917"/>
		<path fill="#D4FBFF" d="M2978.937,2266.929c9.912,5.078,16.61,11.808,18.709,7.711c2.098-4.096-4.236-11.533-14.149-16.611
			s-19.649-5.875-21.748-1.778S2969.023,2261.851,2978.937,2266.929z"/>
		<circle fill="#D4FBFF" cx="3001.007" cy="2279.822" r="3.917"/>
		<path fill="#FFB959" d="M2775.121,2061.452c-25.524-10.487-54.636-7.117-76.14,9.281c-9.591,27.104-25.709,98.465,58.937,122.209
			c8.932-6.807,19.673-11.343,31.422-12.746c2.463-20.021,14.24-37.801,30.924-48c0.371-21.162-8.317-41.646-23.757-56.52
			c-2.571-2.479-2.748-5.48-1.602-7.951c-4.26-3.128-8.652-5.69-13.011-7.788
			C2780.023,2061.562,2777.449,2062.408,2775.121,2061.452z M2779.13,2071.513c2.002,0,3.625,1.623,3.625,3.625
			s-1.623,3.625-3.625,3.625s-3.625-1.623-3.625-3.625S2777.128,2071.513,2779.13,2071.513z M2742.531,2062.759
			c0.872-3.055,8.639-3.514,17.347-1.026c8.707,2.487,15.06,6.979,14.188,10.032c-0.872,3.053-7.472-0.574-16.179-3.061
			C2749.179,2066.217,2741.659,2065.812,2742.531,2062.759z M2714.928,2102.083c4.755,0,8.609,3.854,8.609,8.609
			s-3.854,8.609-8.609,8.609c-4.756,0-8.61-3.854-8.61-8.609S2710.172,2102.083,2714.928,2102.083z M2779.818,2151.285
			c-15.738,25.574-52.656,25.557-68.348-0.061c-5.068-8.273,7.91-15.803,12.951-7.57c9.773,15.953,32.633,16.004,42.445,0.061
			C2771.926,2135.494,2784.904,2143.021,2779.818,2151.285z M2774.744,2119.302c-4.755,0-8.609-3.854-8.609-8.609
			s3.854-8.609,8.609-8.609c4.756,0,8.61,3.854,8.61,8.609S2779.5,2119.302,2774.744,2119.302z"/>
		<path fill="#E0943B" d="M2698.981,2070.733c-3.622,2.763-7.035,5.883-10.172,9.381c-19.311,21.541-25.39,54.207-13.116,80.822
			c8.896,19.293,25.191,34.992,45.683,41.412c7.708,2.414,15.71,3.619,23.681,3.615c3.652-4.935,7.992-9.31,12.861-13.021
			C2673.272,2169.198,2689.391,2097.838,2698.981,2070.733z"/>
		<path fill="#FFDFBD" d="M2757.887,2068.704c8.707,2.486,15.307,6.113,16.179,3.061c0.872-3.054-5.48-7.545-14.188-10.032
			c-8.708-2.487-16.475-2.028-17.347,1.026C2741.659,2065.812,2749.179,2066.217,2757.887,2068.704z"/>
		<circle fill="#FFDFBD" cx="2779.13" cy="2075.138" r="3.625"/>
		<path fill="#FFB6B6" d="M2744.292,2037.586c-2.813-0.243-6.281-2.265-8.769-3.331c-4.37-1.873-8.74-3.744-13.11-5.617
			c-4.132-1.77-8.263-3.541-12.394-5.311c-1.005,1.684-2.009,3.368-3.014,5.053l29.342,12.133L2744.292,2037.586z"/>
		<path fill="#FFB6B6" d="M2800.31,2055.847c-0.631-0.335-1.22-0.736-1.731-1.248c-1.82-1.82-3.023-4.609-4.318-6.781
			c-2.49-4.174-4.979-8.348-7.469-12.521c-2.379-3.988-4.76-7.979-7.139-11.969c-1.504,0.645-3.009,1.289-4.513,1.934l17.395,30.586
			H2800.31z"/>
		<path fill="#FFB6B6" d="M2829.228,2099.104l5.454,5.742l0.101-0.317c-0.712-0.961-1.294-1.959-1.574-2.979
			c-0.693-2.521,0.042-5.572,0.27-8.102c0.434-4.838,0.867-9.678,1.302-14.516c0.436-4.861,0.871-9.721,1.307-14.58
			c-1.461-0.333-2.921-0.666-4.381-0.999l-3.246,33.667C2828.731,2097.71,2828.973,2098.41,2829.228,2099.104z"/>
		<path fill="#140F16" d="M2666.323,2307.772c5.541-1.861,10.996-2.852,16.842-2.941c4.125-0.064,7.45-3.365,7.5-7.5
			c0.318-26.371,22.118-49.73,49.179-49.094c4.288,0.1,7.236-3.498,7.5-7.5c0.002-0.021,0.004-0.041,0.006-0.063
			c0.051-0.752,0.119-1.498,0.203-2.24c0.019-0.166,0.044-0.33,0.064-0.496c0.54-4.369,1.657-8.543,3.266-12.461
			c0.714-1.738,1.52-3.428,2.42-5.059c5.082-9.197,13.028-16.57,22.566-21.02c0.428-0.199,0.862-0.385,1.296-0.572
			c5.922-2.561,12.411-4.02,19.188-4.104c4.125-0.051,7.45-3.373,7.5-7.5c0.049-4.055,0.589-7.988,1.548-11.752
			c1.97-7.729,5.745-14.723,10.853-20.516c4.92-5.58,11.07-10.043,18.039-12.967c5.179-2.17,10.806-3.488,16.709-3.787
			c0.646-0.031,1.293-0.063,1.945-0.07c5.656-0.068,11.075,0.891,16.12,2.676c19.066,6.746,32.721,25.434,32.975,46.416
			c0.05,4.127,3.375,7.449,7.5,7.5c25.671,0.314,47.308,20.215,49.01,46.014c0.264,4.002,3.212,7.6,7.5,7.5
			c8.474-0.199,16.823,2.273,24.2,6.318c15.407,9.01,24.739,24.912,24.978,42.775c0.056,4.135,3.371,7.438,7.5,7.5
			c10.146,0.154,19.381,3.092,27.857,8.641c3.173,2.078,6.247,1.354,8.341-0.607c3.264-3.059,4.137-9.13-0.771-12.344
			c-8.632-5.652-18.284-9.055-28.4-10.23c-2.384-19.949-13.696-37.652-31.13-48.184c-0.251-0.176-0.517-0.346-0.805-0.502
			c-0.264-0.154-0.526-0.291-0.788-0.41c-7.508-4.002-15.852-6.83-24.372-7.689c-4.98-28.162-27.615-49.898-56.094-53.307
			c-2.951-24.543-19.592-44.865-42.07-53.111c-0.335-0.65-0.762-1.283-1.287-1.885c-8.229-9.428-16.459-18.854-24.688-28.281
			c1.152-12.855,2.305-25.711,3.458-38.566c0.291-3.252-2.545-6.699-5.638-7.404c-12.474-2.844-24.946-5.686-37.42-8.529
			c-6.486-10.875-12.973-21.75-19.459-32.623c-2.34-3.924-6.633-4.414-10.506-2.756c-11.374,4.875-22.749,9.748-34.123,14.621
			c-11.375-4.873-22.75-9.746-34.125-14.621c-3.872-1.658-8.165-1.168-10.505,2.756c-6.486,10.873-12.973,21.748-19.458,32.623
			c-12.475,2.844-24.947,5.686-37.421,8.529c-3.093,0.705-5.929,4.152-5.638,7.404c1.23,13.719,2.461,27.438,3.69,41.154
			c0.208,2.319,1.235,4.087,2.663,5.313c4.592,3.943,13.369,2.215,12.694-5.313c-0.881-9.812-1.76-19.623-2.64-29.434
			c-0.171-1.908-0.342-3.815-0.513-5.723c4.657-1.063,9.315-2.125,13.973-3.186c4.737-1.08,9.476-2.16,14.213-3.24
			c2.46-0.561,5.539-0.82,7.769-2.127c2.566-1.504,4.034-4.898,5.506-7.367c2.441-4.092,4.882-8.186,7.323-12.277
			c1.546-2.592,3.092-5.184,4.638-7.775c1.005-1.685,2.009-3.369,3.014-5.053c4.131,1.77,8.262,3.541,12.394,5.311
			c4.37,1.873,8.74,3.744,13.11,5.617c2.487,1.066,5.956,3.088,8.769,3.331c0.182,0.016,0.368,0.048,0.544,0.048
			c2.715,0,6.172-2.033,8.671-3.104c4.282-1.836,8.565-3.67,12.848-5.506c2.929-1.254,5.856-2.509,8.785-3.764
			c1.504-0.645,3.009-1.289,4.513-1.934c2.379,3.99,4.76,7.98,7.139,11.969c2.489,4.174,4.979,8.348,7.469,12.521
			c1.295,2.172,2.498,4.961,4.318,6.781c0.512,0.512,1.101,0.913,1.731,1.248c2.083,1.107,4.675,1.415,6.893,1.92
			c4.646,1.059,9.292,2.119,13.938,3.178c3.521,0.804,7.043,1.606,10.565,2.409c1.46,0.333,2.92,0.666,4.381,0.999
			c-0.436,4.859-0.871,9.719-1.307,14.58c-0.435,4.838-0.868,9.678-1.302,14.516c-0.228,2.529-0.963,5.58-0.27,8.102
			c0.28,1.021,0.862,2.019,1.574,2.979c1.201,1.62,2.777,3.133,3.931,4.454c3.133,3.588,6.265,7.176,9.397,10.764
			c0.992,1.137,1.985,2.273,2.978,3.412c-5.651,0.104-11.115,0.982-16.305,2.539c-0.53-9.055-2.41-18.028-5.556-26.594
			c-0.255-0.694-0.496-1.395-0.769-2.084c-4.664-11.812-11.813-22.768-21.345-31.951c-4.397-4.235-10.246-1.572-12.209,2.656
			c-1.146,2.471-0.97,5.473,1.602,7.951c15.439,14.873,24.128,35.357,23.757,56.52c-16.684,10.199-28.461,27.979-30.924,48
			c-11.749,1.403-22.49,5.939-31.422,12.746c-4.869,3.712-9.209,8.087-12.861,13.021c-7.971,0.004-15.973-1.201-23.681-3.615
			c-20.491-6.42-36.786-22.119-45.683-41.412c-12.273-26.615-6.194-59.281,13.116-80.822c3.137-3.498,6.55-6.618,10.172-9.381
			c21.504-16.398,50.615-19.769,76.14-9.281c2.328,0.956,4.902,0.109,6.773-1.515c1.174-1.019,2.073-2.342,2.453-3.724
			c1.184-4.305-1.46-7.674-5.238-9.227c-24.128-9.912-51.153-8.566-74.528,2.668c-15.755,7.572-28.478,20.022-37.329,34.861
			c-2.609,4.374-4.897,8.946-6.809,13.674c-17.617,43.586,4.367,95.098,46.517,114.537c9.634,4.441,19.771,7.014,29.952,7.85
			c-0.885,2.215-1.652,4.488-2.297,6.818c-3.766,1.613-7.532,3.227-11.298,4.842c-4.433,1.898-8.865,3.797-13.298,5.697
			c-2.38-3.99-4.76-7.98-7.139-11.969c-2.489-4.174-4.979-8.348-7.469-12.521c-1.295-2.172-2.498-4.961-4.318-6.781
			c-2.202-2.201-5.735-2.51-8.624-3.168c-4.646-1.059-9.292-2.117-13.938-3.178c-4.981-1.135-9.964-2.271-14.946-3.406
			c0.436-4.861,0.871-9.721,1.307-14.582c0.434-4.838,0.867-9.676,1.301-14.516c0.227-2.527,0.963-5.58,0.27-8.102
			c-0.754-2.74-3.668-5.328-5.505-7.432c-3.132-3.588-6.265-7.176-9.396-10.766c-3.167-3.627-6.335-7.256-9.502-10.883
			c1.177-1.35,2.354-2.697,3.531-4.047c2.749-3.15,3.108-7.75,0-10.859c-0.277-0.277-0.585-0.523-0.907-0.752
			c-2.93-2.082-7.471-2.091-9.952,0.752c-2.757,3.16-5.514,6.318-8.271,9.477c-2.75,3.15-3.108,7.75,0,10.859
			c8.229,9.426,16.458,18.854,24.688,28.279c-1.152,12.855-2.306,25.711-3.458,38.566c-0.291,3.252,2.545,6.699,5.638,7.404
			c12.474,2.844,24.947,5.688,37.42,8.531c5.908,9.904,11.815,19.807,17.724,29.711c-12.046,10.514-20.286,25.457-22.313,41.73
			c-4.692,0.525-9.315,1.51-13.824,3.023c-5.437,1.827-6.241,7.713-4.056,11.516
			C2659.76,2307.399,2662.609,2309.02,2666.323,2307.772z"/>
		<path fill="#140F16" d="M2774.744,2102.083c-4.755,0-8.609,3.854-8.609,8.609s3.854,8.609,8.609,8.609
			c4.756,0,8.61-3.854,8.61-8.609S2779.5,2102.083,2774.744,2102.083z M2771.21,2117.092c-0.661,0-1.197-0.536-1.197-1.197
			s0.536-1.197,1.197-1.197s1.197,0.536,1.197,1.197S2771.871,2117.092,2771.21,2117.092z M2777.889,2110.514
			c-1.718,0-3.109-1.393-3.109-3.11c0-1.719,1.392-3.11,3.109-3.11c1.717,0,3.109,1.392,3.109,3.11
			C2780.998,2109.121,2779.605,2110.514,2777.889,2110.514z"/>
		<path fill="#140F16" d="M2714.928,2119.302c4.755,0,8.609-3.854,8.609-8.609s-3.854-8.609-8.609-8.609
			c-4.756,0-8.61,3.854-8.61,8.609S2710.172,2119.302,2714.928,2119.302z M2717.311,2104.114c1.717,0,3.109,1.392,3.109,3.11
			c0,1.718-1.393,3.11-3.109,3.11c-1.718,0-3.109-1.393-3.109-3.11C2714.201,2105.506,2715.593,2104.114,2717.311,2104.114z
			 M2710.632,2114.519c0.661,0,1.197,0.536,1.197,1.197s-0.536,1.197-1.197,1.197s-1.197-0.536-1.197-1.197
			S2709.971,2114.519,2710.632,2114.519z"/>
		<path fill="#140F16" d="M3078.969,2323.163c-2.609-4.971-8.058-4.499-11.299-1.562c-2.346,2.126-3.538,5.54-1.652,9.132
			c2.185,4.162,3.74,8.579,4.674,13.098c2.895,14.002-0.211,28.988-9.337,40.475c-11.878,14.951-31.311,21.59-49.874,17.418
			c-2.492-0.561-5.527-0.125-7.298,1.928c-20.312,23.559-55.783,23.557-76.096,0c-1.771-2.053-4.806-2.488-7.298-1.928
			c-7.476,1.68-15.021,1.68-22.496,0c-2.492-0.561-5.527-0.125-7.298,1.928c-20.313,23.559-55.784,23.559-76.097,0
			c-1.771-2.053-4.806-2.488-7.298-1.928c-7.475,1.68-15.021,1.68-22.496,0c-2.492-0.561-5.527-0.125-7.298,1.928
			c-20.31,23.561-55.785,23.557-76.096,0c-1.771-2.053-4.806-2.488-7.298-1.928c-19.183,4.311-39.47-2.973-51.054-19.006
			c-11.979-16.581-12.236-39.452-0.913-56.287c0.747-1.111,1.545-2.197,2.394-3.252c2.373-2.952,3.025-6.863,0.617-9.907
			c-0.188-0.238-0.391-0.474-0.617-0.7c-2.656-2.656-8.042-3.191-10.607,0c-17.722,22.043-20.227,52.727-4.563,76.645
			c13.966,21.328,39.299,31.584,64.015,27.854c24.937,25.635,67.22,25.637,92.153-0.004c7.013,1.088,14.018,1.09,21.03,0
			c24.938,25.641,67.219,25.641,92.157,0c7.013,1.088,14.019,1.088,21.031,0c24.936,25.637,67.213,25.641,92.15,0.006
			c22.328,3.393,45.068-4.518,59.754-22.158C3088.798,2374.687,3091.123,2346.317,3078.969,2323.163z"/>
		<path fill="#140F16" d="M2907.947,2299.06c8.745,0,15.833-7.09,15.833-15.834s-7.088-15.832-15.833-15.832
			c-8.744,0-15.833,7.088-15.833,15.832S2899.203,2299.06,2907.947,2299.06z M2912.417,2271.227c3.22,0,5.831,2.61,5.831,5.833
			c0,3.221-2.611,5.832-5.831,5.832c-3.223,0-5.833-2.611-5.833-5.832C2906.584,2273.837,2909.194,2271.227,2912.417,2271.227z
			 M2899.892,2290.737c1.24,0,2.245,1.005,2.245,2.245s-1.005,2.245-2.245,2.245s-2.245-1.005-2.245-2.245
			S2898.651,2290.737,2899.892,2290.737z"/>
		<path fill="#140F16" d="M2797.947,2299.06c8.745,0,15.833-7.09,15.833-15.834s-7.088-15.832-15.833-15.832
			c-8.744,0-15.833,7.088-15.833,15.832S2789.203,2299.06,2797.947,2299.06z M2802.417,2269.778c3.22,0,5.831,2.61,5.831,5.833
			c0,3.221-2.611,5.832-5.831,5.832c-3.223,0-5.833-2.611-5.833-5.832C2796.584,2272.389,2799.194,2269.778,2802.417,2269.778z
			 M2789.892,2289.289c1.24,0,2.245,1.005,2.245,2.245s-1.005,2.245-2.245,2.245s-2.245-1.005-2.245-2.245
			S2788.651,2289.289,2789.892,2289.289z"/>
		<path fill="#140F16" d="M2887.118,2338.285c5.086-8.264-7.893-15.791-12.951-7.57c-9.813,15.943-32.672,15.893-42.445-0.061
			c-5.041-8.232-18.02-0.703-12.951,7.57C2834.462,2363.842,2871.38,2363.859,2887.118,2338.285z"/>
		<path fill="#140F16" d="M2766.867,2143.715c-9.813,15.943-32.672,15.893-42.445-0.061c-5.041-8.232-18.02-0.703-12.951,7.57
			c15.691,25.617,52.609,25.635,68.348,0.061C2784.904,2143.021,2771.926,2135.494,2766.867,2143.715z"/>
		<circle fill="#FFFFFF" cx="2912.417" cy="2277.059" r="5.833"/>
		<circle fill="#FFFFFF" cx="2899.892" cy="2292.982" r="2.245"/>
		<circle fill="#FFFFFF" cx="2802.417" cy="2275.611" r="5.833"/>
		<circle fill="#FFFFFF" cx="2789.892" cy="2291.534" r="2.245"/>
		<circle fill="#FFFFFF" cx="2777.889" cy="2107.403" r="3.11"/>
		<circle fill="#FFFFFF" cx="2771.21" cy="2115.895" r="1.197"/>
		<circle fill="#FFFFFF" cx="2717.311" cy="2107.225" r="3.11"/>
		<circle fill="#FFFFFF" cx="2710.632" cy="2115.716" r="1.197"/>
	</g>
</svg>
