<?xml version="1.0" encoding="UTF-8"?>
<svg version="1.1" xmlns="http://www.w3.org/2000/svg" viewBox="2124.15 782.37 312.06 221.57">
<g>
		<g>
			<path fill="#97EBFF" d="M2066.493,963.601c0,0,1.743-56.107,54.674-59.189c0,0,8.798-51.573,55.44-50.907
				c0,0,9.443-62.951,67.23-57.713c0,0,49.817,9.891,47.16,55.056c0,0,53.136,1.515,58.448,53.564c0,0,51.811,3.557,56.459,55.367
				c0,0,49.152,7.307,56.458,51.146c0,0,5.313,73.726-67.085,60.441c0,0-36.865,51.026-88.507,1.601l-27.065-0.271
				c0,0-40.518,47.16-85.684,1.993l-24.735-1.329c0,0-47.164,48.487-88.928-0.664c0,0-53.055,14.173-67.003-35.089
				c0,0-7.306-33.325,6.643-49.932C2019.999,987.674,2036.604,961.449,2066.493,963.601z"/>
			<path fill="#56C1CC" d="M2024.678,981.753c0,0,8.771,53.854,77.519,24.907c0,0,21.622,42.258,70.589,15.123
				c0,0,35.182,46.593,98.616,5.246c0,0,31.053,36.365,75.887,0.996c0,0,29.393,26.402,57.787-9.466
				c0,0,31.728,19.077,53.973-19.604c0,0,12.613,87.854-63.77,72.41c0,0-45.832,49.034-88.507,1.601l-27.065-0.271
				c0,0-50.149,44.67-85.684,1.993l-24.735-1.329c0,0-46.981,48.719-85.93,2.688c0,0-57.215,8.001-70.001-38.44
				C2013.356,1037.606,2005.444,992.268,2024.678,981.753z"/>
			<g>
				<path fill="#D4FBFF" d="M2267.89,829.106c-2.092,4.081-8.765-2.624-18.641-7.684c-9.877-5.059-19.215-6.559-17.125-10.639
					c2.092-4.082,11.793-3.289,21.668,1.771C2263.669,817.614,2269.979,825.025,2267.89,829.106z"/>
				<circle fill="#D4FBFF" cx="2271.239" cy="834.268" r="3.902"/>
			</g>
			<g>
				<path fill="#D4FBFF" d="M2324.836,886.56c-2.09,4.081-8.763-2.625-18.639-7.685s-19.217-6.557-17.126-10.638
					c2.091-4.083,11.792-3.288,21.669,1.771C2320.617,875.068,2326.927,882.478,2324.836,886.56z"/>
				<circle fill="#D4FBFF" cx="2328.185" cy="891.722" r="3.902"/>
			</g>
			<g>
				<path fill="#D4FBFF" d="M2380.963,937.987c-2.09,4.08-8.763-2.624-18.641-7.684c-9.877-5.061-19.217-6.559-17.125-10.64
					c2.09-4.081,11.791-3.288,21.669,1.772C2376.741,926.496,2383.053,933.906,2380.963,937.987z"/>
				<circle fill="#D4FBFF" cx="2384.311" cy="943.148" r="3.902"/>
			</g>
		</g>
		<path fill="#FFB959" d="M2232.614,1110.073c-2,2-69.291,68.406-69.291,68.406l73.624,3.625c0,0-25.667,37.811-23.667,37.223
			s93.726-59.921,93.726-59.921l-81.059-15.335L2232.614,1110.073z"/>
		<polygon fill="#FF7676" points="2230.368,1121.528 2194.614,1164.704 2268.451,1168.41 2231.533,1202.741 2219.668,1208.154 
			2235.164,1182.104 2159.28,1176.724 2232.614,1110.073 		"/>
		<g>
			<path fill="#140F16" d="M2413.76,954.174c-2.414-20.27-14.031-38.241-31.938-48.712c-7.704-4.225-16.337-7.207-25.15-8.099
				c-2.194-12.729-7.839-24.276-16.795-33.966c-6.578-7.117-17.16,3.517-10.605,10.607c7.813,8.453,12.495,19.086,13.28,30.59
				c0.273,4.001,3.204,7.601,7.5,7.5c8.474-0.199,16.823,2.274,24.2,6.318c15.407,9.011,24.739,24.913,24.978,42.775
				c0.055,4.125,3.371,7.45,7.5,7.5c28.856,0.349,50.672,24.692,48.943,53.255c-1.803,29.78-31.927,49.989-60.192,43.638
				c-2.496-0.561-5.523-0.122-7.297,1.929c-5.181,5.988-11.11,10.502-18.256,13.913c-8.727,4.165-1.111,17.096,7.57,12.951
				c7.01-3.346,13.32-7.905,18.712-13.457c16.804,2.583,33.983-1.056,47.938-11.138c14.954-10.806,23.838-26.982,26.26-45.106
				C2475.112,989.461,2447.52,958.387,2413.76,954.174z"/>
			<path fill="#140F16" d="M2344.082,1085.231c-12.768-2.001-23.55-7.934-31.996-17.721c-1.771-2.052-4.804-2.488-7.297-1.929
				c-7.476,1.681-15.021,1.68-22.496,0c-2.492-0.56-5.527-0.124-7.297,1.929c-20.313,23.558-55.785,23.558-76.098,0
				c-1.771-2.053-4.806-2.488-7.298-1.929c-7.475,1.681-15.021,1.681-22.496,0c-2.492-0.56-5.527-0.124-7.298,1.929
				c-20.31,23.56-55.785,23.557-76.096,0c-1.771-2.053-4.806-2.488-7.298-1.929c-16.941,3.808-34.176-1.302-46.418-13.545
				c-12.462-12.463-16.542-30.95-12.045-47.753c2.504-9.357-11.966-13.323-14.465-3.988c-5.97,22.307-0.034,45.666,15.903,62.348
				c14.503,15.181,35.895,21.38,56.295,18.283c24.936,25.637,67.22,25.64,92.154-0.002c7.013,1.088,14.018,1.089,21.03,0
				c11.023,11.333,25.435,17.645,40.241,18.959c-25.846,24.727-51.69,49.454-77.536,74.181c-4.771,4.565-1.131,12.804,5.304,12.804
				c22.131,0,44.262,0,66.393,0c-16.112,16.113-32.224,32.226-48.337,48.338c-5.999,6,1.741,16.258,9.089,11.779
				c41.729-25.426,83.457-50.853,125.187-76.279c2.531-1.542,5.063-3.085,7.595-4.628c5.044-3.072,4.984-12.647-1.791-13.708
				c-26.917-4.21-53.833-8.421-80.749-12.631c6.196-14.006,12.392-28.011,18.587-42.017c0.021-0.028,0.045-0.056,0.064-0.083
				c10.387-2.956,20.137-8.517,28.11-16.716c7.017,1.09,14.026,1.089,21.043-0.001c9.644,9.93,22.291,16.619,36.026,18.773
				c4.035,0.632,8.051-0.968,9.227-5.238C2350.311,1090.857,2348.127,1085.866,2344.082,1085.231z M2293.697,1163.811
				c-20.61,12.559-41.22,25.116-61.83,37.674c5.604-5.604,11.209-11.209,16.813-16.813c4.628-4.628,1.238-12.804-5.304-12.804
				c-21.938,0-43.876,0-65.813,0c16.288-15.584,32.577-31.167,48.865-46.751c-2.462,5.566-4.925,11.133-7.388,16.7
				c-1.743,3.941-0.764,10.196,4.482,11.018C2246.915,1156.493,2270.306,1160.152,2293.697,1163.811z"/>
			<path fill="#140F16" d="M2037.043,978.949c8.63-6.743,19.25-10.103,30.122-10.26c4.125-0.06,7.45-3.367,7.5-7.5
				c0.318-26.37,22.118-49.73,49.179-49.094c4.288,0.101,7.236-3.498,7.5-7.5c1.701-25.799,23.338-45.698,49.01-46.013
				c4.125-0.051,7.45-3.374,7.5-7.5c0.326-27.026,22.067-48.767,49.094-49.094c27.03-0.327,48.773,22.559,49.095,49.094
				c0.05,4.137,3.375,7.436,7.5,7.5c6.829,0.106,13.528,1.344,19.807,4.113c3.74,1.65,8.022,1.131,10.261-2.69
				c1.889-3.223,1.052-8.61-2.69-10.261c-6.617-2.92-13.327-4.849-20.351-5.688c-3.835-31.894-30.788-56.67-63.621-57.067
				c-32.799-0.396-59.732,25.568-63.607,57.065c-28.467,3.401-51.098,25.114-56.097,53.256
				c-29.774,2.634-53.457,27.618-57.087,56.855c-12.39,1.47-23.69,6.34-33.721,14.176c-3.227,2.522-2.625,7.981,0,10.607
				C2029.589,982.101,2033.824,981.462,2037.043,978.949z"/>
			<path fill="#140F16" d="M2166.115,943.76c0,8.744,7.088,15.834,15.832,15.834c7.351,0,13.512-5.015,15.297-11.804
				c6.85,6.369,17.131-4.06,10.365-10.826c-10.489-10.488-20.979-20.978-31.467-31.467c-6.846-6.845-17.452,3.762-10.607,10.607
				c4.121,4.121,8.242,8.242,12.363,12.363C2171.12,930.26,2166.115,936.418,2166.115,943.76z"/>
			<path fill="#140F16" d="M2220.447,1008.454c0.257-9.207,7.293-16.243,16.5-16.5c9.206-0.257,16.254,7.68,16.5,16.5
				c0.27,9.652,15.27,9.679,15,0c-0.488-17.486-14.014-31.012-31.5-31.5c-17.48-0.487-31.033,14.748-31.5,31.5
				C2205.178,1018.132,2220.178,1018.106,2220.447,1008.454z"/>
			<path fill="#140F16" d="M2297.752,905.498c-10.488,10.489-20.978,20.979-31.467,31.467c-6.766,6.767,3.516,17.195,10.365,10.826
				c1.786,6.789,7.948,11.804,15.297,11.804c8.744,0,15.832-7.09,15.832-15.834c0-7.342-5.004-13.5-11.783-15.292
				c4.121-4.121,8.242-8.242,12.363-12.363C2315.204,909.259,2304.598,898.653,2297.752,905.498z"/>
		</g>
		<g>
			<circle fill="#FFFFFF" cx="2297.65" cy="937.899" r="5.792"/>
			<circle fill="#FFFFFF" cx="2285.213" cy="953.711" r="2.229"/>
		</g>
		<g>
			<circle fill="#FFFFFF" cx="2186.817" cy="937.566" r="5.792"/>
			<circle fill="#FFFFFF" cx="2174.38" cy="953.378" r="2.229"/>
		</g>
	</g>
</svg>
