<?xml version="1.0" encoding="UTF-8"?>
<svg version="1.1" xmlns="http://www.w3.org/2000/svg" viewBox="353.61 2008.99 312.6 221.7">
<g>
		<g>
			<path fill="#97EBFF" d="M296.493,2190.222c0,0,1.743-56.107,54.674-59.189c0,0,8.798-51.573,55.44-50.907
				c0,0,9.443-62.951,67.23-57.713c0,0,49.817,9.891,47.16,55.056c0,0,53.136,1.515,58.448,53.564c0,0,51.811,3.557,56.459,55.367
				c0,0,49.152,7.307,56.458,51.146c0,0,5.313,73.726-67.085,60.441c0,0-36.865,51.026-88.507,1.601l-27.065-0.271
				c0,0-40.518,47.16-85.684,1.993l-24.735-1.329c0,0-47.164,48.487-88.928-0.664c0,0-53.055,14.173-67.003-35.089
				c0,0-7.306-33.325,6.643-49.932C249.999,2214.295,266.604,2188.069,296.493,2190.222z"/>
			<path fill="#56C1CC" d="M254.678,2208.374c0,0,8.771,53.854,77.519,24.907c0,0,21.622,42.258,70.589,15.123
				c0,0,35.182,46.593,98.616,5.246c0,0,31.053,36.365,75.887,0.996c0,0,29.393,26.402,57.787-9.466
				c0,0,31.728,19.077,53.973-19.604c0,0,12.613,87.854-63.77,72.41c0,0-45.832,49.034-88.507,1.601l-27.065-0.271
				c0,0-50.149,44.67-85.684,1.993l-24.735-1.329c0,0-46.981,48.719-85.93,2.688c0,0-57.215,8.001-70.001-38.44
				C243.356,2264.227,235.444,2218.889,254.678,2208.374z"/>
			<g>
				<path fill="#D4FBFF" d="M497.89,2055.727c-2.092,4.081-8.765-2.624-18.641-7.684c-9.877-5.059-19.215-6.559-17.125-10.639
					c2.092-4.082,11.793-3.289,21.668,1.771C493.669,2044.234,499.979,2051.646,497.89,2055.727z"/>
				<circle fill="#D4FBFF" cx="501.239" cy="2060.889" r="3.902"/>
			</g>
			<g>
				<path fill="#D4FBFF" d="M554.836,2113.181c-2.09,4.081-8.763-2.625-18.639-7.685s-19.217-6.557-17.126-10.638
					c2.091-4.083,11.792-3.288,21.669,1.771C550.617,2101.688,556.927,2109.099,554.836,2113.181z"/>
				<circle fill="#D4FBFF" cx="558.185" cy="2118.343" r="3.902"/>
			</g>
			<g>
				<path fill="#D4FBFF" d="M610.963,2164.607c-2.09,4.08-8.763-2.624-18.641-7.684c-9.877-5.061-19.217-6.559-17.125-10.64
					c2.09-4.081,11.791-3.288,21.669,1.772C606.741,2153.116,613.053,2160.526,610.963,2164.607z"/>
				<circle fill="#D4FBFF" cx="614.311" cy="2169.769" r="3.902"/>
			</g>
		</g>
		<path fill="#FFB959" d="M462.614,2336.693c-2,2-69.291,68.406-69.291,68.406l73.624,3.625c0,0-25.667,37.811-23.667,37.223
			s93.726-59.921,93.726-59.921l-81.059-15.335L462.614,2336.693z"/>
		<polygon fill="#FF7676" points="460.368,2348.148 424.614,2391.324 498.451,2395.03 461.533,2429.361 449.668,2434.774 
			465.164,2408.725 389.28,2403.345 462.614,2336.693 		"/>
		<g>
			<path fill="#140F16" d="M643.636,2180.861c-2.414-20.27-14.031-38.241-31.938-48.712c-7.704-4.225-16.337-7.207-25.15-8.099
				c-2.194-12.729-7.839-24.276-16.795-33.966c-6.578-7.117-17.16,3.517-10.605,10.607c7.813,8.453,12.495,19.086,13.28,30.59
				c0.273,4.001,3.204,7.601,7.5,7.5c8.474-0.199,16.823,2.274,24.2,6.318c15.407,9.011,24.739,24.913,24.978,42.775
				c0.055,4.125,3.371,7.45,7.5,7.5c28.856,0.349,50.672,24.692,48.943,53.255c-1.803,29.78-31.927,49.989-60.192,43.638
				c-2.496-0.561-5.523-0.122-7.297,1.929c-5.181,5.988-11.11,10.502-18.256,13.913c-8.727,4.165-1.111,17.096,7.57,12.951
				c7.01-3.346,13.32-7.905,18.712-13.457c16.804,2.583,33.983-1.056,47.938-11.138c14.954-10.806,23.838-26.982,26.26-45.106
				C704.988,2216.148,677.396,2185.074,643.636,2180.861z"/>
			<path fill="#140F16" d="M546.888,2379.057c-26.917-4.21-53.833-8.421-80.749-12.631c6.196-14.006,12.392-28.011,18.587-42.017
				c0.021-0.028,0.045-0.056,0.064-0.083c10.387-2.956,20.137-8.517,28.11-16.716c7.017,1.09,14.026,1.089,21.043-0.001
				c9.644,9.93,22.291,16.619,36.026,18.773c4.035,0.632,8.051-0.968,9.227-5.238c0.99-3.601-1.193-8.592-5.238-9.227
				c-12.768-2.001-23.55-7.934-31.996-17.721c-1.771-2.052-4.804-2.488-7.297-1.929c-7.476,1.681-15.021,1.68-22.496,0
				c-2.492-0.56-5.527-0.124-7.297,1.929c-20.313,23.558-55.784,23.558-76.097,0c-1.771-2.053-4.807-2.488-7.299-1.929
				c-7.475,1.681-15.021,1.681-22.496,0c-2.492-0.56-5.527-0.124-7.297,1.929c-20.31,23.56-55.786,23.557-76.097,0
				c-1.77-2.053-4.805-2.488-7.297-1.929c-16.941,3.808-34.176-1.302-46.418-13.545c-12.463-12.463-16.543-30.95-12.045-47.753
				c2.504-9.357-11.967-13.323-14.465-3.988c-5.971,22.307-0.035,45.666,15.902,62.348c14.504,15.181,35.895,21.38,56.295,18.283
				c24.936,25.637,67.221,25.64,92.155-0.002c7.012,1.088,14.018,1.089,21.029,0c11.023,11.333,25.436,17.645,40.242,18.959
				c-25.846,24.727-51.691,49.454-77.537,74.181c-4.771,4.565-1.131,12.804,5.305,12.804c22.131,0,44.262,0,66.393,0
				c-16.113,16.113-32.225,32.226-48.338,48.338c-5.998,6,1.742,16.258,9.09,11.779c41.729-25.426,83.456-50.853,125.186-76.279
				c2.531-1.542,5.063-3.085,7.595-4.628C553.723,2389.692,553.663,2380.117,546.888,2379.057z M461.744,2428.172
				c5.604-5.604,11.208-11.209,16.813-16.813c4.628-4.628,1.238-12.804-5.304-12.804c-21.938,0-43.876,0-65.813,0
				c16.289-15.584,32.578-31.167,48.865-46.751c-2.461,5.566-4.924,11.133-7.387,16.7c-1.744,3.941-0.764,10.196,4.482,11.018
				c23.391,3.658,46.781,7.317,70.173,10.977C502.963,2403.057,482.354,2415.614,461.744,2428.172z"/>
			<path fill="#140F16" d="M266.919,2205.636c8.631-6.743,19.25-10.103,30.123-10.26c4.125-0.06,7.449-3.367,7.5-7.5
				c0.318-26.37,22.117-49.73,49.178-49.094c4.289,0.101,7.236-3.498,7.5-7.5c1.701-25.799,23.339-45.698,49.011-46.013
				c4.125-0.051,7.449-3.374,7.5-7.5c0.326-27.026,22.066-48.767,49.094-49.094c27.029-0.327,48.772,22.559,49.094,49.094
				c0.05,4.137,3.375,7.436,7.5,7.5c6.829,0.106,13.528,1.344,19.807,4.113c3.74,1.65,8.022,1.131,10.261-2.69
				c1.889-3.223,1.052-8.61-2.69-10.261c-6.617-2.92-13.327-4.849-20.351-5.688c-3.835-31.894-30.788-56.67-63.62-57.067
				c-32.799-0.396-59.732,25.568-63.607,57.065c-28.468,3.401-51.099,25.114-56.097,53.256
				c-29.775,2.634-53.457,27.618-57.088,56.855c-12.389,1.47-23.689,6.34-33.721,14.176c-3.227,2.522-2.625,7.981,0,10.607
				C259.466,2208.788,263.7,2208.149,266.919,2205.636z"/>
			<path fill="#140F16" d="M427.121,2174.478c6.85,6.369,17.131-4.06,10.365-10.826c-10.49-10.488-20.979-20.978-31.467-31.467
				c-6.846-6.845-17.453,3.762-10.607,10.607c4.121,4.121,8.242,8.242,12.363,12.363c-6.779,1.792-11.783,7.95-11.783,15.292
				c0,8.744,7.088,15.834,15.832,15.834C419.174,2186.281,425.336,2181.267,427.121,2174.478z"/>
			<path fill="#140F16" d="M450.324,2235.141c0.256-9.207,7.293-16.243,16.5-16.5c9.205-0.257,16.253,7.68,16.499,16.5
				c0.27,9.652,15.27,9.679,15,0c-0.488-17.486-14.014-31.012-31.499-31.5c-17.48-0.487-31.033,14.748-31.5,31.5
				C435.055,2244.819,450.055,2244.793,450.324,2235.141z"/>
			<path fill="#140F16" d="M506.526,2174.478c1.786,6.789,7.948,11.804,15.297,11.804c8.744,0,15.832-7.09,15.832-15.834
				c0-7.342-5.004-13.5-11.783-15.292c4.121-4.121,8.242-8.242,12.363-12.363c6.845-6.846-3.762-17.452-10.607-10.607
				c-10.488,10.489-20.978,20.979-31.467,31.467C489.396,2170.418,499.677,2180.847,506.526,2174.478z"/>
			<path fill="#140F16" d="M626.53,2357.003c0,8.032,6.512,14.544,14.544,14.544c8.033,0,14.545-6.512,14.545-14.544
				c0-8.033-14.545-24.943-14.545-24.943S626.53,2348.97,626.53,2357.003z"/>
			<path fill="#140F16" d="M564.889,2408.336c0,8.032,6.512,14.544,14.544,14.544c8.033,0,14.545-6.512,14.545-14.544
				c0-8.033-14.545-24.943-14.545-24.943S564.889,2400.303,564.889,2408.336z"/>
			<path fill="#140F16" d="M292.645,2337.259c0-8.033-14.545-24.943-14.545-24.943s-14.544,16.91-14.544,24.943
				c0,8.032,6.512,14.544,14.544,14.544C286.133,2351.803,292.645,2345.291,292.645,2337.259z"/>
			<path fill="#140F16" d="M321.556,2376.747c0,8.032,6.512,14.544,14.544,14.544c8.033,0,14.545-6.512,14.545-14.544
				c0-8.033-14.545-24.943-14.545-24.943S321.556,2368.714,321.556,2376.747z"/>
			<path fill="#140F16" d="M278.101,2433.372c0,8.032,6.512,14.544,14.543,14.544c8.033,0,14.545-6.512,14.545-14.544
				c0-8.033-14.545-24.943-14.545-24.943S278.101,2425.339,278.101,2433.372z"/>
			<path fill="#140F16" d="M356.101,2447.823c0,8.032,6.512,14.544,14.543,14.544c8.034,0,14.546-6.512,14.546-14.544
				c0-8.033-14.546-24.943-14.546-24.943S356.101,2439.79,356.101,2447.823z"/>
			<path fill="#140F16" d="M511.359,2346.813c0,8.032,6.512,14.544,14.543,14.544c8.033,0,14.545-6.512,14.545-14.544
				c0-8.033-14.545-24.943-14.545-24.943S511.359,2338.78,511.359,2346.813z"/>
			<path fill="#140F16" d="M517.198,2460.228c0,8.032,6.512,14.544,14.543,14.544c8.033,0,14.545-6.512,14.545-14.544
				c0-8.033-14.545-24.943-14.545-24.943S517.198,2452.194,517.198,2460.228z"/>
			<path fill="#140F16" d="M620.532,2440.484c0,8.032,6.512,14.544,14.543,14.544c8.033,0,14.545-6.512,14.545-14.544
				c0-8.033-14.545-24.943-14.545-24.943S620.532,2432.451,620.532,2440.484z"/>
			<path fill="#140F16" d="M540.57,2234.028c8.033,0,14.545-6.512,14.545-14.544c0-8.033-14.545-24.943-14.545-24.943
				s-14.543,16.91-14.543,24.943C526.027,2227.517,532.539,2234.028,540.57,2234.028z"/>
			<path fill="#140F16" d="M378.779,2219.484c0,8.032,6.512,14.544,14.543,14.544c8.033,0,14.545-6.512,14.545-14.544
				c0-8.033-14.545-24.943-14.545-24.943S378.779,2211.451,378.779,2219.484z"/>
		</g>
		<g>
			<circle fill="#FFFFFF" cx="527.613" cy="2164.644" r="5.792"/>
			<circle fill="#FFFFFF" cx="515.176" cy="2180.456" r="2.229"/>
		</g>
		<g>
			<circle fill="#FFFFFF" cx="416.28" cy="2164.311" r="5.792"/>
			<circle fill="#FFFFFF" cx="403.843" cy="2180.123" r="2.229"/>
		</g>
	</g>
</svg>
