<?xml version="1.0" encoding="UTF-8"?>
<svg version="1.1" xmlns="http://www.w3.org/2000/svg" viewBox="1374.62 1358.3 539.32 549.1">
<g>
		<path fill="#FFB959" d="M1580.424,1680.356l-52.417,21.949l-26.058-41.17l-54-15.724l7.333-50.673l-32.667-39.48l33.334-41.181
			l-4.667-55.644l50.237-6.356l26.487-48l49.104,20l44.813-20l28.691,45.303l50,9.054v54.311l30.667,40.447l-13.333,18.878
			l-39.001,3.982C1678.948,1576.052,1599.9,1604.307,1580.424,1680.356z"/>
		<path fill="#E0943B" d="M1451.02,1646.305l249.596-184.898v55.934l33.999,37.918l-13.472,14.541l-42.194,2.271
			c0,0-60.659,12.93-92.163,88.467l-7.572,25.268l-51.206,16.501l-26.06-44.231L1451.02,1646.305z"/>
		<circle fill="#97EBFF" cx="1721.143" cy="1714.596" r="144.796"/>
		<path fill="#56C1CC" d="M1746.82,1572.07c0,0-83.873,72.335-9.873,177.335c0,0,49.4,59.494,94.7,58.747
			c0,0,50.118-54.845,30.209-127.796C1861.856,1680.356,1844.693,1594.735,1746.82,1572.07z"/>
		<path fill="#56C1CC" d="M1585.655,1765.756c0,0,100.292,118.157,235.292,42.403l7.813,3.305c0,0-96.254,110.764-213.533,1.853
			L1585.655,1765.756z"/>
		<path fill="#D4FBFF" d="M1645.881,1631.177c-10.619,12.122-16.411,24.418-21.699,19.784c-5.289-4.633-0.968-18.216,9.649-30.338
			c10.62-12.124,23.516-18.196,28.806-13.563C1667.925,1611.692,1656.5,1619.053,1645.881,1631.177z"/>
		<circle fill="#D4FBFF" cx="1672.053" cy="1601.634" r="6.896"/>
		<path fill="#FF7676" d="M1586.785,1660.537c0,0-97.501,14.969-118.168-104.748c0,0,10.321-108.382,108.494-106.382
			c0,0,110.628,2.557,105.4,125.611C1682.512,1575.019,1606.953,1599.666,1586.785,1660.537z"/>
		<path fill="#E54E4E" d="M1498.929,1626.477c0,0,70.569-110.595,179.127-98.163l4.456,46.705c0,0-78.724,24.716-95.727,85.518
			C1586.785,1660.537,1529.244,1666.876,1498.929,1626.477z"/>
		<path fill="#FFB6B6" d="M1577.022,1468.294c1.222,5.888-10.391,2.155-23.208,4.813c-12.816,2.659-21.986,10.703-23.208,4.814
			c-1.221-5.889,8.18-12.817,20.997-15.476C1564.42,1459.788,1575.802,1462.406,1577.022,1468.294z"/>
		<circle fill="#FFB6B6" cx="1585.146" cy="1466.648" r="5.425"/>
		<polygon fill="#FFDFBD" points="1432.947,1560.905 1461.947,1523.905 1462.447,1512.905 1422.615,1547.109 		"/>
		<polygon fill="#FFDFBD" points="1454.947,1472.073 1498.929,1464.905 1509.447,1451.405 1451.531,1461.407 		"/>
		<polygon fill="#FFDFBD" points="1528.007,1415.536 1568.447,1435.905 1579.721,1429.905 1530.5,1409.905 		"/>
		<polygon fill="#FFDFBD" points="1615.227,1411.905 1637.947,1453.905 1654.947,1453.905 1623.329,1406.296 		"/>
		<g>
			<path fill="#140F16" d="M1872.702,1704.323c-0.72-9.977-2.521-19.893-5.154-29.533c-2.547-9.32-17.018-5.359-14.465,3.988
				c11.586,42.406,2.483,88.215-24.932,122.521c-27.938-5.508-53.092-19.273-72.544-39.135c-3.479-3.553-6.784-7.289-9.881-11.219
				c-6.012-7.627-11.272-15.943-15.659-24.857c-22.47-45.666-15.803-101.116,14.147-141.674c0.769-1.041,1.57-2.057,2.388-3.059
				c42.814,8.436,79.058,36.207,98.314,75.608c4.247,8.689,17.181,1.084,12.951-7.571c-10.788-22.076-26.746-40.826-46.294-55.621
				c-9.775-7.398-20.562-13.338-31.855-18.064c-5.429-2.273-10.956-4.229-16.605-5.875c-5.985-1.744-13.165-4.098-19.444-4.102
				c-3.101-0.422-6.2-0.754-9.296-0.992c1.622-1.859,3.245-3.719,4.868-5.578c1.495-1.713,2.061-3.609,1.98-5.426
				c0.083-1.818-0.482-3.719-1.98-5.434c-10.716-12.275-21.433-24.551-32.148-36.828c1.492-16.623,2.984-33.248,4.478-49.873
				c0.292-3.252-2.545-6.699-5.638-7.404c-16.165-3.684-32.33-7.369-48.495-11.055c-8.422-14.121-16.844-28.244-25.266-42.365
				c-2.34-3.926-6.633-4.414-10.505-2.756c-14.855,6.363-29.71,12.727-44.564,19.09c-14.853-6.363-29.704-12.727-44.555-19.09
				c-3.874-1.66-8.165-1.168-10.506,2.756c-8.426,14.121-16.851,28.244-25.275,42.365c-16.162,3.686-32.324,7.371-48.485,11.055
				c-3.093,0.705-5.929,4.152-5.638,7.404c1.489,16.625,2.979,33.25,4.468,49.873c-10.717,12.275-21.434,24.553-32.149,36.828
				c-2.896,3.318-2.896,7.541,0,10.859c10.716,12.275,21.433,24.551,32.148,36.828c-1.488,16.621-2.978,33.24-4.467,49.861
				c-0.291,3.252,2.545,6.7,5.638,7.405c16.161,3.686,32.323,7.371,48.485,11.055c8.425,14.123,16.85,28.244,25.275,42.367
				c2.341,3.924,6.632,4.414,10.506,2.754c12.988-5.564,25.977-11.129,38.966-16.695c-2.181,14.057-2.436,28.441-0.593,42.666
				c0.525,4.055,3.015,7.5,7.5,7.5c3.689,0,8.026-3.434,7.5-7.5c-2.745-21.193-0.725-42.328,5.674-62
				c11.17-33.542,34.62-61.555,66.078-78.473c18.589-9.998,39.537-15.107,60.579-15.689c0.509-0.014,0.997-0.096,1.474-0.211
				c3.264-0.049,6.531,0.008,9.797,0.193c-0.041,0.057-0.084,0.121-0.123,0.176c-4.023,5.574-7.55,11.492-10.735,17.578
				c-6.273,11.986-10.826,24.898-13.678,38.111c-4.598,21.303-4.371,43.575,0.313,64.838c0.004,0.018,0.008,0.035,0.012,0.053
				c0.346,1.576,0.719,3.15,1.117,4.719c0.007,0.025,0.012,0.049,0.019,0.072c0.475,1.867,0.972,3.729,1.516,5.574
				c0.325,1.107,0.69,2.195,1.042,3.291c0.067,0.209,0.125,0.418,0.193,0.627c0.021,0.064,0.045,0.127,0.066,0.191
				c0.475,1.453,0.979,2.891,1.497,4.322c0.103,0.283,0.203,0.566,0.308,0.848c0.514,1.393,1.051,2.771,1.606,4.143
				c0.129,0.318,0.259,0.639,0.39,0.955c0.551,1.334,1.12,2.658,1.709,3.973c0.158,0.352,0.32,0.703,0.48,1.055
				c0.584,1.273,1.18,2.541,1.799,3.797c0.192,0.391,0.393,0.777,0.588,1.166c0.609,1.209,1.226,2.412,1.867,3.602
				c0.239,0.445,0.49,0.885,0.734,1.328c0.622,1.125,1.244,2.248,1.894,3.355c0.326,0.557,0.67,1.104,1.003,1.656
				c0.593,0.98,1.179,1.965,1.793,2.932c0.962,1.516,1.949,3.014,2.963,4.492c0.113,0.166,0.222,0.336,0.337,0.5
				c0.328,0.477,0.671,0.941,1.005,1.412c1.401,1.977,2.844,3.926,4.338,5.832c-19.952,11.389-45.198,12.299-66.582,0.211
				c-8.432-4.768-15.989,8.191-7.57,12.951c27.068,15.301,59.248,13.596,84.075-1.719c13.091,13.682,28.698,24.969,45.987,33.152
				c1.062,0.504,2.13,0.99,3.203,1.471c0.715,0.318,1.433,0.629,2.152,0.939c0.261,0.111,0.522,0.223,0.784,0.334
				c0.583,0.246,1.16,0.504,1.746,0.744c1.086,0.445,2.183,0.863,3.281,1.273c0.175,0.066,0.349,0.137,0.523,0.203
				c0.334,0.125,0.673,0.24,1.008,0.363c3.406,1.25,6.862,2.355,10.358,3.322c0.116,0.033,0.232,0.07,0.35,0.104
				c1.094,0.307,2.236,0.639,3.398,0.971c-33.267,31.631-80.391,45.291-125.817,34.93c-44.601-10.17-81.931-43.441-97.63-86.33
				c-0.802-2.191-1.518-4.412-2.211-6.639c-2.868-9.203-17.35-5.273-14.465,3.988c14.127,45.34,48.501,81.408,92.851,98.178
				c47.796,18.074,103.595,9.23,144.077-21.604c8.525-6.492,16.314-13.779,23.318-21.893c3.729-2.998,6.739-8.402,8.98-11.508
				c4.023-5.574,7.55-11.494,10.735-17.58C1869.167,1760.771,1874.72,1732.312,1872.702,1704.323z M1714.659,1564.026
				c-8.594,0.434-17.053,1.568-25.318,3.377c4.961-44.061-15.754-87.607-54.348-110.979
				c-41.154-24.922-94.312-19.395-130.977,10.887c-17.829,14.725-30.501,35.48-36.448,57.73c-2.501,9.357,11.97,13.324,14.465,3.988
				c12.063-45.137,54.135-75.494,100.683-73.363c44.682,2.047,81.995,36.186,90.841,79.42c2.457,12.012,2.296,24.584,0.084,36.635
				c-0.053,0.018-0.104,0.037-0.156,0.055c-17.474,5.84-33.851,14.807-48.526,26.623c-17.677,14.236-31.736,32.725-41.3,53.284
				c-26.903,1.447-53.11-7.387-73.169-25.788c-20.177-18.51-31.41-44.887-31.588-72.164c-0.063-9.67-15.063-9.676-15,0
				c0.205,31.332,13.137,61.289,35.981,82.77c20.942,19.694,49.118,30.413,77.662,30.358c-0.903,2.639-1.733,5.299-2.492,7.98
				c-0.595,0.129-1.208,0.318-1.849,0.592c-0.974,0.418-1.947,0.834-2.92,1.252c-5.586,2.393-11.171,4.785-16.756,7.178
				c-7.226,3.096-14.449,6.191-21.674,9.287c-3.35-5.613-6.698-11.229-10.048-16.842c-3.093-5.184-6.185-10.367-9.277-15.551
				c-1.632-2.736-3.123-6.328-5.418-8.623c-2.437-2.436-6.83-2.76-10.019-3.487c-6.029-1.375-12.058-2.75-18.087-4.125
				c-6.822-1.555-13.646-3.109-20.468-4.666c0.619-6.908,1.238-13.818,1.857-20.727c0.539-6.027,1.08-12.057,1.62-18.084
				c0.266-2.967,1.226-6.719,0.41-9.684c-0.86-3.129-4.474-6.252-6.549-8.629c-3.919-4.488-7.837-8.977-11.755-13.465
				c-4.521-5.18-9.041-10.357-13.561-15.535c4.301-4.928,8.603-9.855,12.903-14.783c3.98-4.559,7.96-9.117,11.94-13.678
				c2.187-2.504,6.109-5.857,7.021-9.168c0.803-2.918-0.134-6.594-0.396-9.514c-0.53-5.924-1.061-11.85-1.592-17.773
				c-0.634-7.072-1.267-14.145-1.9-21.219c6.502-1.482,13.004-2.965,19.505-4.447c5.885-1.34,11.771-2.682,17.655-4.023
				c3.069-0.701,7.071-0.971,9.859-2.605c2.863-1.678,4.604-5.854,6.238-8.594c3.168-5.311,6.337-10.621,9.505-15.932
				c3.518-5.896,7.035-11.793,10.554-17.689c6.021,2.58,12.043,5.16,18.064,7.74c5.47,2.342,10.939,4.686,16.409,7.029
				c2.994,1.283,7.454,4.004,10.773,4.004c3.126,0,7.293-2.512,10.129-3.727c5.687-2.436,11.372-4.871,17.059-7.307
				c6.022-2.58,12.046-5.16,18.069-7.74c3.348,5.613,6.695,11.227,10.043,16.842c3.092,5.184,6.183,10.367,9.274,15.551
				c1.632,2.734,3.121,6.328,5.416,8.623c2.437,2.436,6.831,2.76,10.021,3.486c6.029,1.375,12.06,2.748,18.09,4.123
				c6.824,1.557,13.648,3.111,20.473,4.668c-0.605,6.744-1.211,13.488-1.816,20.232c-0.54,6.012-1.08,12.021-1.619,18.033
				c-0.28,3.121-1.32,7.117-0.462,10.238c0.86,3.127,4.474,6.252,6.549,8.629c3.919,4.488,7.837,8.977,11.755,13.465
				c4.521,5.178,9.041,10.357,13.562,15.535C1720.648,1557.163,1717.654,1560.594,1714.659,1564.026z"/>
			<circle fill="#140F16" cx="1615.227" cy="1528.314" r="10.974"/>
			<circle fill="#140F16" cx="1538.981" cy="1528.314" r="10.974"/>
			<path fill="#140F16" d="M1543.569,1584.983c0.517,4.055,3.021,7.5,7.5,7.5c3.696,0,8.018-3.434,7.5-7.5
				c-1.517-11.908,6.063-22.537,18.534-22.863c12.537-0.326,19.994,11.463,18.53,22.883c-0.521,4.064,3.806,7.5,7.5,7.5
				c4.481,0,6.98-3.447,7.5-7.5c2.59-20.205-13.652-37.363-33.53-37.883C1557.146,1546.598,1541.096,1565.563,1543.569,1584.983z"/>
			<circle fill="#140F16" cx="1676.132" cy="1691.331" r="10.975"/>
		</g>
		<g>
			<circle fill="#FFFFFF" cx="1679" cy="1687.372" r="3.744"/>
			<circle fill="#FFFFFF" cx="1670.959" cy="1697.594" r="1.441"/>
		</g>
		<g>
			<circle fill="#FFFFFF" cx="1618.387" cy="1524.355" r="3.744"/>
			<circle fill="#FFFFFF" cx="1610.347" cy="1534.577" r="1.441"/>
		</g>
		<g>
			<circle fill="#FFFFFF" cx="1543.387" cy="1523.38" r="3.744"/>
			<circle fill="#FFFFFF" cx="1535.347" cy="1533.602" r="1.441"/>
		</g>
	</g>
</svg>
