<?xml version="1.0" encoding="UTF-8"?>
<svg xmlns="http://www.w3.org/2000/svg" version="1.1" viewBox="166.86 1348.48 599.04 599.04" width="320" height="320"><g>
		<g>
			<path fill="#97EBFF" d="M297.804,1602.812c0,0,1.736-55.878,54.449-58.946c0,0,8.763-51.362,55.213-50.699     c0,0,9.406-62.693,66.957-57.476c0,0,49.612,9.848,46.967,54.828c0,0,52.917,1.509,58.209,53.347c0,0,51.599,3.542,56.229,55.14     c0,0,48.95,7.276,56.227,50.936c0,0,5.291,73.423-66.812,60.196c0,0-36.714,50.817-88.145,1.594l-26.954-0.271     c0,0-40.352,46.966-85.333,1.983l-24.633-1.323c0,0-46.971,48.289-88.564-0.66c0,0-52.838,14.113-66.729-34.947     c0,0-7.275-33.188,6.616-49.726C251.499,1626.787,268.037,1600.668,297.804,1602.812z" />
			<path fill="#56C1CC" d="M256.159,1620.89c0,0,8.735,53.633,77.2,24.805c0,0,21.535,42.085,70.301,15.062     c0,0,35.037,46.402,98.212,5.225c0,0,30.926,36.216,75.576,0.992c0,0,29.271,26.294,57.551-9.427     c0,0,31.597,18.999,53.751-19.526c0,0,12.562,87.495-63.509,72.116c0,0-45.644,48.832-88.145,1.594l-26.954-0.271     c0,0-49.944,44.486-85.333,1.983l-24.633-1.323c0,0-46.79,48.52-85.578,2.678c0,0-56.981,7.968-69.715-38.285     C244.883,1676.513,237.005,1631.361,256.159,1620.89z" />
			<g>
				<path fill="#D4FBFF" d="M498.375,1468.868c-2.083,4.064-8.73-2.613-18.564-7.652c-9.836-5.038-19.137-6.531-17.055-10.596      s11.744-3.274,21.579,1.765C494.171,1457.422,500.455,1464.803,498.375,1468.868z" />
				<circle fill="#D4FBFF" cx="501.709" cy="1474.008" r="3.886" />
			</g>
			<g>
				<path fill="#D4FBFF" d="M555.088,1526.086c-2.081,4.064-8.727-2.613-18.563-7.652s-19.138-6.531-17.056-10.595      c2.082-4.065,11.743-3.274,21.579,1.765C550.886,1514.642,557.17,1522.022,555.088,1526.086z" />
				<circle fill="#D4FBFF" cx="558.423" cy="1531.227" r="3.886" />
			</g>
			<g>
				<path fill="#D4FBFF" d="M610.985,1577.302c-2.083,4.063-8.729-2.613-18.565-7.652c-9.835-5.039-19.138-6.531-17.055-10.597      c2.082-4.063,11.743-3.273,21.581,1.766C606.78,1565.858,613.065,1573.238,610.985,1577.302z" />
				<circle fill="#D4FBFF" cx="614.319" cy="1582.443" r="3.886" />
			</g>
		</g>
		<path fill="#FFB959" d="M406.713,1625.965c0,0-38.766,24.439-5.766,46.44h126.252c0,0,39.748-13.879,3.748-46.44H406.713z" />
		<polygon fill="#FF7676" points="388.093,1656.634 545.091,1656.634 529.884,1671.27 400.947,1672.405   " />
		<path fill="#FFDFBD" d="M513.447,1641.655c0,2.348-1.902,4.25-4.25,4.25h-26.152c-2.348,0-4.25-1.902-4.25-4.25l0,0    c0-2.348,1.902-4.25,4.25-4.25h26.152C511.545,1637.405,513.447,1639.307,513.447,1641.655L513.447,1641.655z" />
		<circle fill="#FFDFBD" cx="519.448" cy="1641.572" r="4.333" />
		<g>
			<path fill="#140F16" d="M336.732,1539.952c-0.371,1.289-1.059,2.331-1.948,3.123c1.261-0.439,2.542-0.854,3.841-1.23     C337.994,1541.213,337.363,1540.583,336.732,1539.952z" />
			<circle fill="#140F16" cx="521.946" cy="1586.615" r="15.833" />
			<circle fill="#140F16" cx="411.948" cy="1586.615" r="15.833" />
			<path fill="#140F16" d="M574.963,1727.703c-13.11-1.289-24.58-7.866-33.108-17.75c-1.775-2.056-4.802-2.481-7.298-1.929     c-7.47,1.657-14.937,1.657-22.406,0c-2.497-0.554-5.522-0.127-7.298,1.929c-20.255,23.469-55.567,23.468-75.823,0     c-1.775-2.056-4.801-2.482-7.297-1.929c-7.47,1.658-14.938,1.657-22.407,0c-2.496-0.554-5.522-0.127-7.297,1.929     c-20.255,23.468-55.567,23.468-75.821,0c-1.775-2.056-4.801-2.482-7.297-1.929c-19.035,4.224-37.683-2.759-49.957-17.689     c-2.599-3.161-7.928-2.679-10.605,0c-3.1,3.1-2.594,7.452,0,10.607c14.661,17.835,37.395,25.781,59.828,22.42     c24.881,25.557,67.011,25.555,91.889-0.006c6.988,1.072,13.941,1.073,20.93,0.001c24.881,25.562,67.015,25.563,91.896-0.001     c6.991,1.072,13.944,1.072,20.934,0c10.97,11.284,25.4,17.799,41.14,19.347C584.589,1743.649,584.497,1728.641,574.963,1727.703z     " />
			<path fill="#140F16" d="M652.226,1598.779c1.387-1.388,2.774-2.774,4.161-4.161c1.928,6.682,12.451,6.682,14.379,0     c3.378,3.378,6.756,6.756,10.134,10.134c6.846,6.845,17.452-3.762,10.607-10.607c-3.378-3.378-6.756-6.756-10.134-10.134     c6.68-1.929,6.679-12.45-0.001-14.378c3.378-3.378,6.757-6.757,10.135-10.135c6.845-6.846-3.762-17.452-10.607-10.607     c-3.378,3.378-6.756,6.756-10.135,10.134c-1.929-6.678-12.448-6.678-14.377,0c-3.379-3.378-6.757-6.756-10.135-10.134     c-6.846-6.845-17.452,3.762-10.607,10.607c3.378,3.378,6.757,6.757,10.135,10.135c-6.68,1.928-6.681,12.449-0.001,14.378     c-1.403,1.403-2.807,2.807-4.209,4.209c-2.879-11.171-8.648-21.383-17.011-29.821c-5.9-5.953-13.233-10.571-20.982-13.686     c-5.063-2.035-11.335-4.058-17.308-4.649c-1.207-6.938-3.428-13.551-6.757-19.942c-4.469-8.582-17.413-0.997-12.951,7.57     c3.237,6.218,5.141,12.895,5.62,19.892c0.251,3.665,3.244,8.044,7.5,7.5c12.158-1.555,25.823,5.872,34.271,13.922     c9.564,9.114,14.519,21.908,14.723,34.989c0.064,4.125,3.363,7.45,7.5,7.5c28.753,0.348,50.494,24.596,48.771,53.058     c-1.8,29.73-31.802,49.722-59.975,43.473c-2.498-0.554-5.521-0.126-7.298,1.929c-4.017,4.646-8.449,8.449-13.737,11.575     c-8.317,4.918-0.775,17.888,7.57,12.953c5.225-3.09,9.992-6.807,14.203-11.138c36.53,5.441,70.049-20.134,74.121-57.427     C703.268,1634.45,681.169,1606.728,652.226,1598.779z" />
			<path fill="#140F16" d="M248.797,1660.404c0.389-26.97,21.939-48.521,48.91-48.911c4.127-0.06,7.446-3.367,7.5-7.5     c0.166-12.927,5.014-24.887,13.963-34.227c8.248-8.606,22.746-16.256,35.033-14.685c4.248,0.543,7.258-3.834,7.5-7.5     c1.689-25.706,23.25-45.533,48.828-45.847c4.133-0.051,7.439-3.374,7.5-7.5c0.385-26.276,20.979-47.796,47.319-48.888     c27.571-1.144,50.111,21.804,50.503,48.888c0.06,4.137,3.367,7.435,7.5,7.5c7.486,0.117,14.684,1.657,21.447,4.919     c8.671,4.18,16.282-8.753,7.57-12.953c-7.068-3.407-14.365-5.582-22.004-6.486c-3.878-31.829-30.636-56.415-63.426-56.89     c-32.748-0.474-59.475,25.516-63.407,56.881c-25.415,3.038-46.169,20.711-53.812,44.521c-0.795-0.794-1.588-1.588-2.383-2.383     c6.68-1.929,6.68-12.45-0.002-14.378c3.379-3.378,6.757-6.757,10.135-10.135c6.846-6.846-3.761-17.452-10.605-10.607     c-3.379,3.378-6.757,6.757-10.135,10.135c-1.93-6.679-12.449-6.679-14.379,0c-3.378-3.378-6.756-6.757-10.135-10.135     c-6.845-6.845-17.451,3.762-10.605,10.607c3.378,3.378,6.756,6.757,10.135,10.135c-6.682,1.928-6.682,12.449-0.002,14.378     c-3.378,3.378-6.756,6.756-10.133,10.134c-6.846,6.846,3.761,17.452,10.605,10.607c3.379-3.378,6.756-6.756,10.135-10.134     c0.99,3.436,4.25,5.104,7.453,5.007c-0.777,0.316-1.545,0.634-2.285,0.95c-7.1,3.03-13.508,7.836-18.957,13.252     c-10.186,10.124-16.243,23.689-17.891,37.821c-31.824,3.883-56.403,30.636-56.877,63.422     C233.656,1670.082,248.656,1670.068,248.797,1660.404z M336.732,1539.952c0.631,0.631,1.262,1.262,1.893,1.893     c-1.299,0.376-2.58,0.791-3.841,1.23C335.674,1542.283,336.361,1541.241,336.732,1539.952z" />
			<path fill="#140F16" d="M380.465,1655.179c1.824,12.095,10.955,21.601,22.611,24.807c3.83,1.053,7.842,0.92,11.772,0.92     c28.325,0,56.649,0,84.975,0c7.847,0,15.693,0,23.54,0c12.449,0,23.646-7.798,28.293-19.249     c4.683-11.537,1.497-24.582-7.195-33.274c-8.79-8.79-20.3-8.478-31.685-8.478c-8.943,0-17.886,0-26.829,0     c-24.094,0-48.189,0-72.283,0c-6.56,0-12.652,0.946-18.527,4.164C384.207,1630.057,378.65,1643.143,380.465,1655.179z      M399.115,1639.914c3.898-4.367,9.113-5.009,14.549-5.009c5.77,0,11.538,0,17.307,0c15.229,0,30.458,0,45.687,0     c3.097,0,6.193,0,9.29,0c11.954,0,23.908,0,35.861,0c8.016,0,14.477,4.057,16.67,12.032c2.629,9.557-5.614,18.968-15.127,18.968     c-24.049,0-48.097,0-72.146,0c-12.254,0-24.508,0-36.762,0c-3.649,0-7.153,0.146-10.581-1.482     C394.466,1659.957,392.295,1647.553,399.115,1639.914z" />
			<path fill="#140F16" d="M338.916,1766.621c-4.777,0-9.554,0-14.33,0c3.365-6.093-4.078-13.534-10.17-10.167     c0-4.777,0-9.555,0-14.333c0-9.673-15-9.673-15,0c0,4.777,0,9.555,0,14.332c-6.092-3.364-13.532,4.076-10.168,10.168     c-4.777,0-9.555,0-14.332,0c-9.673,0-9.673,15,0,15c4.777,0,9.556,0,14.334,0c-3.367,6.092,4.074,13.534,10.166,10.17     c0,4.776,0,9.554,0,14.33c0,9.673,15,9.673,15,0c0-4.777,0-9.555,0-14.331c6.092,3.367,13.536-4.076,10.168-10.169     c4.777,0,9.555,0,14.332,0C348.589,1781.621,348.589,1766.621,338.916,1766.621z" />
			<path fill="#140F16" d="M443.948,1818.254c-4.776,0-9.554,0-14.331,0c3.365-6.093-4.077-13.534-10.169-10.167     c0-4.777,0-9.555,0-14.333c0-9.673-15-9.673-15,0c0,4.777,0,9.555,0,14.332c-6.091-3.364-13.532,4.076-10.167,10.168     c-4.777,0-9.556,0-14.333,0c-9.673,0-9.673,15,0,15c4.778,0,9.556,0,14.333,0c-3.367,6.092,4.075,13.534,10.167,10.17     c0,4.776,0,9.554,0,14.33c0,9.673,15,9.673,15,0c0-4.777,0-9.555,0-14.331c6.093,3.367,13.536-4.076,10.169-10.169     c4.777,0,9.554,0,14.331,0C453.621,1833.254,453.621,1818.254,443.948,1818.254z" />
			<path fill="#140F16" d="M553.946,1766.62c-4.776,0-9.554,0-14.33,0c3.364-6.092-4.078-13.533-10.17-10.167     c0-4.777,0-9.556,0-14.333c0-9.673-15-9.673-15,0c0,4.777,0,9.555,0,14.332c-6.092-3.364-13.532,4.076-10.168,10.168     c-4.777,0-9.555,0-14.332,0c-9.673,0-9.673,15,0,15c4.777,0,9.556,0,14.333,0c-3.366,6.092,4.075,13.534,10.167,10.17     c0,4.776,0,9.554,0,14.33c0,9.673,15,9.673,15,0c0-4.777,0-9.555,0-14.331c6.093,3.366,13.536-4.077,10.169-10.169     c4.777,0,9.554,0,14.331,0C563.619,1781.62,563.619,1766.62,553.946,1766.62z" />
			<path fill="#140F16" d="M661.947,1807.252c-4.776,0-9.554,0-14.33,0c3.364-6.092-4.078-13.533-10.17-10.167     c0-4.777,0-9.556,0-14.333c0-9.673-15-9.673-15,0c0,4.777,0,9.555,0,14.332c-6.092-3.364-13.532,4.076-10.168,10.168     c-4.777,0-9.555,0-14.332,0c-9.673,0-9.673,15,0,15c4.777,0,9.556,0,14.333,0c-3.366,6.092,4.075,13.534,10.167,10.17     c0,4.776,0,9.554,0,14.33c0,9.673,15,9.673,15,0c0-4.777,0-9.554,0-14.331c6.093,3.367,13.536-4.076,10.169-10.169     c4.776,0,9.554,0,14.331,0C671.62,1822.252,671.62,1807.252,661.947,1807.252z" />
		</g>
		<g>
			<circle fill="#FFFFFF" cx="526.384" cy="1580.427" r="5.792" />
			<circle fill="#FFFFFF" cx="513.946" cy="1596.24" r="2.229" />
		</g>
		<g>
			<circle fill="#FFFFFF" cx="417.717" cy="1580.49" r="5.792" />
			<circle fill="#FFFFFF" cx="405.28" cy="1596.302" r="2.229" />
		</g>
	</g>
	</svg>