<?xml version="1.0" encoding="UTF-8"?>
<svg version="1.1" xmlns="http://www.w3.org/2000/svg" viewBox="836.95 1373.41 416 266">
<g>
		<ellipse fill="#FFB959" cx="1044.947" cy="1464.905" rx="160" ry="43.5"/>
		<path fill="#FF7676" d="M925.695,1493.907c0,0,120.252-50.498,226.752,0C1152.447,1493.907,1029.943,1527.409,925.695,1493.907z"
			/>
		<path fill="#E0943B" d="M1084.614,1445.406c0,0,64.666,2.449,78,26.058C1162.614,1471.463,1139.614,1453.74,1084.614,1445.406z"/>
		<path fill="#E0943B" d="M921.292,1471.463c0,0,37.324-22.059,88.657-21.393C1009.949,1450.071,957.302,1440.19,921.292,1471.463z"
			/>
		<path fill="#E54E4E" d="M984.616,1490.129c0,0,44-8.607,79.333,0C1063.949,1490.129,1025.623,1473.073,984.616,1490.129z"/>
		<path fill="#97EBFF" d="M895.281,1486.339c0,0,54,76.399,62.667,86.399c0,0,38,45.999,34,108.667c0,0,8.247,96.665,47.123,142.665
			c0,0-8.148-62.301,24.878-94.306c0,0,69.998-86.605,81.998-118.149l51.098-129.067
			C1197.045,1482.548,1035.282,1538.607,895.281,1486.339z"/>
		<path fill="#56C1CC" d="M1098.672,1684.906c0,0-61.873,41.354-97.966,49.594l34.574,89.57c0,0,8.72-69.636,18.694-81.971
			L1098.672,1684.906z"/>
		<path fill="#56C1CC" d="M1039.071,1513.407c0,0,66.27,10,119.24,0c0,0,9.111,30.756-9.029,78l25.397-35.617l24.771-79.552
			C1199.45,1476.238,1112.193,1514.74,1039.071,1513.407z"/>
		<path fill="#D4FBFF" d="M1009.949,1664.938c0,0,14.46,16.468,44.563,14.468
			C1054.512,1679.406,1023.284,1690.471,1009.949,1664.938z"/>
		<path fill="#D4FBFF" d="M1004.137,1642.661c0,0,29.947,30.245,81.879,20.245
			C1086.016,1662.905,1041.326,1667.417,1004.137,1642.661z"/>
		<path fill="#D4FBFF" d="M949.447,1517.405c0,0,47.5,20.928,119,13.464C1068.447,1530.869,1003.613,1548.47,949.447,1517.405z"/>
		<path fill="#D4FBFF" d="M1134.947,1591.407c0,0-19.5,12.998-59.5,4.498C1075.447,1595.905,1114.272,1611.105,1134.947,1591.407z"
			/>
		<g>
			<path fill="#140F16" d="M993.707,1532.456c-6.846-6.845-17.452,3.762-10.607,10.607c4.121,4.121,8.242,8.242,12.363,12.363
				c-6.778,1.792-11.783,7.95-11.783,15.292c0,8.744,7.088,15.834,15.832,15.834c7.351,0,13.512-5.015,15.297-11.804
				c6.85,6.369,17.131-4.06,10.365-10.826C1014.685,1553.434,1004.195,1542.945,993.707,1532.456z"/>
			<path fill="#140F16" d="M1038.012,1635.412c0.257-9.207,7.293-16.243,16.5-16.5c9.206-0.257,16.254,7.68,16.5,16.5
				c0.27,9.652,15.27,9.679,15,0c-0.488-17.486-14.014-31.012-31.5-31.5c-17.48-0.487-31.033,14.748-31.5,31.5
				C1022.742,1645.09,1037.742,1645.064,1038.012,1635.412z"/>
			<path fill="#140F16" d="M1125.344,1570.718c0-7.342-5.004-13.5-11.783-15.292c4.121-4.121,8.242-8.242,12.363-12.363
				c6.845-6.846-3.762-17.452-10.607-10.607c-10.488,10.489-20.978,20.979-31.467,31.467c-6.766,6.767,3.516,17.195,10.365,10.826
				c1.786,6.789,7.948,11.804,15.297,11.804C1118.256,1586.552,1125.344,1579.462,1125.344,1570.718z"/>
			<path fill="#140F16" d="M1095.692,1677.244c-16.777,18.742-36.979,35.28-48.725,57.944
				c-11.522,22.234-14.104,47.687-13.34,72.817c-16.038-31.967-27.847-65.811-32.327-101.616c-4-31.975-2.052-64.875-13.59-95.5
				c-7.638-20.27-19.71-38.258-32.922-55.273c-2.513-3.234-7.988-2.618-10.607,0c-3.159,3.16-2.505,7.381,0,10.607
				c16.407,21.129,29.639,43.925,35.28,70.259c2.701,12.609,3.286,25.746,4.18,39.542c1.093,16.889,2.647,33.724,5.688,50.387
				c3.939,21.595,10.586,42.587,19.06,62.815c8.181,19.532,17.992,38.287,28.87,56.447c3.565,5.954,14.831,3.985,13.976-3.785
				c-3.594-32.638-6.313-70.187,9.077-99.884c10.846-20.928,30.048-36.347,45.988-54.152
				C1112.729,1680.668,1102.157,1670.023,1095.692,1677.244z"/>
			<path fill="#140F16" d="M1127.027,1661.605c19.692-28.139,34.074-59.33,46.273-91.333c11.833-31.042,21.061-63.052,33.462-93.876
				c0.2-0.498,0.312-0.998,0.369-1.496c11.084-20.836-18.029-35.615-33.488-41.469c-15.996-6.057-32.999-9.493-49.849-12.145
				c-21.744-3.422-43.733-5.147-65.728-5.748c-9.679-0.264-9.653,14.736,0,15c28.272,0.771,56.597,3.299,84.244,9.443
				c15.993,3.555,36.59,8.679,48.093,19.403c2.371,2.211,2.268,2.008,3.686,5.015c-0.087-0.186-0.152-0.304-0.208-0.393
				c0.076,0.268,0.261,0.974,0.318,1.582c0.012-0.015,0.021-0.044,0.025-0.097c0.007,0.295,0.004,0.591-0.003,0.886
				c-0.001,0.039,0,0.063,0,0.096c-0.03,0.109-0.066,0.247-0.11,0.428c-0.006,0.021-0.009,0.035-0.015,0.058
				c-0.058,0.238-0.133,0.472-0.212,0.704c0.022-0.124-0.364,0.789-0.502,1.039c-0.283,0.516-0.617,1.002-0.948,1.486
				c-0.012,0.017-0.018,0.025-0.028,0.042c-0.075,0.079-0.188,0.204-0.354,0.396c-2.332,2.703-3.86,3.714-6.411,5.387
				c-1.087,0.713-2.198,1.392-3.325,2.048c-15.463,9.007-34.438,12.823-51.682,16.064c-28.231,5.307-57.13,7.107-85.817,7.245
				c-28.974,0.139-58.12-1.715-86.683-6.707c-16.5-2.884-34.01-6.505-49.344-13.901c-2.458-1.186-4.865-2.458-7.197-3.851
				c-3.063-1.829-4.103-2.58-6.469-4.841c-0.017-0.016-0.031-0.034-0.048-0.05c-0.319-0.309-0.617-0.637-0.918-0.962
				c-0.135-0.146-0.278-0.285-0.412-0.433c-0.131-0.144-0.222-0.24-0.296-0.317c-0.028-0.04-0.052-0.072-0.086-0.12
				c-0.346-0.476-0.648-0.981-0.948-1.486c-0.159-0.268-0.266-0.439-0.343-0.556c-0.015-0.045-0.034-0.101-0.06-0.169
				c-0.13-0.352-0.229-0.713-0.32-1.076c-0.037-0.148-0.076-0.297-0.112-0.445c-0.001-0.028-0.002-0.047-0.004-0.078
				c-0.015-0.228-0.013-0.456-0.007-0.684c0.028-0.211,0.092-0.768,0.154-1.021c0.047-0.188,0.247-0.735,0.323-0.973
				c0.152-0.292,0.311-0.579,0.472-0.865c1.125-1.994,0.283-0.746,1.93-2.508c10.48-11.215,31.292-16.161,46.628-19.793
				c27.37-6.481,55.64-9.004,83.696-9.913c9.647-0.313,9.678-15.313,0-15c-28.465,0.923-57.043,3.66-84.887,9.81
				c-18.324,4.047-37.854,9.577-52.827,21.366c-9.955,7.838-14.164,21.26-5.911,31.943c0.423,0.548,0.879,1.064,1.327,1.588
				c10.985,23.229,27.635,43.349,43.719,63.184c2.579,3.18,7.942,2.664,10.607,0c3.113-3.114,2.572-7.435,0-10.607
				c-9.313-11.484-18.732-23.076-27.044-35.365c4.878,1.829,9.815,3.358,14.516,4.75c24.637,7.295,50.558,10.563,76.106,12.524
				c30.599,2.349,61.464,2.088,92.031-0.572c24.859-2.164,49.987-5.844,73.832-13.396c5.712-1.81,11.896-3.932,17.803-6.668
				c-8.234,22.883-15.504,46.132-24.007,68.913c-11.919,31.932-26.375,62.948-45.965,90.943
				C1108.515,1661.981,1121.526,1669.467,1127.027,1661.605z"/>
			<path fill="#140F16" d="M1173.431,1695.105c-3.146,3.146-2.524,7.397,0,10.607c5.06,6.431,8.763,13.858,8.581,22.167
				c-0.156,7.176-4.433,13.75-9.059,18.915c-12.453,13.904-30.888,22.633-47.851,29.63c-3.775,1.559-6.423,4.918-5.238,9.227
				c0.984,3.577,5.439,6.8,9.227,5.238c20.828-8.593,43.495-19.183,57.721-37.367c6.122-7.825,10.008-16.769,10.226-26.801
				c0.259-11.896-5.893-22.582-12.999-31.616C1181.506,1691.887,1176.063,1692.474,1173.431,1695.105z"/>
			<path fill="#140F16" d="M1095.168,1787.056c-10.027,3.067-20.164,5.941-30.428,8.121c-9.46,2.01-5.446,16.468,3.988,14.465
				c10.264-2.18,20.4-5.054,30.428-8.121C1108.378,1798.699,1104.443,1784.219,1095.168,1787.056z"/>
			<path fill="#140F16" d="M966.729,1715.177c-23.098-3.41-46.749-7.415-68.54-16.115c-2.485-0.993-5.546-2.483-8.198-3.93
				c-1.256-0.685-2.479-1.429-3.683-2.2c-0.555-0.354-1.095-0.73-1.635-1.106c-0.322-0.225-0.52-0.36-0.638-0.439
				c0.005-0.006-0.055-0.063-0.273-0.24c-0.857-0.697-1.664-1.453-2.446-2.233c-0.28-0.279-1.267-1.476-1.499-1.717
				c-0.354-0.524-0.69-1.061-0.998-1.613c-0.133-0.237-0.229-0.401-0.304-0.522c-0.027-0.13-0.082-0.333-0.185-0.66
				c-0.099-0.313-0.225-1.035-0.304-1.469c-0.014-0.439-0.014-0.879,0.005-1.318c0.003-0.06,0.003-0.098,0.004-0.146
				c0.026-0.107,0.055-0.234,0.089-0.392c0.112-0.521,0.268-1.032,0.437-1.539c0.146-0.324,0.542-1.272,0.719-1.606
				c0.375-0.705,0.801-1.383,1.237-2.051c0.176-0.269,0.759-1.041,1.028-1.406c0.476-0.569,0.965-1.129,1.467-1.675
				c1.196-1.303,2.484-2.519,3.805-3.694c0.673-0.599,1.364-1.176,2.06-1.748c0.31-0.254,0.623-0.502,0.937-0.75
				c0.094-0.069,0.217-0.16,0.395-0.293c2.883-2.152,5.908-4.111,8.995-5.957c3.97-2.373,8.08-4.605,12.317-6.469
				c3.744-1.646,4.577-7.043,2.69-10.262c-2.239-3.824-6.519-4.336-10.261-2.691c-10.095,4.439-19.846,10.535-28.074,17.862
				c-5.621,5.006-11.143,11.736-12.422,19.374c-1.641,9.784,3.031,18.343,10.63,24.325c9.06,7.133,19.992,11.377,30.881,14.877
				c18.741,6.022,38.346,9.402,57.776,12.271c4.041,0.597,8.044-0.941,9.227-5.238
				C972.949,1720.829,970.779,1715.775,966.729,1715.177z"/>
			<path fill="#140F16" d="M917.969,1616.117c8.889,2.015,17.816,3.834,26.771,5.524c9.452,1.783,13.486-12.672,3.988-14.465
				c-8.956-1.689-17.884-3.509-26.771-5.524C912.537,1599.516,908.537,1613.977,917.969,1616.117z"/>
			<path fill="#140F16" d="M890.281,1593.161c-8.822-2.863-17.525-6.059-25.575-10.718c-4.311-2.495-7.497-4.95-9.403-8.26
				c0.005-0.071-0.219-0.644-0.403-1.154c-0.019-0.215-0.059-0.569-0.088-0.913c0.072-0.388,0.19-1.182,0.299-1.554
				c0.179-0.354,0.37-0.701,0.567-1.045c0.184-0.309,0.376-0.612,0.578-0.909c0.068-0.104,0.121-0.188,0.164-0.256
				c0.005-0.005,0.007-0.008,0.012-0.014c0.625-0.768,1.318-1.477,2.019-2.173c2.315-2.302,2.265-2.134,4.563-3.732
				c12.144-8.446,24.454-12.844,38.715-16.792c9.31-2.578,5.352-17.051-3.988-14.465c-16.631,4.605-34.087,11.306-47.553,22.284
				c-8.569,6.986-13.038,17.187-8.188,27.691c2.752,5.96,8.853,10.353,14.238,13.705c9.203,5.729,19.802,9.439,30.055,12.769
				C895.521,1610.621,899.44,1596.134,890.281,1593.161z"/>
			<path fill="#140F16" d="M1215.74,1559.641c5.843,1.803,11.659,3.759,17.251,6.244c3.736,1.659,8.027,1.123,10.261-2.691
				c1.893-3.229,1.047-8.601-2.69-10.262c-6.79-3.017-13.734-5.564-20.833-7.756
				C1210.46,1542.316,1206.527,1556.797,1215.74,1559.641z"/>
			<path fill="#140F16" d="M1264.193,1570.09c-2.488-3.233-6.396-4.955-10.262-2.691c-3.191,1.87-5.191,7.013-2.691,10.262
				c3.029,3.936,3.62,5.748,3.462,9.313c-0.013,0.139-0.022,0.245-0.03,0.338c-0.091,0.48-0.2,0.956-0.317,1.43
				c-0.09,0.363-0.813,2.342-0.753,2.311c-0.938,2.061-2.169,3.984-3.484,5.82c-2.206,3.079-7.23,7.77-11.076,10.941
				c-4.348,3.585-9.576,7.028-14.589,10.143c-9.978,6.198-20.491,11.54-31.163,16.431c-2.018,0.925-4.046,1.824-6.081,2.71
				c-0.626,0.272-1.256,0.541-1.885,0.809c-0.334,0.141-1.245,0.524-1.505,0.632c-1.354,0.561-2.71,1.115-4.078,1.64
				c-8.934,3.431-5.057,17.938,3.988,14.465c17.871-6.864,35.42-15.436,51.528-25.776
				C1253.176,1617.364,1282.258,1593.562,1264.193,1570.09z"/>
		</g>
		<g>
			<circle fill="#FFFFFF" cx="1115.075" cy="1564.324" r="5.792"/>
			<circle fill="#FFFFFF" cx="1102.638" cy="1580.136" r="2.229"/>
		</g>
		<g>
			<circle fill="#FFFFFF" cx="1004.157" cy="1563.991" r="5.792"/>
			<circle fill="#FFFFFF" cx="991.72" cy="1579.803" r="2.229"/>
		</g>
	</g>
</svg>
