<?xml version="1.0" encoding="UTF-8"?>
<svg version="1.1" xmlns="http://www.w3.org/2000/svg" viewBox="773.62 1990.51 474 344.71">
<g>
		<ellipse fill="#FFB959" cx="981.616" cy="2082.007" rx="160" ry="43.5"/>
		<path fill="#FF7676" d="M862.364,2111.009c0,0,120.252-50.498,226.752,0C1089.116,2111.009,966.612,2144.511,862.364,2111.009z"/>
		<path fill="#E0943B" d="M1021.283,2062.508c0,0,64.666,2.449,78,26.058C1099.283,2088.565,1076.283,2070.842,1021.283,2062.508z"
			/>
		<path fill="#E0943B" d="M857.961,2088.565c0,0,37.324-22.059,88.657-21.393C946.618,2067.173,893.971,2057.292,857.961,2088.565z"
			/>
		<path fill="#E54E4E" d="M921.285,2107.231c0,0,44-8.607,79.333,0C1000.618,2107.231,962.292,2090.175,921.285,2107.231z"/>
		<path fill="#97EBFF" d="M831.95,2103.441c0,0,54,76.399,62.667,86.399c0,0,38,45.999,34,108.666c0,0,8.247,96.665,47.123,142.665
			c0,0-8.148-62.301,24.878-94.306c0,0,69.998-86.604,81.998-118.148l51.098-129.067
			C1133.714,2099.65,971.951,2155.709,831.95,2103.441z"/>
		<path fill="#56C1CC" d="M1035.341,2302.008c0,0-61.873,41.354-97.966,49.594l34.574,89.57c0,0,8.72-69.636,18.694-81.971
			L1035.341,2302.008z"/>
		<path fill="#56C1CC" d="M975.74,2130.509c0,0,66.27,10,119.24,0c0,0,9.111,30.756-9.029,78l25.397-35.617l24.771-79.552
			C1136.119,2093.34,1048.862,2131.842,975.74,2130.509z"/>
		<path fill="#D4FBFF" d="M946.618,2282.04c0,0,14.46,16.468,44.563,14.468C991.181,2296.508,959.953,2307.572,946.618,2282.04z"/>
		<path fill="#D4FBFF" d="M940.806,2259.763c0,0,29.947,30.244,81.879,20.244C1022.685,2280.007,977.995,2284.519,940.806,2259.763z
			"/>
		<path fill="#D4FBFF" d="M886.116,2134.507c0,0,47.5,20.928,119,13.464C1005.116,2147.971,940.282,2165.572,886.116,2134.507z"/>
		<path fill="#D4FBFF" d="M1071.616,2208.509c0,0-19.5,12.998-59.5,4.498C1012.116,2213.007,1050.941,2228.207,1071.616,2208.509z"
			/>
		<polygon fill="#FFB959" points="1202.947,2134.507 1083.947,2298.894 1178.947,2321.334 1083.947,2435.284 1274.947,2290.467 
			1168.271,2259.22 		"/>
		<path fill="#FF7676" d="M1196.276,2143.722c-2.682,3.705-72.329,141.174-72.329,141.174l89,17.112l-102.961,113.533h-11.565
			l81.026-97.699l-95.5-18.948L1196.276,2143.722z"/>
		<path fill="#FFDFBD" d="M1190.137,2281.157c-0.611,1.783-2.552,2.731-4.335,2.12l-21.922-7.52
			c-1.782-0.611-2.731-2.552-2.12-4.335l0,0c0.611-1.781,2.552-2.73,4.335-2.119l21.922,7.52
			C1189.799,2277.435,1190.748,2279.375,1190.137,2281.157L1190.137,2281.157z"/>
		<circle fill="#FFDFBD" cx="1195.863" cy="2283.463" r="3.75"/>
		<g>
			<path fill="#140F16" d="M921.389,2187.277c0,8.744,7.088,15.834,15.832,15.834c7.351,0,13.512-5.015,15.297-11.804
				c6.85,6.369,17.131-4.06,10.365-10.826c-10.489-10.488-20.979-20.978-31.467-31.467c-6.846-6.845-17.452,3.762-10.607,10.607
				c4.121,4.121,8.242,8.242,12.363,12.363C926.394,2173.777,921.389,2179.936,921.389,2187.277z"/>
			<path fill="#140F16" d="M975.721,2251.971c0.257-9.207,7.293-16.243,16.5-16.5c9.206-0.257,16.254,7.68,16.5,16.5
				c0.27,9.652,15.27,9.679,15,0c-0.488-17.486-14.014-31.012-31.5-31.5c-17.48-0.487-31.033,14.748-31.5,31.5
				C960.451,2261.649,975.451,2261.623,975.721,2251.971z"/>
			<path fill="#140F16" d="M1031.924,2191.308c1.786,6.789,7.948,11.804,15.297,11.804c8.744,0,15.832-7.09,15.832-15.834
				c0-7.342-5.004-13.5-11.783-15.292c4.121-4.121,8.242-8.242,12.363-12.363c6.845-6.846-3.762-17.452-10.607-10.607
				c-10.488,10.489-20.978,20.979-31.467,31.467C1014.793,2187.248,1025.074,2197.677,1031.924,2191.308z"/>
			<path fill="#140F16" d="M998.021,2358.563c10.846-20.928,30.048-36.347,45.988-54.152c6.43-7.184-4.143-17.828-10.607-10.607
				c-16.777,18.742-36.979,35.28-48.725,57.944c-11.522,22.234-14.104,47.687-13.34,72.817
				c-16.038-31.967-27.847-65.811-32.327-101.616c-4-31.975-2.052-64.875-13.59-95.5c-7.638-20.27-19.71-38.258-32.922-55.273
				c-2.513-3.234-7.988-2.618-10.607,0c-3.159,3.16-2.505,7.381,0,10.607c16.407,21.129,29.639,43.925,35.28,70.259
				c2.701,12.609,3.286,25.745,4.18,39.541c1.093,16.889,2.647,33.724,5.688,50.387c3.939,21.595,10.586,42.587,19.06,62.815
				c8.181,19.532,17.992,38.287,28.87,56.447c3.565,5.954,14.831,3.985,13.976-3.785
				C985.35,2425.809,982.63,2388.26,998.021,2358.563z"/>
			<path fill="#140F16" d="M874.513,2160.073c3.113-3.114,2.572-7.435,0-10.607c-9.313-11.484-18.732-23.076-27.044-35.365
				c4.878,1.829,9.815,3.358,14.516,4.75c24.637,7.295,50.558,10.563,76.106,12.524c30.599,2.349,61.464,2.088,92.031-0.572
				c24.859-2.164,49.987-5.844,73.832-13.396c5.712-1.81,11.896-3.932,17.803-6.668c-8.234,22.883-15.504,46.132-24.007,68.913
				c-11.919,31.932-26.375,62.948-45.965,90.942c-5.562,7.946,7.45,15.432,12.951,7.57c19.692-28.139,34.074-59.329,46.273-91.332
				c11.833-31.042,21.061-63.052,33.462-93.876c0.2-0.498,0.312-0.998,0.369-1.496c11.084-20.836-18.029-35.615-33.488-41.469
				c-15.996-6.057-32.999-9.493-49.849-12.145c-21.744-3.422-43.733-5.147-65.728-5.748c-9.679-0.264-9.653,14.736,0,15
				c28.272,0.771,56.597,3.299,84.244,9.443c15.993,3.555,36.59,8.679,48.093,19.403c2.371,2.211,2.268,2.008,3.686,5.015
				c-0.087-0.186-0.152-0.304-0.208-0.393c0.076,0.268,0.261,0.974,0.318,1.582c0.012-0.015,0.021-0.044,0.025-0.097
				c0.007,0.295,0.004,0.591-0.003,0.886c-0.001,0.039,0,0.063,0,0.096c-0.03,0.109-0.066,0.247-0.11,0.428
				c-0.006,0.021-0.009,0.035-0.015,0.058c-0.058,0.238-0.133,0.472-0.212,0.704c0.022-0.124-0.364,0.789-0.502,1.039
				c-0.283,0.516-0.617,1.002-0.948,1.486c-0.012,0.017-0.018,0.025-0.028,0.042c-0.075,0.079-0.188,0.204-0.354,0.396
				c-2.332,2.703-3.86,3.714-6.411,5.387c-1.087,0.713-2.198,1.392-3.325,2.048c-15.463,9.007-34.438,12.823-51.682,16.064
				c-28.231,5.307-57.13,7.107-85.817,7.245c-28.974,0.139-58.12-1.715-86.683-6.707c-16.5-2.884-34.01-6.505-49.344-13.901
				c-2.458-1.186-4.865-2.458-7.197-3.851c-3.063-1.829-4.103-2.58-6.469-4.841c-0.017-0.016-0.031-0.034-0.048-0.05
				c-0.319-0.309-0.617-0.637-0.918-0.962c-0.135-0.146-0.278-0.285-0.412-0.433c-0.131-0.144-0.222-0.24-0.296-0.317
				c-0.028-0.04-0.052-0.072-0.086-0.12c-0.346-0.476-0.648-0.981-0.948-1.486c-0.159-0.268-0.266-0.439-0.343-0.556
				c-0.015-0.045-0.034-0.101-0.06-0.169c-0.13-0.352-0.229-0.713-0.32-1.076c-0.037-0.148-0.076-0.297-0.112-0.445
				c-0.001-0.028-0.002-0.047-0.004-0.078c-0.015-0.228-0.013-0.456-0.007-0.684c0.028-0.211,0.092-0.768,0.154-1.021
				c0.047-0.188,0.247-0.735,0.323-0.973c0.152-0.292,0.311-0.579,0.472-0.865c1.125-1.994,0.283-0.746,1.93-2.508
				c10.48-11.215,31.292-16.161,46.628-19.793c27.37-6.481,55.64-9.004,83.696-9.913c9.647-0.313,9.678-15.313,0-15
				c-28.465,0.923-57.043,3.66-84.887,9.81c-18.324,4.047-37.854,9.577-52.827,21.366c-9.955,7.838-14.164,21.26-5.911,31.943
				c0.423,0.548,0.879,1.064,1.327,1.588c10.985,23.229,27.635,43.349,43.719,63.184
				C866.484,2163.253,871.848,2162.737,874.513,2160.073z"/>
			<path fill="#140F16" d="M1278.992,2286.672c-17.947-5.72-35.895-11.44-53.842-17.161c-9.243-2.945-13.168,11.539-3.988,14.465
				c13.342,4.252,26.684,8.505,40.025,12.758c-31.062,24.041-62.123,48.082-93.186,72.123
				c-18.751,14.514-37.502,29.025-56.253,43.539c10.455-12.269,20.909-24.537,31.364-36.805c6.234-7.316-4.323-17.979-10.607-10.605
				c-26.156,30.692-52.313,61.386-78.47,92.078c-6.405,7.517,3.062,16.447,10.607,10.607
				c34.563-26.752,69.128-53.504,103.692-80.256c37.777-29.239,75.555-58.479,113.332-87.717c0.211-0.164,0.422-0.327,0.634-0.49
				C1287.056,2295.527,1283.781,2288.198,1278.992,2286.672z"/>
			<path fill="#140F16" d="M1075.398,2299.119c-2.627,3.654-0.096,10.338,4.481,11.018c29.402,4.364,58.806,8.729,88.208,13.094
				c-6.302,7.395-12.603,14.79-18.904,22.185c-6.234,7.316,4.323,17.979,10.607,10.605c9.338-10.958,18.677-21.917,28.016-32.875
				c3.217-3.775,2.781-11.632-3.31-12.536c-29.808-4.425-59.616-8.849-89.424-13.274c25.026-34.82,50.053-69.642,75.079-104.462
				c8.584-11.943,17.168-23.888,25.752-35.831c-10.572,30.291-21.145,60.581-31.717,90.872c-1.084,3.104-2.167,6.208-3.251,9.312
				c-1.387,3.975,1.549,8.051,5.238,9.227c10.296,3.28,20.591,6.562,30.886,9.843c9.243,2.945,13.168-11.539,3.988-14.465
				c-7.759-2.472-15.516-4.944-23.273-7.417c15.402-44.13,30.805-88.258,46.207-132.388c1.084-3.104,2.167-6.208,3.251-9.312
				c2.996-8.584-9.071-12.231-13.708-5.779c-27.268,37.938-54.535,75.877-81.803,113.816
				C1112.948,2246.874,1094.173,2272.996,1075.398,2299.119z"/>
			<path fill="#140F16" d="M913.941,2334.382c-15.666-2.176-31.357-4.959-46.396-9.964c-4.782-1.593-9.389-3.525-13.792-5.98
				c-3.946-2.2-5.32-3.171-8.172-6.181c-0.239-0.252-0.457-0.522-0.681-0.787c0.064,0.031-0.755-1.059-0.911-1.305
				c-0.209-0.332-0.398-0.674-0.58-1.021c-0.058-0.152-0.452-1.024-0.549-1.324c-0.183-0.563-0.309-1.144-0.426-1.724
				c-0.003-0.117-0.009-0.262-0.02-0.467c-0.033-0.621-0.007-1.245,0.027-1.866c0.004-0.073,0.006-0.125,0.01-0.186
				c0.009-0.044,0.018-0.089,0.029-0.152c0.231-1.271,0.627-2.508,1.073-3.718c0.006-0.017,0.009-0.025,0.015-0.041
				c0.057-0.113,0.129-0.262,0.229-0.473c0.297-0.623,0.63-1.228,0.966-1.83c0.696-1.25,1.495-2.441,2.322-3.608
				c0.15-0.212,0.259-0.367,0.336-0.478c0.039-0.047,0.093-0.112,0.176-0.217c0.472-0.593,0.965-1.168,1.46-1.742
				c6.285-7.283-4.277-17.941-10.607-10.605c-10.165,11.78-15.534,26.909-4.993,40.354c6.153,7.85,15.82,12.328,24.854,15.91
				c16.401,6.504,34.256,9.453,51.641,11.869c4.047,0.562,8.037-0.916,9.227-5.238
				C920.155,2340.061,917.998,2334.946,913.941,2334.382z"/>
			<path fill="#140F16" d="M856.938,2272.954c1.956,3.34,6.88,5,10.261,2.691c5.259-3.592,10.684-7.023,16.346-9.949
				c8.596-4.443,1.008-17.387-7.57-12.953c-5.663,2.928-11.087,6.358-16.346,9.949
				C856.26,2264.993,854.763,2269.24,856.938,2272.954z"/>
			<path fill="#140F16" d="M1089.934,2338.019c-0.536-0.593-1.111-1.15-1.683-1.707c-6.929-6.753-17.544,3.846-10.607,10.605
				c2.411,2.35,2.868,2.855,4.232,5.202c0.203,0.349,0.382,0.71,0.556,1.073c-0.304-0.613,0.202,0.621,0.292,0.913
				c0.068,0.224,0.123,0.451,0.175,0.68c0.028,0.212,0.107,0.747,0.117,0.996c0.006,0.343-0.001,0.687-0.021,1.028
				c-0.001,0.014-0.001,0.021-0.001,0.035c-0.082,0.433-0.667,2.006-0.716,2.256c-0.402,0.788-0.857,1.551-1.347,2.285
				c-0.084,0.127-0.144,0.218-0.191,0.294c-0.017,0.021-0.027,0.032-0.045,0.055c-0.384,0.475-0.797,0.925-1.209,1.374
				c-3.727,4.072-6.76,5.933-12.039,8.98c-5.702,3.292-11.596,5.916-17.222,8.143c-17.438,6.902-35.867,12.05-54.272,15.672
				c-9.485,1.867-5.459,16.324,3.988,14.465C1025.78,2405.282,1128.274,2380.465,1089.934,2338.019z"/>
		</g>
		<g>
			<circle fill="#FFFFFF" cx="1052.676" cy="2180.749" r="5.792"/>
			<circle fill="#FFFFFF" cx="1040.238" cy="2196.562" r="2.229"/>
		</g>
		<g>
			<circle fill="#FFFFFF" cx="942.176" cy="2180.416" r="5.792"/>
			<circle fill="#FFFFFF" cx="929.738" cy="2196.229" r="2.229"/>
		</g>
	</g>
</svg>
