<?xml version="1.0" encoding="UTF-8"?>
<svg version="1.1" xmlns="http://www.w3.org/2000/svg" viewBox="935.96 793.65 317.76 212.68">
<g>
		<path fill="#FF7676" d="M1240.372,1088.117c0,0-43.018,108.451-130.509,124.371c0,0-71.491,69.479-177.491,20.699l-9.655-24.779
			c0,0,71.06,11.49,151.357-59.255c0,0,46.861-19.412,57.591-56.577l50.401-28.471L1240.372,1088.117z"/>
		<g>
			<path fill="#97EBFF" d="M884.003,974.886c0,0,1.743-56.107,54.674-59.189c0,0,8.798-51.573,55.44-50.907
				c0,0,9.443-62.951,67.23-57.713c0,0,49.817,9.891,47.16,55.056c0,0,53.136,1.515,58.448,53.564c0,0,51.811,3.557,56.459,55.367
				c0,0,49.152,7.307,56.458,51.146c0,0,5.313,73.726-67.085,60.441c0,0-36.865,51.026-88.507,1.601l-27.065-0.271
				c0,0-40.518,47.16-85.684,1.993l-24.735-1.329c0,0-47.164,48.487-88.928-0.664c0,0-53.055,14.173-67.003-35.089
				c0,0-7.306-33.325,6.643-49.932C837.509,998.959,854.114,972.734,884.003,974.886z"/>
			<path fill="#56C1CC" d="M842.188,993.039c0,0,8.771,53.854,77.519,24.907c0,0,21.622,42.258,70.589,15.123
				c0,0,35.182,46.593,98.616,5.246c0,0,31.053,36.365,75.887,0.996c0,0,29.393,26.402,57.787-9.466
				c0,0,31.728,19.077,53.973-19.604c0,0,12.613,87.854-63.77,72.41c0,0-45.832,49.034-88.507,1.601l-27.065-0.271
				c0,0-50.149,44.67-85.684,1.993l-24.735-1.329c0,0-46.981,48.719-85.93,2.688c0,0-57.215,8.001-70.001-38.44
				C830.866,1048.891,822.954,1003.553,842.188,993.039z"/>
			<g>
				<path fill="#D4FBFF" d="M1085.399,840.391c-2.092,4.081-8.765-2.624-18.641-7.684c-9.877-5.059-19.215-6.559-17.125-10.639
					c2.092-4.082,11.793-3.289,21.668,1.771C1081.179,828.899,1087.488,836.31,1085.399,840.391z"/>
				<circle fill="#D4FBFF" cx="1088.749" cy="845.553" r="3.902"/>
			</g>
			<g>
				<path fill="#D4FBFF" d="M1142.346,897.845c-2.09,4.081-8.763-2.625-18.639-7.685s-19.217-6.557-17.126-10.638
					c2.091-4.083,11.792-3.288,21.669,1.771C1138.127,886.353,1144.437,893.763,1142.346,897.845z"/>
				<circle fill="#D4FBFF" cx="1145.694" cy="903.007" r="3.902"/>
			</g>
			<g>
				<path fill="#D4FBFF" d="M1198.473,949.272c-2.09,4.08-8.763-2.624-18.641-7.684c-9.877-5.061-19.217-6.559-17.125-10.64
					c2.09-4.081,11.791-3.288,21.669,1.772C1194.251,937.781,1200.563,945.191,1198.473,949.272z"/>
				<circle fill="#D4FBFF" cx="1201.821" cy="954.433" r="3.902"/>
			</g>
		</g>
		<path fill="#FFB959" d="M1023.777,1098.518c0,0-18.116,86.561-153.116,82.238l54.345,29.678c0,0,100.933,23.168,212.794-111.916
			l-9.805-9.237l-27.065-0.271C1100.93,1089.009,1064.894,1133.602,1023.777,1098.518z"/>
		<path fill="#FF7676" d="M906.706,1093.489c0,0-4.327,54.061-48.043,56.988l19.269,30.423c0,0,96.355,18.995,151.186-78.25
			l-13.491-18.065h-23.833c0,0-27.959,20.311-47.902,18.065C943.891,1102.65,915.543,1102.998,906.706,1093.489z"/>
		<path fill="#E54E4E" d="M1155.466,1135.59c-4.003,4.003-11.422,3.074-11.422,3.074s-0.93-7.419,3.073-11.423
			c4.004-4.003,11.423-3.073,11.423-3.073S1159.469,1131.587,1155.466,1135.59z"/>
		<path fill="#E54E4E" d="M1018.686,1217.972c-4.003,4.003-11.422,3.074-11.422,3.074s-0.93-7.419,3.073-11.423
			c4.004-4.003,11.423-3.073,11.423-3.073S1022.688,1213.969,1018.686,1217.972z"/>
		<path fill="#E54E4E" d="M945.339,1137.139c-5.488,1.389-11.386-3.207-11.386-3.207s3-6.85,8.488-8.239
			c5.489-1.389,11.386,3.209,11.386,3.209S950.826,1135.75,945.339,1137.139z"/>
		<path fill="#E0943B" d="M1051.839,1144.481c-5.488,1.389-11.386-3.207-11.386-3.207s3-6.85,8.488-8.239
			c5.489-1.389,11.386,3.209,11.386,3.209S1057.326,1143.091,1051.839,1144.481z"/>
		<path fill="#E0943B" d="M969.945,1191.758c-4.845,2.93-11.826,0.254-11.826,0.254s0.872-7.427,5.716-10.357
			c4.846-2.929,11.827-0.251,11.827-0.251S974.789,1188.829,969.945,1191.758z"/>
		<g>
			<circle fill="#140F16" cx="1109.793" cy="938.689" r="15.833"/>
			<circle fill="#140F16" cx="999.793" cy="938.689" r="15.833"/>
			<path fill="#140F16" d="M1231.606,965.953c-2.415-20.27-14.032-38.241-31.938-48.712c-7.698-4.222-16.323-7.202-25.129-8.097
				c-1.445-8.556-4.421-16.665-9.11-24.151c-5.12-8.175-18.103-0.652-12.951,7.57c4.563,7.286,7.331,15.207,7.92,23.811
				c0.274,4.001,3.204,7.602,7.5,7.5c8.474-0.199,16.823,2.274,24.2,6.318c15.407,9.011,24.739,24.913,24.978,42.775
				c0.055,4.125,3.371,7.45,7.5,7.5c28.856,0.349,50.672,24.692,48.943,53.255c-1.803,29.78-31.927,49.989-60.192,43.638
				c-2.493-0.56-5.526-0.123-7.298,1.929c-6.341,7.347-14.054,12.771-23.315,15.775c-9.16,2.972-5.239,17.458,3.988,14.465
				c10.419-3.38,19.765-9.024,27.356-16.833c16.803,2.583,33.982-1.056,47.937-11.138c14.954-10.806,23.838-26.982,26.26-45.106
				C1292.958,1001.241,1265.365,970.166,1231.606,965.953z"/>
			<path fill="#140F16" d="M895.529,1092.706c24.937,25.635,67.221,25.638,92.154-0.003c7.013,1.088,14.018,1.089,21.03,0
				c24.938,25.64,67.219,25.64,92.157-0.001c7.016,1.089,14.022,1.089,21.037,0c7.155,7.343,15.815,12.699,25.521,16.227
				c9.113,3.312,13.004-11.188,3.988-14.465c-8.504-3.09-15.597-8.361-21.484-15.175c-1.773-2.051-4.803-2.489-7.298-1.929
				c-7.476,1.681-15.021,1.68-22.496,0c-2.492-0.56-5.527-0.124-7.298,1.929c-20.313,23.558-55.784,23.558-76.097,0
				c-1.771-2.052-4.806-2.488-7.298-1.929c-7.475,1.681-15.021,1.681-22.496,0c-2.492-0.56-5.527-0.124-7.298,1.929
				c-20.31,23.56-55.785,23.557-76.096,0c-1.771-2.053-4.806-2.488-7.298-1.929c-34.328,7.716-65.955-22.522-59.46-57.211
				c1.77-9.453-12.686-13.488-14.465-3.988c-4.067,21.725,2.104,43.463,17.817,59.178
				C854.684,1089.873,875.542,1095.745,895.529,1092.706z"/>
			<path fill="#140F16" d="M847.403,997.966c9.739-11.022,22.851-17.294,37.607-17.499c4.125-0.058,7.45-3.369,7.5-7.5
				c0.318-26.37,22.118-49.73,49.179-49.094c4.288,0.101,7.236-3.498,7.5-7.5c1.701-25.798,23.338-45.699,49.01-46.014
				c4.125-0.051,7.45-3.374,7.5-7.5c0.327-27.025,22.068-48.766,49.094-49.092c27.029-0.327,48.774,22.557,49.095,49.092
				c0.05,4.136,3.375,7.437,7.5,7.5c7.335,0.113,14.428,1.58,21.085,4.72c8.695,4.103,16.314-8.826,7.57-12.951
				c-6.968-3.287-14.131-5.403-21.628-6.292c-3.834-31.894-30.79-56.671-63.622-57.068c-32.798-0.396-59.731,25.567-63.607,57.063
				c-28.466,3.401-51.098,25.115-56.097,53.257c-29.77,2.634-53.449,27.61-57.086,56.842c-15.845,1.868-30.489,9.302-41.207,21.429
				C830.417,994.579,840.985,1005.228,847.403,997.966z"/>
			<path fill="#140F16" d="M957.915,1233.871c-8.276-2.287-17.009-5.15-23.818-10.596c-3.19-2.55-7.479-3.128-10.607,0
				c-2.649,2.65-3.197,8.05,0,10.607c8.96,7.163,19.444,11.414,30.438,14.453C963.268,1250.917,967.226,1236.445,957.915,1233.871z"
				/>
			<path fill="#140F16" d="M1170.483,1172.172c-14.566,13.182-32.285,27.702-51.94,33.437
				c12.063-21.977,14.611-54.131-11.838-64.922c-19.008-7.755-46.672,0.994-55.439,20.224c-5.467,11.99-2.6,24.904,4.563,35.545
				c5.95,8.84,14.057,16.525,23.607,21.309c1.598,0.8,3.22,1.486,4.86,2.088c-9.476,5.822-20.314,9.804-30.504,12.682
				c-21.661,6.118-44.575,7.644-66.965,6.069c-9.658-0.679-9.593,14.325,0,15c23.292,1.638,47.033-0.269,69.631-6.244
				c17.321-4.58,34.926-12.222,48.33-24.461c3.18-0.113,6.373-0.451,9.557-0.987c25.459-4.289,48.151-22.305,66.745-39.131
				C1188.277,1176.276,1177.636,1165.701,1170.483,1172.172z M1075.243,1196.444c-2.733-2.635-4.917-5.263-6.934-8.258
				c-1.968-2.924-3.165-5.418-3.913-7.624c-0.421-1.24-0.723-2.517-0.976-3.8c-0.019-0.094-0.032-0.162-0.047-0.233
				c-0.007-0.068-0.013-0.133-0.021-0.222c-0.06-0.594-0.077-1.191-0.095-1.789c-0.014-0.491,0.19-2.837,0.117-2.663
				c0.194-1.06,0.478-2.101,0.808-3.125c0.047-0.145,0.191-0.517,0.294-0.783c0.149-0.313,0.295-0.63,0.454-0.939
				c0.498-0.975,1.092-1.896,1.71-2.798c0.05-0.073,0.087-0.128,0.124-0.183c0.015-0.019,0.024-0.029,0.04-0.049
				c0.35-0.431,0.724-0.84,1.097-1.249c0.883-0.968,1.854-1.852,2.85-2.7c0.091-0.077,0.165-0.142,0.226-0.194
				c0.019-0.014,0.029-0.021,0.048-0.035c0.461-0.343,0.938-0.663,1.413-0.983c0.963-0.646,1.969-1.226,2.985-1.783
				c0.936-0.513,1.901-0.965,2.876-1.398c-0.694,0.336,2.317-0.816,2.935-1.011c1.132-0.356,2.284-0.644,3.44-0.907
				c0.429-0.098,2.559-0.444,2.686-0.493c2.315-0.26,4.651-0.301,6.976-0.163c0.349,0.021,0.695,0.06,1.043,0.094
				c0.292,0.037,0.762,0.095,0.931,0.124c1.107,0.19,2.199,0.464,3.28,0.769c0.403,0.113,2.192,0.792,2.402,0.836
				c0.801,0.377,1.582,0.791,2.345,1.239c0.469,0.275,0.918,0.581,1.367,0.887c0.055,0.037,0.092,0.062,0.136,0.091
				c0.025,0.021,0.043,0.036,0.072,0.061c0.847,0.697,1.617,1.482,2.354,2.292c0.084,0.093,0.282,0.342,0.45,0.554
				c0.248,0.355,0.493,0.715,0.726,1.081c0.313,0.489,0.587,1.001,0.861,1.512c0.177,0.327,0.288,0.526,0.357,0.645
				c0.02,0.06,0.054,0.155,0.111,0.302c1.94,4.963,2.073,9.686,1.316,14.863c-1.246,8.532-4.192,16.753-8.955,23.939
				c-1.299,1.959-2.739,3.802-4.287,5.547C1089.922,1206.97,1081.928,1202.889,1075.243,1196.444z"/>
			<path fill="#140F16" d="M1221.578,1125.103c-3.824-2.241-7.823-0.581-10.261,2.69c-0.124,0.166-0.465,0.612-0.688,0.904
				c-1.195,1.538-2.41,3.061-3.634,4.575c-4.387,5.43-8.961,10.704-13.639,15.884c-6.463,7.159,4.112,17.801,10.607,10.607
				c7.085-7.849,13.982-15.918,20.304-24.4C1226.718,1132.079,1224.811,1126.996,1221.578,1125.103z"/>
			<path fill="#140F16" d="M1013.332,1125.35c5.132-8.234-7.849-15.759-12.951-7.57c-17.945,28.795-49.436,43.467-81.701,49.908
				c-16.925,3.378-35.256,4.969-52.816,3.443c-9.641-0.838-9.561,14.169,0,15c19.135,1.662,39.062-0.438,57.805-4.18
				C959.423,1174.815,993.62,1156.981,1013.332,1125.35z"/>
			<path fill="#140F16" d="M1051.008,1041.003c-9.452-1.793-13.484,12.662-3.988,14.465c11.584,2.198,23.496-4.17,25.379-16.507
				c0.965-6.324-0.911-12.082-4.575-16.356c4.119-4.899,5.895-11.682,4.058-18.826c-3.458-13.451-20.365-18.433-31.313-10.956
				c-7.936,5.418-0.442,18.423,7.57,12.951c9.081-6.2,13.399,8.895,4.096,9.364c-4.993-0.252-7.389,3.624-7.221,7.5
				c-0.168,3.876,2.228,7.752,7.221,7.5C1060.119,1030.537,1058.769,1042.477,1051.008,1041.003z"/>
		</g>
		<g>
			<circle fill="#FFFFFF" cx="1114.23" cy="932.564" r="5.792"/>
			<circle fill="#FFFFFF" cx="1101.793" cy="948.376" r="2.229"/>
		</g>
		<g>
			<circle fill="#FFFFFF" cx="1004.23" cy="932.231" r="5.792"/>
			<circle fill="#FFFFFF" cx="991.793" cy="948.043" r="2.229"/>
		</g>
	</g>
</svg>
