<?xml version="1.0" encoding="UTF-8"?>
<svg xmlns="http://www.w3.org/2000/svg" version="1.1" viewBox="1936.25 140.07 601.12 601.12" width="320" height="320"><g>
		<path fill="#97EBFF" d="M2068.137,508.776c0,0,1.75-56.316,54.875-59.41c0,0,8.831-51.761,55.645-51.095    c0,0,9.479-63.182,67.479-57.924c0,0,50.001,9.925,47.334,55.258c0,0,53.332,1.521,58.666,53.761c0,0,52,3.572,56.667,55.572    c0,0,49.334,7.334,56.667,51.334c0,0,5.332,73.999-67.334,60.666c0,0-37,51.214-88.833,1.607l-27.167-0.273    c0,0-40.667,47.333-86,2l-24.826-1.334c0,0-47.338,48.667-89.256-0.666c0,0-53.251,14.225-67.251-35.221    c0,0-7.333-33.447,6.667-50.113C2021.47,532.938,2038.138,506.614,2068.137,508.776z" />
		<path fill="#56C1CC" d="M2026.166,526.993c0,0,8.804,54.055,77.804,25c0,0,21.703,42.414,70.852,15.18    c0,0,35.311,46.766,98.979,5.266c0,0,31.169,36.5,76.169,1c0,0,29.5,26.5,58-9.5c0,0,31.844,19.146,54.172-19.677    c0,0,12.66,88.176-64.006,72.677c0,0-46,49.214-88.833,1.607l-27.167-0.273c0,0-50.334,44.833-86,2l-24.826-1.334    c0,0-47.154,48.898-86.247,2.699c0,0-57.427,8.027-70.26-38.586C2014.803,583.052,2006.862,537.548,2026.166,526.993z" />
		<g>
			<path fill="#D4FBFF" d="M2270.276,373.783c-2.099,4.096-8.797-2.634-18.709-7.712c-9.913-5.078-19.287-6.582-17.188-10.679     s11.835-3.3,21.748,1.778S2272.374,369.687,2270.276,373.783z" />
			<circle fill="#D4FBFF" cx="2273.637" cy="378.965" r="3.917" />
		</g>
		<g>
			<path fill="#D4FBFF" d="M2327.435,431.449c-2.099,4.097-8.797-2.633-18.709-7.711c-9.913-5.079-19.287-6.583-17.188-10.679     c2.099-4.097,11.835-3.301,21.748,1.777C2323.198,419.916,2329.532,427.354,2327.435,431.449z" />
			<circle fill="#D4FBFF" cx="2330.795" cy="436.631" r="3.917" />
		</g>
		<g>
			<path fill="#D4FBFF" d="M2383.768,483.065c-2.099,4.097-8.797-2.633-18.709-7.711c-9.913-5.078-19.287-6.582-17.188-10.679     s11.835-3.3,21.748,1.778S2385.865,478.97,2383.768,483.065z" />
			<circle fill="#D4FBFF" cx="2387.128" cy="488.247" r="3.917" />
		</g>
		<path fill="#FFB959" d="M2120.947,219.905c0,0-34.883,103.334,65.309,145.667l-4.309,31.307c0,0-37.494,2.798-51.247,31.162    c0,0-67.753-10.398-84.253-75.268C2046.447,352.773,2020.447,251.405,2120.947,219.905z" />
		<path fill="#FF7676" d="M2062.529,386.841c0,0,49.252,17.076,103.585-22.93h20.142l-7.35,32.968l-37.139,15.937l-11.067,15.226    C2130.7,428.041,2076.877,414.861,2062.529,386.841z" />
		<path fill="#FFDFBD" d="M2095.835,235.405c0,0-7.888,77,47.112,112l6.398-3.102c0,0-35.933-30.681-34.506-66.398l5.409-55.698    L2095.835,235.405z" />
		<path fill="#E0943B" d="M2086.447,241.405c0,0-54.906,70.319-10.953,148.159l-9.319,3.045c0,0-23.274-29.204-22.751-64.204    C2043.424,328.405,2042.553,263.412,2086.447,241.405z" />
		<path fill="#E54E4E" d="M2084.447,405.117c0,0,30.891,6.288,39.945,3.288c0,0,16.389-24.548,41.722-25.524l8.333-17.309    l11.809,2.333l-3.721,24.704l-33.189,10.796l-18.646,24.636C2130.7,428.041,2093.4,420.67,2084.447,405.117z" />
		<g>
			<path fill="#140F16" d="M2413.773,499.477c-1.147-9.896-4.428-19.344-9.857-27.852c-5.186-8.126-18.172-0.61-12.951,7.57     c5.319,8.337,8.117,17.394,8.265,27.294c0.062,4.125,3.366,7.45,7.5,7.5c28.856,0.349,50.672,24.692,48.943,53.255     c-1.803,29.78-31.927,49.989-60.192,43.638c-2.492-0.56-5.527-0.124-7.297,1.929c-20.313,23.558-55.784,23.556-76.098,0     c-1.77-2.053-4.805-2.488-7.297-1.929c-7.476,1.681-15.021,1.68-22.496,0c-2.492-0.56-5.527-0.124-7.297,1.929     c-20.313,23.557-55.785,23.557-76.098,0c-1.771-2.053-4.806-2.488-7.298-1.929c-7.475,1.681-15.021,1.681-22.496,0     c-2.492-0.56-5.527-0.124-7.298,1.929c-20.31,23.559-55.785,23.556-76.096,0c-1.771-2.053-4.806-2.488-7.298-1.929     c-24.148,5.428-47.447-7.499-57.077-29.934c-1.613-3.76-7.064-4.563-10.261-2.69c-3.848,2.253-4.304,6.504-2.69,10.261     c11.688,27.23,40.637,41.998,69.289,37.699c24.935,25.645,67.227,25.651,92.164,0.007c7.013,1.087,14.018,1.088,21.03,0     c24.938,25.639,67.219,25.639,92.156-0.001c7.014,1.088,14.02,1.088,21.033,0c24.938,25.641,67.225,25.641,92.16-0.005     c16.801,2.581,33.979-1.058,47.931-11.139c14.954-10.806,23.838-26.982,26.26-45.106     C2475.111,534.767,2447.525,503.695,2413.773,499.477z" />
			<path fill="#140F16" d="M2018.217,558.985c2.13-25.376,23.723-44.687,48.948-44.996c4.125-0.051,7.45-3.374,7.5-7.5     c0.318-26.37,22.118-49.73,49.179-49.094c4.288,0.101,7.236-3.498,7.5-7.5c0.298-4.519,1.22-8.85,2.655-12.933     c-4.938-0.731-9.803-1.777-14.569-3.13c-0.921,2.843-1.652,5.773-2.187,8.777c-29.772,2.634-53.454,27.615-57.087,56.85     c-30.551,3.642-54.321,28.324-56.939,59.525C2002.407,568.63,2017.414,568.552,2018.217,558.985z" />
			<path fill="#140F16" d="M2180.354,403.883c4.125-0.051,7.45-3.375,7.5-7.5c0.091-7.516,1.842-14.619,4.897-20.971     c-4.851-1.207-9.62-2.716-14.274-4.529c-2.58,5.808-4.344,12.021-5.137,18.472c-20.232,2.417-37.515,14.083-47.619,30.736     c5.242,1.355,10.607,2.294,16.047,2.785C2150.825,411.413,2164.85,404.072,2180.354,403.883z" />
			<path fill="#140F16" d="M2236.947,347.29c27.03-0.327,48.773,22.558,49.095,49.093c0.05,4.125,3.375,7.449,7.5,7.5     c25.671,0.313,47.308,20.215,49.01,46.013c0.264,4.002,3.212,7.601,7.5,7.5c8.474-0.199,16.823,2.274,24.2,6.318     c2.15,1.233,4.215,2.592,6.198,4.078c1.523,1.143,4.025,1.239,5.779,0.757c1.874-0.516,3.5-1.771,4.481-3.447     c1.016-1.731,1.289-3.843,0.757-5.779c-0.563-2.049-1.812-3.256-3.447-4.481c-1.747-1.311-3.569-2.503-5.445-3.615     c-0.254-0.15-0.497-0.316-0.753-0.463c-7.707-4.227-16.344-7.21-25.16-8.1c-4.98-28.163-27.615-49.898-56.094-53.308     c-3.835-31.892-30.789-56.669-63.621-57.065c-20.655-0.25-38.979,9.961-50.691,25.417c5.141,1.907,10.427,3.398,15.813,4.451     C2210.949,353.112,2223.269,347.455,2236.947,347.29z" />
			<circle fill="#140F16" cx="2103.181" cy="324.611" r="7.347" />
			<path fill="#140F16" d="M2099.169,348.753c0,4.057,3.289,7.347,7.347,7.347s7.347-3.29,7.347-7.347s-7.347-12.297-7.347-12.297     S2099.169,344.696,2099.169,348.753z" />
			<path fill="#140F16" d="M2048.601,664.009c0,4.058,3.289,7.348,7.347,7.348s7.347-3.29,7.347-7.348     c0-4.057-7.347-12.297-7.347-12.297S2048.601,659.953,2048.601,664.009z" />
			<path fill="#140F16" d="M2121.489,664.009c0,4.058,3.289,7.348,7.347,7.348s7.347-3.29,7.347-7.348     c0-4.057-7.347-12.297-7.347-12.297S2121.489,659.953,2121.489,664.009z" />
			<path fill="#140F16" d="M2193.156,664.009c0,4.058,3.289,7.348,7.347,7.348s7.347-3.29,7.347-7.348     c0-4.057-7.347-12.297-7.347-12.297S2193.156,659.953,2193.156,664.009z" />
			<path fill="#140F16" d="M2266.045,664.009c0,4.058,3.289,7.348,7.347,7.348s7.347-3.29,7.347-7.348     c0-4.057-7.347-12.297-7.347-12.297S2266.045,659.953,2266.045,664.009z" />
			<path fill="#140F16" d="M2337.712,664.009c0,4.058,3.289,7.348,7.347,7.348s7.347-3.29,7.347-7.348     c0-4.057-7.347-12.297-7.347-12.297S2337.712,659.953,2337.712,664.009z" />
			<path fill="#140F16" d="M2410.601,664.009c0,4.058,3.289,7.348,7.347,7.348s7.347-3.29,7.347-7.348     c0-4.057-7.347-12.297-7.347-12.297S2410.601,659.953,2410.601,664.009z" />
			<path fill="#140F16" d="M2138.381,344.304c-8.908,9.285-13.427,22.812-10.026,37.095c2.247,9.438,16.747,5.586,14.511-3.805     c-2.154-9.052,0.767-17.586,6.48-23.347C2145.492,351.201,2141.826,347.886,2138.381,344.304z" />
			<circle fill="#140F16" cx="2291.947" cy="482.379" r="15.833" />
			<circle fill="#140F16" cx="2181.947" cy="482.379" r="15.833" />
			<path fill="#140F16" d="M2311.453,526.251c4.059,0,7.348-3.291,7.348-7.348s-7.348-12.297-7.348-12.297s-7.346,8.24-7.346,12.297     S2307.396,526.251,2311.453,526.251z" />
			<path fill="#140F16" d="M2155.094,518.903c0,4.057,3.289,7.348,7.348,7.348c4.057,0,7.346-3.291,7.346-7.348     s-7.346-12.297-7.346-12.297S2155.094,514.847,2155.094,518.903z" />
			<path fill="#140F16" d="M2202.777,545.417c-5.086,8.264,7.893,15.791,12.951,7.57c9.813-15.943,32.672-15.893,42.445,0.061     c5.041,8.232,18.02,0.703,12.951-7.57C2255.434,519.86,2218.516,519.843,2202.777,545.417z" />
			<path fill="#140F16" d="M2141.768,422.876c-5.439-0.491-10.805-1.43-16.047-2.785c-24.37-6.304-46.064-21.653-60.01-43.336     c-5.213-8.104-18.202-0.592-12.953,7.57c15.674,24.368,39.578,41.82,66.672,49.508c4.767,1.353,9.632,2.398,14.569,3.13     C2135.81,431.813,2138.454,427.068,2141.768,422.876z" />
			<path fill="#140F16" d="M2202.069,362.158c-5.387-1.053-10.673-2.544-15.813-4.451c-7.373-2.734-14.439-6.33-21.054-10.736     c-5.063-3.372-9.858-7.218-14.324-11.517c-1.967-1.894-3.877-3.865-5.71-5.932c-25.677-28.965-31.493-72.193-15.572-107.275     c2.616-5.766-1.625-12.851-8.471-11.017c-28.975,7.763-53.786,26.46-69.486,51.984c-17.404,28.294-21.018,63.865-10.957,95.355     c2.933,9.178,17.417,5.254,14.465-3.986c-8.999-28.165-5.73-58.417,9.444-83.798c10.715-17.924,27.114-31.796,46.103-40.043     c-10.904,37.469-2.694,77.953,23.014,108.398c1.504,1.781,3.07,3.494,4.674,5.162c3.445,3.582,7.111,6.897,10.965,9.943     c8.856,7.001,18.699,12.572,29.131,16.636c4.654,1.813,9.424,3.322,14.274,4.529     C2195.122,370.484,2198.283,366.014,2202.069,362.158z" />
		</g>
		<g>
			<circle fill="#FFFFFF" cx="2296.385" cy="476.254" r="5.792" />
			<circle fill="#FFFFFF" cx="2283.947" cy="492.066" r="2.229" />
		</g>
		<g>
			<circle fill="#FFFFFF" cx="2186.385" cy="475.921" r="5.792" />
			<circle fill="#FFFFFF" cx="2173.947" cy="491.733" r="2.229" />
		</g>
		<g>
			<circle fill="#FFFFFF" cx="2105.088" cy="321.98" r="2.488" />
			<circle fill="#FFFFFF" cx="2099.746" cy="328.772" r="0.958" />
		</g>
	</g>
	</svg>