<?xml version="1.0" encoding="UTF-8"?>
<svg version="1.1" xmlns="http://www.w3.org/2000/svg" viewBox="1463.92 2133.79 192.03 256.62">
<g>
		<polygon fill="#FFB959" points="1557.164,2190.738 1511.948,2278.072 1414.614,2294.738 1481.948,2368.072 1466.614,2466.212 
			1557.164,2419.405 1648.614,2466.212 1631.948,2362.396 1700.614,2296.738 1603.948,2279.405 		"/>
		<path fill="#97EBFF" d="M1629.948,2280.074c0,0,128-85.07,242-68.535v-71.465c0,0-188.656,10-272.995,118l3.185,17.899
			L1629.948,2280.074z"/>
		<path fill="#FF7676" d="M1581.949,2228.735c0,0,113.339-140.01,289.999-142.496c1.249-0.018,0,53.835,0,53.835
			s-179.324,10.005-272.995,118L1581.949,2228.735z"/>
		<path fill="#97EBFF" d="M1581.949,2228.735c0,0,112.5-136.162,289.999-142.496l0.556-64.009c0,0-195.557,5.604-307.557,173.89
			L1581.949,2228.735z"/>
		<polygon fill="#E0943B" points="1414.614,2294.738 1510.614,2362.396 1484.614,2441.406 1557.164,2397.406 1629.281,2435.284 
			1609.947,2356.073 1697.947,2294.738 1632.859,2368.072 1648.614,2466.212 1557.164,2419.405 1466.614,2466.212 
			1481.947,2362.396 		"/>
		<polygon fill="#FFDFBD" points="1548.447,2218.405 1598.953,2294.738 1693.371,2299.894 1700.614,2291.405 1608.447,2277.405 
			1559.447,2190.738 		"/>
		<path fill="#56C1CC" d="M1611.947,2248.905l15.5,9.169c0,0,82.5-49.169,165-52.169c0,0-127.998,43.838-162.499,74.169
			l-25.501-2.169l-11.754-19.831L1611.947,2248.905z"/>
		<path fill="#E54E4E" d="M1597.059,2212.518l9.389,11.388c0,0,39.5-24,56.5-28.5l-65.43,62.669l-16.608-31.335L1597.059,2212.518z"
			/>
		<path fill="#56C1CC" d="M1574.971,2181.788l9.977,13.617c0,0,41-32,66-42l-67.321,73.334l-18.679-30.619L1574.971,2181.788z"/>
		<g>
			<path fill="#D4FBFF" d="M1833.264,2166.574c5.119-0.239,10.232-0.267,15.351-0.002c3.224,0.167,3.208-4.834,0-5
				c-5.118-0.265-10.231-0.237-15.351,0.002C1830.054,2161.725,1830.039,2166.725,1833.264,2166.574L1833.264,2166.574z"/>
		</g>
		<g>
			<path fill="#D4FBFF" d="M1705.543,2201.563c35.261-15.941,73.694-28.334,112.053-33.553c3.184-0.434,1.822-5.251-1.328-4.822
				c-38.813,5.281-77.58,17.932-113.248,34.059C1700.085,2198.573,1702.63,2202.881,1705.543,2201.563L1705.543,2201.563z"/>
		</g>
		<g>
			<path fill="#D4FBFF" d="M1841.727,2043.165c5.097-0.537,10.199-0.862,15.324-0.897c3.223-0.022,3.226-5.022,0-5
				c-5.125,0.035-10.228,0.36-15.324,0.897C1838.554,2038.499,1838.521,2043.503,1841.727,2043.165L1841.727,2043.165z"/>
		</g>
		<g>
			<path fill="#D4FBFF" d="M1716.286,2085.618c34.288-17.98,71.875-32.613,109.89-40.066c3.163-0.62,1.82-5.439-1.328-4.822
				c-38.412,7.531-76.436,22.401-111.085,40.57C1710.906,2082.798,1713.434,2087.113,1716.286,2085.618L1716.286,2085.618z"/>
		</g>
		<g>
			<path fill="#FFB6B6" d="M1719.455,2141.554c33.68-16.836,70.562-30.47,108.526-31.982c3.213-0.128,3.226-5.129,0-5
				c-38.886,1.549-76.549,15.419-111.05,32.666C1714.047,2138.679,1716.58,2142.991,1719.455,2141.554L1719.455,2141.554z"/>
		</g>
		<g>
			<path fill="#FFB6B6" d="M1688.543,2158.897c3.965-2.586,8.068-4.967,12.175-7.316c2.798-1.602,0.279-5.922-2.523-4.318
				c-4.106,2.351-8.21,4.731-12.175,7.316C1683.33,2156.333,1685.833,2160.664,1688.543,2158.897L1688.543,2158.897z"/>
		</g>
		<ellipse fill="#FF7676" cx="1598.875" cy="2339.073" rx="9.072" ry="3.333"/>
		<ellipse fill="#FF7676" cx="1520.992" cy="2339.073" rx="9.072" ry="3.333"/>
		<g>
			<path fill="#140F16" d="M1881.965,2017.261c-1.074-2.15-3.205-3.693-6.414-3.523c-101.256,5.334-198.264,48.473-269.49,120.75
				c-14.854,15.074-28.41,31.436-40.707,48.664c-0.205-0.416-0.412-0.832-0.617-1.25c-2.416-4.896-10.535-4.896-12.951,0
				c-14.752,29.893-29.504,59.785-44.254,89.678c-6.988,1.016-13.977,2.029-20.967,3.045c-4.053,0.59-6.219,5.66-5.238,9.227
				c1.186,4.305,5.184,5.826,9.227,5.238c5.723-0.832,11.443-1.662,17.166-2.494c4.57-0.664,9.369-0.566,11.717-5.322
				c4.609-9.342,9.219-18.682,13.828-28.021c8.332-16.885,16.664-33.771,24.996-50.656c2.145,4.346,4.291,8.689,6.436,13.035
				c2.992,6.061,5.982,12.123,8.975,18.184c0.01,0.02,0.016,0.039,0.025,0.059c2.25,4.559,4.502,9.117,6.754,13.676
				c0.201,0.406,0.402,0.814,0.604,1.221c4.672,9.459,9.342,18.922,14.01,28.383c0.945,1.92,1.773,4.313,3.193,6.018
				c0.926,1.234,2.102,2.199,3.76,2.439c0.213,0.031,0.424,0.063,0.637,0.094c0.91,0.213,1.854,0.346,2.793,0.455
				c1.834,0.326,3.811,0.506,5.887,0.807c0.279,0.041,0.559,0.08,0.838,0.121c3.473,0.506,6.945,1.01,10.418,1.516
				c1.223,0.674,2.641,0.936,4.139,0.602c21.166,3.074,42.332,6.148,63.498,9.223c-13.828,13.48-27.656,26.961-41.484,40.441
				c-7.146,6.969-14.295,13.936-21.443,20.904c-0.16,0.156-0.311,0.322-0.453,0.496c-1.605,1.848-1.979,4.012-1.855,6.264
				c-0.16,5.918,2.211,13.408,2.914,17.49c0.557,3.254,1.115,6.51,1.674,9.766c0.131,0.766,0.264,1.529,0.395,2.295
				c0.879,5.125,1.758,10.252,2.637,15.379l0.002,0.01c1.289,7.52,2.578,15.039,3.869,22.559c0,0.002,0,0.002,0,0.002
				c1.117,6.516,2.234,13.029,3.352,19.545c-16.959-8.916-33.92-17.834-50.879-26.75c-8.838-4.645-17.674-9.291-26.51-13.938
				c-4.395-2.309-7.682-0.357-11.463,1.631c-5.623,2.957-11.244,5.912-16.867,8.869c-16.947,8.91-33.895,17.826-50.846,26.732
				c-0.074,0.039-0.146,0.08-0.221,0.119c-2.117,1.113-4.234,2.227-6.354,3.34c3.217-18.748,6.434-37.494,9.65-56.242
				c1.689-9.838,3.377-19.678,5.064-29.516c1.363-7.941-8.914-14.621-13.957-19.537c-17.051-16.619-34.102-33.24-51.152-49.859
				c13.363-1.941,26.727-3.883,40.09-5.824c4.053-0.588,6.219-5.66,5.238-9.227c-1.186-4.303-5.184-5.824-9.227-5.238
				c-18.055,2.623-36.107,5.246-54.162,7.869c-5.738,0.834-6.986,8.951-3.311,12.535c23.766,23.164,47.531,46.328,71.297,69.492
				c-5.563,32.41-11.123,64.82-16.686,97.23c-1.105,6.451,4.844,11.713,11.018,8.469c6.688-3.512,13.375-7.025,20.061-10.539
				c0.074-0.041,0.146-0.08,0.221-0.121c1.492-0.783,2.984-1.57,4.479-2.354c0.01-0.006,0.02-0.01,0.031-0.016
				c20.971-11.029,41.943-22.053,62.914-33.08c29.234,15.369,58.471,30.74,87.705,46.109c6.176,3.248,12.123-2.02,11.018-8.469
				c-2.014-11.74-4.027-23.48-6.039-35.221c0,0,0-0.002-0.002-0.002c-3.543-20.67-7.088-41.338-10.633-62.008
				c23.762-23.164,47.523-46.328,71.285-69.492c3.676-3.584,2.43-11.701-3.309-12.535c-20.768-3.018-41.535-6.035-62.303-9.053
				c68.301-43.082,148.645-64.459,229.568-60.666c3.141,0.148,5.252-1.34,6.348-3.424c0.715-1.084,1.152-2.438,1.152-4.076
				c0-42.488,0-84.977,0-127.465c0-20.027,0-40.057,0-60.084C1883.051,2019.649,1882.641,2018.327,1881.965,2017.261z
				 M1868.051,2076.538c-26.451,1.445-52.729,5.391-78.439,11.803c-9.381,2.34-5.4,16.805,3.988,14.465
				c24.455-6.1,49.316-9.867,74.451-11.264c0,14.373,0,28.748,0,43.123c-56.023,1.334-111.145,14.205-162.135,37.52
				c-3.719,1.699-4.6,7.002-2.691,10.262c2.219,3.785,6.543,4.391,10.262,2.689c48.518-22.182,101.281-34.176,154.564-35.471
				c0,17.117,0,34.232,0,51.35c-86.664-2.441-173.088,23.188-244.316,72.705c-4.912-0.715-9.824-1.426-14.734-2.141
				c-1.813-3.672-3.623-7.346-5.436-11.018c26.086-25.361,55.461-46.902,87.482-64.236c8.508-4.605,0.936-17.557-7.57-12.951
				c-31.594,17.102-60.834,38.357-86.877,63.082c-2.525-5.113-5.049-10.229-7.572-15.342
				c45.348-53.973,104.559-95.074,171.188-118.334c9.072-3.168,5.17-17.662-3.988-14.465
				c-67.348,23.512-127.83,64.232-174.404,118.205c-2.971-6.018-5.939-12.037-8.91-18.055
				c56.672-82.902,144.152-140.947,242.338-161.881c17.41-3.713,35.053-6.125,52.801-7.385
				C1868.051,2044.979,1868.051,2060.759,1868.051,2076.538z"/>
			<circle fill="#140F16" cx="1531.172" cy="2319.255" r="12.781"/>
			<circle fill="#140F16" cx="1586.172" cy="2319.255" r="12.781"/>
			<path fill="#140F16" d="M1536.68,2350.597c-2.521-3.227-7.98-2.625-10.607,0c-3.152,3.154-2.514,7.389,0,10.607
				c15.494,19.828,45.959,20.211,62.371,1.35c6.318-7.26-4.246-17.916-10.607-10.605
				C1566.299,2365.208,1547.385,2364.298,1536.68,2350.597z"/>
		</g>
		<g>
			<circle fill="#FFFFFF" cx="1589.802" cy="2314.243" r="4.739"/>
			<circle fill="#FFFFFF" cx="1579.626" cy="2327.181" r="1.824"/>
		</g>
		<g>
			<circle fill="#FFFFFF" cx="1534.803" cy="2313.971" r="4.739"/>
			<circle fill="#FFFFFF" cx="1524.627" cy="2326.908" r="1.824"/>
		</g>
	</g>
</svg>
