<?xml version="1.0" encoding="UTF-8"?>
<svg version="1.1" xmlns="http://www.w3.org/2000/svg" viewBox="277.84 2693.93 391.21 276.95">
<g>
		<path fill="#97EBFF" d="M298.137,2931.548c0,0,1.75-56.316,54.875-59.41c0,0,8.831-51.761,55.645-51.094
			c0,0,9.479-63.183,67.479-57.925c0,0,50.001,9.925,47.334,55.258c0,0,53.332,1.521,58.666,53.761c0,0,52,3.572,56.667,55.572
			c0,0,49.334,7.334,56.667,51.334c0,0,5.332,73.999-67.334,60.666c0,0-37,51.215-88.833,1.607l-27.167-0.273
			c0,0-40.667,47.334-86,2l-24.826-1.334c0,0-47.338,48.668-89.256-0.666c0,0-53.251,14.226-67.251-35.221
			c0,0-7.333-33.447,6.667-50.113C251.47,2955.71,268.138,2929.386,298.137,2931.548z"/>
		<path fill="#56C1CC" d="M256.166,2949.765c0,0,8.804,54.055,77.804,25c0,0,21.703,42.414,70.852,15.18
			c0,0,35.311,46.766,98.979,5.266c0,0,31.169,36.5,76.169,1c0,0,29.5,26.5,58-9.5c0,0,31.844,19.146,54.172-19.677
			c0,0,12.66,88.177-64.006,72.677c0,0-46,49.215-88.833,1.607l-27.167-0.273c0,0-50.334,44.834-86,2l-24.826-1.334
			c0,0-47.154,48.898-86.247,2.699c0,0-57.427,8.027-70.26-38.586C244.803,3005.823,236.862,2960.319,256.166,2949.765z"/>
		<g>
			<path fill="#D4FBFF" d="M500.276,2796.555c-2.099,4.097-8.797-2.634-18.709-7.712c-9.913-5.078-19.287-6.582-17.188-10.678
				c2.099-4.098,11.835-3.301,21.748,1.777S502.374,2792.458,500.276,2796.555z"/>
			<circle fill="#D4FBFF" cx="503.637" cy="2801.736" r="3.917"/>
		</g>
		<g>
			<path fill="#D4FBFF" d="M557.435,2854.222c-2.099,4.096-8.797-2.634-18.709-7.712c-9.913-5.079-19.287-6.583-17.188-10.679
				c2.099-4.097,11.835-3.301,21.748,1.777C553.198,2842.688,559.532,2850.125,557.435,2854.222z"/>
			<circle fill="#D4FBFF" cx="560.795" cy="2859.403" r="3.917"/>
		</g>
		<g>
			<path fill="#D4FBFF" d="M613.768,2905.837c-2.099,4.097-8.797-2.633-18.709-7.711c-9.913-5.078-19.287-6.582-17.188-10.679
				s11.835-3.3,21.748,1.778S615.865,2901.741,613.768,2905.837z"/>
			<circle fill="#D4FBFF" cx="617.128" cy="2911.019" r="3.917"/>
		</g>
		<path fill="#FFB959" d="M350.947,2642.677c0,0-34.883,103.334,65.309,145.667l-4.309,31.308c0,0-37.494,2.797-51.247,31.161
			c0,0-67.753-10.398-84.253-75.267C276.447,2775.546,250.447,2674.177,350.947,2642.677z"/>
		<path fill="#FF7676" d="M292.529,2809.612c0,0,49.252,17.076,103.585-22.93h20.142l-7.35,32.969l-37.139,15.936l-11.067,15.226
			C360.7,2850.813,306.877,2837.634,292.529,2809.612z"/>
		<path fill="#FFDFBD" d="M325.835,2658.177c0,0-7.888,77,47.112,112l6.398-3.102c0,0-35.933-30.681-34.506-66.398l5.409-55.698
			L325.835,2658.177z"/>
		<path fill="#E0943B" d="M316.447,2664.177c0,0-54.906,70.319-10.953,148.16l-9.319,3.044c0,0-23.274-29.204-22.751-64.204
			C273.424,2751.177,272.553,2686.184,316.447,2664.177z"/>
		<path fill="#E54E4E" d="M314.447,2827.89c0,0,30.891,6.287,39.945,3.287c0,0,16.389-24.548,41.722-25.523l8.333-17.31
			l11.809,2.333l-3.721,24.704l-33.189,10.796l-18.646,24.636C360.7,2850.813,323.4,2843.442,314.447,2827.89z"/>
		<g>
			<path fill="#140F16" d="M643.773,2924.14c-1.147-9.896-4.428-19.344-9.857-27.852c-5.186-8.126-18.172-0.61-12.951,7.57
				c5.319,8.337,8.117,17.394,8.265,27.294c0.062,4.125,3.366,7.45,7.5,7.5c28.856,0.349,50.672,24.692,48.943,53.255
				c-1.803,29.78-31.927,49.989-60.192,43.638c-2.492-0.56-5.527-0.124-7.297,1.929c-20.313,23.559-55.784,23.557-76.098,0
				c-1.77-2.053-4.805-2.488-7.297-1.929c-7.476,1.681-15.021,1.68-22.496,0c-2.492-0.56-5.527-0.124-7.297,1.929
				c-20.313,23.558-55.785,23.558-76.098,0c-1.771-2.053-4.806-2.488-7.298-1.929c-7.475,1.681-15.021,1.681-22.496,0
				c-2.492-0.56-5.527-0.124-7.298,1.929c-20.31,23.56-55.785,23.557-76.096,0c-1.771-2.053-4.806-2.488-7.298-1.929
				c-24.148,5.428-47.447-7.499-57.077-29.934c-1.613-3.76-7.064-4.563-10.261-2.69c-3.848,2.253-4.304,6.504-2.69,10.261
				c11.688,27.23,40.637,41.998,69.289,37.699c24.935,25.646,67.227,25.651,92.164,0.007c7.013,1.088,14.018,1.089,21.03,0
				c24.938,25.64,67.219,25.64,92.156-0.001c7.014,1.089,14.02,1.089,21.033,0c24.938,25.642,67.225,25.642,92.16-0.005
				c16.801,2.581,33.979-1.058,47.931-11.139c14.954-10.806,23.838-26.982,26.26-45.106
				C705.111,2959.43,677.525,2928.358,643.773,2924.14z"/>
			<path fill="#140F16" d="M248.217,2983.648c2.13-25.376,23.723-44.687,48.948-44.996c4.125-0.051,7.45-3.374,7.5-7.5
				c0.318-26.37,22.118-49.73,49.179-49.094c4.288,0.101,7.236-3.498,7.5-7.5c0.298-4.519,1.22-8.85,2.655-12.933
				c-4.938-0.731-9.803-1.777-14.569-3.13c-0.921,2.843-1.652,5.773-2.187,8.777c-29.772,2.634-53.454,27.615-57.087,56.85
				c-30.551,3.642-54.321,28.324-56.939,59.525C232.407,2993.293,247.414,2993.215,248.217,2983.648z"/>
			<circle fill="#140F16" cx="521.947" cy="2907.041" r="15.833"/>
			<circle fill="#140F16" cx="411.947" cy="2907.041" r="15.833"/>
			<path fill="#140F16" d="M488.167,2954.534c-9.813,15.943-32.672,15.893-42.445-0.061c-5.041-8.232-18.02-0.703-12.951,7.57
				c15.691,25.617,52.609,25.635,68.348,0.061C506.204,2953.841,493.226,2946.313,488.167,2954.534z"/>
			<path fill="#140F16" d="M410.354,2828.546c4.125-0.051,7.45-3.375,7.5-7.5c0.091-7.516,1.842-14.619,4.897-20.971
				c-4.851-1.207-9.62-2.716-14.274-4.529c-2.58,5.808-4.344,12.021-5.137,18.472c-20.232,2.417-37.515,14.083-47.619,30.736
				c5.242,1.355,10.607,2.294,16.047,2.785C380.825,2836.076,394.85,2828.735,410.354,2828.546z"/>
			<path fill="#140F16" d="M466.947,2771.953c27.03-0.327,48.773,22.558,49.095,49.093c0.05,4.125,3.375,7.449,7.5,7.5
				c25.671,0.313,47.308,20.215,49.01,46.013c0.264,4.002,3.212,7.601,7.5,7.5c8.474-0.199,16.823,2.274,24.2,6.318
				c2.15,1.233,4.215,2.592,6.198,4.078c1.523,1.143,4.025,1.239,5.779,0.757c1.874-0.516,3.5-1.771,4.481-3.447
				c1.016-1.731,1.289-3.843,0.757-5.779c-0.563-2.049-1.812-3.256-3.447-4.481c-1.747-1.311-3.569-2.503-5.445-3.615
				c-0.254-0.15-0.497-0.316-0.753-0.463c-7.707-4.227-16.344-7.21-25.16-8.1c-4.98-28.163-27.615-49.898-56.094-53.308
				c-3.835-31.892-30.789-56.669-63.621-57.065c-20.655-0.25-38.979,9.961-50.691,25.417c5.141,1.907,10.427,3.398,15.813,4.451
				C440.949,2777.775,453.269,2772.118,466.947,2771.953z"/>
			<circle fill="#140F16" cx="333.182" cy="2749.274" r="7.347"/>
			<path fill="#140F16" d="M375.675,2775.86c-5.728,4.934-13.716,7.308-22.136,5.285c-9.385-2.257-13.239,12.245-3.805,14.511
				c14.718,3.536,28.645-1.339,37.957-10.779c-2.862-1.86-5.654-3.839-8.345-5.967C378.1,2777.925,376.881,2776.901,375.675,2775.86
				z"/>
			<path fill="#140F16" d="M371.768,2847.539c-5.439-0.491-10.805-1.43-16.047-2.785c-24.37-6.304-46.064-21.653-60.01-43.336
				c-5.213-8.104-18.202-0.592-12.953,7.57c15.674,24.368,39.578,41.82,66.672,49.508c4.767,1.353,9.632,2.398,14.569,3.13
				C365.81,2856.476,368.454,2851.731,371.768,2847.539z"/>
			<path fill="#140F16" d="M432.069,2786.821c-5.387-1.053-10.673-2.544-15.813-4.451c-7.03-2.607-13.776-6.006-20.123-10.136
				c-0.31-0.201-0.623-0.396-0.931-0.601c-4.025-2.682-7.874-5.675-11.53-8.945c-0.942-0.842-1.879-1.691-2.794-2.571
				c-1.967-1.894-3.877-3.865-5.71-5.932c-25.677-28.965-31.493-72.193-15.572-107.275c2.616-5.766-1.625-12.851-8.471-11.017
				c-28.975,7.763-53.786,26.46-69.486,51.984c-17.404,28.294-21.018,63.865-10.957,95.355c2.933,9.178,17.417,5.254,14.465-3.986
				c-8.999-28.165-5.73-58.417,9.444-83.798c10.715-17.924,27.114-31.796,46.103-40.043c-10.904,37.469-2.694,77.953,23.014,108.398
				c1.504,1.781,3.07,3.494,4.674,5.162c2.331,2.424,4.771,4.715,7.294,6.894c1.206,1.041,2.425,2.064,3.671,3.05
				c2.691,2.128,5.483,4.106,8.345,5.967c6.557,4.264,13.524,7.841,20.786,10.669c4.654,1.813,9.424,3.322,14.274,4.529
				C425.122,2795.147,428.283,2790.677,432.069,2786.821z"/>
		</g>
		<g>
			<circle fill="#FFFFFF" cx="527.154" cy="2900.811" r="6.096"/>
			<circle fill="#FFFFFF" cx="514.064" cy="2917.452" r="2.346"/>
		</g>
		<g>
			<circle fill="#FFFFFF" cx="416.618" cy="2899.582" r="6.096"/>
			<circle fill="#FFFFFF" cx="403.527" cy="2916.224" r="2.346"/>
		</g>
		<g>
			<circle fill="#FFFFFF" cx="335.658" cy="2746.335" r="2.779"/>
			<circle fill="#FFFFFF" cx="329.689" cy="2753.924" r="1.07"/>
		</g>
	</g>
</svg>
