<?xml version="1.0" encoding="UTF-8"?>
<svg version="1.1" xmlns="http://www.w3.org/2000/svg" viewBox="2734.24 1483.07 263.74 173.97">
<g>
		<path fill="#FFB959" d="M2735.517,1723.435l-28.901,25.973c0,0-15.334,16.667-36,4l6-65.334l-48.666-56.168l50.666-59.832
			l-8.001-75.332l74-16.878l37.622-63.788l70.629,26l70.793-26l37.624,63.788l72,18.215l-4,74l47.998,57.332l-48,58.667l8,60.666
			l-9.334,12.119c0,0-21.333,6.547-35.333-20.119l-20.666-15.338l-129.999-23.329L2735.517,1723.435z"/>
		<path fill="#FF7676" d="M2736.947,1725.405c0,0-108-141.083,53-233.542c0,0,128.516-56.459,206.258,75.541
			c0,0,37.742,93-24.258,158c0,0-21.543-4.102-28,12c0,0-23.602,33.326-51.9,16c0,0-17.1-35-46.1-28l-32.1,32.993
			c0,0-30.9,12.007-46.9-16.993L2736.947,1725.405z"/>
		<path fill="#97EBFF" d="M2627.949,1728.405v84.936l17.998,7.064c0,0,27.754,41.982,39,30c0,0,25.223-1.874,29-17.9
			c0,0,22-35.1,48-9.1c0,0,16,29.5,35,27c0,0,30.5-17.5,41.5-31c0,0,23.947-13.539,40,10.5c0,0,25.5,37,51.5,11
			c0,0,24.5-37.5,48.5-19c0,0,33.482,35.655,54.5,26.5c0,0,35-35.52,47-34.76v-85.24c0,0-15.5-4.5-28,14.5c0,0-27,32.5-52,2.5
			c0,0-21.279-26.264-41.64-19.632l-34.649,28.954c0,0-25.799,19.727-53.505-25.548c0,0-16.206-12.774-36.706,5.226
			c0,0-24.422,41.5-51.211,19c0,0-35.445-39.5-58.617-23.5c0,0-19.172,41-54.672,24
			C2668.947,1753.905,2634.448,1727.655,2627.949,1728.405z"/>
		<path fill="#E54E4E" d="M2703.023,1642.959c0,0,140.257,156.888,298.924,0c0,0-4.01,62.369-29.338,81.741l-14.302,1.073
			l-26.494,22.139l-23.961,12.95l-15.806-7.345l-18.1-19.445l-19.408-6l-10.592-0.611l-14.826,13.196l-15.273,14.58l-15.806,6.335
			l-15.806-4.618l-14.289-13.549l-18.666-12.667l-17.083-4.321C2732.198,1726.417,2700.1,1677.182,2703.023,1642.959z"/>
		<path fill="#E0943B" d="M2659.947,1661.405l43.126-8.436l29.125,73.447l-24.918,20.988c0,0-22,24.333-38.333,6.5l7.668-65.832
			L2659.947,1661.405z"/>
		<path fill="#E0943B" d="M3006.162,1652.97l43.973,9.619l-20.854,25.488l8,60.666c0,0-10.499,25.987-35.333-1.083s-2-2.255-2-2.255
			l-27.338-20.705L3006.162,1652.97z"/>
		<path fill="#FFDFBD" d="M2675.279,1502.072c2,1.333,82-8.667,82-8.667l33.334-58l63.926,26l62.74-26l33.334,58.667l76.666,8.666
			l-65.997-22.875l-37.624-63.788l-70.793,26l-70.629-26l-35.623,60.663L2675.279,1502.072z"/>
		<path fill="#FFB6B6" d="M2936.646,1530.644c-3.134,6.662-10.8-5.08-24.122-11.346s-27.256-4.682-24.122-11.345
			s16.475-6.985,29.796-0.721C2931.521,1513.5,2939.78,1523.98,2936.646,1530.644z"/>
		<circle fill="#FFB6B6" cx="2943.644" cy="1537.404" r="6.333"/>
		<path fill="#56C1CC" d="M2647.334,1813.646c0,0,28.457,33.76,76.285,1.76l-11.441,21.557l-20.845,12.427l-22.957-2.609
			L2647.334,1813.646z"/>
		<path fill="#56C1CC" d="M2756.447,1813.646c0,0,39,32.74,78.5,0l-5.826,18.859l-21.517,14.4l-22.714,1.109l-13.876-11.666
			L2756.447,1813.646z"/>
		<path fill="#56C1CC" d="M2868.447,1816.405c0,0,37.5,28.961,79-3.02l-6.851,15.041l-16.938,15.479l-15.806,6.14l-13.519-4.962
			l-11.118-12.578L2868.447,1816.405z"/>
		<path fill="#56C1CC" d="M2984.947,1818.405c0,0,35,20.5,73,0l-8.036,14.1l-16.964,15.9l-21.575,4.151l-12.425-17.075
			L2984.947,1818.405z"/>
		<path fill="#56C1CC" d="M2875.447,1776.631c0,0,29,23.274,53.5,14.274l-9,13h-21.821l-8.679-8.828l-9.5-10.172L2875.447,1776.631z
			"/>
		<path fill="#56C1CC" d="M2763.447,1776.631c0,0,27.611,24.22,54.556,11.997l-7.556,12.277l-12.405,7.018l-11.595-4.018l-8-5.5
			l-7.5-9.777L2763.447,1776.631z"/>
		<path fill="#56C1CC" d="M2993.949,1776.631c0,0,36.666,20.517,53.333,15.646l-14.667,15.646l-18-4.018l-12.668-8.828
			L2993.949,1776.631z"/>
		<path fill="#140F16" d="M2923.658,1593.233c0-8.729-7.076-15.803-15.805-15.803c-8.73,0-15.807,7.074-15.807,15.803
			c0,8.73,7.076,15.807,15.807,15.807C2916.582,1609.04,2923.658,1601.963,2923.658,1593.233z"/>
		<circle fill="#140F16" cx="2798.043" cy="1593.235" r="15.805"/>
		<path fill="#140F16" d="M2854.338,1623.647c-27.641-1.494-49.799,24.398-46.386,51.206c0.517,4.055,3.021,7.5,7.5,7.5
			c3.696,0,8.018-3.434,7.5-7.5c-2.403-18.877,10.372-35.879,29.995-36.231c17.938-0.324,32.643,16.555,30.257,34.264
			c-0.545,4.049,0.904,8.035,5.238,9.227c3.536,0.973,8.679-1.178,9.227-5.238
			C2901.358,1649.487,2882.311,1625.159,2854.338,1623.647z"/>
		<path fill="#140F16" d="M3077.936,1718.306c-10.064,0.182-18.597,3.963-25.904,10.787c-3.951,3.689-7.205,8.018-10.719,12.111
			c-1.544-17.215-3.088-34.43-4.631-51.646c15.798-18.096,31.596-36.193,47.394-54.29c2.896-3.318,2.896-7.541,0-10.859
			c-15.798-18.098-31.596-36.193-47.394-54.291c0.299-3.346,0.599-6.691,0.899-10.039c0.884-9.867-14.48-9.781-15.357,0
			c-0.354,3.953-0.708,7.906-1.063,11.859c-0.29,3.24,1.529,5.451,3.484,7.689c5.292,6.063,10.584,12.125,15.875,18.186
			c9.318,10.676,18.638,21.35,27.956,32.025c-14.354,16.443-28.708,32.885-43.063,49.329c-2.279,2.611-4.563,5.107-4.226,8.867
			c0.426,4.754,0.853,9.508,1.279,14.264c1.39,15.5,2.779,31,4.169,46.5c0.087,0.963,0.173,1.926,0.259,2.891
			c-4.279,1.01-8.879,0.684-13.166-0.791c-6.98-2.4-11.943-9.893-16.445-15.295c-4.254-5.105-8.89-9.588-14.496-12.787
			c0.752-1.033,1.498-2.074,2.228-3.129c26.263-37.902,33.903-86.836,22.256-131.233c-11.34-43.227-41.803-80.322-81.397-100.76
			c-41.979-21.668-92.67-23.17-136.014-4.588c-45.063,19.32-79.162,59.314-91.586,106.686c-2.456,9.367,12.013,13.336,14.465,3.988
			c11.507-43.877,43.313-80.855,85.455-98.02c42.494-17.307,91.318-13.076,130.434,10.676
			c37.119,22.541,62.711,62.26,67.998,105.354c4.674,38.1-6.128,76.383-29.199,106.463c-7.04-0.316-14.275,1.49-20.238,4.91
			c-13.454,7.715-19.791,28.182-36.762,29.119c-8.484,0.469-14.48-3.875-19.916-9.895c-5.76-6.379-10.6-13.113-17.684-18.168
			c-8.252-5.889-19.114-6.955-28.801-4.877c-8.83,1.893-15.927,8.123-21.662,14.754c-5.121,5.922-9.648,12.621-16.728,16.352
			c-7.092,3.734-15.839,1.857-22.05-2.574c-6.281-4.484-10.563-11.877-15.853-17.41c-6.78-7.094-15.085-11.158-24.839-12.07
			c-1.506-0.141-2.978-0.16-4.426-0.096c-3.463-4.445-6.677-9.084-9.603-13.902c-13.628-22.443-20.536-48.361-20.654-74.559
			c-0.044-9.672-15.044-9.676-15,0c0.151,33.532,10.803,66.079,30.003,93.004c-4.996,2.834-9.462,6.771-13.342,11.256
			c-6.83,7.896-12.998,17.555-24.43,18.186c-2.332,0.129-4.463-0.115-6.439-0.646c1.838-20.51,3.677-41.018,5.516-61.527
			c0.331-3.684-0.028-6.348-2.67-9.373c-3.138-3.594-6.276-7.189-9.415-10.785c-10.232-11.721-20.466-23.444-30.698-35.165
			c-1.439-1.648-2.879-3.299-4.318-4.947c14.354-16.443,28.709-32.887,43.063-49.33c2.279-2.611,4.563-5.107,4.226-8.867
			c-0.427-4.754-0.853-9.508-1.278-14.262c-1.391-15.502-2.78-31.002-4.17-46.502c-0.23-2.574-0.462-5.148-0.692-7.725
			c21.575-4.918,43.15-9.836,64.726-14.754c3.492-0.797,6.208-1.793,8.209-5.146c2.445-4.102,4.892-8.203,7.338-12.303
			c7.974-13.371,15.948-26.74,23.923-40.109c1.204-2.02,2.408-4.039,3.612-6.057c19.934,8.541,39.867,17.082,59.801,25.625
			c3.951,1.691,7.061,2.779,11.406,0.916c4.215-1.807,8.431-3.611,12.646-5.418c14.316-6.135,28.633-12.27,42.949-18.404
			c2.115-0.906,4.23-1.813,6.346-2.719c11.269,18.893,22.537,37.785,33.806,56.678c1.795,3.01,3.521,5.625,7.245,6.475
			c4.655,1.061,9.311,2.121,13.966,3.184c15.177,3.459,30.354,6.92,45.53,10.379c2.42,0.553,4.84,1.104,7.26,1.654
			c-0.445,4.969-0.891,9.938-1.337,14.904c-0.885,9.867,14.479,9.781,15.357,0c0.625-6.967,1.25-13.934,1.875-20.9
			c0.292-3.252-2.545-6.699-5.638-7.404c-23.699-5.402-47.398-10.805-71.098-16.207c-12.385-20.766-24.77-41.527-37.154-62.293
			c-2.34-3.922-6.633-4.414-10.506-2.754c-21.961,9.41-43.921,18.82-65.881,28.23c-21.961-9.41-43.922-18.82-65.883-28.23
			c-3.872-1.66-8.165-1.168-10.505,2.754c-12.385,20.766-24.769,41.527-37.153,62.293c-23.699,5.402-47.399,10.805-71.099,16.207
			c-3.093,0.705-5.929,4.152-5.638,7.404c2.181,24.32,4.361,48.641,6.543,72.961c-15.799,18.098-31.596,36.193-47.394,54.291
			c-2.896,3.318-2.896,7.541,0,10.859c15.798,18.096,31.595,36.194,47.394,54.29c-1.546,17.236-3.092,34.473-4.637,51.709
			c-1.624-1.844-3.193-3.773-4.77-5.664c-8.391-10.072-18.311-17.053-31.848-17.297c-9.679-0.176-9.661,14.824,0,15
			c16.156,0.293,23.42,17.746,34.912,26.965c0.734,0.59,1.484,1.146,2.256,1.662c8.385,5.594,19.444,6.529,29.027,4.068
			c3.191-0.818,6.126-2.184,8.846-3.908c4.73-2.996,8.805-7.086,12.418-11.33c5.105-5.998,9.716-12.539,16.99-16.033
			c0.037-0.018,0.075-0.029,0.111-0.047c6.589-3.1,15.539-1.359,21.05,3.078c6.375,5.131,10.804,12.291,16.526,18.078
			c6.929,7.006,15.529,10.9,25.357,11.443c3.174,0.176,6.258-0.123,9.225-0.816c6.377-1.492,12.209-4.824,17.206-9.283
			c6.11-5.453,10.485-12.557,16.471-18.148c5.894-5.502,13.911-6.951,21.557-4.658c7.213,2.162,12.226,9.361,16.793,14.873
			c5.772,6.967,11.994,12.789,20.54,16.113c1.059,0.41,2.145,0.748,3.246,1.031c8.628,2.221,18.366,0.609,26.086-3.455
			c13.63-7.182,19.959-28.006,36.41-29.545c3.837-0.357,7.151,0.234,10.115,1.479c6.459,2.711,11.244,8.523,16.098,14.377
			c4.276,5.16,8.85,9.57,14.109,12.75c4.981,3.012,10.576,4.922,17.135,5.283c8.629,0.479,16.109-2.438,22.564-7.164
			c3.611-2.645,6.906-5.848,9.893-9.355c7.008-8.232,13.228-17.244,25.035-17.457
			C3087.597,1733.13,3087.614,1718.13,3077.936,1718.306z"/>
		<path fill="#140F16" d="M2924.34,1792.38c-6.482,5.951-15.885,8.348-24.097,4.402c-5.051-2.426-8.876-6.764-12.445-11.139
			c-1.231-1.508-2.433-3.021-3.644-4.461c-2.689-3.199-5.547-6.088-8.714-8.557c-3.165-2.467-6.638-4.518-10.562-6.043
			c-10.461-4.066-23.354-1.887-32.413,4.387c-0.832,0.576-1.484,1.24-1.991,1.953c-4.309,6.053,2.427,15.939,9.562,10.998
			c7.823-5.416,17.314-5.688,25.22-0.414c2.076,1.385,3.936,3.109,5.68,4.988c3.418,3.684,6.387,7.977,9.625,11.563
			c14.701,16.283,37.98,17.99,54.385,2.93C2942.086,1796.433,2931.449,1785.853,2924.34,1792.38z"/>
		<path fill="#140F16" d="M3043.071,1792.514c-6.482,5.951-15.885,8.348-24.097,4.402c-5.051-2.426-8.876-6.764-12.445-11.139
			c-1.231-1.508-2.433-3.021-3.644-4.461c-2.689-3.199-5.547-6.088-8.714-8.557c-3.165-2.467-6.638-4.518-10.562-6.043
			c-10.461-4.066-23.354-1.887-32.413,4.387c-0.832,0.576-1.484,1.24-1.991,1.953c-4.309,6.053,2.427,15.939,9.562,10.998
			c7.823-5.416,17.314-5.688,25.22-0.414c2.076,1.385,3.936,3.109,5.68,4.988c3.418,3.684,6.387,7.977,9.625,11.563
			c14.701,16.283,37.98,17.99,54.385,2.93C3060.817,1796.566,3050.181,1785.986,3043.071,1792.514z"/>
		<path fill="#140F16" d="M2736.026,1780.028c10.772-2.014,17.7,3.639,23.949,10.605c3.628,4.045,7.027,8.529,10.817,12.219
			c15.375,14.969,38.394,13.521,53.227-1.414c6.821-6.867-3.783-17.477-10.605-10.607c-6.243,6.285-13.84,9.313-22.685,7.041
			c-6.519-1.674-11.13-7.203-15.277-12.137c-4.881-5.805-9.548-11.467-15.927-15.723c-8.073-5.385-18.183-6.188-27.487-4.449
			c-1.827,0.342-3.149,1.156-4.033,2.23C2724.296,1772.306,2728.392,1781.456,2736.026,1780.028z"/>
		<path fill="#140F16" d="M2693.562,1812.495c12.593-2.85,20.13-13.717,28.103-22.814c2.01-2.293,2.32-4.928,1.608-7.227
			c-1.536-4.963-7.85-8.361-12.214-3.381c-0.143,0.162-0.285,0.334-0.428,0.5c-5.382,6.266-10.541,14.525-18.479,17.66
			c-9.688,3.828-18.663-0.127-25.401-7.172c-6.695-7.002-17.288,3.619-10.605,10.607
			C2666.181,1811.163,2679.193,1815.745,2693.562,1812.495z"/>
		<path fill="#140F16" d="M3077.936,1808.015c-10.064,0.184-18.597,3.965-25.904,10.787c-5.987,5.59-10.358,12.662-16.486,18.129
			c-6.009,5.363-14.384,6.232-21.816,3.676c-6.98-2.4-11.943-9.893-16.445-15.295c-5.771-6.926-12.237-12.713-20.891-15.689
			c-7.813-2.689-16.798-2.061-24.514,1.002c-1.627,0.646-3.201,1.393-4.691,2.248c-9.349,5.361-15.264,16.873-23.695,23.719
			c-1.814,1.473-3.742,2.734-5.85,3.666c-2.192,0.971-4.576,1.59-7.217,1.736c-8.484,0.469-14.48-3.875-19.916-9.896
			c-4.988-5.525-9.293-11.311-14.957-16.047c-0.875-0.732-1.778-1.443-2.727-2.119c-4.586-3.273-9.978-5.053-15.525-5.635
			c-2.995-0.314-6.033-0.273-9.018,0.066c-1.436,0.164-2.859,0.391-4.258,0.689c-5.219,1.119-9.827,3.76-13.912,7.096
			c-2.826,2.309-5.404,4.947-7.75,7.66c-5.121,5.92-9.648,12.621-16.728,16.35c-5.354,2.82-11.649,2.439-17.087,0.178
			c-1.765-0.734-3.44-1.666-4.963-2.752c-0.43-0.307-0.848-0.629-1.259-0.961c-5.61-4.525-9.665-11.293-14.594-16.447
			c-4.008-4.193-8.553-7.32-13.61-9.371c-3.498-1.418-7.24-2.326-11.229-2.699c-16.619-1.555-27.695,9.301-37.449,21.006
			c-3.68,4.418-7.773,9.354-13.289,11.496c-8.314,3.234-16.978,0.852-23.34-5.074c-5.668-5.568-10.096-12.25-15.945-17.645
			c-6.953-6.414-15.488-9.666-24.912-9.873c-9.679-0.213-9.658,14.787,0,15c14.551,0.32,21.016,14.051,30.252,23.125
			c0.225,0.211,0.457,0.402,0.684,0.605c9.371,8.391,20.643,11.629,33.152,9.463c8.919-1.545,16.281-7.658,22.089-14.24
			c5.154-5.844,9.604-12.682,16.494-16.633c6.927-3.973,15.729-2.729,22.136,1.547c6.417,4.281,10.787,11.678,15.97,17.268
			c6.661,7.184,14.661,11.381,24.345,12.668c10.072,1.338,19.629-2.443,27.34-8.65c6.375-5.133,10.804-12.293,16.527-18.08
			c0.177-0.178,0.36-0.346,0.541-0.518c4.314-4.135,9.563-6.488,15.307-6.559c0.099-0.002,0.196-0.006,0.295-0.006
			c1.559,0.002,3.152,0.164,4.773,0.512c4.162,0.893,7.568,3.215,10.575,6.066c2.552,2.418,4.818,5.215,7.006,7.855
			c5.409,6.525,11.107,13.055,19.056,16.506c9.827,4.268,20.563,3.826,30.297-0.402c15.064-6.541,20.295-26.721,36.779-30.256
			c17.69-3.793,25.797,16.363,37.135,25.488c14.257,11.477,33.707,10.428,47.44-1.236c10.416-8.846,16.268-24.242,31.784-24.523
			C3087.597,1822.841,3087.614,1807.839,3077.936,1808.015z"/>
		<g>
			<path fill="#FFFFFF" d="M2919.025,1587.362c0,3.066-2.487,5.553-5.555,5.553c-3.07,0-5.553-2.486-5.553-5.553
				c0-3.07,2.482-5.556,5.553-5.556C2916.538,1581.806,2919.025,1584.292,2919.025,1587.362z"/>
			<circle fill="#FFFFFF" cx="2901.542" cy="1602.527" r="2.138"/>
		</g>
		<g>
			<path fill="#FFFFFF" d="M2807.853,1587.042c0,3.066-2.487,5.553-5.555,5.553c-3.07,0-5.553-2.486-5.553-5.553
				c0-3.07,2.482-5.556,5.553-5.556C2805.365,1581.486,2807.853,1583.971,2807.853,1587.042z"/>
			<circle fill="#FFFFFF" cx="2790.369" cy="1602.207" r="2.138"/>
		</g>
	</g>
</svg>
