<?xml version="1.0" encoding="UTF-8"?>
<svg version="1.1" xmlns="http://www.w3.org/2000/svg" viewBox="1960.14 2117.23 444.15 392.98">
<g>
		<polygon fill="#FF7676" points="2049.947,2299.06 2004.947,2250.405 2056.947,2195.405 2050.947,2119.302 2124.947,2091.835 
			2164.467,2031.405 2236.623,2059.405 2309.428,2031.405 2348.947,2096.405 2421.947,2110.692 2417.947,2190.072 
			2467.947,2245.315 2431.947,2294.738 2394.169,2264.405 2117.947,2245.315 2081.947,2267.394 		"/>
		<path fill="#FFB959" d="M2081.947,2267.394c0,0-34-122.988,132-172.988c0,0,90-24.496,161,77.752c0,0,27,71.225,17,95.236h-12.866
			l-133.134,126.012l-127-120C2118.947,2273.405,2098.605,2260.065,2081.947,2267.394z"/>
		<path fill="#97EBFF" d="M2015.363,2350.612v111.6h442.6v-134.313l-57.194-63.445c0,0-11.488-14.595-34.154,7.916l-121.333,129.817
			l-136.334-136.135c0,0-17.275-15.032-34.04,3.642l-62.293,70.325L2015.363,2350.612z"/>
		<polygon fill="#56C1CC" points="2149.13,2314.725 2208.947,2402.405 2180.668,2453.405 2245.947,2393.405 		"/>
		<path fill="#D4FBFF" d="M2186.447,2462.212h23.5l193-185.807c0,0-9-13-26-7.5l-51.479,47.487l-19.759,20.446L2186.447,2462.212z"
			/>
		<path fill="#D4FBFF" d="M2113.947,2274.905l-98.584,92.5v-26.5l71.084-74.5
			C2086.447,2266.405,2102.447,2263.405,2113.947,2274.905z"/>
		<path fill="#E0943B" d="M2134.483,2288.085c0,0,82.135,72.662,207.468,4.662l9.249-0.091l-67.932,67.774l-40.427,32.975
			L2134.483,2288.085z"/>
		<path fill="#FFDFBD" d="M2339.083,2162.954c-4.529,6.834-13.689-6.088-28.881-16.158c-15.191-10.068-30.662-13.471-26.132-20.305
			c4.529-6.834,20.517-4.211,35.708,5.857C2334.97,2142.419,2343.612,2156.121,2339.083,2162.954z"/>
		<circle fill="#FFDFBD" cx="2348.287" cy="2173.232" r="8"/>
		<polygon fill="#E54E4E" points="2008.14,2247.029 2082.614,2233.405 2082.614,2270.423 2048.896,2299.06 		"/>
		<polygon fill="#E54E4E" points="2394.169,2228.521 2457.963,2238.742 2467.947,2248.075 2431.947,2294.738 2400.769,2264.454 
			2392.447,2266.053 		"/>
		<polygon fill="#FFB6B6" points="2051.602,2127.596 2134.483,2110.692 2173.95,2050.744 2242.842,2077.41 2302.617,2050.744 
			2333.95,2102.083 2358.617,2102.083 2346.168,2091.835 2309.428,2031.405 2235.289,2058.888 2164.467,2031.405 2126.617,2094.744 
			2047.95,2110.692 		"/>
		<g>
			<path fill="#140F16" d="M2473.724,2244.411c-16.214-18.574-32.428-37.149-48.642-55.724c2.236-24.949,4.475-49.9,6.713-74.851
				c0.291-3.252-2.545-6.699-5.638-7.404c-7.13-1.625-14.26-3.251-21.39-4.876c-9.642-2.198-13.736,12.607-4.082,14.809
				c5.071,1.156,10.143,2.313,15.214,3.469c-2.003,22.337-4.007,44.675-6.01,67.012c-0.354,3.948-0.854,6.759,2.124,10.171
				c2.695,3.089,5.392,6.177,8.088,9.265c10.219,11.708,20.439,23.415,30.658,35.123c2.455,2.813,4.91,5.624,7.365,8.437
				c-9.814,11.241-19.628,22.483-29.441,33.725c-3.835-3.835-7.671-7.671-11.506-11.506c-3.872-3.872-7.767-7.513-12.705-10.071
				c-1.413-0.732-2.859-1.357-4.327-1.883c2.328-38.385-8.982-77.152-32.194-108.105c-27.455-36.611-68.897-59.783-114.275-64.822
				c-52.896-5.873-106.526,16.172-141.026,56.403c-6.26,7.301,4.3,17.962,10.607,10.607c32.95-38.427,83.479-58.55,133.892-51.598
				c43.612,6.015,82.701,31.644,106.024,68.891c16.302,26.033,23.602,56.472,21.94,86.637c-5.451,0.398-10.846,1.94-15.801,4.509
				c-5.121,2.652-9.088,7.047-13.113,11.074c-5.319,5.318-10.638,10.637-15.956,15.955c-5.745,5.746-11.491,11.492-17.237,17.238
				c-6.845,6.845,3.762,17.451,10.607,10.605c8.518-8.518,17.035-17.035,25.553-25.554c7.357-7.358,14.478-16.345,24.315-18.466
				c3.067-0.662,6.396-0.664,10.083,0.27c1.781,0.451,3.371,1.168,4.852,2.042c2.908,1.718,5.363,4.083,7.813,6.531
				c4.189,4.189,8.379,8.38,12.567,12.568c0.062,0.062,0.122,0.122,0.183,0.183c3.559,3.559,7.117,7.117,10.677,10.677
				c7.308,7.307,14.614,14.614,21.921,21.921c2.318,2.318,4.637,4.637,6.955,6.955c6.846,6.846,17.452-3.761,10.607-10.605
				c-9.865-9.866-19.73-19.731-29.596-29.597c11.394-13.052,22.787-26.103,34.181-39.154
				C2476.62,2251.953,2476.619,2247.729,2473.724,2244.411z"/>
			<circle fill="#140F16" cx="2293.228" cy="2212.321" r="16.201"/>
			<circle fill="#140F16" cx="2180.669" cy="2212.321" r="16.201"/>
			<path fill="#140F16" d="M2200.514,2258.396c-3.535-0.972-8.68,1.179-9.227,5.238c-3.766,27.952,15.711,52.812,44.266,54.321
				c28.091,1.485,51-24.925,47.328-52.3c-0.543-4.051-3-7.5-7.5-7.5c-3.676,0-8.045,3.437-7.5,7.5
				c2.518,18.768-10.008,36.267-29.539,37.3c-19.032,1.006-35.142-16.394-32.59-35.333
				C2206.297,2263.573,2204.848,2259.588,2200.514,2258.396z"/>
			<path fill="#140F16" d="M2296.506,2333.395c-17.915,17.915-35.83,35.831-53.746,53.746
				c-33.455-33.454-66.91-66.909-100.364-100.363c-5.665-5.665-11.33-11.33-16.995-16.995c-9.937-9.937-23.969-13.806-36.834-10.533
				c-1.758-26.872,4.273-54.268,16.623-78.094c4.445-8.574-8.499-16.161-12.951-7.57c-14.975,28.887-20.891,61.148-17.751,92.715
				c-7.27,5.776-13.548,13.16-20.088,19.7c-1.257,1.257-2.515,2.514-3.771,3.771c-9.165-10.498-18.329-20.996-27.493-31.494
				c-2.455-2.813-4.91-5.625-7.365-8.437c14.486-16.596,28.973-33.19,43.459-49.786c2.271-2.602,5.472-5.443,5.136-9.191
				c-0.366-4.084-0.732-8.167-1.099-12.251c-1.388-15.479-2.775-30.96-4.164-46.44c-0.369-4.112-0.737-8.226-1.105-12.338
				c21.771-4.963,43.542-9.926,65.313-14.889c3.658-0.834,6.963-1.227,9.138-4.873c2.102-3.521,4.202-7.044,6.303-10.566
				c7.964-13.353,15.928-26.705,23.892-40.058c1.995-3.345,3.99-6.69,5.986-10.036c20.117,8.621,40.236,17.24,60.354,25.861
				c4.127,1.768,7.469,3.626,12.086,1.647c3.586-1.536,7.171-3.072,10.757-4.608c14.258-6.109,28.516-12.219,42.773-18.328
				c3.557-1.524,7.113-3.048,10.67-4.572c8.688,14.566,17.375,29.133,26.063,43.699c3.443,5.772,6.886,11.545,10.329,17.316
				c2.616,4.387,9.807,4.719,14.28,5.738c4.516,1.029,9.032,2.06,13.549,3.089c9.642,2.198,13.736-12.607,4.082-14.809
				c-6.788-1.547-13.576-3.095-20.365-4.643c-12.708-21.308-25.416-42.614-38.124-63.921c-2.34-3.924-6.633-4.414-10.505-2.755
				c-22.543,9.658-45.086,19.317-67.629,28.978c-22.543-9.66-45.086-19.319-67.629-28.978c-3.872-1.659-8.165-1.169-10.505,2.755
				c-12.709,21.307-25.417,42.613-38.125,63.921c-24.317,5.543-48.634,11.086-72.95,16.629c-3.093,0.705-5.929,4.152-5.638,7.404
				c2.237,24.95,4.475,49.901,6.712,74.851c-16.215,18.574-32.428,37.149-48.642,55.724c-2.896,3.317-2.896,7.542,0,10.859
				c13.199,15.12,26.398,30.24,39.598,45.36c-6.384,6.385-12.77,12.77-19.153,19.154c-5.287,5.286-10.572,10.572-15.859,15.859
				c-6.845,6.845,3.762,17.451,10.607,10.605c11.09-11.09,22.18-22.181,33.271-33.271c0.341-0.34,0.682-0.682,1.022-1.021
				c0.202-0.203,0.405-0.406,0.607-0.608c3.418-3.417,6.834-6.834,10.251-10.251c2.508-2.508,5.016-5.016,7.523-7.523
				c2.858-2.858,5.892-6.394,9.156-9.716c4.01-4.081,8.371-7.829,13.189-9.607c0.088-0.032,0.174-0.074,0.262-0.105
				c8.176-2.885,17.329-0.576,23.405,5.5c1.441,1.441,2.882,2.882,4.323,4.323c37.912,37.912,75.824,75.824,113.736,113.736
				c0.015,0.014,0.028,0.028,0.042,0.043c-0.149,0.149-0.3,0.3-0.45,0.45c-4.694,4.694-9.39,9.39-14.085,14.085
				c-8.924,8.924-17.848,17.848-26.771,26.771c-4.78,4.779-9.56,9.56-14.34,14.34c-1.381,1.381-2.042,2.914-2.177,4.427
				c-0.532,5.986,7.319,11.644,12.784,6.179c6.798-6.797,13.595-13.596,20.393-20.393c10.081-10.08,20.161-20.161,30.242-30.242
				c5.318-5.318,10.638-10.637,15.956-15.956c13.023-13.023,26.046-26.046,39.069-39.069c4.78-4.779,9.56-9.56,14.34-14.34
				C2313.958,2337.155,2303.352,2326.549,2296.506,2333.395z"/>
		</g>
		<g>
			<circle fill="#FFFFFF" cx="2299.716" cy="2206.157" r="5.832"/>
			<circle fill="#FFFFFF" cx="2287.191" cy="2222.08" r="2.245"/>
		</g>
		<g>
			<circle fill="#FFFFFF" cx="2185.137" cy="2205.372" r="5.832"/>
			<circle fill="#FFFFFF" cx="2172.612" cy="2221.295" r="2.245"/>
		</g>
	</g>
</svg>
