<?xml version="1.0" encoding="UTF-8"?>
<svg version="1.1" xmlns="http://www.w3.org/2000/svg" viewBox="1416.16 791.14 450.08 500.93">
<g>
		<g>
			<path fill="#97EBFF" d="M1472.493,972.378c0,0,1.743-56.107,54.674-59.189c0,0,8.798-51.573,55.44-50.907
				c0,0,9.443-62.951,67.23-57.713c0,0,49.817,9.891,47.16,55.056c0,0,53.136,1.515,58.448,53.564c0,0,51.811,3.557,56.459,55.367
				c0,0,49.152,7.307,56.458,51.146c0,0,5.313,73.726-67.085,60.441c0,0-36.865,51.026-88.507,1.601l-27.065-0.271
				c0,0-40.518,47.16-85.684,1.993l-24.735-1.329c0,0-47.164,48.487-88.928-0.664c0,0-53.055,14.173-67.003-35.089
				c0,0-7.306-33.325,6.643-49.932C1425.999,996.452,1442.604,970.226,1472.493,972.378z"/>
			<path fill="#56C1CC" d="M1430.678,990.531c0,0,8.771,53.854,77.519,24.907c0,0,21.622,42.258,70.589,15.123
				c0,0,35.182,46.593,98.616,5.246c0,0,31.053,36.365,75.887,0.996c0,0,29.393,26.402,57.787-9.466
				c0,0,31.728,19.077,53.973-19.604c0,0,12.613,87.854-63.77,72.41c0,0-45.832,49.034-88.507,1.601l-27.065-0.271
				c0,0-50.149,44.67-85.684,1.993l-24.735-1.329c0,0-46.981,48.719-85.93,2.688c0,0-57.215,8.001-70.001-38.44
				C1419.356,1046.383,1411.444,1001.045,1430.678,990.531z"/>
			<g>
				<path fill="#D4FBFF" d="M1673.89,837.883c-2.092,4.081-8.765-2.624-18.641-7.684c-9.877-5.059-19.215-6.559-17.125-10.639
					c2.092-4.082,11.793-3.289,21.668,1.771C1669.669,826.391,1675.979,833.802,1673.89,837.883z"/>
				<circle fill="#D4FBFF" cx="1677.239" cy="843.045" r="3.902"/>
			</g>
			<g>
				<path fill="#D4FBFF" d="M1730.836,895.337c-2.09,4.081-8.763-2.625-18.639-7.685s-19.217-6.557-17.126-10.638
					c2.091-4.083,11.792-3.288,21.669,1.771C1726.617,883.845,1732.927,891.255,1730.836,895.337z"/>
				<circle fill="#D4FBFF" cx="1734.185" cy="900.5" r="3.902"/>
			</g>
			<g>
				<path fill="#D4FBFF" d="M1786.963,946.764c-2.09,4.08-8.763-2.624-18.641-7.684c-9.877-5.061-19.217-6.559-17.125-10.64
					c2.09-4.081,11.791-3.288,21.669,1.772C1782.741,935.273,1789.053,942.683,1786.963,946.764z"/>
				<circle fill="#D4FBFF" cx="1790.311" cy="951.925" r="3.902"/>
			</g>
		</g>
		<polygon fill="#FFB959" points="1549.28,939.436 1549.28,1096.072 1575.287,1082.136 1600.022,1083.465 1600.022,939.436 		"/>
		<polygon fill="#FFB959" points="1687.28,939.436 1684.614,1085.405 1713.006,1085.405 1738.087,1099.14 1738.087,939.436 		"/>
		<path fill="#FF7676" d="M1453.462,1081.412l-2.847,162.66h385.333l-2.667-162.66l-32.003-1.269c0,0-36.649,45.926-88.272,5.262
			l-23.058-2.667c0,0-47.334,41.334-88.667,2.667h-26.63c0,0-49.311,41.498-83.007,1.749l-7.5-1.905L1453.462,1081.412z"/>
		<path fill="#FFB959" d="M1491.645,1087.154v156.918h43.229v-140.284C1534.873,1103.788,1502.842,1100.903,1491.645,1087.154z"/>
		<polygon fill="#97EBFF" points="1578.104,1087.154 1578.104,1244.072 1621.332,1244.072 1621.332,1102.65 1601.281,1085.405 		"/>
		<polygon fill="#FFB959" points="1664.096,1097.539 1664.563,1244.072 1707.791,1244.072 1707.791,1084.801 1689.948,1082.738 		
			"/>
		<path fill="#97EBFF" d="M1750.071,1102.65l0.95,141.422h43.229l2.197-156.918
			C1796.447,1087.154,1762.056,1110.895,1750.071,1102.65z"/>
		<polygon fill="#E0943B" points="1552.947,953.875 1596.447,953.875 1599.718,941.905 1549.28,939.436 		"/>
		<polygon fill="#E0943B" points="1691.454,953.875 1734.954,953.875 1738.225,941.905 1687.787,939.436 		"/>
		<g>
			<path fill="#FFB6B6" d="M1471.281,1154.15c0,1.933-1.567,3.5-3.5,3.5l0,0c-1.933,0-3.5-1.567-3.5-3.5v-16.577
				c0-1.934,1.567-3.5,3.5-3.5l0,0c1.933,0,3.5,1.566,3.5,3.5V1154.15z"/>
			<circle fill="#FFB6B6" cx="1467.781" cy="1163.03" r="3.625"/>
		</g>
		<g>
			<path fill="#FFB6B6" d="M1480.614,1224.47c0,1.933-1.567,3.5-3.5,3.5l0,0c-1.933,0-3.5-1.567-3.5-3.5v-16.577
				c0-1.934,1.567-3.5,3.5-3.5l0,0c1.933,0,3.5,1.566,3.5,3.5V1224.47z"/>
			<circle fill="#FFB6B6" cx="1477.114" cy="1233.35" r="3.625"/>
		</g>
		<g>
			<path fill="#FFDFBD" d="M1516.759,1150.601c0,1.933-1.567,3.5-3.5,3.5l0,0c-1.933,0-3.5-1.567-3.5-3.5v-16.577
				c0-1.934,1.567-3.5,3.5-3.5l0,0c1.933,0,3.5,1.566,3.5,3.5V1150.601z"/>
			<circle fill="#FFDFBD" cx="1513.259" cy="1159.481" r="3.625"/>
		</g>
		<g>
			<path fill="#FFDFBD" d="M1516.759,1208.179c0,1.933-1.567,3.5-3.5,3.5l0,0c-1.933,0-3.5-1.567-3.5-3.5v-16.577
				c0-1.934,1.567-3.5,3.5-3.5l0,0c1.933,0,3.5,1.566,3.5,3.5V1208.179z"/>
			<circle fill="#FFDFBD" cx="1513.259" cy="1217.059" r="3.625"/>
		</g>
		<g>
			<path fill="#FFDFBD" d="M1688.114,1155.147c0,1.933-1.567,3.5-3.5,3.5l0,0c-1.933,0-3.5-1.567-3.5-3.5v-16.577
				c0-1.934,1.567-3.5,3.5-3.5l0,0c1.933,0,3.5,1.566,3.5,3.5V1155.147z"/>
			<circle fill="#FFDFBD" cx="1684.614" cy="1164.027" r="3.625"/>
		</g>
		<g>
			<path fill="#FFDFBD" d="M1689.443,1220.845c0,1.933-1.567,3.5-3.5,3.5l0,0c-1.933,0-3.5-1.567-3.5-3.5v-16.577
				c0-1.934,1.567-3.5,3.5-3.5l0,0c1.933,0,3.5,1.566,3.5,3.5V1220.845z"/>
			<circle fill="#FFDFBD" cx="1685.943" cy="1229.725" r="3.625"/>
		</g>
		<g>
			<path fill="#FFDFBD" d="M1720.131,998.208c0,1.933-1.567,3.5-3.5,3.5l0,0c-1.933,0-3.5-1.567-3.5-3.5v-16.577
				c0-1.934,1.567-3.5,3.5-3.5l0,0c1.933,0,3.5,1.566,3.5,3.5V998.208z"/>
			<circle fill="#FFDFBD" cx="1716.631" cy="1007.088" r="3.625"/>
		</g>
		<g>
			<path fill="#FFDFBD" d="M1711.291,1055.875c0,1.933-1.567,3.5-3.5,3.5l0,0c-1.933,0-3.5-1.567-3.5-3.5v-16.577
				c0-1.934,1.567-3.5,3.5-3.5l0,0c1.933,0,3.5,1.566,3.5,3.5V1055.875z"/>
			<circle fill="#FFDFBD" cx="1707.791" cy="1064.755" r="3.625"/>
		</g>
		<g>
			<path fill="#D4FBFF" d="M1603.218,1156.933c0,1.933-1.567,3.5-3.5,3.5l0,0c-1.933,0-3.5-1.567-3.5-3.5v-16.577
				c0-1.934,1.567-3.5,3.5-3.5l0,0c1.933,0,3.5,1.566,3.5,3.5V1156.933z"/>
			<circle fill="#D4FBFF" cx="1599.718" cy="1165.813" r="3.625"/>
		</g>
		<g>
			<path fill="#D4FBFF" d="M1776.759,1206.822c0,1.933-1.567,3.5-3.5,3.5l0,0c-1.933,0-3.5-1.567-3.5-3.5v-16.577
				c0-1.934,1.567-3.5,3.5-3.5l0,0c1.933,0,3.5,1.566,3.5,3.5V1206.822z"/>
			<circle fill="#D4FBFF" cx="1773.259" cy="1215.702" r="3.625"/>
		</g>
		<g>
			<path fill="#FFDFBD" d="M1572.624,987.388c0,1.933-1.567,3.5-3.5,3.5l0,0c-1.933,0-3.5-1.567-3.5-3.5v-16.577
				c0-1.934,1.567-3.5,3.5-3.5l0,0c1.933,0,3.5,1.566,3.5,3.5V987.388z"/>
			<circle fill="#FFDFBD" cx="1569.124" cy="996.268" r="3.625"/>
		</g>
		<g>
			<path fill="#FFDFBD" d="M1581.604,1054.388c0,1.933-1.567,3.5-3.5,3.5l0,0c-1.933,0-3.5-1.567-3.5-3.5v-16.577
				c0-1.934,1.567-3.5,3.5-3.5l0,0c1.933,0,3.5,1.566,3.5,3.5V1054.388z"/>
			<circle fill="#FFDFBD" cx="1578.104" cy="1063.268" r="3.625"/>
		</g>
		<g>
			<path fill="#FFB6B6" d="M1557.614,1142.481c0,1.933-1.567,3.5-3.5,3.5l0,0c-1.933,0-3.5-1.567-3.5-3.5v-16.577
				c0-1.934,1.567-3.5,3.5-3.5l0,0c1.933,0,3.5,1.566,3.5,3.5V1142.481z"/>
			<circle fill="#FFB6B6" cx="1554.114" cy="1151.361" r="3.625"/>
		</g>
		<g>
			<path fill="#FFB6B6" d="M1564.739,1223.113c0,1.933-1.567,3.5-3.5,3.5l0,0c-1.933,0-3.5-1.567-3.5-3.5v-16.577
				c0-1.934,1.567-3.5,3.5-3.5l0,0c1.933,0,3.5,1.566,3.5,3.5V1223.113z"/>
			<circle fill="#FFB6B6" cx="1561.239" cy="1231.993" r="3.625"/>
		</g>
		<g>
			<path fill="#FFB6B6" d="M1646.447,1177.727c0,1.933-1.567,3.5-3.5,3.5l0,0c-1.933,0-3.5-1.567-3.5-3.5v-16.577
				c0-1.934,1.567-3.5,3.5-3.5l0,0c1.933,0,3.5,1.566,3.5,3.5V1177.727z"/>
			<circle fill="#FFB6B6" cx="1642.947" cy="1186.607" r="3.625"/>
		</g>
		<g>
			<path fill="#FFB6B6" d="M1731.78,1141.56c0,1.933-1.567,3.5-3.5,3.5l0,0c-1.933,0-3.5-1.567-3.5-3.5v-16.577
				c0-1.934,1.567-3.5,3.5-3.5l0,0c1.933,0,3.5,1.566,3.5,3.5V1141.56z"/>
			<circle fill="#FFB6B6" cx="1728.28" cy="1150.44" r="3.625"/>
		</g>
		<g>
			<path fill="#FFB6B6" d="M1731.78,1228.603c0,1.933-1.567,3.5-3.5,3.5l0,0c-1.933,0-3.5-1.567-3.5-3.5v-16.577
				c0-1.934,1.567-3.5,3.5-3.5l0,0c1.933,0,3.5,1.566,3.5,3.5V1228.603z"/>
			<circle fill="#FFB6B6" cx="1728.28" cy="1237.483" r="3.625"/>
		</g>
		<g>
			<path fill="#FFB6B6" d="M1818.113,1173.224c0,1.933-1.567,3.5-3.5,3.5l0,0c-1.933,0-3.5-1.567-3.5-3.5v-16.577
				c0-1.934,1.567-3.5,3.5-3.5l0,0c1.933,0,3.5,1.566,3.5,3.5V1173.224z"/>
			<circle fill="#FFB6B6" cx="1814.613" cy="1182.104" r="3.625"/>
		</g>
		<g>
			<path fill="#140F16" d="M1819.769,964.936c-2.378-19.959-13.692-37.674-31.134-48.21c-0.252-0.176-0.518-0.345-0.805-0.502
				c-0.264-0.154-0.526-0.29-0.787-0.409c-7.508-4.004-15.853-6.831-24.373-7.69c-4.98-28.162-27.615-49.898-56.094-53.307
				c-3.835-31.893-30.789-56.67-63.621-57.067c-32.799-0.396-59.732,25.568-63.607,57.065
				c-28.467,3.401-51.098,25.114-56.097,53.256c-29.771,2.634-53.452,27.614-57.086,56.847
				c-33.75,4.087-59.774,34.311-56.819,69.156c1.96,23.106,16.059,41.671,35.041,51.246c0,48.091,0,96.182,0,144.271
				c0,4.465,0,8.93,0,13.395c0,9.673,15,9.673,15,0c0-49.421,0-98.843,0-148.264c0-1.333,0-2.667,0-4
				c7.795,1.789,16.012,2.18,24.286,0.947c11.877,12.221,27.694,18.608,43.7,19.188c0,16.016,0,32.03,0,48.046
				c0,9.673,15,9.673,15,0c0-16.405,0-32.811,0-49.216c2.704-0.526,5.377-1.224,8.004-2.094c0.947-0.154,1.862-0.471,2.686-0.944
				c8.381-3.193,16.188-8.184,22.783-14.965c7.013,1.088,14.018,1.089,21.03,0c5.039,5.181,10.786,9.312,16.956,12.398
				c0,7.996,0,15.992,0,23.988c0,9.673,15,9.673,15,0c0-6.232,0-12.465,0-18.697c21.104,4.637,44.214-1.253,60.2-17.69
				c3.755,0.583,7.507,0.856,11.259,0.815c0,9.413,0,18.825,0,28.238c0,9.673,15,9.673,15,0c0-8.084,0-16.168,0-24.253
				c5.34,4.377,11.264,7.757,17.506,10.143c0.84,0.49,1.778,0.815,2.751,0.971c16.756,5.547,35.457,4.109,51.202-4.298
				c0,6.258,0,12.517,0,18.774c0,9.673,15,9.673,15,0c0-9.977,0-19.954,0-29.931c0.156-0.157,0.32-0.305,0.476-0.465
				c8.144,1.251,16.371,1.034,24.282-0.668c0,46.193,0,92.387,0,138.58c0,4.465,0,8.93,0,13.395c0,9.673,15,9.673,15,0
				c0-49.421,0-98.843,0-148.264c0-2.984,0-5.969,0-8.953c2.99-1.494,5.884-3.231,8.648-5.229
				c14.954-10.806,23.838-26.982,26.26-45.106C1881.12,1000.223,1853.527,969.149,1819.769,964.936z M1575.112,1076.343
				c-2.492-0.56-5.527-0.124-7.298,1.929c-3.398,3.941-7.227,7.208-11.332,9.831c0-45.276,0-90.553,0-135.829
				c0-1.79,0-3.579,0-5.369c11.744,0,23.488,0,35.232,0c0.134,43.455,0.269,86.91,0.402,130.366
				C1586.449,1077.92,1580.76,1077.613,1575.112,1076.343z M1718.094,1078.272c-1.77-2.053-4.805-2.488-7.297-1.929
				c-5.653,1.271-11.347,1.576-17.02,0.925c0.134-43.454,0.269-86.908,0.402-130.363c11.744,0,23.488,0,35.232,0
				c0,46.894,0,93.786,0,140.68c0,0.169,0,0.339,0,0.508C1725.313,1085.471,1721.488,1082.208,1718.094,1078.272z
				 M1861.681,1032.706c-1.803,29.78-31.927,49.989-60.192,43.638c-1.194-0.269-2.511-0.3-3.756-0.042
				c-1.353,0.279-2.619,0.901-3.541,1.971c-2.299,2.666-4.799,5.014-7.441,7.076c-12.334,9.625-27.928,12.68-42.338,9.165
				c0-47.414,0-94.826,0-142.239c0-1.79,0-3.579,0-5.369c0.991,0,1.981,0,2.973,0c9.673,0,9.673-15,0-15
				c-23.889,0-47.777,0-71.666,0c-9.673,0-9.673,15,0,15c1.154,0,2.308,0,3.461,0c-0.138,44.598-0.275,89.194-0.413,133.792
				c-19.837,20.318-51.809,20.313-71.639-0.016c-0.138-44.593-0.276-89.184-0.413-133.776c1.153,0,2.307,0,3.461,0
				c9.673,0,9.673-15,0-15c-23.889,0-47.777,0-71.666,0c-9.673,0-9.673,15,0,15c0.991,0,1.981,0,2.973,0c0,46.894,0,93.786,0,140.68
				c0,2.312,0,4.622,0,6.933c-17.494,4.261-36.743-1.144-49.764-16.245c-1.771-2.053-4.806-2.488-7.298-1.929
				c-28.179,6.333-56.902-13.205-60.075-42.269c-3.167-29.011,19.901-54.274,48.827-54.624c4.125-0.05,7.45-3.375,7.5-7.5
				c0.318-26.37,22.118-49.73,49.179-49.094c4.288,0.101,7.236-3.498,7.5-7.5c1.701-25.798,23.338-45.699,49.01-46.013
				c4.125-0.051,7.45-3.375,7.5-7.5c0.326-27.026,22.068-48.767,49.094-49.094c27.03-0.326,48.773,22.559,49.095,49.094
				c0.05,4.125,3.375,7.449,7.5,7.5c25.671,0.313,47.308,20.215,49.01,46.013c0.264,4.002,3.212,7.601,7.5,7.5
				c8.474-0.199,16.823,2.274,24.2,6.318c15.407,9.011,24.739,24.913,24.978,42.775c0.055,4.125,3.371,7.45,7.5,7.5
				C1841.594,979.799,1863.409,1004.143,1861.681,1032.706z"/>
			<path fill="#140F16" d="M1642.947,999.905c-17.48-0.487-31.033,14.748-31.5,31.5c-0.27,9.679,14.73,9.652,15,0
				c0.257-9.207,7.293-16.243,16.5-16.5c9.206-0.257,16.254,7.68,16.5,16.5c0.27,9.652,15.27,9.679,15,0
				C1673.959,1013.918,1660.434,1000.393,1642.947,999.905z"/>
			<path fill="#140F16" d="M1484.145,1215.905c0,9.52,0,19.04,0,28.56c0,9.673,15,9.673,15,0c0-9.52,0-19.04,0-28.56
				C1499.145,1206.232,1484.145,1206.232,1484.145,1215.905z"/>
			<path fill="#140F16" d="M1484.145,1164.905c0,7.166,0,14.333,0,21.499c0,9.673,15,9.673,15,0c0-7.166,0-14.333,0-21.499
				C1499.145,1155.232,1484.145,1155.232,1484.145,1164.905z"/>
			<path fill="#140F16" d="M1484.145,1109.905c0,8.333,0,16.666,0,24.999c0,9.673,15,9.673,15,0c0-8.333,0-16.666,0-24.999
				C1499.145,1100.232,1484.145,1100.232,1484.145,1109.905z"/>
			<path fill="#140F16" d="M1527.373,1196.905c0,15.854,0,31.706,0,47.56c0,9.673,15,9.673,15,0c0-15.854,0-31.706,0-47.56
				C1542.373,1187.232,1527.373,1187.232,1527.373,1196.905z"/>
			<path fill="#140F16" d="M1570.604,1232.072c0,4.131,0,8.262,0,12.393c0,9.673,15,9.673,15,0c0-4.131,0-8.262,0-12.393
				C1585.604,1222.399,1570.604,1222.399,1570.604,1232.072z"/>
			<path fill="#140F16" d="M1570.604,1182.739c0,9.777,0,19.556,0,29.333c0,9.673,15,9.673,15,0c0-9.777,0-19.556,0-29.333
				C1585.604,1173.066,1570.604,1173.066,1570.604,1182.739z"/>
			<path fill="#140F16" d="M1570.604,1118.072c0,10.667,0,21.334,0,32.001c0,9.673,15,9.673,15,0c0-10.667,0-21.334,0-32.001
				C1585.604,1108.399,1570.604,1108.399,1570.604,1118.072z"/>
			<path fill="#140F16" d="M1613.832,1216.739c0,9.242,0,18.483,0,27.726c0,9.673,15,9.673,15,0c0-9.242,0-18.483,0-27.726
				C1628.832,1207.066,1613.832,1207.066,1613.832,1216.739z"/>
			<path fill="#140F16" d="M1613.832,1153.405c0,11.333,0,22.667,0,34c0,9.673,15,9.673,15,0c0-11.333,0-22.667,0-34
				C1628.832,1143.732,1613.832,1143.732,1613.832,1153.405z"/>
			<path fill="#140F16" d="M1657.063,1201.405c0,14.354,0,28.706,0,43.06c0,9.673,15,9.673,15,0c0-14.354,0-28.706,0-43.06
				C1672.063,1191.732,1657.063,1191.732,1657.063,1201.405z"/>
			<path fill="#140F16" d="M1657.063,1122.072c0,12.889,0,25.778,0,38.667c0,9.673,15,9.673,15,0c0-12.889,0-25.778,0-38.667
				C1672.063,1112.399,1657.063,1112.399,1657.063,1122.072z"/>
			<path fill="#140F16" d="M1700.291,1217.405c0,9.02,0,18.04,0,27.06c0,9.673,15,9.673,15,0c0-9.02,0-18.04,0-27.06
				C1715.291,1207.732,1700.291,1207.732,1700.291,1217.405z"/>
			<path fill="#140F16" d="M1700.291,1152.739c0,12,0,24,0,36c0,9.673,15,9.673,15,0c0-12,0-24,0-36
				C1715.291,1143.066,1700.291,1143.066,1700.291,1152.739z"/>
			<path fill="#140F16" d="M1743.521,1190.073c0,8.667,0,17.333,0,26c0,9.464,0,18.928,0,28.392c0,9.673,15,9.673,15,0
				c0-9.464,0-18.928,0-28.392c0-8.667,0-17.333,0-26C1758.521,1180.4,1743.521,1180.4,1743.521,1190.073z"/>
			<path fill="#140F16" d="M1743.521,1128.738c0,10.222,0,20.444,0,30.666c0,9.673,15,9.673,15,0c0-10.222,0-20.444,0-30.666
				C1758.521,1119.065,1743.521,1119.065,1743.521,1128.738z"/>
			<path fill="#140F16" d="M1786.75,1215.409c0,9.686,0,19.37,0,29.056c0,9.673,15,9.673,15,0c0-9.686,0-19.37,0-29.056
				C1801.75,1205.736,1786.75,1205.736,1786.75,1215.409z"/>
			<path fill="#140F16" d="M1786.75,1154.743c0,9.111,0,18.223,0,27.334c0,9.673,15,9.673,15,0c0-9.111,0-18.223,0-27.334
				C1801.75,1145.07,1786.75,1145.07,1786.75,1154.743z"/>
		</g>
	</g>
</svg>
