<?xml version="1.0" encoding="UTF-8"?>
<svg version="1.1" xmlns="http://www.w3.org/2000/svg" viewBox="323.84 797.6 362.74 343.88">
<g>
		<g>
			<path fill="#97EBFF" d="M306.772,1094.623c0,0,1.648-53.053,51.696-55.967c0,0,8.319-48.765,52.421-48.136
				c0,0,8.93-59.522,63.57-54.569c0,0,47.104,9.351,44.592,52.057c0,0,50.242,1.433,55.267,50.648c0,0,48.989,3.363,53.385,52.353
				c0,0,46.476,6.908,53.384,48.359c0,0,5.023,69.711-63.433,57.151c0,0-34.857,48.248-83.688,1.514l-25.592-0.257
				c0,0-38.312,44.592-81.019,1.884l-23.388-1.257c0,0-44.596,45.848-84.085-0.627c0,0-50.166,13.4-63.355-33.18
				c0,0-6.908-31.51,6.281-47.212C262.808,1117.384,278.51,1092.586,306.772,1094.623z"/>
			<path fill="#56C1CC" d="M267.232,1111.786c0,0,8.293,50.922,73.296,23.551c0,0,20.446,39.957,66.747,14.3
				c0,0,33.265,44.057,93.246,4.961c0,0,29.362,34.385,71.755,0.941c0,0,27.792,24.965,54.641-8.95c0,0,29.999,18.038,51.033-18.537
				c0,0,11.927,83.069-60.297,68.468c0,0-43.336,46.363-83.688,1.514l-25.592-0.257c0,0-47.419,42.237-81.019,1.884l-23.388-1.257
				c0,0-44.423,46.066-81.251,2.542c0,0-54.1,7.564-66.189-36.349C256.527,1164.596,249.047,1121.728,267.232,1111.786z"/>
			<g>
				<path fill="#D4FBFF" d="M497.201,967.45c-1.978,3.859-8.288-2.48-17.626-7.265c-9.339-4.783-18.169-6.201-16.192-10.06
					c1.977-3.859,11.15-3.109,20.488,1.675C493.21,956.584,499.177,963.591,497.201,967.45z"/>
				<circle fill="#D4FBFF" cx="500.367" cy="972.332" r="3.689"/>
			</g>
			<g>
				<path fill="#D4FBFF" d="M551.047,1021.776c-1.977,3.859-8.286-2.481-17.624-7.266c-9.339-4.784-18.17-6.2-16.193-10.059
					c1.978-3.86,11.149-3.109,20.488,1.675C547.057,1010.91,553.023,1017.917,551.047,1021.776z"/>
				<circle fill="#D4FBFF" cx="554.213" cy="1026.657" r="3.69"/>
			</g>
			<g>
				<path fill="#D4FBFF" d="M604.117,1070.402c-1.977,3.858-8.286-2.48-17.626-7.265c-9.338-4.784-18.17-6.201-16.192-10.061
					c1.977-3.858,11.149-3.108,20.489,1.676C600.126,1059.537,606.093,1066.543,604.117,1070.402z"/>
				<circle fill="#D4FBFF" cx="607.283" cy="1075.283" r="3.689"/>
			</g>
		</g>
		<path fill="#FFB959" d="M422.692,960.597c0,0-9.414-34.299-32.081-37.741c0,0-14.583-47.671-53.333-18.109l-7.333,18.109
			c0,0-22.667,2.107-30.667,31.666c0,0-22.667-1.775-29.333,24.892c0,0-30.827,9.042-30.667,33.062c0,0-8.113,27.384,33.333,27.605
			c0,0,12.91,21.746,46,10.529l12.053-2.979l27.803-8.975c0,0,12.698-47.696,52.421-48.136
			C410.889,990.52,412.773,964.448,422.692,960.597z"/>
		<path fill="#FF7676" d="M422.692,960.597c0,0-11.415-37.623-32.081-37.741c0,0,4.005-14.117,21.336-12.784
			c0,0,9.998-42,46.665-44.667c0,0,7-45.333,47.5-47.333c0,0,35.747-0.667,51.79,45.333c0,0,44.05,3.999,49.38,45.333
			c0,0,45.33,10.234,47.33,45.784c0,0,59.332,17.669,42.666,71.942c0,0-15.008,33.428-55.333,27.359l-20.331,15.083
			c0,0-19.002-31.502-47.669-27.502c0,0-6.458-52.128-54.896-53.397c0,0-7.412-48.844-44.592-52.057
			C474.459,935.951,438.772,935.79,422.692,960.597z"/>
		<path fill="#E0943B" d="M243.447,1001.984c0,0,10.5,18.421,32,5.921c0,0,5.5,24,33.5,9c0,0,10,16.5,28,2.5
			c0,0,7.5,13.178,25.5,2.589l-6.773,17.563l-25.009,8.073l-27.717,6.135l-17.634-3.155l-9.502-6.613l-21.092-0.092l-11.673-13.558
			l-4.41-20.442L243.447,1001.984z"/>
		<path fill="#E54E4E" d="M550.523,1000.395c0,0,20.717,20.344,53.07-9.656c0,0,16.841,26.185,49.02,4
			c0,0,29.401,12.616,36.034-18.025c0,0,30.11,45.704-9.962,70.198l-36.739,6.912l-20.331,15.083c0,0-25.669-31.501-47.002-30.168
			C574.613,1038.739,562.434,1004.718,550.523,1000.395z"/>
		<path fill="#FFDFBD" d="M371.628,915.875c-0.99,1.923-3.45-1.776-7.706-3.967c-4.255-2.189-8.696-2.042-7.706-3.965
			s5.242-1.706,9.498,0.484C369.97,910.618,372.618,913.953,371.628,915.875z"/>
		<circle fill="#FFDFBD" cx="373.836" cy="919.405" r="2"/>
		<g>
			<path fill="#FFDFBD" d="M401.99,945.346c-0.99,1.923-3.45-1.776-7.706-3.967c-4.255-2.189-8.696-2.042-7.706-3.965
				s5.242-1.706,9.498,0.484C400.332,940.088,402.979,943.423,401.99,945.346z"/>
			<circle fill="#FFDFBD" cx="404.197" cy="948.875" r="2"/>
		</g>
		<g>
			<path fill="#FFB6B6" d="M531.7,843.182c-1.566,3.046-5.463-2.813-12.203-6.283c-6.741-3.467-13.772-3.233-12.205-6.279
				c1.566-3.045,8.303-2.702,15.041,0.768C529.074,834.855,533.269,840.137,531.7,843.182z"/>
			<circle fill="#FFB6B6" cx="535.197" cy="848.772" r="3.168"/>
		</g>
		<g>
			<path fill="#FFB6B6" d="M582.533,893.682c-1.566,3.046-5.463-2.813-12.203-6.283c-6.741-3.467-13.772-3.233-12.205-6.279
				c1.566-3.045,8.303-2.702,15.041,0.768C579.907,885.355,584.102,890.637,582.533,893.682z"/>
			<circle fill="#FFB6B6" cx="586.03" cy="899.272" r="3.168"/>
		</g>
		<g>
			<path fill="#FFB6B6" d="M631.913,939.043c-1.566,3.046-5.463-2.813-12.203-6.283c-6.741-3.467-13.772-3.233-12.205-6.279
				c1.566-3.045,8.303-2.702,15.041,0.768C629.287,930.716,633.481,935.999,631.913,939.043z"/>
			<circle fill="#FFB6B6" cx="635.41" cy="944.633" r="3.168"/>
		</g>
		<g>
			<circle fill="#140F16" cx="521.946" cy="1077.655" r="15.833"/>
			<circle fill="#140F16" cx="411.948" cy="1077.655" r="15.833"/>
			<path fill="#140F16" d="M279.074,1185.028c-15.707-12.319-22.453-31.746-16.836-51.06c5.617-19.312,24.295-32.019,43.979-32.313
				c4.131-0.062,7.443-3.365,7.5-7.5c0.17-12.196,4.727-23.437,13.168-32.25c3.291-3.436,7.68-6.725,12.518-9.257
				c0.076-0.019,0.156-0.03,0.229-0.051c0.65-0.179,1.268-0.452,1.842-0.795c0.143-0.056,0.287-0.111,0.43-0.172
				c4.734-2.014,11.082-3.936,16.484-3.662c0.492,0.034,0.986,0.062,1.471,0.127c4.246,0.569,7.258-3.854,7.5-7.5
				c1.607-24.209,21.9-42.841,45.98-43.15c4.135-0.053,7.438-3.372,7.5-7.5c0.016-1.014,0.066-2.017,0.145-3.01
				c0.006-0.069,0.01-0.139,0.016-0.209c2.652-31.961,37.119-52.644,66.713-37.893c8.629,4.302,16.229-8.636,7.57-12.951
				c-19.236-9.589-41.537-9.134-60.098,1.873c-3.764,2.232-7.203,4.872-10.303,7.83c-3.488-11.971-12.311-21.332-23.912-25.357
				c3.992-1.312,8.154-2.033,12.498-2.033c4.299,0,7.223-3.423,7.5-7.5c1.445-21.229,19.203-37.465,40.301-37.771
				c4.131-0.06,7.439-3.367,7.5-7.5c0.285-20.144,14.57-36.286,34.199-39.943c24.385-4.544,46.15,16.196,46.551,39.943
				c0.068,4.133,3.359,7.439,7.5,7.5c21.094,0.306,38.855,16.546,40.299,37.771c0.277,4.077,3.201,7.5,7.5,7.5
				c7.041,0,13.723,1.816,19.885,5.186c8.49,4.643,16.059-8.311,7.57-12.951c-6.523-3.567-13.568-5.931-20.889-6.826
				c-4.57-23.685-23.461-41.871-47.432-45.144c-4.09-28.937-30.178-51.098-60.301-48.094c-25.865,2.58-45.865,23.05-49.34,48.097
				c-23.963,3.28-42.84,21.46-47.408,45.14c-5.268,0.642-10.402,2.041-15.279,4.118c-7.051-12.75-20.982-21.091-36.662-19.322
				c-16.732,1.888-29.506,14.521-32.652,30.424c-14.484,2.832-25.666,13.542-29.42,27.739c-7.207,1.26-14.459,5.627-19.354,9.935
				c-6.031,5.311-9.73,12.796-11.189,20.63c-3.373,0.658-6.619,1.727-9.912,3.192c-3.736,1.663-4.584,7.029-2.689,10.261
				c2.232,3.813,6.525,4.354,10.26,2.69c2.916-1.297,5.973-1.806,9.133-1.895c4.158-0.117,7.406-3.325,7.5-7.5
				c0.139-6.102,2.359-11.48,6.582-15.888c1.959-2.043,4.316-3.459,6.828-4.72c1.352-0.68,2.91-1.015,4.367-1.381
				c0.354-0.089,4.445-0.323,2.74-0.739c5,1.22,9.115-2.316,9.494-7.232c0.908-11.819,10.736-20.562,22.42-20.83
				c4.156-0.096,7.406-3.341,7.5-7.5c0.256-11.392,8.066-19.996,19.066-22.245c13.625-2.787,25.518,9.272,25.854,22.245
				c0.107,4.158,3.332,7.404,7.5,7.5c11.684,0.269,21.508,9.01,22.41,20.83c0.18,2.369,1.166,4.303,2.668,5.604
				c-1.605,2.842-2.99,5.812-4.141,8.876c0,0.003-0.002,0.007-0.004,0.011c-0.283,0.754-0.557,1.513-0.811,2.277
				c-0.178,0.525-0.338,1.056-0.502,1.586c-0.039,0.133-0.082,0.266-0.121,0.398c-0.998,3.33-1.719,6.759-2.152,10.272
				c-26.789,3.352-48.051,23.687-53.01,50.119c-4.516,0.467-9.154,1.824-13.434,3.401c-1.725-0.992-3.889-1.146-5.809-0.729
				c-3.355,0.729-6.672,0.707-10.033,0c-2.535-0.533-5.477-0.129-7.297,1.929c-9.783,11.063-25.52,11.062-35.303,0
				c-1.82-2.058-4.762-2.462-7.297-1.929c-18.445,3.879-31.859-14.042-25.631-30.985c3.346-9.1-11.154-12.987-14.463-3.988
				c-4.846,13.178-1.805,26.95,6.861,37.68c7.828,9.693,20.479,13.615,32.508,12.467c9.904,9.202,23.721,12.058,36.061,8.574
				c-5.619,8.203-9.08,17.784-10.283,27.671c-23.416,2.942-42.9,18.711-50.953,41.347c-8.49,23.865,0.545,51.711,20.213,67.139
				c3.213,2.521,7.457,3.148,10.607,0C281.703,1193.005,282.297,1187.556,279.074,1185.028z"/>
			<path fill="#140F16" d="M686.242,1130.691c-2.613-9.298-17.086-5.343-14.465,3.988c1.215,4.323,1.824,8.544,1.869,13.035
				c-0.379,29.487-27.764,51.24-56.605,44.848c-2.498-0.553-5.523-0.128-7.299,1.929c-19.105,22.142-52.34,22.124-71.451,0
				c-1.777-2.056-4.801-2.482-7.299-1.929c-7.021,1.558-14.049,1.557-21.07,0c-2.498-0.554-5.521-0.127-7.299,1.929
				c-19.117,22.132-52.334,22.132-71.453,0c-1.775-2.056-4.799-2.482-7.297-1.929c-7.021,1.558-14.049,1.558-21.072,0
				c-2.496-0.554-5.521-0.127-7.297,1.929c-19.117,22.132-52.336,22.132-71.453,0c-1.775-2.056-4.801-2.482-7.297-1.929
				c-5.9,1.309-11.725,1.437-17.719,0.735c-4.07-0.477-7.5,3.772-7.5,7.5c0,4.448,3.441,7.024,7.5,7.5
				c5.723,0.67,11.375,0.479,17.004-0.394c23.742,24.216,63.764,24.21,87.496-0.02c6.547,0.983,13.059,0.983,19.604,0
				c23.74,24.236,63.777,24.235,87.518,0c6.545,0.983,13.057,0.983,19.602,0c23.736,24.229,63.795,24.247,87.523-0.004
				c17.525,2.6,34.467-2.002,48.605-13.069c14.025-10.976,21.756-28.647,22.227-46.214c0.025-0.285,0.037-0.579,0.033-0.883
				C688.588,1141.969,687.795,1136.223,686.242,1130.691z"/>
			<path fill="#140F16" d="M659.744,951.633c-0.99-7.483-3.379-14.615-7.201-21.294c-4.803-8.392-17.764-0.839-12.951,7.57
				c3.684,6.438,5.541,13.24,5.676,20.655c0.074,4.132,3.355,7.441,7.5,7.5c23.508,0.334,41.285,19.846,40.291,43.143
				c-1.061,24.85-26.031,41.692-49.508,36.555c-2.508-0.548-5.51-0.127-7.297,1.929c-3.758,4.323-8.053,7.887-13.031,10.478
				c-1.617-2.247-3.387-4.412-5.32-6.477c-5.473-5.847-12.426-10.438-19.752-13.584c-5.121-2.198-11.563-4.41-17.68-5.038
				c-4.953-26.435-26.207-46.771-52.994-50.128c-0.641-5.42-1.928-10.719-3.996-15.839c-1.529-3.787-4.939-6.417-9.227-5.238
				c-3.6,0.99-6.771,5.429-5.238,9.227c2.473,6.124,3.83,12.246,3.941,18.854c0.068,4.127,3.359,7.447,7.5,7.5
				c24.084,0.31,44.373,18.938,45.98,43.15c0.242,3.646,3.254,8.069,7.5,7.5c11.418-1.531,24.34,5.55,32.271,13.106
				c9.012,8.585,13.676,20.632,13.867,32.953c0.064,4.134,3.365,7.438,7.5,7.5c12.385,0.186,23.695,4.856,32.578,13.491
				c6.938,6.741,17.555-3.855,10.607-10.607c-10.016-9.734-22.553-15.706-36.184-17.388c-0.686-5.539-2.064-10.89-4.131-15.964
				c5.092-2.678,9.752-6.02,13.855-10.14c31.271,4.259,59.436-17.3,63.523-49.118C711.678,981.951,688.275,955.733,659.744,951.633z
				"/>
			<path fill="#140F16" d="M466.947,1153.963c24.492,0.303,47.41-13.95,59.232-35.115c4.723-8.453-8.234-16.014-12.951-7.57
				c-9.496,16.998-26.775,27.444-46.281,27.686c-19.363,0.239-36.934-10.981-46.26-27.646c-4.725-8.44-17.682-0.879-12.953,7.57
				C419.791,1140.428,442.305,1153.659,466.947,1153.963z"/>
		</g>
		<g>
			<circle fill="#FFFFFF" cx="527.217" cy="1071.531" r="5.792"/>
			<circle fill="#FFFFFF" cx="514.779" cy="1087.343" r="2.229"/>
		</g>
		<g>
			<circle fill="#FFFFFF" cx="416.386" cy="1071.001" r="5.792"/>
			<circle fill="#FFFFFF" cx="403.948" cy="1086.814" r="2.229"/>
		</g>
	</g>
</svg>
