<?xml version="1.0" encoding="UTF-8"?>
<svg xmlns="http://www.w3.org/2000/svg" version="1.1" viewBox="1337.80 130.67 605.28 605.28" width="320" height="320"><g>
		<path fill="#FF7676" d="M1494.581,243.839c23.375-11.234,50.4-12.58,74.528-2.668c3.778,1.553,6.422,4.922,5.238,9.227    c-0.258,0.936-0.755,1.843-1.412,2.649c4.248,2.074,8.523,4.589,12.67,7.645c2.42-3.475,7.552-5.25,11.509-1.438    c16.943,16.324,26.358,38.248,27.669,60.629c5.189-1.557,10.653-2.436,16.305-2.539c-0.992-1.139-1.985-2.275-2.978-3.412    c-3.133-3.588-6.265-7.176-9.397-10.764c-1.837-2.105-4.751-4.693-5.505-7.434c-0.021-0.073-0.028-0.151-0.046-0.226l-4.215-4.437    l3.223-33.429c-3.677-0.838-7.354-1.676-11.03-2.515c-4.646-1.059-9.292-2.119-13.938-3.178c-2.889-0.658-6.422-0.967-8.624-3.168    c-0.014-0.014-0.025-0.03-0.039-0.044h-5.405l-16.922-29.754c-3.286,1.408-6.571,2.816-9.857,4.224    c-4.282,1.836-8.565,3.67-12.848,5.506c-2.499,1.07-5.956,3.104-8.671,3.104c-0.767,0-1.597-0.164-2.449-0.416l-5.439,2.004    l-29.205-12.077c-1.791,3.004-3.583,6.008-5.374,9.011c-2.441,4.092-4.882,8.186-7.323,12.277    c-1.472,2.469-2.939,5.863-5.506,7.367c-2.229,1.307-5.309,1.566-7.769,2.127c-4.737,1.08-9.476,2.16-14.213,3.24    c-4.657,1.061-9.315,2.123-13.973,3.186c0.106,1.187,0.213,2.374,0.319,3.561l14.045,15.42    C1466.766,263.196,1479.243,251.211,1494.581,243.839z" />
		<path fill="#E54E4E" d="M1425.591,309.909c3.108,3.109,2.749,7.709,0,10.859c-1.177,1.35-2.354,2.697-3.531,4.047    c3.167,3.627,6.335,7.256,9.502,10.883c3.132,3.59,6.265,7.178,9.396,10.766c1.837,2.104,4.751,4.691,5.505,7.432    c0.693,2.521-0.043,5.574-0.27,8.102c-0.434,4.84-0.867,9.678-1.301,14.516c-0.436,4.861-0.871,9.721-1.307,14.582    c4.982,1.135,9.965,2.271,14.946,3.406c4.646,1.061,9.292,2.119,13.938,3.178c2.889,0.658,6.422,0.967,8.624,3.168    c1.82,1.82,3.023,4.609,4.318,6.781c2.49,4.174,4.979,8.348,7.469,12.521c2.379,3.988,4.759,7.979,7.139,11.969    c4.433-1.9,8.865-3.799,13.298-5.697c3.766-1.615,7.532-3.229,11.298-4.842c0.645-2.33,1.412-4.604,2.297-6.818    c-10.182-0.836-20.318-3.408-29.952-7.85c-42.149-19.439-64.134-70.951-46.517-114.537c2.083-5.153,4.596-10.132,7.506-14.857    l-14.045-15.42c0.944,10.532,1.888,21.063,2.833,31.596c0.691,7.707-8.532,9.342-13.021,5.026l-9.395,10.191    C1424.781,309.197,1425.21,309.528,1425.591,309.909z" />
		<path fill="#97EBFF" d="M1434.84,517.362c-0.587,0.73-1.141,1.479-1.68,2.237c5.775,13.869,23.718,38.575,75.287,16.86    c0,0,21.703,42.414,70.852,15.18c0,0,35.311,46.766,98.979,5.266c0,0,31.169,36.5,76.169,1c0,0,29.5,26.5,58-9.5    c0,0,26.541,15.949,48.151-10.815c-0.942-4.37-2.465-8.642-4.581-12.673c-2.139-4.074-0.32-7.924,2.655-9.918    c-2.7-3.411-5.693-6.389-8.821-8.979c-2.037,2.689-5.586,4.045-9.265,1.636c-8.477-5.549-17.712-8.486-27.857-8.641    c-4.129-0.063-7.444-3.365-7.5-7.5c-0.238-17.863-9.57-33.766-24.978-42.775c-7.377-4.045-15.727-6.518-24.2-6.318    c-4.288,0.1-7.236-3.498-7.5-7.5c-1.702-25.799-23.339-45.699-49.01-46.014c-4.125-0.051-7.45-3.373-7.5-7.5    c-0.254-20.982-13.908-39.67-32.975-46.416c-5.045-1.785-10.464-2.744-16.12-2.676c-0.652,0.008-1.299,0.039-1.945,0.07    c-5.903,0.299-11.53,1.617-16.709,3.787c-6.969,2.924-13.119,7.387-18.039,12.967c-5.107,5.793-8.883,12.787-10.853,20.516    c-0.959,3.764-1.499,7.697-1.548,11.752c-0.05,4.127-3.375,7.449-7.5,7.5c-6.777,0.084-13.267,1.543-19.188,4.104    c-0.434,0.188-0.868,0.373-1.296,0.572c-9.538,4.449-17.484,11.822-22.566,21.02c-0.9,1.631-1.706,3.32-2.42,5.059    c-1.608,3.918-2.726,8.092-3.266,12.461c-0.021,0.166-0.046,0.33-0.064,0.496c-0.084,0.742-0.152,1.488-0.203,2.24    c-0.002,0.021-0.004,0.041-0.006,0.063c-0.264,4.002-3.212,7.6-7.5,7.5c-27.061-0.637-48.86,22.723-49.179,49.094    c-0.05,4.135-3.375,7.436-7.5,7.5c-5.846,0.09-11.301,1.08-16.842,2.941c-4.086,1.372-7.124-0.729-8.444-3.752    c-5.138,2.563-9.422,5.764-12.796,8.819C1437.919,510.121,1437.327,514.268,1434.84,517.362z M1791.606,468.798    c2.163,0,3.916,1.753,3.916,3.916c0,2.164-1.753,3.917-3.916,3.917c-2.164,0-3.917-1.753-3.917-3.917    C1787.689,470.551,1789.442,468.798,1791.606,468.798z M1752.348,449.143c2.099-4.097,11.835-3.3,21.748,1.778    s16.247,12.516,14.149,16.611c-2.099,4.097-8.797-2.633-18.709-7.711C1759.623,454.743,1750.249,453.239,1752.348,449.143z     M1717.453,521.282c-4.057,0-7.346-3.291-7.346-7.348s7.346-12.297,7.346-12.297s7.348,8.24,7.348,12.297    S1721.512,521.282,1717.453,521.282z M1735.273,417.181c2.163,0,3.916,1.754,3.916,3.917s-1.753,3.917-3.916,3.917    c-2.164,0-3.917-1.754-3.917-3.917S1733.109,417.181,1735.273,417.181z M1696.015,397.526c2.099-4.097,11.835-3.301,21.748,1.777    c9.913,5.079,16.247,12.517,14.149,16.612c-2.099,4.097-8.797-2.633-18.709-7.711    C1703.29,403.126,1693.916,401.622,1696.015,397.526z M1697.947,461.577c8.745,0,15.833,7.088,15.833,15.832    s-7.088,15.834-15.833,15.834c-8.744,0-15.833-7.09-15.833-15.834S1689.203,461.577,1697.947,461.577z M1678.115,359.515    c2.163,0,3.916,1.753,3.916,3.917c0,2.163-1.753,3.916-3.916,3.916c-2.164,0-3.917-1.753-3.917-3.916    C1674.198,361.268,1675.951,359.515,1678.115,359.515z M1638.856,339.859c2.099-4.097,11.835-3.3,21.748,1.778    s16.247,12.516,14.149,16.612c-2.099,4.096-8.797-2.634-18.709-7.712C1646.132,345.46,1636.758,343.956,1638.856,339.859z     M1608.777,540.448c15.738-25.574,52.656-25.557,68.348,0.061c5.068,8.273-7.91,15.803-12.951,7.57    c-9.773-15.953-32.633-16.004-42.445-0.061C1616.67,556.239,1603.691,548.712,1608.777,540.448z M1587.947,461.577    c8.745,0,15.833,7.088,15.833,15.832s-7.088,15.834-15.833,15.834c-8.744,0-15.833-7.09-15.833-15.834    S1579.203,461.577,1587.947,461.577z M1568.441,501.638c0,0,7.346,8.24,7.346,12.297s-3.289,7.348-7.346,7.348    c-4.059,0-7.348-3.291-7.348-7.348S1568.441,501.638,1568.441,501.638z" />
		<path fill="#56C1CC" d="M1812.447,548.405c-28.5,36-58,9.5-58,9.5c-45,35.5-76.169-1-76.169-1    c-63.669,41.5-98.979-5.266-98.979-5.266c-49.148,27.234-70.852-15.18-70.852-15.18c-51.569,21.715-69.512-2.991-75.287-16.86    c-12.035,16.921-12.023,40.384,0.199,57.302c11.584,16.033,31.871,23.316,51.054,19.006c2.492-0.561,5.527-0.125,7.298,1.928    c20.311,23.557,55.786,23.561,76.096,0c1.771-2.053,4.806-2.488,7.298-1.928c7.475,1.68,15.021,1.68,22.496,0    c2.492-0.561,5.527-0.125,7.298,1.928c20.313,23.559,55.784,23.559,76.097,0c1.771-2.053,4.806-2.488,7.298-1.928    c7.476,1.68,15.021,1.68,22.496,0c2.492-0.561,5.527-0.125,7.298,1.928c20.313,23.557,55.784,23.559,76.096,0    c1.771-2.053,4.806-2.488,7.298-1.928c18.563,4.172,37.996-2.467,49.874-17.418c9.219-11.603,12.292-26.776,9.244-40.899    C1838.988,564.354,1812.447,548.405,1812.447,548.405z" />
		<path fill="#D4FBFF" d="M1656.045,350.538c9.912,5.078,16.61,11.808,18.709,7.712c2.098-4.097-4.236-11.534-14.149-16.612    s-19.649-5.875-21.748-1.778S1646.132,345.46,1656.045,350.538z" />
		<circle fill="#D4FBFF" cx="1678.115" cy="363.431" r="3.917" />
		<path fill="#D4FBFF" d="M1713.203,408.205c9.912,5.078,16.61,11.808,18.709,7.711c2.098-4.096-4.236-11.533-14.149-16.612    c-9.913-5.078-19.649-5.874-21.748-1.777C1693.916,401.622,1703.29,403.126,1713.203,408.205z" />
		<circle fill="#D4FBFF" cx="1735.273" cy="421.098" r="3.917" />
		<path fill="#D4FBFF" d="M1769.536,459.821c9.912,5.078,16.61,11.808,18.709,7.711c2.098-4.096-4.236-11.533-14.149-16.611    s-19.649-5.875-21.748-1.778S1759.623,454.743,1769.536,459.821z" />
		<circle fill="#D4FBFF" cx="1791.606" cy="472.714" r="3.917" />
		<path fill="#FFB959" d="M1565.121,255.636c-25.443-10.454-54.452-7.14-75.936,9.124c-6.519,18.918-15.296,57.055,5.723,86.96    c23.885-19.941,58.755-19.269,82.018,1.986c7.155,6.537-3.482,17.115-10.607,10.605c-17.409-15.905-43.713-16.186-61.548-1.325    c10.257,9.524,24.663,17.604,44.575,23.075c8.64-6.216,18.867-10.353,29.994-11.682c2.463-20.021,14.24-37.801,30.924-48    c0.371-21.162-8.317-41.646-23.757-56.52c-3.013-2.903-2.74-6.527-0.901-9.169c-4.146-3.056-8.422-5.57-12.67-7.645    C1571.078,255.329,1567.921,256.786,1565.121,255.636z M1569.729,264.405c2.002,0,3.625,1.623,3.625,3.625    s-1.623,3.625-3.625,3.625s-3.625-1.623-3.625-3.625S1567.728,264.405,1569.729,264.405z M1504.928,296.267    c4.755,0,8.609,3.854,8.609,8.609s-3.854,8.609-8.609,8.609c-4.756,0-8.61-3.854-8.61-8.609S1500.172,296.267,1504.928,296.267z     M1501.225,327.29c0,4.057-3.289,7.346-7.347,7.346s-7.347-3.289-7.347-7.346s7.347-12.297,7.347-12.297    S1501.225,323.233,1501.225,327.29z M1533.131,255.65c0.872-3.054,8.639-3.513,17.347-1.025    c8.707,2.486,15.06,6.979,14.188,10.032c-0.872,3.053-7.472-0.574-16.179-3.062    C1539.778,259.109,1532.259,258.704,1533.131,255.65z M1556.135,304.876c0-4.756,3.854-8.609,8.609-8.609    c4.756,0,8.61,3.854,8.61,8.609s-3.854,8.609-8.61,8.609C1559.989,313.485,1556.135,309.632,1556.135,304.876z M1583.134,327.29    c0,4.057-3.289,7.346-7.347,7.346s-7.347-3.289-7.347-7.346s7.347-12.297,7.347-12.297S1583.134,323.233,1583.134,327.29z" />
		<path fill="#E0943B" d="M1502.453,365.032c-7.009,6.656-17.633-3.934-10.607-10.605c0.996-0.946,2.022-1.839,3.063-2.707    c-21.019-29.905-12.241-68.042-5.723-86.96c-3.699,2.801-7.181,5.974-10.376,9.538c-19.311,21.541-25.39,54.207-13.116,80.822    c8.896,19.293,25.191,34.992,45.683,41.412c7.708,2.414,15.71,3.619,23.681,3.615c4.006-5.413,8.833-10.161,14.289-14.086    c-19.912-5.472-34.318-13.551-44.575-23.075C1503.982,363.643,1503.206,364.317,1502.453,365.032z" />
		<path fill="#FFDFBD" d="M1564.665,264.657c0.872-3.054-5.48-7.546-14.188-10.032c-8.708-2.487-16.475-2.028-17.347,1.025    s6.647,3.459,15.355,5.945C1557.193,264.083,1563.793,267.71,1564.665,264.657z" />
		<circle fill="#FFDFBD" cx="1569.729" cy="268.03" r="3.625" />
		<path fill="#FFB6B6" d="M1532.387,231.401c-2.366-0.701-4.917-2.129-6.863-2.963c-4.37-1.873-8.74-3.744-13.11-5.617    c-4.132-1.77-8.263-3.541-12.394-5.311c-0.759,1.272-1.518,2.545-2.277,3.817l29.205,12.077L1532.387,231.401z" />
		<path fill="#FFB6B6" d="M1588.539,248.738c-1.798-1.82-2.994-4.582-4.279-6.737c-2.49-4.174-4.979-8.348-7.469-12.521    c-2.379-3.988-4.76-7.979-7.139-11.969c-1.146,0.491-2.293,0.982-3.44,1.474l16.922,29.754H1588.539z" />
		<path fill="#FFB6B6" d="M1623.162,295.508c-0.594-2.477,0.095-5.42,0.315-7.876c0.434-4.838,0.867-9.678,1.302-14.516    c0.436-4.861,0.871-9.721,1.307-14.58c-1.306-0.298-2.61-0.596-3.916-0.894l-3.223,33.429L1623.162,295.508z" />
		<path fill="#140F16" d="M1456.323,501.956c5.541-1.861,10.996-2.852,16.842-2.941c4.125-0.064,7.45-3.365,7.5-7.5    c0.318-26.371,22.118-49.73,49.179-49.094c4.288,0.1,7.236-3.498,7.5-7.5c0.002-0.021,0.004-0.041,0.006-0.063    c0.051-0.752,0.119-1.498,0.203-2.24c0.019-0.166,0.044-0.33,0.064-0.496c0.54-4.369,1.657-8.543,3.266-12.461    c0.714-1.738,1.52-3.428,2.42-5.059c5.082-9.197,13.028-16.57,22.566-21.02c0.428-0.199,0.862-0.385,1.296-0.572    c5.922-2.561,12.411-4.02,19.188-4.104c4.125-0.051,7.45-3.373,7.5-7.5c0.049-4.055,0.589-7.988,1.548-11.752    c1.97-7.729,5.745-14.723,10.853-20.516c4.92-5.58,11.07-10.043,18.039-12.967c5.179-2.17,10.806-3.488,16.709-3.787    c0.646-0.031,1.293-0.063,1.945-0.07c5.656-0.068,11.075,0.891,16.12,2.676c19.066,6.746,32.721,25.434,32.975,46.416    c0.05,4.127,3.375,7.449,7.5,7.5c25.671,0.314,47.308,20.215,49.01,46.014c0.264,4.002,3.212,7.6,7.5,7.5    c8.474-0.199,16.823,2.273,24.2,6.318c15.407,9.01,24.739,24.912,24.978,42.775c0.056,4.135,3.371,7.438,7.5,7.5    c10.146,0.154,19.381,3.092,27.857,8.641c3.679,2.409,7.228,1.054,9.265-1.636c2.457-3.244,2.711-8.431-1.694-11.315    c-8.632-5.652-18.284-9.055-28.4-10.23c-2.384-19.949-13.696-37.652-31.13-48.184c-0.251-0.176-0.517-0.346-0.805-0.502    c-0.264-0.154-0.526-0.291-0.788-0.41c-7.508-4.002-15.852-6.83-24.372-7.689c-4.98-28.162-27.615-49.898-56.094-53.307    c-2.951-24.543-19.592-44.865-42.07-53.111c-0.335-0.65-0.762-1.283-1.287-1.885c-8.229-9.428-16.459-18.854-24.688-28.281    c1.152-12.855,2.305-25.711,3.458-38.566c0.291-3.252-2.545-6.699-5.638-7.404c-12.474-2.844-24.946-5.686-37.42-8.529    c-6.486-10.875-12.973-21.75-19.459-32.623c-2.34-3.924-6.633-4.414-10.506-2.756c-11.374,4.875-22.749,9.748-34.123,14.621    c-11.375-4.873-22.75-9.746-34.125-14.621c-3.872-1.658-8.165-1.168-10.505,2.756c-6.486,10.873-12.973,21.748-19.458,32.623    c-12.475,2.844-24.947,5.686-37.421,8.529c-3.093,0.705-5.929,4.152-5.638,7.404c1.23,13.719,2.461,27.438,3.69,41.154    c0.192,2.141,1.078,3.817,2.336,5.026c4.489,4.315,13.713,2.681,13.021-5.026c-0.945-10.532-1.889-21.063-2.833-31.596    c-0.106-1.187-0.213-2.374-0.319-3.561c4.657-1.063,9.315-2.125,13.973-3.186c4.737-1.08,9.476-2.16,14.213-3.24    c2.46-0.561,5.539-0.82,7.769-2.127c2.566-1.504,4.034-4.898,5.506-7.367c2.441-4.092,4.882-8.186,7.323-12.277    c1.791-3.003,3.583-6.007,5.374-9.011c0.76-1.272,1.519-2.545,2.277-3.817c4.131,1.77,8.262,3.541,12.394,5.311    c4.37,1.873,8.74,3.744,13.11,5.617c1.946,0.834,4.497,2.262,6.863,2.963c0.853,0.252,1.683,0.416,2.449,0.416    c2.715,0,6.172-2.033,8.671-3.104c4.282-1.836,8.565-3.67,12.848-5.506c3.286-1.407,6.571-2.815,9.857-4.224    c1.147-0.491,2.294-0.982,3.44-1.474c2.379,3.99,4.76,7.98,7.139,11.969c2.489,4.174,4.979,8.348,7.469,12.521    c1.285,2.155,2.481,4.917,4.279,6.737c0.014,0.014,0.025,0.03,0.039,0.044c2.202,2.201,5.735,2.51,8.624,3.168    c4.646,1.059,9.292,2.119,13.938,3.178c3.677,0.839,7.354,1.677,11.03,2.515c1.306,0.298,2.61,0.596,3.916,0.894    c-0.436,4.859-0.871,9.719-1.307,14.58c-0.435,4.838-0.868,9.678-1.302,14.516c-0.221,2.456-0.909,5.399-0.315,7.876    c0.018,0.074,0.025,0.152,0.046,0.226c0.754,2.74,3.668,5.328,5.505,7.434c3.133,3.588,6.265,7.176,9.397,10.764    c0.992,1.137,1.985,2.273,2.978,3.412c-5.651,0.104-11.115,0.982-16.305,2.539c-1.311-22.381-10.726-44.305-27.669-60.629    c-3.957-3.812-9.089-2.036-11.509,1.438c-1.839,2.642-2.111,6.266,0.901,9.169c15.439,14.873,24.128,35.357,23.757,56.52    c-16.684,10.199-28.461,27.979-30.924,48c-11.127,1.329-21.354,5.466-29.994,11.682c-5.456,3.925-10.283,8.673-14.289,14.086    c-7.971,0.004-15.973-1.201-23.681-3.615c-20.491-6.42-36.786-22.119-45.683-41.412c-12.273-26.615-6.194-59.281,13.116-80.822    c3.195-3.564,6.677-6.737,10.376-9.538c21.483-16.264,50.492-19.578,75.936-9.124c2.8,1.15,5.957-0.307,7.814-2.589    c0.657-0.807,1.154-1.714,1.412-2.649c1.184-4.305-1.46-7.674-5.238-9.227c-24.128-9.912-51.153-8.566-74.528,2.668    c-15.338,7.372-27.815,19.357-36.632,33.678c-2.91,4.726-5.423,9.704-7.506,14.857c-17.617,43.586,4.367,95.098,46.517,114.537    c9.634,4.441,19.771,7.014,29.952,7.85c-0.885,2.215-1.652,4.488-2.297,6.818c-3.766,1.613-7.532,3.227-11.298,4.842    c-4.433,1.898-8.865,3.797-13.298,5.697c-2.38-3.99-4.76-7.98-7.139-11.969c-2.489-4.174-4.979-8.348-7.469-12.521    c-1.295-2.172-2.498-4.961-4.318-6.781c-2.202-2.201-5.735-2.51-8.624-3.168c-4.646-1.059-9.292-2.117-13.938-3.178    c-4.981-1.135-9.964-2.271-14.946-3.406c0.436-4.861,0.871-9.721,1.307-14.582c0.434-4.838,0.867-9.676,1.301-14.516    c0.227-2.527,0.963-5.58,0.27-8.102c-0.754-2.74-3.668-5.328-5.505-7.432c-3.132-3.588-6.265-7.176-9.396-10.766    c-3.167-3.627-6.335-7.256-9.502-10.883c1.177-1.35,2.354-2.697,3.531-4.047c2.749-3.15,3.108-7.75,0-10.859    c-0.381-0.381-0.81-0.712-1.27-0.999c-2.931-1.833-7.209-1.728-9.59,0.999c-2.757,3.16-5.514,6.318-8.271,9.477    c-2.75,3.15-3.108,7.75,0,10.859c8.229,9.426,16.458,18.854,24.688,28.279c-1.152,12.855-2.306,25.711-3.458,38.566    c-0.291,3.252,2.545,6.699,5.638,7.404c12.474,2.844,24.947,5.688,37.42,8.531c5.908,9.904,11.815,19.807,17.724,29.711    c-12.046,10.514-20.286,25.457-22.313,41.73c-4.692,0.525-9.315,1.51-13.824,3.023c-5.067,1.703-6.107,6.931-4.456,10.713    C1449.199,501.228,1452.237,503.328,1456.323,501.956z" />
		<path fill="#140F16" d="M1573.354,304.876c0-4.756-3.854-8.609-8.61-8.609c-4.755,0-8.609,3.854-8.609,8.609    s3.854,8.609,8.609,8.609C1569.5,313.485,1573.354,309.632,1573.354,304.876z M1560.431,311.303c-0.664,0-1.202-0.538-1.202-1.202    s0.538-1.202,1.202-1.202c0.665,0,1.203,0.538,1.203,1.202S1561.096,311.303,1560.431,311.303z M1567.14,304.696    c-1.727,0-3.124-1.398-3.124-3.124c0-1.725,1.397-3.124,3.124-3.124c1.725,0,3.123,1.399,3.123,3.124    C1570.263,303.298,1568.864,304.696,1567.14,304.696z" />
		<path fill="#140F16" d="M1504.928,313.485c4.755,0,8.609-3.854,8.609-8.609s-3.854-8.609-8.609-8.609    c-4.756,0-8.61,3.854-8.61,8.609S1500.172,313.485,1504.928,313.485z M1507.675,298.036c1.725,0,3.123,1.398,3.123,3.123    c0,1.726-1.398,3.124-3.123,3.124c-1.727,0-3.124-1.398-3.124-3.124C1504.551,299.435,1505.948,298.036,1507.675,298.036z     M1500.966,308.485c0.665,0,1.203,0.538,1.203,1.202s-0.538,1.203-1.203,1.203c-0.664,0-1.202-0.539-1.202-1.203    S1500.302,308.485,1500.966,308.485z" />
		<path fill="#140F16" d="M1502.453,365.032c0.753-0.715,1.529-1.39,2.317-2.046c17.835-14.86,44.139-14.58,61.548,1.325    c7.125,6.51,17.763-4.068,10.607-10.605c-23.263-21.255-58.133-21.928-82.018-1.986c-1.04,0.868-2.066,1.761-3.063,2.707    C1484.82,361.099,1495.444,371.688,1502.453,365.032z" />
		<path fill="#140F16" d="M1868.969,517.347c-2.355-4.486-7.024-4.539-10.296-2.348c-2.976,1.994-4.794,5.844-2.655,9.918    c2.116,4.031,3.639,8.303,4.581,12.673c3.048,14.123-0.025,29.297-9.244,40.899c-11.878,14.951-31.311,21.59-49.874,17.418    c-2.492-0.561-5.527-0.125-7.298,1.928c-20.312,23.559-55.783,23.557-76.096,0c-1.771-2.053-4.806-2.488-7.298-1.928    c-7.476,1.68-15.021,1.68-22.496,0c-2.492-0.561-5.527-0.125-7.298,1.928c-20.313,23.559-55.784,23.559-76.097,0    c-1.771-2.053-4.806-2.488-7.298-1.928c-7.475,1.68-15.021,1.68-22.496,0c-2.492-0.561-5.527-0.125-7.298,1.928    c-20.31,23.561-55.785,23.557-76.096,0c-1.771-2.053-4.806-2.488-7.298-1.928c-19.183,4.311-39.47-2.973-51.054-19.006    c-12.223-16.918-12.234-40.381-0.199-57.302c0.539-0.758,1.093-1.507,1.68-2.237c2.487-3.095,3.079-7.241,0.243-10.339    c-0.081-0.09-0.155-0.181-0.243-0.269c-2.656-2.656-8.042-3.191-10.607,0c-17.722,22.043-20.227,52.727-4.563,76.645    c13.966,21.328,39.299,31.584,64.015,27.854c24.937,25.634,67.22,25.636,92.153-0.004c7.013,1.088,14.018,1.09,21.03,0    c24.938,25.64,67.219,25.64,92.157,0c7.013,1.088,14.019,1.088,21.031,0c24.936,25.636,67.213,25.64,92.15,0.006    c22.328,3.393,45.068-4.518,59.754-22.158C1878.798,568.87,1881.123,540.501,1868.969,517.347z" />
		<path fill="#140F16" d="M1486.531,327.29c0,4.057,3.289,7.346,7.347,7.346s7.347-3.289,7.347-7.346s-7.347-12.297-7.347-12.297    S1486.531,323.233,1486.531,327.29z" />
		<path fill="#140F16" d="M1575.787,334.636c4.058,0,7.347-3.289,7.347-7.346s-7.347-12.297-7.347-12.297s-7.347,8.24-7.347,12.297    S1571.729,334.636,1575.787,334.636z" />
		<path fill="#140F16" d="M1454.601,658.487c0,4.057,3.289,7.348,7.347,7.348s7.347-3.291,7.347-7.348s-7.347-12.297-7.347-12.297    S1454.601,654.43,1454.601,658.487z" />
		<path fill="#140F16" d="M1527.489,658.487c0,4.057,3.289,7.348,7.347,7.348s7.347-3.291,7.347-7.348s-7.347-12.297-7.347-12.297    S1527.489,654.43,1527.489,658.487z" />
		<path fill="#140F16" d="M1599.156,658.487c0,4.057,3.289,7.348,7.347,7.348s7.347-3.291,7.347-7.348s-7.347-12.297-7.347-12.297    S1599.156,654.43,1599.156,658.487z" />
		<path fill="#140F16" d="M1672.045,658.487c0,4.057,3.289,7.348,7.347,7.348s7.347-3.291,7.347-7.348s-7.347-12.297-7.347-12.297    S1672.045,654.43,1672.045,658.487z" />
		<path fill="#140F16" d="M1743.712,658.487c0,4.057,3.289,7.348,7.347,7.348s7.347-3.291,7.347-7.348s-7.347-12.297-7.347-12.297    S1743.712,654.43,1743.712,658.487z" />
		<path fill="#140F16" d="M1816.601,658.487c0,4.057,3.289,7.348,7.347,7.348s7.347-3.291,7.347-7.348s-7.347-12.297-7.347-12.297    S1816.601,654.43,1816.601,658.487z" />
		<path fill="#140F16" d="M1697.947,493.243c8.745,0,15.833-7.09,15.833-15.834s-7.088-15.832-15.833-15.832    c-8.744,0-15.833,7.088-15.833,15.832S1689.203,493.243,1697.947,493.243z M1702.385,465.493c3.198,0,5.792,2.594,5.792,5.792    c0,3.199-2.594,5.792-5.792,5.792c-3.199,0-5.792-2.593-5.792-5.792C1696.593,468.087,1699.186,465.493,1702.385,465.493z     M1689.947,484.868c1.231,0,2.229,0.998,2.229,2.229s-0.998,2.229-2.229,2.229s-2.229-0.998-2.229-2.229    S1688.716,484.868,1689.947,484.868z" />
		<path fill="#140F16" d="M1587.947,493.243c8.745,0,15.833-7.09,15.833-15.834s-7.088-15.832-15.833-15.832    c-8.744,0-15.833,7.088-15.833,15.832S1579.203,493.243,1587.947,493.243z M1592.385,465.16c3.198,0,5.792,2.594,5.792,5.792    c0,3.199-2.594,5.792-5.792,5.792c-3.199,0-5.792-2.593-5.792-5.792C1586.593,467.754,1589.186,465.16,1592.385,465.16z     M1579.947,484.535c1.231,0,2.229,0.998,2.229,2.229s-0.998,2.229-2.229,2.229s-2.229-0.998-2.229-2.229    S1578.716,484.535,1579.947,484.535z" />
		<path fill="#140F16" d="M1710.107,513.935c0,4.057,3.289,7.348,7.346,7.348c4.059,0,7.348-3.291,7.348-7.348    s-7.348-12.297-7.348-12.297S1710.107,509.878,1710.107,513.935z" />
		<path fill="#140F16" d="M1568.441,521.282c4.057,0,7.346-3.291,7.346-7.348s-7.346-12.297-7.346-12.297s-7.348,8.24-7.348,12.297    S1564.383,521.282,1568.441,521.282z" />
		<path fill="#140F16" d="M1621.729,548.019c9.813-15.943,32.672-15.893,42.445,0.061c5.041,8.232,18.02,0.703,12.951-7.57    c-15.691-25.617-52.609-25.635-68.348-0.061C1603.691,548.712,1616.67,556.239,1621.729,548.019z" />
		<circle fill="#FFFFFF" cx="1702.385" cy="471.285" r="5.792" />
		<circle fill="#FFFFFF" cx="1689.947" cy="487.098" r="2.229" />
		<circle fill="#FFFFFF" cx="1592.385" cy="470.952" r="5.792" />
		<circle fill="#FFFFFF" cx="1579.947" cy="486.765" r="2.229" />
		<circle fill="#FFFFFF" cx="1507.675" cy="301.16" r="3.124" />
		<circle fill="#FFFFFF" cx="1500.966" cy="309.688" r="1.203" />
		<circle fill="#FFFFFF" cx="1567.14" cy="301.572" r="3.124" />
		<circle fill="#FFFFFF" cx="1560.431" cy="310.101" r="1.202" />
	</g>
	</svg>