<?xml version="1.0" encoding="UTF-8"?>
<svg xmlns="http://www.w3.org/2000/svg" version="1.1" viewBox="757.77 2564.21 596.96 596.96" width="320" height="320"><g>
		<path fill="#FFB959" d="M1028.01,2638.894c0,0-86.667,150.273,27,262.94c0,0,44.334,84.666,203.667,79.333    c0,0-74.002,146.666-258.002,93.333c0,0-151.263-54-159.464-213C841.211,2861.5,850.01,2666.288,1028.01,2638.894z" />
		<path fill="#FF7676" d="M1015.01,2638.894c0,0-222.327,110.939-96,335.841c23.021,40.983,152.188,165.766,339.667,10.766    c0,0-116.726,184.215-314.196,58.107c0,0-89.402-44.578-103.27-171.843C841.211,2871.765,832.675,2695.954,1015.01,2638.894z" />
		<circle fill="#97EBFF" cx="972.983" cy="2939.5" r="28.503" />
		<path fill="#FFDFBD" d="M1019.197,2640.415c0,0-79.853,104.074-7.188,234.078c33.255,59.495,110.075,137.33,246.667,116.12    l4.667-10.121c0,0-116.75,6.016-172.042-40.992c0,0-72.741-46.174-93.015-149.259c0,0-9.614-103.61,29.723-151.348    L1019.197,2640.415z" />
		<path fill="#E54E4E" d="M950.678,3049.151c0,0,171.996,74.44,300.331-57.446c0,0-50.999,96.112-168.999,92.779    C1082.01,3084.484,991.347,3095.818,950.678,3049.151z" />
		<path fill="#56C1CC" d="M950.678,2925c0,0,6.832,33.5,41.832,27.5c0,0-10.408,28.199-37.204,9.35    C955.306,2961.85,936.846,2946,950.678,2925z" />
		<path fill="#FFDFBD" d="M1104.733,3031.692c-1.026,6.268-17.418,8.801-36.614,5.659c-19.194-3.142-33.925-10.77-32.898-17.038    c1.026-6.268,16.265-1.755,35.46,1.388C1089.876,3024.843,1105.759,3025.424,1104.733,3031.692z" />
		<circle fill="#FFDFBD" cx="1113.51" cy="3033.317" r="5.383" />
		<path fill="#D4FBFF" d="M983.379,2926.697c-0.486,2.577-3.389,0.378-7.341-0.368c-3.951-0.745-7.456,0.245-6.97-2.333    c0.486-2.577,4.084-4.063,8.036-3.317C981.057,2921.425,983.865,2924.119,983.379,2926.697z" />
		<polygon fill="#FFB959" points="1154.098,2684.156 1119.059,2751.834 1043.632,2764.749 1095.812,2821.578 1083.929,2897.63     1154.098,2861.358 1224.966,2897.63 1212.052,2817.18 1265.263,2766.3 1190.354,2752.868   " />
		<polygon fill="#E0943B" points="1043.632,2764.749 1118.025,2817.18 1097.877,2878.407 1154.098,2844.311 1209.984,2873.663     1195.002,2812.28 1263.196,2764.749 1212.757,2821.578 1224.966,2897.63 1154.098,2861.358 1083.929,2897.63 1095.811,2817.18       " />
		<polygon fill="#FFDFBD" points="1147.344,2705.597 1186.482,2764.749 1259.649,2768.744 1265.263,2762.166 1193.84,2751.317     1155.868,2684.156   " />
		<ellipse fill="#FF7676" cx="1186.422" cy="2799.106" rx="7.03" ry="2.582" />
		<ellipse fill="#FF7676" cx="1126.068" cy="2799.106" rx="7.031" ry="2.582" />
		<g>
			<circle fill="#140F16" cx="960.25" cy="2842.205" r="15.833" />
			<path fill="#140F16" d="M851.106,2873.595c-2.366-47.111,9.858-93.484,35.528-133.091c24.126-37.225,60.082-66.82,101.126-83.596     c9.083-3.713,18.425-6.765,27.92-9.227c-23.067,45.021-30.913,96.418-22.842,146.578c7.337,45.595,29.17,88.326,60.681,121.928     c-12.415,11.269-27.79,18.629-44.368,21.397c-2.187-18.269-17.166-32.103-35.985-32.55c-20.066-0.479-35.789,16.9-36.25,36.25     c-0.477,20.066,16.9,35.789,36.25,36.25c15.832,0.376,28.952-10.364,34.015-24.415c21.273-2.588,41.214-11.891,56.926-26.345     c17.313,16.2,37.211,29.72,58.542,39.993c8.139,3.92,15.282-8.217,7.105-12.154c-20.574-9.909-39.377-22.814-55.862-38.189     c-3.672-3.425-7.233-6.966-10.668-10.63c-13.013-13.883-24.284-29.445-33.474-46.386     c-24.308-44.809-31.733-97.896-21.809-147.796c4.974-25.005,14.468-48.851,27.593-70.674c3.403-5.658-2.149-11.437-7.948-10.34     c-91.084,17.224-165.115,89.053-185.319,179.484c-4.644,20.789-6.305,42.252-5.236,63.511     C837.483,2882.628,851.563,2882.672,851.106,2873.595z M990.223,2953.741c-3.83,5.233-9.953,8.625-17.057,8.794     c-11.813,0.281-20.979-9.857-21.25-21.25c-0.281-11.814,9.857-20.979,21.25-21.25c10.952-0.261,19.621,8.435,21.045,18.78     c0.112,0.814,0.186,1.639,0.205,2.47C994.304,2945.996,992.763,2950.27,990.223,2953.741z" />
			<path fill="#140F16" d="M1264.167,2972.165c-33.67,6.116-68.314,4.323-101.218-5.009c-8.751-2.482-12.461,11.102-3.742,13.574     c30.101,8.537,61.415,10.906,92.355,7.396c-24.842,35.034-59.568,62.634-99.688,78.383     c-45.402,17.822-96.082,19.783-142.854,6.221c-78.275-22.696-138.078-89.348-154.136-168.906     c-1.795-8.895-15.363-5.12-13.574,3.742c18.421,91.264,91.661,164.707,182.863,183.406c47.912,9.823,97.896,4.056,142.603-15.533     c43.632-19.118,80.569-52.385,105.339-92.935C1275.584,2976.827,1269.921,2971.12,1264.167,2972.165z" />
			<circle fill="#140F16" cx="1125.885" cy="2781.825" r="12.781" />
			<circle fill="#140F16" cx="1180.885" cy="2781.825" r="12.781" />
			<path fill="#140F16" d="M1172.549,2814.519c-11.537,13.26-30.451,12.35-41.156-1.352c-2.521-3.227-7.98-2.625-10.607,0     c-3.152,3.154-2.514,7.389,0,10.607c15.494,19.828,45.959,20.211,62.371,1.35     C1189.475,2817.864,1178.91,2807.208,1172.549,2814.519z" />
			<path fill="#140F16" d="M1271.281,2757.489c-25.928-3.768-51.854-7.535-77.782-11.303     c-11.546-23.396-23.092-46.791-34.639-70.186c-1.479-3-3.995-4.051-6.476-3.788c-2.48-0.263-4.996,0.788-6.476,3.788     c-11.547,23.395-23.093,46.79-34.639,70.186c-25.928,3.768-51.854,7.535-77.782,11.303c-5.737,0.834-6.986,8.952-3.31,12.535     c18.576,18.107,37.151,36.214,55.727,54.32c-4.334,25.271-8.668,50.541-13.002,75.811c-1.105,6.449,4.843,11.717,11.018,8.471     c22.821-11.999,45.643-23.996,68.464-35.994c22.821,11.998,45.643,23.995,68.465,35.994c6.175,3.246,12.123-2.021,11.018-8.471     c-4.334-25.27-8.668-50.54-13.002-75.811c18.575-18.106,37.15-36.213,55.726-54.32     C1278.268,2766.441,1277.02,2758.323,1271.281,2757.489z M1210.9,2811.162c-2.381,2.321-6.369,5.174-7.296,8.541     c-0.883,3.212,0.719,8.177,1.268,11.375c2.515,14.663,5.029,29.327,7.544,43.99c0.766,4.466,1.532,8.933,2.298,13.398     c-17.304-9.097-34.606-18.192-51.909-27.29c-2.911-1.53-7.004-4.512-10.42-4.512s-7.509,2.981-10.419,4.512     c-13.169,6.923-26.337,13.846-39.505,20.77c-4.135,2.174-8.27,4.348-12.404,6.521c3.28-19.13,6.562-38.26,9.842-57.39     c0.549-3.198,2.15-8.163,1.268-11.375c-0.927-3.367-4.915-6.22-7.296-8.541c-10.653-10.384-21.308-20.769-31.961-31.153     c-3.454-3.366-6.907-6.733-10.361-10.1c19.763-2.872,39.525-5.744,59.289-8.616c3.435-0.499,8.091-0.371,10.727-3.007     c2.237-2.237,3.401-6.033,4.762-8.79c6.635-13.443,13.27-26.887,19.904-40.33c2.052-4.158,4.104-8.315,6.155-12.474     c8.777,17.785,17.555,35.57,26.332,53.355c1.502,3.044,2.897,7.59,6.008,9.412c2.723,1.594,6.807,1.484,9.817,1.922     c14.836,2.156,29.671,4.312,44.507,6.468c4.725,0.687,9.448,1.373,14.173,2.06     C1239.114,2783.66,1225.008,2797.411,1210.9,2811.162z" />
		</g>
		<g>
			<circle fill="#FFFFFF" cx="1185.809" cy="2776.743" r="4.971" />
			<circle fill="#FFFFFF" cx="1175.133" cy="2790.315" r="1.914" />
		</g>
		<g>
			<circle fill="#FFFFFF" cx="1129.878" cy="2776.456" r="4.971" />
			<circle fill="#FFFFFF" cx="1119.202" cy="2790.028" r="1.914" />
		</g>
		<g>
			<circle fill="#FFFFFF" cx="964.751" cy="2834.542" r="5.792" />
			<circle fill="#FFFFFF" cx="952.313" cy="2850.354" r="2.229" />
		</g>
	</g>
	</svg>