<?xml version="1.0" encoding="UTF-8"?>
<svg xmlns="http://www.w3.org/2000/svg" version="1.1" viewBox="756.14 139.71 596.96 596.96" width="320" height="320"><g>
		<path fill="#FFB959" d="M1027.947,215.799c0,0-86.667,150.273,27,262.94c0,0,44.334,84.666,203.667,79.333    c0,0-74.002,146.666-258.002,93.333c0,0-151.263-54-159.464-213C841.148,438.405,849.947,243.193,1027.947,215.799z" />
		<path fill="#FF7676" d="M1014.947,215.799c0,0-222.327,110.939-96,335.841c23.021,40.983,152.188,165.765,339.667,10.766    c0,0-116.726,184.214-314.196,58.107c0,0-89.402-44.578-103.27-171.843C841.148,448.67,832.612,272.859,1014.947,215.799z" />
		<circle fill="#97EBFF" cx="972.921" cy="516.405" r="28.503" />
		<path fill="#FFDFBD" d="M1019.135,217.32c0,0-79.853,104.074-7.188,234.078c33.255,59.495,110.075,137.33,246.667,116.12    l4.667-10.121c0,0-116.75,6.016-172.042-40.992c0,0-72.741-46.174-93.015-149.259c0,0-9.614-103.61,29.723-151.348    L1019.135,217.32z" />
		<path fill="#E54E4E" d="M950.615,626.057c0,0,171.996,74.44,300.331-57.446c0,0-50.999,96.112-168.999,92.779    C1081.947,661.389,991.284,672.723,950.615,626.057z" />
		<path fill="#56C1CC" d="M950.615,501.905c0,0,6.832,33.5,41.832,27.5c0,0-10.408,28.199-37.204,9.35    C955.243,538.755,936.783,522.905,950.615,501.905z" />
		<path fill="#FFDFBD" d="M1104.671,608.598c-1.026,6.268-17.418,8.801-36.614,5.659c-19.194-3.142-33.925-10.77-32.898-17.038    c1.026-6.268,16.265-1.755,35.46,1.388C1089.813,601.748,1105.696,602.329,1104.671,608.598z" />
		<circle fill="#FFDFBD" cx="1113.448" cy="610.223" r="5.383" />
		<path fill="#D4FBFF" d="M983.316,503.603c-0.486,2.577-3.389,0.378-7.341-0.368c-3.951-0.745-7.456,0.245-6.97-2.333    c0.486-2.577,4.084-4.063,8.036-3.317C980.994,498.33,983.803,501.024,983.316,503.603z" />
		<g>
			<circle fill="#140F16" cx="960.25" cy="417.542" r="15.833" />
			<path fill="#140F16" d="M851.106,448.932c-2.366-47.111,9.858-93.484,35.528-133.091c24.126-37.225,60.082-66.82,101.126-83.596     c9.083-3.713,18.425-6.765,27.92-9.227c-23.067,45.021-30.913,96.418-22.842,146.578c7.337,45.595,29.17,88.326,60.681,121.928     c-12.415,11.269-27.79,18.629-44.368,21.397c-2.187-18.269-17.166-32.103-35.985-32.55c-20.066-0.479-35.789,16.9-36.25,36.25     c-0.477,20.066,16.9,35.789,36.25,36.25c15.832,0.376,28.952-10.364,34.015-24.415c21.273-2.588,41.214-11.891,56.926-26.345     c17.313,16.2,37.211,29.72,58.542,39.993c8.139,3.92,15.282-8.217,7.105-12.154c-20.574-9.909-39.377-22.814-55.862-38.189     c-3.672-3.425-7.233-6.966-10.668-10.63c-13.013-13.883-24.284-29.445-33.474-46.386     c-24.308-44.809-31.733-97.896-21.809-147.796c4.974-25.005,14.468-48.851,27.593-70.674c3.403-5.658-2.149-11.437-7.948-10.34     c-91.084,17.224-165.115,89.053-185.319,179.484c-4.644,20.789-6.305,42.252-5.236,63.511     C837.483,457.965,851.563,458.009,851.106,448.932z M973.166,537.872c-11.813,0.281-20.979-9.857-21.25-21.25     c-0.281-11.814,9.857-20.979,21.25-21.25c10.952-0.261,19.621,8.435,21.045,18.78c0.112,0.814,0.186,1.639,0.205,2.47     c-0.112,4.711-1.653,8.984-4.193,12.456C986.393,534.312,980.27,537.703,973.166,537.872z" />
			<path fill="#140F16" d="M1264.167,547.502c-33.67,6.116-68.314,4.323-101.218-5.009c-8.751-2.482-12.461,11.102-3.742,13.574     c30.101,8.537,61.415,10.906,92.355,7.396c-24.842,35.034-59.568,62.634-99.688,78.382     c-45.402,17.822-96.082,19.783-142.854,6.221c-78.275-22.696-138.078-89.347-154.136-168.906     c-1.795-8.895-15.363-5.12-13.574,3.742c18.421,91.264,91.661,164.707,182.863,183.406c47.912,9.823,97.896,4.056,142.603-15.533     c43.632-19.118,80.569-52.384,105.339-92.934C1275.584,552.164,1269.921,546.457,1264.167,547.502z" />
		</g>
		<g>
			<circle fill="#FFFFFF" cx="964.688" cy="411.447" r="5.792" />
			<circle fill="#FFFFFF" cx="952.251" cy="427.26" r="2.229" />
		</g>
	</g>
	</svg>