<?xml version="1.0" encoding="UTF-8"?>
<svg xmlns="http://www.w3.org/2000/svg" version="1.1" viewBox="2552.13 137.63 601.12 601.12" width="320" height="320"><g>
		<polygon fill="#FFB959" points="2745.865,284.558 2782.032,222.405 2852.865,253.481 2923.698,222.405 2960.865,284.558     3034.865,305.405 3028.865,379.342 3077.865,438.778 3029.865,496.405 3036.865,572.546 2963.865,587.405 2923.698,651.405     2852.865,624.405 2782.032,651.405 2745.865,589.405 2669.865,572.546 2677.865,496.405 2627.865,438.778 2677.865,379.342     2671.865,305.405   " />
		<polygon fill="#E0943B" points="2782.032,226.738 2923.698,651.405 2852.865,624.405 2782.032,651.405 2745.865,589.405     2669.865,572.546 2677.865,496.405 2627.865,438.778 2677.865,379.342 2671.865,305.405 2745.197,286.07   " />
		<circle fill="#97EBFF" cx="2853.862" cy="438.778" r="154.221" />
		<path fill="#56C1CC" d="M2797.865,298.07c0,0-166.625,196.606,73.188,293.971c0,0-140.488,11.149-168.793-124.868    C2702.26,467.173,2673.865,357.736,2797.865,298.07z" />
		<path fill="#D4FBFF" d="M2962.036,362.799c-5.069,7.407-19.896-8.635-42.436-24.062s-44.26-24.396-39.187-31.804    c5.066-7.407,27.45-0.907,49.99,14.52C2952.943,336.88,2967.106,355.392,2962.036,362.799z" />
		<circle fill="#D4FBFF" cx="2967.949" cy="372.496" r="7.833" />
		<polygon fill="#FFDFBD" points="2956.865,582.438 3012.749,556.738 3021.379,496.071 3036.865,572.546   " />
		<polygon fill="#FFDFBD" points="3021.509,379.342 3012.749,316.905 2956.865,294.388 3034.865,305.405   " />
		<polygon fill="#FFDFBD" points="2856.559,259.639 2915.349,242.55 2961.582,286.558 2923.994,221.262   " />
		<path fill="#FF7676" d="M2848.447,315.405h-36.836c0,0-29.164,12-8.664,40.5l13,11l76.167-2.243c0,0,33.665-12.757,13.249-41.257    l-16.916-8H2848.447z" />
		<ellipse fill="#FF7676" cx="2854.197" cy="488.049" rx="23.25" ry="22.356" />
		<path fill="#E54E4E" d="M2834.947,496.071c0,0,16.711-14.293,36.105-2.479c0,0,0.395,18.813-20.105,16.813    C2850.947,510.405,2838.163,509.858,2834.947,496.071z" />
		<path fill="#E54E4E" d="M2809.947,320.905c0,0-10.189,26,12.155,29h83.261l-10.226,13.365l-81.841,1.392    c0,0-18.957-9.27-17.653-25.014C2795.644,339.648,2794.447,326.405,2809.947,320.905z" />
		<polygon fill="#FFDFBD" points="3021.879,493.808 3052.365,438.967 3021.879,383.75 3077.865,439.34   " />
		<path fill="#FFB6B6" d="M2885.947,328.53c0,2.002-1.623,3.625-3.625,3.625h-15.25c-2.002,0-3.625-1.623-3.625-3.625l0,0    c0-2.002,1.623-3.625,3.625-3.625h15.25C2884.324,324.905,2885.947,326.528,2885.947,328.53L2885.947,328.53z" />
		<circle fill="#FFB6B6" cx="2890.906" cy="328.53" r="3.625" />
		<g>
			<path fill="#140F16" d="M3084.466,432.978c-15.827-18.13-31.653-36.261-47.481-54.391c2.186-24.364,4.37-48.728,6.556-73.091     c0.292-3.252-2.545-6.699-5.638-7.404c-23.742-5.413-47.484-10.825-71.226-16.238c-1.55-2.598-3.1-5.195-4.649-7.793     c-5.066-8.494-18.346-0.775-13.26,7.75c3.485,5.844,6.073,13.084,13.204,14.71c7.943,1.812,15.888,3.622,23.831,5.433     c13.947,3.18,27.895,6.359,41.842,9.539c-1.988,22.18-3.979,44.359-5.967,66.539c-0.33,3.686,0.027,6.351,2.671,9.379     c3.144,3.602,6.288,7.203,9.432,10.805c10.251,11.742,20.501,23.484,30.752,35.227c1.444,1.655,2.89,3.31,4.335,4.966     c-14.383,16.475-28.765,32.948-43.146,49.424c-2.281,2.612-4.566,5.11-4.229,8.872c0.427,4.763,0.854,9.525,1.281,14.288     c1.393,15.527,2.785,31.054,4.178,46.581c0.231,2.583,0.464,5.166,0.694,7.749c-21.491,4.898-42.982,9.799-64.473,14.697     c-3.541,0.807-6.38,1.528-8.457,5.012c-2.317,3.885-4.635,7.77-6.951,11.653c-7.93,13.295-15.859,26.59-23.79,39.884     c-1.444,2.42-2.888,4.841-4.331,7.261c-19.854-8.507-39.708-17.012-59.563-25.52c-3.995-1.712-7.097-3.07-11.558-1.159     c-3.982,1.706-7.964,3.412-11.945,5.118c-14.224,6.093-28.446,12.188-42.67,18.282c-2.551,1.093-5.103,2.187-7.654,3.279     c-2.475-4.149-4.95-8.3-7.426-12.449c-5.066-8.494-18.346-0.776-13.26,7.75c3.624,6.076,7.248,12.152,10.873,18.229     c2.34,3.924,6.633,4.414,10.506,2.755c22-9.426,44.002-18.853,66.002-28.279c22.002,9.427,44.003,18.854,66.004,28.279     c3.872,1.659,8.165,1.169,10.505-2.755c12.406-20.8,24.813-41.599,37.22-62.399c23.742-5.412,47.484-10.825,71.227-16.237     c3.093-0.705,5.93-4.152,5.638-7.404c-2.186-24.364-4.37-48.729-6.556-73.092c15.828-18.13,31.654-36.26,47.481-54.39     C3087.362,440.519,3087.361,436.295,3084.466,432.978z" />
			<path fill="#140F16" d="M2752.768,587.694c-1.865-3.129-3.492-6.182-7.383-7.068c-7.514-1.713-15.028-3.427-22.543-5.14     c-14.863-3.388-29.728-6.777-44.592-10.165c1.988-22.181,3.977-44.36,5.966-66.54c0.331-3.687-0.027-6.352-2.671-9.379     c-3.144-3.602-6.287-7.203-9.432-10.805c-10.25-11.742-20.501-23.484-30.752-35.226c-1.444-1.655-2.889-3.311-4.334-4.965     c14.383-16.476,28.765-32.95,43.146-49.426c2.28-2.612,4.566-5.11,4.229-8.873c-0.428-4.763-0.854-9.524-1.281-14.287     c-1.393-15.526-2.785-31.054-4.178-46.581c-0.231-2.582-0.463-5.166-0.695-7.748c21.492-4.899,42.982-9.799,64.474-14.697     c3.54-0.808,6.38-1.529,8.458-5.013c2.316-3.884,4.634-7.769,6.95-11.653c7.931-13.295,15.86-26.59,23.79-39.885     c1.444-2.421,2.888-4.842,4.331-7.263c19.854,8.507,39.709,17.015,59.564,25.521c3.995,1.712,7.097,3.071,11.558,1.159     c3.982-1.706,7.964-3.412,11.945-5.117c14.224-6.095,28.446-12.189,42.67-18.283c2.551-1.093,5.103-2.187,7.654-3.279     c2.622,4.396,5.244,8.792,7.866,13.188c5.065,8.494,18.346,0.775,13.26-7.751c-3.771-6.323-7.542-12.646-11.313-18.968     c-2.34-3.924-6.633-4.414-10.506-2.755c-22,9.427-44.002,18.854-66.002,28.28c-22.002-9.427-44.003-18.854-66.004-28.28     c-3.872-1.659-8.165-1.169-10.505,2.755c-12.407,20.8-24.813,41.602-37.221,62.401c-23.742,5.413-47.484,10.825-71.227,16.238     c-3.093,0.705-5.929,4.152-5.638,7.404c2.186,24.363,4.371,48.727,6.555,73.091c-15.826,18.13-31.653,36.261-47.479,54.391     c-2.896,3.317-2.896,7.541,0,10.858c15.826,18.13,31.653,36.26,47.479,54.39c-2.184,24.363-4.368,48.728-6.554,73.092     c-0.291,3.252,2.545,6.699,5.638,7.404c23.742,5.412,47.484,10.825,71.227,16.237c2.192,3.677,4.385,7.353,6.578,11.028     c5.066,8.494,18.346,0.775,13.26-7.75C2756.961,594.723,2754.864,591.208,2752.768,587.694z" />
			<path fill="#140F16" d="M2704.208,407.887c-3.572-0.983-8.63,1.186-9.227,5.238c-7.056,47.929,6.774,95.936,38.985,132.241     c30.258,34.104,74.98,53.238,120.391,53.032c45.473-0.205,89.48-20.805,119.299-54.998     c30.441-34.904,44.071-82.013,37.615-127.795c-6.323-44.846-32.09-84.834-69.41-110.223     c-38.969-26.51-89.315-33.566-134.373-20.426c-44.472,12.971-81.9,46.131-100.697,88.366c-1.663,3.735-1.122,8.028,2.69,10.262     c3.231,1.894,8.599,1.046,10.261-2.69c19.289-43.342,57.871-74.852,104.342-84.633c44.268-9.318,91.515,3.868,125.217,33.77     c33.525,29.744,50.962,73.609,48.336,118.18c-2.573,43.69-26.422,84.694-62.262,109.527     c-37.131,25.729-84.729,32.227-127.619,18.495c-41.224-13.198-75.106-45.962-90.432-86.331     c-8.755-23.061-11.471-48.389-7.878-72.791C2710.041,413.07,2708.506,409.068,2704.208,407.887z" />
			<path fill="#140F16" d="M2976.78,391.824c0-8.744-15.833-27.668-15.833-27.668s-15.833,18.924-15.833,27.668     s7.089,15.834,15.833,15.834C2969.692,407.658,2976.78,400.568,2976.78,391.824z" />
			<path fill="#140F16" d="M2753.78,452.99c0-8.744-15.833-27.668-15.833-27.668s-15.833,18.924-15.833,27.668     c0,8.745,7.089,15.833,15.833,15.833C2746.692,468.823,2753.78,461.735,2753.78,452.99z" />
			<path fill="#140F16" d="M2929.281,518.654c0,8.745,7.089,15.833,15.833,15.833c8.745,0,15.833-7.088,15.833-15.833     c0-8.744-15.833-27.668-15.833-27.668S2929.281,509.91,2929.281,518.654z" />
			<circle fill="#140F16" cx="2907.947" cy="401.74" r="15.833" />
			<circle fill="#140F16" cx="2797.947" cy="401.74" r="15.833" />
			<path fill="#140F16" d="M2901.889,311.051c-5.853-3.228-12.282-3.814-18.798-3.814c-14.44,0-28.881,0-43.321,0     c-12.619,0-26.781-1.84-37.984,5.116c-21.658,13.446-18.718,47.287,4.582,57.142c7.956,3.364,16.349,2.742,24.777,2.742     c11.66,0,23.32,0,34.98,0c6.823,0,13.646,0,20.469,0c17.623,0,31.386-14.145,32.457-31.279c0.046-0.391,0.074-0.792,0.063-1.221     c0.013-0.475-0.021-0.918-0.078-1.346C2918.295,326.867,2912.123,316.697,2901.889,311.051z M2886.594,357.236     c-3.689,0-7.379,0-11.069,0c-15.303,0-30.606,0-45.909,0c-3.445,0-6.89,0-10.334,0c-10.465,0-17.734-8.804-17.463-18.871     c0.245-9.09,8.827-16.129,17.541-16.129c3.928,0,7.856,0,11.785,0c15.045,0,30.09,0,45.135,0c3.438,0,6.876,0,10.314,0     c9.771,0,17.262,7.922,17.52,17.5C2903.855,349.315,2896.365,357.236,2886.594,357.236z" />
			<path fill="#140F16" d="M2852.947,458.57c-17.119-0.494-30.359,14.45-30.833,30.833c-0.495,17.12,14.45,30.359,30.833,30.833     c16.668,0.481,29.653-13.673,30.764-29.54c0.052-0.412,0.082-0.838,0.069-1.293c0.013-0.448-0.017-0.869-0.067-1.276     C2882.615,471.626,2869.645,459.053,2852.947,458.57z M2852.947,505.236c-8.846,0.256-15.589-7.372-15.833-15.833     c-0.256-8.846,7.372-15.589,15.833-15.833c8.846-0.256,15.589,7.372,15.833,15.833     C2868.524,498.25,2861.794,504.98,2852.947,505.236z" />
		</g>
		<g>
			<circle fill="#FFFFFF" cx="2913.508" cy="395.614" r="5.792" />
			<circle fill="#FFFFFF" cx="2901.07" cy="411.427" r="2.229" />
		</g>
		<g>
			<circle fill="#FFFFFF" cx="2802.385" cy="395.281" r="5.792" />
			<circle fill="#FFFFFF" cx="2789.947" cy="411.094" r="2.229" />
		</g>
	</g>
	</svg>