<?xml version="1.0" encoding="utf-8"?>
<svg version="1.1" xmlns="http://www.w3.org/2000/svg" viewBox="1886.67 281.12 275.00 204.34">
<style type="text/css">
	.st0{fill:#43A6FF;}
	.st1{fill:#5AE0FF;}
	.st2{fill:#53415E;}
	.st3{fill:#37CDDD;}
	.st4{fill:#9CF1FF;}
	.st5{fill:#76C4FF;}
	.st6{fill:#0A95EA;}
	.st7{fill:#FFDE7C;}
	.st8{fill:#FF97D3;}
	.st9{fill:#FF9D5A;}
	.st10{fill:#FFE8AE;}
	.st11{fill:#FFCCED;}
	.st12{fill:#FF80D5;}
	.st13{fill:#FF7B7B;}
	.st14{fill:#FFA4A4;}
	.st15{fill:#FF5555;}
	.st16{fill:#5FBBFF;}
	.st17{fill:#3E2E49;}
	.st18{fill:#685A72;}
	.st19{fill:none;}
	.st20{fill:#24162B;}
</style>
<g>
		<g>
			<g>
				<path class="st7" d="M2113.67,368.87l-28.26-29.08l5.77-40.15l-39.98-6.9l-18.9-35.9l-36.4,17.95l-36.4-17.95l-18.9,35.9      l-39.99,6.9l5.77,40.15l-28.26,29.08l28.26,29.09l-5.77,40.15l39.99,6.9l18.9,35.9l36.4-17.95l36.4,17.95l18.9-35.9l39.98-6.9      l-5.77-40.15L2113.67,368.87z M1995.9,437.46c-37.89,0-68.6-30.71-68.6-68.6c0-37.88,30.71-68.59,68.6-68.59      c37.88,0,68.59,30.71,68.59,68.59C2064.49,406.75,2033.78,437.46,1995.9,437.46z" />
			</g>
			<g>
				<path class="st13" d="M2064.49,368.87c0,37.89-30.71,68.6-68.59,68.6c-37.89,0-68.6-30.71-68.6-68.6      c0-37.88,30.71-68.59,68.6-68.59C2033.78,300.28,2064.49,330.99,2064.49,368.87z" />
			</g>
			<g>
				<path class="st9" d="M1995.9,437.46c-37.89,0-68.6-30.71-68.6-68.6c0-12.58,3.39-24.36,9.3-34.49l-35.98-34.74l5.77,40.15      l-28.26,29.08l28.26,29.09l-5.77,40.15l39.99,6.9l18.9,35.9l36.4-17.95l36.4,17.95l18.9-35.9l-18.74-18.09      C2021.88,433.59,2009.34,437.46,1995.9,437.46z" />
			</g>
			<g>
				<path class="st10" d="M2064.49,368.94C2064.49,368.94,2064.49,368.94,2064.49,368.94h49.18l-28.26-29.08l5.77-40.15l-39.98-6.9      l-18.9-35.9l-9.45,48.94C2047.33,316.32,2064.49,340.62,2064.49,368.94z" />
			</g>
			<g>
				<path class="st14" d="M2063.45,381.15c0.72-3.98,1.1-8.09,1.1-12.28c0-37.88-30.71-68.59-68.59-68.59      c-5.08,0-10.04,0.56-14.81,1.61C2010.21,306.55,2054.45,323.25,2063.45,381.15z" />
			</g>
			<g>
				<path class="st15" d="M1934.67,337.58c-4.86,9.42-7.61,20.1-7.61,31.43c0,37.89,30.71,68.6,68.6,68.6      c13.68,0,26.42-4,37.11-10.9C1960.91,418.78,1940.12,371.91,1934.67,337.58z" />
			</g>
		</g>
		<g>
			<path class="st2" d="M2011.22,408.3c0,2.52-0.61,4.9-1.69,7c-2.54-4.94-7.69-8.33-13.64-8.33c-5.94,0-11.09,3.38-13.63,8.33     c-1.08-2.1-1.69-4.47-1.69-7c0-8.46,6.86-15.33,15.32-15.33C2004.36,392.97,2011.22,399.84,2011.22,408.3z" />
		</g>
		<g>
			<g>
				<path class="st1" d="M1985.9,355.04h-23.14c-6.04,0-10.93-4.9-10.93-10.93v-12.45c0-6.04,4.9-10.94,10.93-10.94h23.14      c-5.16,0-9.35,4.19-9.35,9.35v15.63C1976.55,350.86,1980.74,355.04,1985.9,355.04z" />
			</g>
			<g>
				<path class="st1" d="M2039.97,331.66v12.45c0,6.04-4.9,10.93-10.93,10.93h-23.14c5.16,0,9.35-4.18,9.35-9.34v-15.63      c0-5.16-4.19-9.35-9.35-9.35h23.14C2035.07,320.72,2039.97,325.62,2039.97,331.66z" />
			</g>
			<g>
				<path class="st0" d="M2015.24,330.07v15.63c0,5.16-4.19,9.34-9.35,9.34h-20c-5.16,0-9.35-4.18-9.35-9.34v-15.63      c0-5.16,4.19-9.35,9.35-9.35h20C2011.06,320.72,2015.24,324.91,2015.24,330.07z" />
			</g>
			<g>
				<path class="st16" d="M2015.17,329.12c-0.48-4.71-4.46-8.4-9.3-8.4h-20c-2.56,0-4.88,1.03-6.57,2.7      C1989.34,322.8,2009.69,322.38,2015.17,329.12z" />
			</g>
			<g>
				<path class="st6" d="M1976.55,340.01v5.69c0,5.16,4.19,9.34,9.35,9.34h20c5.16,0,9.35-4.18,9.35-9.34v-2.07      C1997.97,347.86,1984.73,344.06,1976.55,340.01z" />
			</g>
		</g>
		<g>
			<path class="st2" d="M2027.98,383.51c0-4.04,0-8.07,0-12.11c0-3.84-5.97-3.85-5.97,0c0,4.04,0,8.07,0,12.11     C2022.01,387.35,2027.98,387.36,2027.98,383.51z" />
			<path class="st2" d="M1963.81,371.4c0,4.04,0,8.07,0,12.11c0,3.84,5.97,3.85,5.97,0c0-4.04,0-8.07,0-12.11     C1969.78,367.56,1963.81,367.55,1963.81,371.4z" />
		</g>
	</g>
	
</svg>
