<?xml version="1.0" encoding="utf-8"?>
<svg version="1.1" xmlns="http://www.w3.org/2000/svg" viewBox="1834.59 1625.28 324.10 233.68">
<style type="text/css">
	.st0{fill:#43A6FF;}
	.st1{fill:#5AE0FF;}
	.st2{fill:#53415E;}
	.st3{fill:#37CDDD;}
	.st4{fill:#9CF1FF;}
	.st5{fill:#76C4FF;}
	.st6{fill:#0A95EA;}
	.st7{fill:#FFDE7C;}
	.st8{fill:#FF97D3;}
	.st9{fill:#FF9D5A;}
	.st10{fill:#FFE8AE;}
	.st11{fill:#FFCCED;}
	.st12{fill:#FF80D5;}
	.st13{fill:#FF7B7B;}
	.st14{fill:#FFA4A4;}
	.st15{fill:#FF5555;}
	.st16{fill:#5FBBFF;}
	.st17{fill:#3E2E49;}
	.st18{fill:#685A72;}
	.st19{fill:none;}
	.st20{fill:#24162B;}
</style>
<g>
		<g>
			<path class="st0" d="M2110.69,1797.9c0,15.18-12.3,27.48-27.48,27.48h-75.15c-15.18,0-27.48-12.3-27.48-27.48     c0-1.85,0.18-3.65,0.53-5.4c2.51-12.6,13.62-22.09,26.95-22.09c3.63,0,7.1,0.7,10.28,1.99c-0.12-1.04-0.18-2.08-0.18-3.14     c0-15.18,12.31-27.48,27.48-27.48c15.18,0,27.48,12.31,27.48,27.48c0,1.06-0.06,2.1-0.18,3.14c3.17-1.28,6.64-1.99,10.27-1.99     c4.76,0,9.23,1.21,13.13,3.33C2104.89,1778.41,2110.69,1787.48,2110.69,1797.9z" />
		</g>
		<g>
			<g>
				<path class="st0" d="M2110.69,1797.9c0,15.18-12.3,27.48-27.48,27.48h-75.15c-15.18,0-27.48-12.3-27.48-27.48      c0-1.85,0.18-3.65,0.53-5.4c2.51-12.6,13.62-22.09,26.95-22.09c3.63,0,7.1,0.7,10.28,1.99c-0.12-1.04-0.18-2.08-0.18-3.14      c0-15.18,12.31-27.48,27.48-27.48c15.18,0,27.48,12.31,27.48,27.48c0,1.06-0.06,2.1-0.18,3.14c3.17-1.28,6.64-1.99,10.27-1.99      c4.76,0,9.23,1.21,13.13,3.33C2104.89,1778.41,2110.69,1787.48,2110.69,1797.9z" />
			</g>
		</g>
		<g>
			<g>
				<path class="st1" d="M2106.04,1744.99c0,10.81-3.61,20.78-9.69,28.76c-3.9-2.13-8.38-3.33-13.13-3.33      c-3.63,0-7.1,0.7-10.27,1.99c0.12-1.04,0.18-2.08,0.18-3.14c0-15.18-12.31-27.48-27.48-27.48c-15.18,0-27.48,12.31-27.48,27.48      c0,1.06,0.06,2.1,0.18,3.14c-3.17-1.28-6.64-1.99-10.28-1.99c-13.33,0-24.44,9.49-26.95,22.09h-52.5      c-26.24,0-47.51-21.27-47.51-47.51c0-26.24,21.27-47.52,47.51-47.52c6.28,0,12.27,1.21,17.76,3.43      c-0.21-1.78-0.31-3.59-0.31-5.42c0-26.24,21.27-47.52,47.52-47.52c26.24,0,47.52,21.27,47.52,47.52c0,1.83-0.11,3.64-0.31,5.42      c5.48-2.21,11.48-3.43,17.76-3.43C2084.77,1697.48,2106.04,1718.75,2106.04,1744.99z" />
			</g>
		</g>
		<g>
			<g>
				<g>
					<path class="st2" d="M2011.95,1718.44c0,3.48,0,6.95,0,10.43c0,3.84,5.97,3.85,5.97,0c0-3.48,0-6.95,0-10.43       C2017.92,1714.59,2011.95,1714.59,2011.95,1718.44L2011.95,1718.44z" />
				</g>
				<g>
					<path class="st2" d="M1969.22,1718.44c0,3.48,0,6.95,0,10.43c0,3.84,5.97,3.85,5.97,0c0-3.48,0-6.95,0-10.43       C1975.19,1714.59,1969.22,1714.59,1969.22,1718.44L1969.22,1718.44z" />
				</g>
			</g>
			<g>
				<path class="st2" d="M1999.12,1741.86c-0.27,6.8-10.28,6.82-10.56,0c-0.15-3.83-6.13-3.85-5.97,0      c0.25,6.09,4.95,11.27,11.25,11.25c6.3-0.02,11-5.12,11.25-11.25C2005.25,1738.02,1999.28,1738.03,1999.12,1741.86      L1999.12,1741.86z" />
			</g>
		</g>
		<g>
			<path class="st3" d="M1882.59,1733.16c-0.97,3.78-1.49,7.75-1.49,11.83c0,26.24,21.27,47.51,47.51,47.51h52.5     c2.51-12.6,13.62-22.09,26.95-22.09c3.63,0,7.1,0.7,10.28,1.99c-0.12-1.04-0.18-2.08-0.18-3.14c0-1.18,0.08-2.35,0.23-3.49     c-15.8,0-73.36,0-104.22,0C1893.12,1765.77,1885.39,1747.96,1882.59,1733.16z" />
		</g>
		<path class="st4" d="M2023.48,1673.28c-1.92,6.73-10.38-0.27-22.31-3.67c-11.93-3.4-22.81-1.9-20.89-8.63    c1.92-6.73,13.14-9.44,25.07-6.04C2017.28,1658.33,2025.4,1666.54,2023.48,1673.28z" />
		<path class="st4" d="M2076.97,1710.2c-0.83,2.91-4.49-0.12-9.64-1.59c-5.16-1.47-9.86-0.82-9.03-3.73    c0.83-2.91,5.68-4.08,10.84-2.61C2074.29,1703.74,2077.8,1707.29,2076.97,1710.2z" />
		<path class="st5" d="M2060.15,1754.61c-0.83,2.91-4.49-0.12-9.64-1.59c-5.16-1.47-9.86-0.82-9.03-3.73    c0.83-2.91,5.68-4.08,10.84-2.61C2057.47,1748.15,2060.98,1751.7,2060.15,1754.61z" />
		<g>
			<path class="st6" d="M2045.64,1810.96c-41.63,0-57.96-10.56-64.34-19.28c-0.06,0.27-0.13,0.55-0.18,0.83     c-0.35,1.75-0.53,3.55-0.53,5.4c0,15.18,12.3,27.48,27.48,27.48h75.15c15.18,0,27.48-12.3,27.48-27.48     c0-1.22-0.08-2.42-0.24-3.61C2091.47,1812.82,2045.64,1810.96,2045.64,1810.96z" />
		</g>
	</g>
	
</svg>
