<?xml version="1.0" encoding="utf-8"?>
<svg version="1.1" xmlns="http://www.w3.org/2000/svg" viewBox="743.71 969.17 285.87 231.24">
<style type="text/css">
	.st0{fill:#43A6FF;}
	.st1{fill:#5AE0FF;}
	.st2{fill:#53415E;}
	.st3{fill:#37CDDD;}
	.st4{fill:#9CF1FF;}
	.st5{fill:#76C4FF;}
	.st6{fill:#0A95EA;}
	.st7{fill:#FFDE7C;}
	.st8{fill:#FF97D3;}
	.st9{fill:#FF9D5A;}
	.st10{fill:#FFE8AE;}
	.st11{fill:#FFCCED;}
	.st12{fill:#FF80D5;}
	.st13{fill:#FF7B7B;}
	.st14{fill:#FFA4A4;}
	.st15{fill:#FF5555;}
	.st16{fill:#5FBBFF;}
	.st17{fill:#3E2E49;}
	.st18{fill:#685A72;}
	.st19{fill:none;}
	.st20{fill:#24162B;}
</style>
<g>
		<g>
			<g>
				<path class="st7" d="M981.58,1048.45l-28.26-29.08l5.77-40.15l-39.98-6.9l-18.9-35.9l-36.4,17.95l-36.4-17.95l-18.9,35.9      l-39.99,6.9l5.77,40.15l-28.26,29.08l28.26,29.09l-5.77,40.15l39.99,6.9l18.9,35.9l36.4-17.95l36.4,17.95l18.9-35.9l39.98-6.9      l-5.77-40.15L981.58,1048.45z M863.81,1117.05c-37.89,0-68.6-30.71-68.6-68.6c0-37.88,30.71-68.59,68.6-68.59      c37.88,0,68.59,30.71,68.59,68.59C932.4,1086.34,901.69,1117.05,863.81,1117.05z" />
			</g>
			<g>
				<path class="st8" d="M932.4,1048.45c0,37.89-30.71,68.6-68.59,68.6c-37.89,0-68.6-30.71-68.6-68.6      c0-37.88,30.71-68.59,68.6-68.59C901.69,979.86,932.4,1010.57,932.4,1048.45z" />
			</g>
			<g>
				<g>
					<path class="st2" d="M889.92,1022.94c0,4.04,0,8.07,0,12.11c0,3.84,5.97,3.85,5.97,0c0-4.04,0-8.07,0-12.11       C895.9,1019.09,889.92,1019.09,889.92,1022.94L889.92,1022.94z" />
				</g>
				<g>
					<path class="st2" d="M831.72,1022.94c0,4.04,0,8.07,0,12.11c0,3.84,5.97,3.85,5.97,0c0-4.04,0-8.07,0-12.11       C837.69,1019.09,831.72,1019.09,831.72,1022.94L831.72,1022.94z" />
				</g>
			</g>
			<g>
				<path class="st2" d="M876.8,1051.2c-0.15,7.09-5.79,12.99-12.99,12.99s-12.84-5.9-12.99-12.99c-0.08-3.84-6.05-3.85-5.97,0      c0.22,10.33,8.48,18.95,18.97,18.97s18.75-8.66,18.97-18.97C882.86,1047.35,876.89,1047.35,876.8,1051.2L876.8,1051.2z" />
			</g>
			<g>
				<path class="st9" d="M863.81,1117.05c-37.89,0-68.6-30.71-68.6-68.6c0-12.58,3.39-24.36,9.3-34.49l-35.98-34.74l5.77,40.15      l-28.26,29.08l28.26,29.09l-5.77,40.15l39.99,6.9l18.9,35.9l36.4-17.95l36.4,17.95l18.9-35.9l-18.74-18.09      C889.79,1113.18,877.25,1117.05,863.81,1117.05z" />
			</g>
			<g>
				<path class="st10" d="M932.4,1048.52C932.4,1048.52,932.4,1048.52,932.4,1048.52h49.18l-28.26-29.08l5.77-40.15l-39.98-6.9      l-18.9-35.9l-9.45,48.94C915.24,995.91,932.4,1020.21,932.4,1048.52z" />
			</g>
			<g>
				<path class="st11" d="M931.36,1060.73c0.72-3.98,1.1-8.09,1.1-12.28c0-37.88-30.71-68.59-68.59-68.59      c-5.08,0-10.04,0.56-14.81,1.61C878.12,986.13,922.36,1002.83,931.36,1060.73z" />
			</g>
			<g>
				<path class="st12" d="M802.59,1017.17c-4.86,9.42-7.61,20.1-7.61,31.43c0,37.89,30.71,68.6,68.6,68.6      c13.68,0,26.42-4,37.11-10.9C828.82,1098.36,808.03,1051.5,802.59,1017.17z" />
			</g>
		</g>
		<g>
			<g>
				<path class="st3" d="M879.64,1152.41c-78.44,10.53-112-20.15-125.73-42.19l-6.19,8.08v44.74l0.13,0.1h140.02v-0.01      L879.64,1152.41z" />
			</g>
			<g>
				<path class="st6" d="M874.08,1118.28l-10.29,13.44l24.08,31.43h91.99v-12.26C926.07,1154.71,890.42,1132,874.08,1118.28z" />
			</g>
			<g>
				<path class="st4" d="M791.71,1073.91l8.68,9.95l8.69-9.95l8.69,9.95l4.99-5.71l-12.89-16.83c-4.66-6.1-13.84-6.1-18.51,0      l-13.09,17.09l4.75,5.45L791.71,1073.91z" />
			</g>
			<g>
				<path class="st1" d="M863.78,1131.71l-41.03-53.56l-4.99,5.71l-8.69-9.95l-8.69,9.95l-8.68-9.95l-8.69,9.95l-4.75-5.45      l-24.36,31.81c13.74,22.04,47.29,52.72,125.73,42.19L863.78,1131.71z" />
			</g>
			<g>
				<path class="st0" d="M948,1076.71l-3.6,4.13l-8.69-9.95l-8.69,9.95l-8.68-9.95l-8.69,9.95l-3.67-4.21l-31.9,41.65      c16.34,13.73,51.99,36.43,105.78,32.61v-32.59L948,1076.71z" />
			</g>
			<g>
				<path class="st5" d="M918.33,1070.88l8.68,9.95l8.69-9.95l8.69,9.95l3.6-4.13l-11.79-15.39c-4.66-6.09-13.84-6.09-18.51,0      l-11.73,15.31l3.67,4.21L918.33,1070.88z" />
			</g>
		</g>
	</g>
	
</svg>
