<?xml version="1.0" encoding="utf-8"?>
<svg version="1.1" xmlns="http://www.w3.org/2000/svg" viewBox="241.76 1905.66 277.40 286.10">
<style type="text/css">
	.st0{fill:#43A6FF;}
	.st1{fill:#5AE0FF;}
	.st2{fill:#53415E;}
	.st3{fill:#37CDDD;}
	.st4{fill:#9CF1FF;}
	.st5{fill:#76C4FF;}
	.st6{fill:#0A95EA;}
	.st7{fill:#FFDE7C;}
	.st8{fill:#FF97D3;}
	.st9{fill:#FF9D5A;}
	.st10{fill:#FFE8AE;}
	.st11{fill:#FFCCED;}
	.st12{fill:#FF80D5;}
	.st13{fill:#FF7B7B;}
	.st14{fill:#FFA4A4;}
	.st15{fill:#FF5555;}
	.st16{fill:#5FBBFF;}
	.st17{fill:#3E2E49;}
	.st18{fill:#685A72;}
	.st19{fill:none;}
	.st20{fill:#24162B;}
</style>
<g>
		<g>
			<path class="st2" d="M289.76,2057.91h174.11c0,0,16.27-4.69,30.71-25.02c0.04-0.87,0.07-1.74,0.07-2.62     c0-18.97-10.56-35.49-26.12-43.97c-7.11-3.87-15.25-6.07-23.91-6.07c-6.61,0-12.93,1.27-18.7,3.61c0.22-1.89,0.33-3.79,0.33-5.72     c0-27.63-22.41-50.04-50.04-50.04c-27.63,0-50.04,22.4-50.04,50.04c0,1.93,0.11,3.83,0.33,5.72c-5.78-2.34-12.09-3.61-18.71-3.61     c-24.27,0-44.49,17.28-49.06,40.21c-0.64,3.18-0.97,6.47-0.97,9.83c0,0.9,0.03,1.8,0.07,2.69     C264.92,2044.72,275.6,2056.64,289.76,2057.91z" />
		</g>
		<g>
			<path class="st17" d="M463.86,2057.91H289.76c-14.16-1.27-24.83-13.19-31.93-24.96c1.4,26.39,23.22,47.35,49.96,47.35h136.83     c26.76,0,48.6-21,49.96-47.41C480.13,2053.22,463.86,2057.91,463.86,2057.91z" />
		</g>
		<g>
			<path class="st0" d="M417.89,2142.42c0,4.09-3.31,7.4-7.4,7.4c-4.09,0-7.4-3.31-7.4-7.4c0-4.09,7.4-15.69,7.4-15.69     S417.89,2138.33,417.89,2142.42z" />
		</g>
		<path class="st5" d="M415.62,2143.76c0.78,1.25-0.11,3.21-1.99,4.37c-1.87,1.16-4.02,1.09-4.8-0.17    c-0.78-1.25,1.09-1.63,2.97-2.79C413.67,2144.01,414.84,2142.5,415.62,2143.76z" />
		<path class="st19" d="M410.45,2132.47c-1.37,2.34-2.64,4.76-3.61,7.25c-0.92,2.35-1.29,4.91,1.42,6.49c3,1.76,6.5-0.5,6.64-3.81    c-0.1-2.43-2.24-5.96-3.56-8.36C411.06,2133.52,410.75,2133,410.45,2132.47z" />
		<path class="st19" d="M410.45,2132.47c-1.37,2.34-2.64,4.76-3.61,7.25c-0.92,2.35-1.29,4.91,1.42,6.49c3,1.76,6.5-0.5,6.64-3.81    c-0.1-2.43-2.24-5.96-3.56-8.36C411.06,2133.51,410.75,2132.99,410.45,2132.47z" />
		<g>
			<path class="st0" d="M349.26,2142.42c0,4.09-3.31,7.4-7.4,7.4c-4.09,0-7.4-3.31-7.4-7.4c0-4.09,7.4-15.69,7.4-15.69     S349.26,2138.33,349.26,2142.42z" />
		</g>
		<path class="st5" d="M346.98,2143.76c0.78,1.25-0.11,3.21-1.99,4.37c-1.87,1.16-4.02,1.09-4.8-0.17    c-0.78-1.25,1.09-1.63,2.97-2.79C345.04,2144.01,346.21,2142.5,346.98,2143.76z" />
		<path class="st19" d="M341.82,2132.47c-1.37,2.34-2.64,4.76-3.61,7.25c-0.92,2.35-1.29,4.91,1.42,6.49c3,1.76,6.5-0.5,6.64-3.81    c-0.1-2.43-2.24-5.96-3.56-8.36C342.42,2133.52,342.12,2133,341.82,2132.47z" />
		<path class="st19" d="M341.82,2132.47c-1.37,2.34-2.64,4.76-3.61,7.25c-0.92,2.35-1.29,4.91,1.42,6.49c3,1.76,6.5-0.5,6.64-3.81    c-0.1-2.43-2.24-5.96-3.56-8.36C342.42,2133.51,342.12,2132.99,341.82,2132.47z" />
		<g>
			<path class="st0" d="M445.54,2105.46c0,4.09-3.31,7.4-7.4,7.4c-4.09,0-7.4-3.31-7.4-7.4c0-4.09,7.4-15.69,7.4-15.69     S445.54,2101.37,445.54,2105.46z" />
		</g>
		<path class="st5" d="M443.26,2106.8c0.78,1.25-0.11,3.21-1.99,4.37c-1.87,1.16-4.02,1.08-4.8-0.17c-0.78-1.25,1.09-1.63,2.97-2.79    C441.32,2107.05,442.49,2105.55,443.26,2106.8z" />
		<path class="st19" d="M438.1,2095.51c-1.37,2.34-2.64,4.76-3.61,7.25c-0.92,2.35-1.29,4.91,1.42,6.49c3,1.76,6.5-0.5,6.64-3.81    c-0.1-2.43-2.24-5.96-3.56-8.36C438.7,2096.56,438.4,2096.04,438.1,2095.51z" />
		<path class="st19" d="M438.1,2095.51c-1.37,2.34-2.64,4.76-3.61,7.25c-0.92,2.35-1.29,4.91,1.42,6.49c3,1.76,6.5-0.5,6.64-3.81    c-0.1-2.43-2.24-5.96-3.56-8.36C438.7,2096.56,438.4,2096.03,438.1,2095.51z" />
		<g>
			<path class="st0" d="M321.61,2105.46c0,4.09-3.31,7.4-7.4,7.4c-4.09,0-7.4-3.31-7.4-7.4c0-4.09,7.4-15.69,7.4-15.69     S321.61,2101.37,321.61,2105.46z" />
		</g>
		<path class="st5" d="M319.34,2106.8c0.78,1.25-0.11,3.21-1.99,4.37c-1.87,1.16-4.02,1.08-4.8-0.17c-0.78-1.25,1.09-1.63,2.97-2.79    C317.39,2107.05,318.56,2105.55,319.34,2106.8z" />
		<path class="st19" d="M314.17,2095.51c-1.37,2.34-2.64,4.76-3.61,7.25c-0.92,2.35-1.29,4.91,1.42,6.49c3,1.76,6.5-0.5,6.64-3.81    c-0.1-2.43-2.24-5.96-3.56-8.36C314.78,2096.56,314.47,2096.04,314.17,2095.51z" />
		<path class="st19" d="M314.17,2095.51c-1.37,2.34-2.64,4.76-3.61,7.25c-0.92,2.35-1.29,4.91,1.42,6.49c3,1.76,6.5-0.5,6.64-3.81    c-0.1-2.43-2.24-5.96-3.56-8.36C314.78,2096.56,314.47,2096.03,314.17,2095.51z" />
		<g>
			<g>
				<path class="st17" d="M390.03,1994.09c0,2.36,0,4.71,0,7.07c0,3.84,5.97,3.85,5.97,0c0-2.36,0-4.71,0-7.07      C396.01,1990.25,390.03,1990.24,390.03,1994.09L390.03,1994.09z" />
			</g>
			<g>
				<path class="st17" d="M356.39,1994.09c0,2.36,0,4.71,0,7.07c0,3.84,5.97,3.85,5.97,0c0-2.36,0-4.71,0-7.07      C362.36,1990.25,356.39,1990.24,356.39,1994.09L356.39,1994.09z" />
			</g>
		</g>
		<g>
			<path class="st17" d="M321.84,2049.66c0.09-6.55,4.69-11.9,9.78-15.54c7.62-5.46,16.79-8.48,25.92-10.23     c10.91-2.09,22.38-2.3,33.37-0.67c9.51,1.41,19.12,4.12,27.34,9.22c6.09,3.77,12.19,9.56,12.3,17.22c0.05,3.84,6.03,3.85,5.97,0     c-0.27-19.27-24.07-28.39-39.7-31.46c-12.29-2.41-24.97-2.58-37.34-0.68c-10.23,1.57-20.68,4.7-29.4,10.42     c-7.51,4.93-14.09,12.28-14.22,21.72C315.81,2053.5,321.79,2053.5,321.84,2049.66L321.84,2049.66z" />
		</g>
		<g>
			<path class="st9" d="M364.95,2115.89l18.9-35.58h-2.26c-0.61,0.68-1.22,1.36-1.82,2.04l-2.06,2.4c-0.68,0.81-1.34,1.62-2.01,2.43     c-1.35,1.62-2.63,3.27-3.92,4.92c-5.1,6.64-9.83,13.49-14.27,20.51l-6.49,10.27l12.73,0.55c2.08,0.09,4.15,0.14,6.23,0.19     c2.07,0.04,4.15,0.05,6.22,0.06c0.22,0,0.44,0,0.66,0c-1.79,3.8-3.49,7.64-5.1,11.54c-0.79,1.94-1.58,3.88-2.3,5.86l-1.1,2.96     l-1.05,2.99c-1.35,4.01-2.62,8.07-3.55,12.32l21.38-42.08L364.95,2115.89z" />
		</g>
		<g>
			<path class="st10" d="M401.38,2109.56l-12.73-0.56c-1.04-0.05-2.08-0.08-3.12-0.11c-1.04-0.03-2.08-0.06-3.11-0.07     c-2.08-0.04-4.15-0.05-6.23-0.06c-0.23,0-0.46,0-0.68,0l20.49,3.23l-15.36,28.35c5.11-6.63,9.83-13.49,14.26-20.51     L401.38,2109.56z" />
		</g>
		<g>
			<path class="st7" d="M375.52,2108.76c1.79-3.8,3.5-7.64,5.11-11.55c0.79-1.94,1.58-3.88,2.3-5.86c0.37-0.99,0.75-1.97,1.1-2.96     l1.06-2.99c0.57-1.69,1.12-3.38,1.65-5.11h-2.88l-18.9,35.58l20.19,1.38l-21.38,42.08c3.21-2.94,6.1-6.06,8.89-9.24l2.07-2.4     l2.01-2.43c1.35-1.62,2.63-3.27,3.92-4.93l15.36-28.35L375.52,2108.76z" />
		</g>
		<path class="st18" d="M408.81,1953.66c-2.03,5.6-10.72-1.01-22.82-5.39c-12.09-4.38-23-4.88-20.97-10.48    c2.03-5.6,13.48-6.58,25.57-2.2S410.84,1948.06,408.81,1953.66z" />
		<path class="st18" d="M471.16,2000.44c-1.43,3.95-7.56-0.71-16.08-3.8c-8.52-3.09-16.21-3.44-14.78-7.39s9.5-4.64,18.02-1.55    C466.84,1990.79,472.59,1996.49,471.16,2000.44z" />
	</g>
	
</svg>
