<?xml version="1.0" encoding="utf-8"?>
<svg version="1.1" xmlns="http://www.w3.org/2000/svg" viewBox="1849.46 1934.44 310.36 265.55">
<style type="text/css">
	.st0{fill:#43A6FF;}
	.st1{fill:#5AE0FF;}
	.st2{fill:#53415E;}
	.st3{fill:#37CDDD;}
	.st4{fill:#9CF1FF;}
	.st5{fill:#76C4FF;}
	.st6{fill:#0A95EA;}
	.st7{fill:#FFDE7C;}
	.st8{fill:#FF97D3;}
	.st9{fill:#FF9D5A;}
	.st10{fill:#FFE8AE;}
	.st11{fill:#FFCCED;}
	.st12{fill:#FF80D5;}
	.st13{fill:#FF7B7B;}
	.st14{fill:#FFA4A4;}
	.st15{fill:#FF5555;}
	.st16{fill:#5FBBFF;}
	.st17{fill:#3E2E49;}
	.st18{fill:#685A72;}
	.st19{fill:none;}
	.st20{fill:#24162B;}
</style>
<g>
		<g>
			<path class="st0" d="M1980.35,2140.63c0-7.77-4.82-14.42-11.63-17.12c-2.1-0.83-4.38-1.28-6.77-1.28c-1.96,0-3.84,0.31-5.61,0.87     c0.46-1.6,0.7-3.3,0.7-5.06c0-0.39-0.01-0.78-0.04-1.16c-0.6-9.62-8.58-17.24-18.36-17.24c-5.19,0-9.88,2.15-13.22,5.6     c-3.2,3.31-5.18,7.82-5.18,12.79c0,1.76,0.24,3.45,0.7,5.06c-1.77-0.56-3.65-0.87-5.6-0.87c-10.16,0-18.4,8.24-18.4,18.4     c0,1.49,0.18,2.93,0.51,4.32h82.38C1980.17,2143.56,1980.35,2142.12,1980.35,2140.63z" />
		</g>
		<g>
			<path class="st6" d="M1897.46,2144.95c1.94,8.08,9.21,14.08,17.89,14.08h46.61c8.67,0,15.94-6,17.88-14.08H1897.46z" />
		</g>
		<g>
			<path class="st3" d="M1976.42,2151.99c-3.37,4.28-8.59,7.04-14.47,7.04h-1.25c6.46,7.23,15.86,11.78,26.33,11.78h89.47     c13.55,0,25.3-7.63,31.23-18.82H1976.42z" />
		</g>
		<g>
			<path class="st1" d="M2111.82,2135.49c0-19.51-15.81-35.32-35.32-35.32c-3.75,0-7.37,0.59-10.76,1.67     c0.88-3.08,1.35-6.34,1.35-9.7c0-11.22-5.24-21.22-13.39-27.69c-5.3-4.21-11.84-6.92-18.98-7.5c-0.97-0.08-1.96-0.12-2.95-0.12     c-19.51,0-35.32,15.82-35.32,35.32c0,1.83,0.14,3.62,0.4,5.37c0.23,1.48,0.55,2.92,0.95,4.33c-3.28-1.05-6.77-1.63-10.39-1.67     c-2.99,0.59-6.06,0.96-9.18,1.1c-8.92,2.29-16.49,7.98-21.22,15.61c0.03,0.38,0.04,0.77,0.04,1.16c0,1.76-0.24,3.45-0.7,5.06     c1.77-0.56,3.65-0.87,5.61-0.87c2.39,0,4.67,0.46,6.77,1.28c6.81,2.7,11.63,9.35,11.63,17.12c0,4.29-1.47,8.23-3.93,11.36h131.31     C2110.34,2147.06,2111.82,2141.45,2111.82,2135.49z" />
		</g>
		<g>
			<path class="st7" d="M2031.77,2056.81c0.99,0,1.98,0.04,2.95,0.12c7.14,0.59,13.68,3.3,18.98,7.5l17.12-24.91l-17.42-25.35     l-0.8-30.75l-29.01-10.25l-18.7-24.43l-29.49,8.78l-29.5-8.78l-18.7,24.43l-29.01,10.25l108.47,83.85     C2013.07,2060.82,2021.95,2056.81,2031.77,2056.81z" />
		</g>
		<g>
			<path class="st9" d="M1898.19,1983.44l-0.8,30.75l-17.42,25.35l17.42,25.35l0.8,30.75l27.24,9.62c3.34-3.45,8.03-5.6,13.22-5.6     c9.77,0,17.76,7.61,18.36,17.24c4.73-7.63,12.3-13.32,21.22-15.61c3.13-0.14,6.19-0.51,9.18-1.1c3.62,0.03,7.11,0.62,10.39,1.67     c-0.4-1.41-0.72-2.85-0.95-4.33c-0.26-1.75-0.4-3.55-0.4-5.37c0-9.69,3.9-18.46,10.22-24.84L1898.19,1983.44z" />
		</g>
		<g>
			<path class="st12" d="M1915.72,2023.39c-1.39,5.15-2.13,10.55-2.13,16.14c0,34.13,27.67,61.8,61.81,61.8     c0.95,0,1.89-0.02,2.83-0.06c3.13-0.14,6.19-0.51,9.18-1.1c3.24-0.64,6.4-1.53,9.44-2.66c-0.26-1.75-0.4-3.55-0.4-5.37     c0-0.39,0.02-0.77,0.03-1.16C1943.96,2090.85,1923.32,2048.35,1915.72,2023.39z" />
		</g>
		<g>
			<path class="st11" d="M2034.67,2021.98c-7.56-25.58-31.23-44.25-59.27-44.25c-8.4,0-16.41,1.68-23.71,4.71     C1969.95,1982.05,2006.53,1986.33,2034.67,2021.98z" />
		</g>
		<g>
			<path class="st8" d="M1951.69,1982.44c-17.51,7.28-30.95,22.39-35.96,40.95c7.6,24.96,28.24,67.45,80.75,67.58     c0.61-18.97,16.17-34.17,35.29-34.17c0.99,0,1.98,0.04,2.95,0.12c1.62-5.52,2.48-11.36,2.48-17.4c0-6.1-0.89-11.99-2.53-17.55     C2006.53,1986.33,1969.95,1982.05,1951.69,1982.44z" />
		</g>
		<g>
			<g>
				<g>
					<path class="st2" d="M1956.3,2014.72c0,2.62,0,5.24,0,7.86c0,3.84,5.97,3.85,5.97,0c0-2.62,0-5.24,0-7.86       C1962.28,2010.88,1956.3,2010.87,1956.3,2014.72L1956.3,2014.72z" />
				</g>
				<g>
					<path class="st2" d="M1988.51,2014.72c0,2.62,0,5.24,0,7.86c0,3.84,5.97,3.85,5.97,0c0-2.62,0-5.24,0-7.86       C1994.49,2010.88,1988.51,2010.87,1988.51,2014.72L1988.51,2014.72z" />
				</g>
			</g>
			<g>
				<path class="st2" d="M1981.05,2031.49c-0.28,7.29-11.03,7.31-11.31,0c-0.15-3.83-6.12-3.85-5.97,0      c0.24,6.3,5.13,11.65,11.63,11.63c6.5-0.02,11.38-5.3,11.63-11.63C1987.17,2027.64,1981.2,2027.65,1981.05,2031.49      L1981.05,2031.49z" />
			</g>
		</g>
		<g>
			<g>
				<g>
					<path class="st2" d="M2012.68,2112.57c0,2.62,0,5.24,0,7.86c0,3.84,5.97,3.85,5.97,0c0-2.62,0-5.24,0-7.86       C2018.65,2108.73,2012.68,2108.72,2012.68,2112.57L2012.68,2112.57z" />
				</g>
				<g>
					<path class="st2" d="M2044.89,2112.57c0,2.62,0,5.24,0,7.86c0,3.84,5.97,3.85,5.97,0c0-2.62,0-5.24,0-7.86       C2050.86,2108.73,2044.89,2108.72,2044.89,2112.57L2044.89,2112.57z" />
				</g>
			</g>
			<g>
				<path class="st2" d="M2037.42,2129.33c-0.28,7.29-11.03,7.31-11.31,0c-0.15-3.83-6.12-3.85-5.97,0      c0.24,6.3,5.13,11.65,11.63,11.63c6.5-0.02,11.38-5.3,11.63-11.63C2043.54,2125.49,2037.57,2125.5,2037.42,2129.33      L2037.42,2129.33z" />
			</g>
		</g>
		<g>
			<path class="st1" d="M1987.04,2100.16c-3.04,0-5.99,0.38-8.81,1.1c3.13-0.14,6.19-0.51,9.18-1.1     C1987.29,2100.16,1987.16,2100.16,1987.04,2100.16z" />
		</g>
		<path class="st5" d="M1951.27,2112.51c-1,3.87-4.81-1.24-10.75-2.78c-5.94-1.54-11.75,1.09-10.75-2.78s6.62-5.76,12.56-4.22    S1952.27,2108.64,1951.27,2112.51z" />
		<path class="st4" d="M2051.87,2075.57c-1.43,5.51-6.86-1.77-15.32-3.96c-8.46-2.19-16.75,1.55-15.32-3.96    c1.43-5.51,9.44-8.21,17.9-6.02C2047.59,2063.81,2053.3,2070.06,2051.87,2075.57z" />
		<path class="st4" d="M2096.74,2118.47c-1.43,5.51-6.86-1.77-15.32-3.96c-8.46-2.19-16.75,1.55-15.32-3.96    c1.43-5.51,9.44-8.21,17.9-6.02C2092.46,2106.71,2098.17,2112.95,2096.74,2118.47z" />
	</g>
	
</svg>
