<?xml version="1.0" encoding="utf-8"?>
<svg version="1.1" xmlns="http://www.w3.org/2000/svg" viewBox="780.18 641.74 164.94 128.83">
<style type="text/css">
	.st0{fill:#43A6FF;}
	.st1{fill:#5AE0FF;}
	.st2{fill:#53415E;}
	.st3{fill:#37CDDD;}
	.st4{fill:#9CF1FF;}
	.st5{fill:#76C4FF;}
	.st6{fill:#0A95EA;}
	.st7{fill:#FFDE7C;}
	.st8{fill:#FF97D3;}
	.st9{fill:#FF9D5A;}
	.st10{fill:#FFE8AE;}
	.st11{fill:#FFCCED;}
	.st12{fill:#FF80D5;}
	.st13{fill:#FF7B7B;}
	.st14{fill:#FFA4A4;}
	.st15{fill:#FF5555;}
	.st16{fill:#5FBBFF;}
	.st17{fill:#3E2E49;}
	.st18{fill:#685A72;}
	.st19{fill:none;}
	.st20{fill:#24162B;}
</style>
<g>
		<g>
			<g>
				<path class="st9" d="M828.18,712.01l68.94-117.7c-8.57,7.87-16.29,16.24-23.76,24.75l-5.52,6.43c-1.83,2.15-3.59,4.34-5.38,6.51      c-3.61,4.33-7.04,8.76-10.49,13.18c-13.66,17.76-26.31,36.09-38.18,54.88l-17.36,27.48L830.5,729c5.55,0.24,11.1,0.38,16.66,0.5      c5.55,0.12,11.1,0.15,16.66,0.18c0.59,0,1.18-0.01,1.77-0.01c-4.79,10.15-9.35,20.44-13.66,30.87      c-2.11,5.19-4.22,10.38-6.17,15.67l-2.94,7.92l-2.8,8c-3.62,10.73-7.01,21.6-9.51,32.97l60.25-110.68L828.18,712.01z" />
			</g>
			<g>
				<path class="st7" d="M861.98,689.74c4.79-10.16,9.36-20.46,13.67-30.9c2.1-5.2,4.23-10.38,6.17-15.67      c0.98-2.64,2-5.26,2.94-7.92l2.81-7.99c3.63-10.73,7.02-21.59,9.55-32.95l-68.94,117.7l62.58,2.4L830.5,825.1      c8.59-7.86,16.31-16.22,23.8-24.73l2.2-2.56l54.94-97.52L861.98,689.74z" />
			</g>
			<g>
				<path class="st10" d="M897.12,690.37c-2.78-0.12-5.55-0.21-8.33-0.28c-2.78-0.08-5.55-0.16-8.33-0.2      c-5.55-0.12-11.1-0.14-16.66-0.16c-0.61,0-1.22,0.01-1.83,0.01l49.47,10.54l-54.94,97.52l3.32-3.86l5.39-6.51      c3.61-4.33,7.05-8.75,10.49-13.18c13.66-17.76,26.31-36.09,38.16-54.89l17.33-27.49L897.12,690.37z" />
			</g>
		</g>
		<g>
			<g>
				<g>
					<path class="st2" d="M850.6,699.72c0,1.93,0,3.87,0,5.8c0,3.84,5.97,3.85,5.97,0c0-1.93,0-3.87,0-5.8       C856.58,695.87,850.6,695.87,850.6,699.72L850.6,699.72z" />
				</g>
				<g>
					<path class="st2" d="M871.04,699.72c0,1.93,0,3.87,0,5.8c0,3.84,5.97,3.85,5.97,0c0-1.93,0-3.87,0-5.8       C877.01,695.87,871.04,695.87,871.04,699.72L871.04,699.72z" />
				</g>
			</g>
			<g>
				<path class="st2" d="M853.08,722.57c7.15,0,14.3,0,21.45,0c3.84,0,3.85-5.97,0-5.97c-7.15,0-14.3,0-21.45,0      C849.24,716.6,849.24,722.57,853.08,722.57L853.08,722.57z" />
			</g>
		</g>
	</g>
	
</svg>
