<?xml version="1.0" encoding="utf-8"?>
<svg version="1.1" xmlns="http://www.w3.org/2000/svg" viewBox="1290.69 1983.44 274.99 195.89">
<style type="text/css">
	.st0{fill:#43A6FF;}
	.st1{fill:#5AE0FF;}
	.st2{fill:#53415E;}
	.st3{fill:#37CDDD;}
	.st4{fill:#9CF1FF;}
	.st5{fill:#76C4FF;}
	.st6{fill:#0A95EA;}
	.st7{fill:#FFDE7C;}
	.st8{fill:#FF97D3;}
	.st9{fill:#FF9D5A;}
	.st10{fill:#FFE8AE;}
	.st11{fill:#FFCCED;}
	.st12{fill:#FF80D5;}
	.st13{fill:#FF7B7B;}
	.st14{fill:#FFA4A4;}
	.st15{fill:#FF5555;}
	.st16{fill:#5FBBFF;}
	.st17{fill:#3E2E49;}
	.st18{fill:#685A72;}
	.st19{fill:none;}
	.st20{fill:#24162B;}
</style>
<g>
		<g>
			<path class="st7" d="M1517.68,2062.73l-28.26-29.08l5.77-40.15l-39.98-6.9l-18.9-35.9l-36.4,17.95l-36.4-17.95l-18.9,35.9     l-39.99,6.9l5.77,40.15l-28.26,29.08l28.26,29.09l-5.77,40.15l39.99,6.9l18.9,35.9l36.4-17.95l36.4,17.95l18.9-35.9l39.98-6.9     l-5.77-40.15L1517.68,2062.73z M1399.92,2131.33c-37.89,0-68.6-30.71-68.6-68.6c0-37.88,30.71-68.59,68.6-68.59     c37.88,0,68.59,30.71,68.59,68.59C1468.51,2100.62,1437.8,2131.33,1399.92,2131.33z" />
		</g>
		<g>
			<path class="st8" d="M1468.51,2062.73c0,37.89-30.71,68.6-68.59,68.6c-37.89,0-68.6-30.71-68.6-68.6     c0-37.88,30.71-68.59,68.6-68.59C1437.8,1994.14,1468.51,2024.85,1468.51,2062.73z" />
		</g>
		<g>
			<g>
				<path class="st2" d="M1426.03,2037.21c0,4.04,0,8.07,0,12.11c0,3.84,5.97,3.85,5.97,0c0-4.04,0-8.07,0-12.11      C1432,2033.37,1426.03,2033.36,1426.03,2037.21L1426.03,2037.21z" />
			</g>
			<g>
				<path class="st2" d="M1367.83,2037.21c0,4.04,0,8.07,0,12.11c0,3.84,5.97,3.85,5.97,0c0-4.04,0-8.07,0-12.11      C1373.8,2033.37,1367.83,2033.36,1367.83,2037.21L1367.83,2037.21z" />
			</g>
		</g>
		<g>
			<path class="st2" d="M1412.91,2065.47c-0.15,7.09-5.79,12.99-12.99,12.99s-12.84-5.9-12.99-12.99c-0.08-3.84-6.05-3.85-5.97,0     c0.22,10.33,8.48,18.95,18.97,18.97c10.49,0.02,18.75-8.66,18.97-18.97C1418.96,2061.63,1412.99,2061.63,1412.91,2065.47     L1412.91,2065.47z" />
		</g>
		<g>
			<path class="st9" d="M1399.92,2131.33c-37.89,0-68.6-30.71-68.6-68.6c0-12.58,3.39-24.36,9.3-34.49l-35.98-34.74l5.77,40.15     l-28.26,29.08l28.26,29.09l-5.77,40.15l39.99,6.9l18.9,35.9l36.4-17.95l36.4,17.95l18.9-35.9l-18.74-18.09     C1425.89,2127.46,1413.36,2131.33,1399.92,2131.33z" />
		</g>
		<g>
			<path class="st10" d="M1468.51,2062.8C1468.51,2062.8,1468.51,2062.8,1468.51,2062.8h49.18l-28.26-29.08l5.77-40.15l-39.98-6.9     l-18.9-35.9l-9.45,48.94C1451.35,2010.18,1468.51,2034.49,1468.51,2062.8z" />
		</g>
		<g>
			<path class="st11" d="M1467.47,2075.01c0.72-3.98,1.1-8.09,1.1-12.28c0-37.88-30.71-68.59-68.59-68.59     c-5.08,0-10.04,0.56-14.81,1.61C1414.22,2000.41,1458.46,2017.11,1467.47,2075.01z" />
		</g>
		<g>
			<path class="st12" d="M1338.69,2031.44c-4.86,9.42-7.61,20.1-7.61,31.43c0,37.89,30.71,68.6,68.6,68.6     c13.68,0,26.42-4,37.11-10.9C1364.92,2112.64,1344.13,2065.78,1338.69,2031.44z" />
		</g>
	</g>
	
</svg>
