<?xml version="1.0" encoding="utf-8"?>
<svg version="1.1" xmlns="http://www.w3.org/2000/svg" viewBox="251.69 1242.47 252.98 279.91">
<style type="text/css">
	.st0{fill:#43A6FF;}
	.st1{fill:#5AE0FF;}
	.st2{fill:#53415E;}
	.st3{fill:#37CDDD;}
	.st4{fill:#9CF1FF;}
	.st5{fill:#76C4FF;}
	.st6{fill:#0A95EA;}
	.st7{fill:#FFDE7C;}
	.st8{fill:#FF97D3;}
	.st9{fill:#FF9D5A;}
	.st10{fill:#FFE8AE;}
	.st11{fill:#FFCCED;}
	.st12{fill:#FF80D5;}
	.st13{fill:#FF7B7B;}
	.st14{fill:#FFA4A4;}
	.st15{fill:#FF5555;}
	.st16{fill:#5FBBFF;}
	.st17{fill:#3E2E49;}
	.st18{fill:#685A72;}
	.st19{fill:none;}
	.st20{fill:#24162B;}
</style>
<g>
		<g>
			<path class="st1" d="M299.69,1389.4h153.67c0,0,27.91-4.17,38.89-34.23c-3.13-14.15-12.3-26.04-24.68-32.79     c-7.03-3.83-15.09-6.01-23.66-6.01c-6.55,0-12.8,1.26-18.51,3.58c0.22-1.87,0.32-3.75,0.32-5.66c0-27.35-22.17-49.52-49.52-49.52     c-27.35,0-49.52,22.17-49.52,49.52c0,1.91,0.12,3.79,0.33,5.66c-5.72-2.31-11.97-3.58-18.52-3.58     c-24.02,0-44.04,17.1-48.55,39.79c-0.08,0.38-0.15,0.76-0.21,1.14C268.19,1372.63,281.59,1389.4,299.69,1389.4z" />
		</g>
		<g>
			<g>
				<path class="st0" d="M353.1,1444.3c0,4.09-3.31,7.4-7.4,7.4c-4.09,0-7.4-3.31-7.4-7.4s7.4-15.69,7.4-15.69      S353.1,1440.22,353.1,1444.3z" />
			</g>
			<g>
				<path class="st0" d="M414.1,1444.3c0,4.09-3.31,7.4-7.4,7.4c-4.09,0-7.4-3.31-7.4-7.4s7.4-15.69,7.4-15.69      S414.1,1440.22,414.1,1444.3z" />
			</g>
		</g>
		<g>
			<path class="st0" d="M383.6,1473.04c0,4.09-3.31,7.4-7.4,7.4c-4.09,0-7.4-3.31-7.4-7.4s7.4-15.69,7.4-15.69     S383.6,1468.96,383.6,1473.04z" />
		</g>
		<g>
			<g>
				<path class="st2" d="M389.28,1328.56c0,2.69,0,5.38,0,8.07c0,3.84,5.97,3.85,5.97,0c0-2.69,0-5.38,0-8.07      C395.25,1324.72,389.28,1324.71,389.28,1328.56L389.28,1328.56z" />
			</g>
			<g>
				<path class="st2" d="M357.14,1328.56c0,2.69,0,5.38,0,8.07c0,3.84,5.97,3.85,5.97,0c0-2.69,0-5.38,0-8.07      C363.11,1324.72,357.14,1324.71,357.14,1328.56L357.14,1328.56z" />
			</g>
		</g>
		<g>
			<path class="st2" d="M380.94,1347.95c-0.26,6.1-9.22,6.12-9.48,0c-0.16-3.83-6.14-3.85-5.97,0c0.25,5.81,4.71,10.71,10.71,10.71     c6,0,10.46-4.9,10.71-10.71C387.07,1344.11,381.1,1344.11,380.94,1347.95L380.94,1347.95z" />
		</g>
		<g>
			<path class="st3" d="M453.36,1389.4H299.69c-18.1,0-31.5-16.77-39.97-32.09c-0.49,2.79-0.75,5.66-0.75,8.59     c0,27.35,22.17,49.51,49.51,49.51H443.9c27.35,0,49.51-22.17,49.51-49.51c0-3.68-0.41-7.27-1.17-10.73     C481.27,1385.22,453.36,1389.4,453.36,1389.4z" />
		</g>
		<path class="st4" d="M405.17,1290.47c-1.92,6.73-10.38-0.27-22.31-3.67c-11.93-3.4-22.81-1.9-20.89-8.63s13.14-9.44,25.07-6.04    S407.09,1283.74,405.17,1290.47z" />
		<path class="st4" d="M456.67,1330.88c-0.83,2.91-4.49-0.12-9.64-1.59c-5.16-1.47-9.86-0.82-9.03-3.73    c0.83-2.91,5.68-4.08,10.84-2.61C453.99,1324.42,457.5,1327.97,456.67,1330.88z" />
		<path class="st5" d="M351.17,1445.49c0.78,1.25-0.11,3.21-1.99,4.37s-4.02,1.08-4.8-0.17s1.09-1.63,2.97-2.79    C349.23,1445.74,350.4,1444.24,351.17,1445.49z" />
		<path class="st5" d="M411.98,1445.49c0.78,1.25-0.11,3.21-1.99,4.37s-4.02,1.08-4.8-0.17s1.09-1.63,2.97-2.79    C410.04,1445.74,411.21,1444.24,411.98,1445.49z" />
		<path class="st5" d="M381.33,1474.38c0.78,1.25-0.11,3.21-1.99,4.37c-1.87,1.16-4.02,1.09-4.8-0.17    c-0.78-1.25,1.09-1.63,2.97-2.79C379.38,1474.64,380.55,1473.13,381.33,1474.38z" />
	</g>
	
</svg>
