<?xml version="1.0" encoding="utf-8"?>
<svg version="1.1" xmlns="http://www.w3.org/2000/svg" viewBox="1273.35 2285.64 280.47 237.11">
<style type="text/css">
	.st0{fill:#43A6FF;}
	.st1{fill:#5AE0FF;}
	.st2{fill:#53415E;}
	.st3{fill:#37CDDD;}
	.st4{fill:#9CF1FF;}
	.st5{fill:#76C4FF;}
	.st6{fill:#0A95EA;}
	.st7{fill:#FFDE7C;}
	.st8{fill:#FF97D3;}
	.st9{fill:#FF9D5A;}
	.st10{fill:#FFE8AE;}
	.st11{fill:#FFCCED;}
	.st12{fill:#FF80D5;}
	.st13{fill:#FF7B7B;}
	.st14{fill:#FFA4A4;}
	.st15{fill:#FF5555;}
	.st16{fill:#5FBBFF;}
	.st17{fill:#3E2E49;}
	.st18{fill:#685A72;}
	.st19{fill:none;}
	.st20{fill:#24162B;}
</style>
<g>
		<g>
			<path class="st7" d="M1505.82,2474.75c-64.38,0-116.57-52.19-116.57-116.57c0-25.61,8.27-49.29,22.27-68.53     c-63.89,0.58-115.5,52.54-115.5,116.56c0,64.38,52.19,116.57,116.57,116.57c38.77,0,73.11-18.93,94.3-48.04     C1506.53,2474.74,1506.17,2474.75,1505.82,2474.75z" />
		</g>
		<g>
			<g>
				<g>
					<path class="st2" d="M1328.49,2398.91c0,5.38,0,10.77,0,16.15c0,3.84,5.97,3.85,5.97,0c0-5.38,0-10.77,0-16.15       C1334.46,2395.07,1328.49,2395.07,1328.49,2398.91L1328.49,2398.91z" />
				</g>
				<g>
					<path class="st2" d="M1372.1,2398.91c0,5.38,0,10.77,0,16.15c0,3.84,5.97,3.85,5.97,0c0-5.38,0-10.77,0-16.15       C1378.08,2395.07,1372.1,2395.07,1372.1,2398.91L1372.1,2398.91z" />
				</g>
			</g>
			<g>
				<path class="st2" d="M1361.02,2434.58c-0.13,4.22-3.42,7.74-7.74,7.74c-4.33,0-7.61-3.52-7.74-7.74c-0.12-3.83-6.09-3.85-5.97,0      c0.23,7.45,6.08,13.71,13.71,13.71c7.63,0,13.48-6.26,13.71-13.71C1367.12,2430.73,1361.14,2430.74,1361.02,2434.58      L1361.02,2434.58z" />
			</g>
		</g>
		<g>
			<path class="st10" d="M1401.99,2424.8c40.32,64.61,103.29,50.04,104.36,50.02c-64.38,0-116.58-52.19-116.58-116.57     c0-25.61,8.27-49.29,22.27-68.53C1412.05,2289.72,1352.79,2345.96,1401.99,2424.8z" />
		</g>
		<g>
			<path class="st9" d="M1321.35,2333.64c-15.86,19.91-25.34,45.12-25.34,72.56c0,64.38,52.19,116.57,116.57,116.57     c11.27,0,22.16-1.61,32.47-4.59C1319.37,2492.57,1311.43,2397.34,1321.35,2333.64z" />
		</g>
		<circle class="st9" cx="1340.36" cy="2343.86" r="5.91" />
		<circle class="st9" cx="1363.18" cy="2370.73" r="9.9" />
		<circle class="st9" cx="1367.58" cy="2339.47" r="14.3" />
		<circle class="st9" cx="1417.04" cy="2480.68" r="4.46" />
		<circle class="st9" cx="1442.37" cy="2487.2" r="15.34" />
		<circle class="st9" cx="1419.85" cy="2496.62" r="5.92" />
	</g>
	
</svg>
