<?xml version="1.0" encoding="utf-8"?>
<svg version="1.1" xmlns="http://www.w3.org/2000/svg" viewBox="1241.97 1578.21 310.55 265.72">
<style type="text/css">
	.st0{fill:#43A6FF;}
	.st1{fill:#5AE0FF;}
	.st2{fill:#53415E;}
	.st3{fill:#37CDDD;}
	.st4{fill:#9CF1FF;}
	.st5{fill:#76C4FF;}
	.st6{fill:#0A95EA;}
	.st7{fill:#FFDE7C;}
	.st8{fill:#FF97D3;}
	.st9{fill:#FF9D5A;}
	.st10{fill:#FFE8AE;}
	.st11{fill:#FFCCED;}
	.st12{fill:#FF80D5;}
	.st13{fill:#FF7B7B;}
	.st14{fill:#FFA4A4;}
	.st15{fill:#FF5555;}
	.st16{fill:#5FBBFF;}
	.st17{fill:#3E2E49;}
	.st18{fill:#685A72;}
	.st19{fill:none;}
	.st20{fill:#24162B;}
</style>
<g>
		<g>
			<path class="st9" d="M1289.97,1793.97c1.48,10.06,6.09,19.75,13.83,27.49c19.15,19.15,50.21,19.16,69.36,0.01     c1.87-1.87,3.55-3.85,5.05-5.93C1333.59,1836.08,1304.64,1812.61,1289.97,1793.97z" />
		</g>
		<g>
			<path class="st7" d="M1384.31,1769.29l43.34-43.34l-28.33-28.33l-43.34,43.34c-17.51-6.68-38.07-2.96-52.18,11.15     c-11.41,11.41-16.02,27.04-13.83,41.86c14.67,18.64,43.63,42.11,88.25,21.57C1388.07,1801.96,1390.1,1784.47,1384.31,1769.29z" />
		</g>
		<g>
			<path class="st1" d="M1504.52,1649.07l-66.21,66.21l-28.33-28.33l66.21-66.21c7.82-7.82,20.51-7.82,28.34,0     C1512.34,1628.57,1512.34,1641.25,1504.52,1649.07z" />
		</g>
		<g>
			
				<rect x="1411.28" y="1686.41" transform="matrix(0.7071 -0.7071 0.7071 0.7071 -791.0789 1503.0583)" class="st13" width="15.07" height="40.07" />
		</g>
		<g>
			<g>
				<g>
					<path class="st2" d="M1337.49,1766.1c-1.49,1.49-2.99,2.99-4.48,4.48c-1.11,1.11-1.19,3.13,0,4.22c1.19,1.09,3.04,1.18,4.22,0       c1.49-1.49,2.99-2.99,4.48-4.48c1.11-1.11,1.19-3.13,0-4.22C1340.52,1765.01,1338.67,1764.92,1337.49,1766.1L1337.49,1766.1z" />
				</g>
				<g>
					<path class="st2" d="M1354.94,1783.55c-1.49,1.49-2.99,2.99-4.48,4.48c-1.11,1.11-1.19,3.13,0,4.22c1.19,1.09,3.04,1.18,4.22,0       c1.49-1.49,2.99-2.99,4.48-4.48c1.11-1.11,1.19-3.13,0-4.22C1357.97,1782.46,1356.12,1782.37,1354.94,1783.55L1354.94,1783.55z       " />
				</g>
			</g>
			<g>
				<path class="st2" d="M1337.04,1795.93c-5.17,4.77-12.49-2.53-7.71-7.71c2.6-2.82-1.61-7.06-4.22-4.22      c-4.19,4.55-4.54,11.66,0,16.16c4.54,4.51,11.58,4.22,16.16,0C1344.1,1797.54,1339.87,1793.33,1337.04,1795.93L1337.04,1795.93z      " />
			</g>
		</g>
		<path class="st4" d="M1503.55,1626.21c-0.83,2.91-4.49-0.12-9.64-1.59c-5.16-1.47-9.86-0.82-9.03-3.73    c0.83-2.91,5.68-4.08,10.84-2.61C1500.87,1619.75,1504.38,1623.3,1503.55,1626.21z" />
		<path class="st10" d="M1347.95,1748.18c0.66,4.93-6.83,2.77-15.56,3.94s-15.38,5.23-16.04,0.3c-0.66-4.93,5.88-9.87,14.6-11.04    C1339.68,1740.21,1347.29,1743.26,1347.95,1748.18z" />
	</g>

</svg>
