<?xml version="1.0" encoding="utf-8"?>
<svg version="1.1" xmlns="http://www.w3.org/2000/svg" viewBox="716.66 1561.36 303.65 301.38">
<style type="text/css">
	.st0{fill:#43A6FF;}
	.st1{fill:#5AE0FF;}
	.st2{fill:#53415E;}
	.st3{fill:#37CDDD;}
	.st4{fill:#9CF1FF;}
	.st5{fill:#76C4FF;}
	.st6{fill:#0A95EA;}
	.st7{fill:#FFDE7C;}
	.st8{fill:#FF97D3;}
	.st9{fill:#FF9D5A;}
	.st10{fill:#FFE8AE;}
	.st11{fill:#FFCCED;}
	.st12{fill:#FF80D5;}
	.st13{fill:#FF7B7B;}
	.st14{fill:#FFA4A4;}
	.st15{fill:#FF5555;}
	.st16{fill:#5FBBFF;}
	.st17{fill:#3E2E49;}
	.st18{fill:#685A72;}
	.st19{fill:none;}
	.st20{fill:#24162B;}
</style>
<g>
		<g>
			<g>
				<path class="st1" d="M863.81,1609.36c-65.26,0-118.16,52.9-118.16,118.16c0,16.65,3.44,32.48,9.65,46.84      c3.63,1.41,7.57,2.19,11.7,2.19c17.82,0,32.27-14.45,32.27-32.27c0,17.82,14.45,32.27,32.27,32.27      c17.83,0,32.27-14.45,32.27-32.27c0,17.82,14.45,32.27,32.27,32.27c17.82,0,32.27-14.45,32.27-32.27      c0,17.82,14.45,32.27,32.27,32.27c4.13,0,8.07-0.78,11.7-2.19c6.21-14.36,9.65-30.2,9.65-46.84      C981.97,1662.26,929.07,1609.36,863.81,1609.36z M807.13,1699.43h-31.11c-6.29,0-11.38-5.09-11.38-11.38      c0-0.76,0.07-1.51,0.22-2.23c1.04-5.22,5.64-9.14,11.16-9.14c1.5,0,2.94,0.29,4.25,0.82c-0.05-0.43-0.07-0.86-0.07-1.3      c0-6.29,5.1-11.38,11.38-11.38c6.29,0,11.38,5.1,11.38,11.38c0,0.44-0.02,0.87-0.07,1.3c1.31-0.53,2.75-0.82,4.25-0.82      c1.97,0,3.82,0.5,5.44,1.38c3.54,1.93,5.94,5.68,5.94,10C818.51,1694.34,813.41,1699.43,807.13,1699.43z M886.98,1691.71      l3,16.58l-16.58-3l-9.59,13.84l-9.59-13.84l-16.58,3l3.01-16.58l-13.84-9.59l13.84-9.59l-3.01-16.58l16.58,3.01l9.59-13.84      l9.59,13.84l16.58-3.01l-3,16.58l13.84,9.59L886.98,1691.71z M948.69,1729.65h-31.12c-6.28,0-11.38-5.09-11.38-11.38      c0-0.77,0.07-1.51,0.22-2.23c1.04-5.22,5.64-9.14,11.16-9.14c1.5,0,2.94,0.29,4.25,0.82c-0.05-0.43-0.07-0.86-0.07-1.3      c0-6.28,5.1-11.38,11.38-11.38c6.29,0,11.38,5.1,11.38,11.38c0,0.44-0.02,0.88-0.07,1.3c1.31-0.53,2.75-0.82,4.25-0.82      c1.97,0,3.82,0.5,5.43,1.38c3.54,1.93,5.94,5.68,5.94,10C960.07,1724.56,954.97,1729.65,948.69,1729.65z" />
			</g>
		</g>
		<g>
			<path class="st3" d="M972.31,1774.36c-6.67,15.45-16.55,29.19-28.79,40.37c-13.55-1.9-23.96-13.53-23.96-27.6     c0,15.4-12.48,27.88-27.87,27.88c-15.4,0-27.87-12.48-27.87-27.88c0,15.4-12.48,27.88-27.88,27.88     c-15.39,0-27.87-12.48-27.87-27.88c0,14.07-10.42,25.7-23.96,27.6c-12.24-11.19-22.12-24.93-28.79-40.37     c3.63,1.41,7.57,2.19,11.7,2.19c17.82,0,32.27-14.45,32.27-32.27c0,17.82,14.45,32.27,32.27,32.27     c17.83,0,32.27-14.45,32.27-32.27c0,17.82,14.45,32.27,32.27,32.27c17.82,0,32.27-14.45,32.27-32.27     c0,17.82,14.45,32.27,32.27,32.27C964.74,1776.55,968.68,1775.78,972.31,1774.36z" />
		</g>
		<g>
			<path class="st6" d="M943.52,1814.74c-21.02,19.21-48.99,30.94-79.71,30.94c-30.72,0-58.7-11.72-79.71-30.94     c13.54-1.9,23.96-13.53,23.96-27.6c0,15.4,12.48,27.88,27.87,27.88c15.4,0,27.88-12.48,27.88-27.88     c0,15.4,12.48,27.88,27.87,27.88c15.4,0,27.87-12.48,27.87-27.88C919.56,1801.21,929.97,1812.84,943.52,1814.74z" />
		</g>
		<g>
			<g>
				<polygon class="st7" points="900.82,1682.12 886.98,1672.53 889.98,1655.95 873.4,1658.96 863.81,1645.11 854.22,1658.96       837.64,1655.95 840.65,1672.53 826.8,1682.12 840.65,1691.71 837.64,1708.29 854.22,1705.29 863.81,1719.13 873.4,1705.29       889.98,1708.29 886.98,1691.71     " />
			</g>
			<g>
				<path class="st7" d="M863.81,1704.2c-12.2,0-22.08-9.88-22.08-22.08c0-12.2,9.88-22.08,22.08-22.08      c12.19,0,22.08,9.88,22.08,22.08C885.89,1694.32,876,1704.2,863.81,1704.2z" />
			</g>
		</g>
		<g>
			<path class="st9" d="M863.81,1660.04C863.81,1660.04,863.81,1660.04,863.81,1660.04c-12.2,0-22.08,9.88-22.08,22.08     c0,12.19,9.88,22.07,22.08,22.08c0,0,0,0,0,0c12.19,0,22.08-9.88,22.08-22.08C885.89,1669.93,876,1660.04,863.81,1660.04z" />
		</g>
		<g>
			<path class="st6" d="M764.66,1688.64c0.31,6.01,5.27,10.78,11.36,10.78h31.11c6.09,0,11.06-4.77,11.37-10.78H764.66z" />
		</g>
		<g>
			<path class="st0" d="M818.51,1688.05c0-4.31-2.4-8.07-5.94-10c-1.62-0.88-3.47-1.38-5.44-1.38c-1.5,0-2.94,0.29-4.25,0.82     c0.05-0.43,0.07-0.86,0.07-1.3c0-6.29-5.1-11.38-11.38-11.38c-6.28,0-11.38,5.1-11.38,11.38c0,0.44,0.02,0.87,0.07,1.3     c-1.31-0.53-2.75-0.82-4.25-0.82c-5.52,0-10.12,3.93-11.16,9.14c-0.14,0.72-0.22,1.47-0.22,2.23c0,0.2,0.01,0.4,0.02,0.59h53.84     C818.51,1688.45,818.51,1688.25,818.51,1688.05z" />
		</g>
		<g>
			<path class="st6" d="M906.52,1720.94c1.2,5,5.7,8.71,11.06,8.71h31.12c5.36,0,9.86-3.71,11.06-8.71H906.52z" />
		</g>
		<g>
			<path class="st0" d="M960.07,1718.28c0-4.31-2.4-8.07-5.94-10c-1.61-0.88-3.47-1.38-5.43-1.38c-1.51,0-2.94,0.29-4.25,0.82     c0.05-0.43,0.07-0.86,0.07-1.3c0-6.28-5.1-11.38-11.38-11.38c-6.28,0-11.38,5.1-11.38,11.38c0,0.44,0.02,0.88,0.07,1.3     c-1.31-0.53-2.75-0.82-4.25-0.82c-5.52,0-10.12,3.93-11.16,9.14c-0.14,0.72-0.22,1.47-0.22,2.23c0,0.92,0.11,1.81,0.32,2.66     h53.24C959.96,1720.09,960.07,1719.2,960.07,1718.28z" />
		</g>
	</g>
	
</svg>
