<?xml version="1.0" encoding="utf-8"?>
<svg version="1.1" xmlns="http://www.w3.org/2000/svg" viewBox="754.59 1989.75 274.99 225.93">
<style type="text/css">
	.st0{fill:#43A6FF;}
	.st1{fill:#5AE0FF;}
	.st2{fill:#53415E;}
	.st3{fill:#37CDDD;}
	.st4{fill:#9CF1FF;}
	.st5{fill:#76C4FF;}
	.st6{fill:#0A95EA;}
	.st7{fill:#FFDE7C;}
	.st8{fill:#FF97D3;}
	.st9{fill:#FF9D5A;}
	.st10{fill:#FFE8AE;}
	.st11{fill:#FFCCED;}
	.st12{fill:#FF80D5;}
	.st13{fill:#FF7B7B;}
	.st14{fill:#FFA4A4;}
	.st15{fill:#FF5555;}
	.st16{fill:#5FBBFF;}
	.st17{fill:#3E2E49;}
	.st18{fill:#685A72;}
	.st19{fill:none;}
	.st20{fill:#24162B;}
</style>
<g>
		<g>
			<g>
				<path class="st7" d="M981.58,2069.03l-28.26-29.08l5.77-40.15l-39.98-6.9l-18.9-35.9l-36.4,17.95l-36.4-17.95l-18.9,35.9      l-39.99,6.9l5.77,40.15l-28.26,29.08l28.26,29.09l-5.77,40.15l39.99,6.9l18.9,35.9l36.4-17.95l36.4,17.95l18.9-35.9l39.98-6.9      l-5.77-40.15L981.58,2069.03z M863.81,2137.63c-37.89,0-68.6-30.71-68.6-68.6c0-37.88,30.71-68.59,68.6-68.59      c37.88,0,68.59,30.71,68.59,68.59C932.4,2106.92,901.69,2137.63,863.81,2137.63z" />
			</g>
			<g>
				<path class="st13" d="M932.4,2069.03c0,37.89-30.71,68.6-68.59,68.6c-37.89,0-68.6-30.71-68.6-68.6      c0-37.88,30.71-68.59,68.6-68.59C901.69,2000.44,932.4,2031.15,932.4,2069.03z" />
			</g>
			<g>
				<path class="st9" d="M863.81,2137.63c-37.89,0-68.6-30.71-68.6-68.6c0-12.58,3.39-24.36,9.3-34.49l-35.98-34.74l5.77,40.15      l-28.26,29.08l28.26,29.09l-5.77,40.15l39.99,6.9l18.9,35.9l36.4-17.95l36.4,17.95l18.9-35.9l-18.74-18.09      C889.79,2133.76,877.25,2137.63,863.81,2137.63z" />
			</g>
			<g>
				<path class="st10" d="M932.4,2069.1C932.4,2069.1,932.4,2069.1,932.4,2069.1h49.18l-28.26-29.08l5.77-40.15l-39.98-6.9      l-18.9-35.9l-9.45,48.94C915.24,2016.48,932.4,2040.79,932.4,2069.1z" />
			</g>
			<g>
				<path class="st14" d="M931.36,2081.31c0.72-3.98,1.1-8.09,1.1-12.28c0-37.88-30.71-68.59-68.59-68.59      c-5.08,0-10.04,0.56-14.81,1.61C878.12,2006.71,922.36,2023.41,931.36,2081.31z" />
			</g>
			<g>
				<path class="st15" d="M802.59,2037.75c-4.86,9.42-7.61,20.1-7.61,31.43c0,37.89,30.71,68.6,68.6,68.6      c13.68,0,26.42-4,37.11-10.9C828.82,2118.94,808.03,2072.08,802.59,2037.75z" />
			</g>
		</g>
		<g>
			<g>
				<path class="st0" d="M863.28,2167.68c60.09-1,92.37-27.83,108.2-50.29c0.03-0.07,0.06-0.14,0.09-0.21      c-3.01,1.89-6.57,2.98-10.38,2.98c-10.81,0-19.58-8.77-19.58-19.58c0,10.81-8.77,19.58-19.58,19.58      c-10.81,0-19.58-8.77-19.58-19.58c0,10.81-8.77,19.58-19.59,19.58c-10.81,0-19.58-8.77-19.58-19.58      c0,10.81-8.77,19.58-19.58,19.58c-10.81,0-19.58-8.77-19.58-19.58c0,10.81-8.77,19.58-19.58,19.58      c-10.82,0-19.59-8.77-19.59-19.58c0,10.81-8.76,19.58-19.58,19.58c-3.81,0-7.37-1.09-10.37-2.97c0.94,2.15,1.95,4.26,3.02,6.33      C778.62,2144.79,813.01,2168.51,863.28,2167.68z" />
			</g>
			<g>
				<path class="st6" d="M863.28,2167.68c-50.27,0.83-84.66-22.89-105.27-44.16c19.6,38.2,59.38,64.34,105.27,64.34      c48.31,0,89.84-28.96,108.2-70.47C955.65,2139.85,923.36,2166.68,863.28,2167.68z" />
			</g>
		</g>
		<path class="st2" d="M895.37,2055.99c0-4.04,0-8.07,0-12.11c0-3.84-5.97-3.85-5.97,0c0,4.04,0,8.07,0,12.11    C889.39,2059.83,895.37,2059.84,895.37,2055.99z" />
		<path class="st2" d="M831.19,2043.87c0,4.04,0,8.07,0,12.11c0,3.84,5.97,3.85,5.97,0c0-4.04,0-8.07,0-12.11    C837.16,2040.03,831.19,2040.03,831.19,2043.87z" />
		<path class="st2" d="M863.28,2069.25c-10.49-0.02-18.75,8.66-18.97,18.97c-0.08,3.84,5.89,3.84,5.97,0    c0.15-7.09,5.79-12.99,12.99-12.99c7.21,0,12.84,5.9,12.99,12.99c0.08,3.84,6.05,3.85,5.97,0    C882.02,2077.89,873.76,2069.27,863.28,2069.25z" />
	</g>
	
</svg>
