<?xml version="1.0" encoding="utf-8"?>
<svg version="1.1" xmlns="http://www.w3.org/2000/svg" viewBox="698.34 231.92 329.31 263.25">
<style type="text/css">
	.st0{fill:#43A6FF;}
	.st1{fill:#5AE0FF;}
	.st2{fill:#53415E;}
	.st3{fill:#37CDDD;}
	.st4{fill:#9CF1FF;}
	.st5{fill:#76C4FF;}
	.st6{fill:#0A95EA;}
	.st7{fill:#FFDE7C;}
	.st8{fill:#FF97D3;}
	.st9{fill:#FF9D5A;}
	.st10{fill:#FFE8AE;}
	.st11{fill:#FFCCED;}
	.st12{fill:#FF80D5;}
	.st13{fill:#FF7B7B;}
	.st14{fill:#FFA4A4;}
	.st15{fill:#FF5555;}
	.st16{fill:#5FBBFF;}
	.st17{fill:#3E2E49;}
	.st18{fill:#685A72;}
	.st19{fill:none;}
	.st20{fill:#24162B;}
</style>
<g>
		<polygon class="st19" points="809.57,383.68 814.57,383.6 815.01,382.08   " />
		<polygon class="st19" points="912.61,382.1 912.65,382.1 912.6,382.08   " />
		<path class="st19" d="M797.5,376.87c-0.38-0.69-0.74-1.37-1.15-2.06c-0.82-1.37-1.72-2.74-2.88-4.12    c-1.16,1.37-2.07,2.74-2.88,4.12c-0.42,0.69-0.78,1.37-1.16,2.06c-0.35,0.69-0.7,1.37-1.01,2.06c-0.72,1.57-1.34,3.14-1.87,4.71    c2.2,0.22,4.5,0.32,6.92,0.29l6.99-0.11c-0.55-1.63-1.18-3.26-1.94-4.89C798.2,378.24,797.86,377.56,797.5,376.87z" />
		<path class="st19" d="M938.18,376.87c-0.38-0.69-0.74-1.37-1.15-2.06c-0.82-1.37-1.72-2.74-2.88-4.12    c-1.16,1.37-2.07,2.74-2.88,4.12c-0.42,0.69-0.78,1.37-1.16,2.06c-0.35,0.69-0.7,1.37-1.01,2.06c-0.45,0.98-0.85,1.96-1.23,2.94    l12.48-0.19c-0.36-0.91-0.73-1.83-1.16-2.75C938.88,378.24,938.54,377.56,938.18,376.87z" />
		<g>
			<path class="st6" d="M810.96,395.91c2.4,0.69,4.8,1.56,7.21,2.67c0.69,0.31,1.37,0.65,2.06,1.01c0.69,0.38,1.37,0.74,2.06,1.15     c1.37,0.82,2.74,1.72,4.12,2.88c-1.1,0.93-2.19,1.69-3.29,2.37h81.81c-1.23-0.69-2.47-1.44-3.7-2.37     c1.37-1.04,2.75-1.85,4.12-2.61l1.03-0.55l1.03-0.51c0.69-0.35,1.37-0.66,2.06-0.96c2.45-1.06,4.9-1.92,7.35-2.62l-4.19-14.29     l-98.04,1.5L810.96,395.91z" />
		</g>
		<g>
			<path class="st0" d="M979.65,342.8c-3.66-13.01-12.48-23.86-24.1-30.2c-7.06-3.84-15.15-6.03-23.76-6.03     c-6.57,0-12.84,1.27-18.58,3.59c0.22-1.87,0.32-3.76,0.32-5.68c0-27.46-22.26-49.72-49.72-49.72     c-27.46,0-49.72,22.26-49.72,49.72c0,1.92,0.12,3.81,0.33,5.68c-5.74-2.32-12.02-3.59-18.59-3.59     c-24.12,0-44.22,17.17-48.75,39.96c-0.33,1.67-0.58,3.37-0.74,5.1c5.85,14.34,17.41,29.72,40.21,32.02     c0.53-1.57,1.15-3.14,1.87-4.71c0.31-0.69,0.66-1.37,1.01-2.06c0.38-0.69,0.74-1.37,1.16-2.06c0.81-1.37,1.72-2.74,2.88-4.12     c1.16,1.37,2.07,2.74,2.88,4.12c0.42,0.69,0.77,1.37,1.15,2.06c0.36,0.69,0.7,1.37,1.01,2.06c0.76,1.63,1.39,3.26,1.94,4.89     l9.11-0.14l5.45-1.6l-0.44,1.52l98.04-1.5l0-0.02l0.05,0.01l15.22-0.23c0.38-0.98,0.78-1.96,1.23-2.94     c0.31-0.69,0.66-1.37,1.01-2.06c0.38-0.69,0.74-1.37,1.16-2.06c0.81-1.37,1.72-2.74,2.88-4.12c1.16,1.37,2.07,2.74,2.88,4.12     c0.42,0.69,0.77,1.37,1.15,2.06c0.36,0.69,0.7,1.37,1.01,2.06c0.42,0.92,0.8,1.83,1.16,2.75l7.95-0.12     C948.3,381.55,972.66,373.47,979.65,342.8z" />
		</g>
		<g>
			<path class="st0" d="M801.18,386.14l8.38-2.46l-9.11,0.14C800.71,384.59,800.96,385.36,801.18,386.14z" />
		</g>
		<g>
			<path class="st6" d="M926.44,386.14c0.41-1.42,0.89-2.85,1.43-4.27l-15.22,0.23L926.44,386.14z" />
		</g>
		<g>
			<path class="st6" d="M948.3,381.55l-7.95,0.12c0.58,1.49,1.08,2.98,1.51,4.46l13.83-4.05l-4.05,13.83     c2.22,0.64,4.44,1.43,6.67,2.43c13.93-8.8,23.19-24.34,23.19-42.05c0-4.68-0.65-9.2-1.85-13.49     C972.66,373.47,948.3,381.55,948.3,381.55z" />
		</g>
		<g>
			<path class="st6" d="M746.34,351.62c-0.14,1.54-0.22,3.1-0.22,4.67c0,17.88,9.44,33.56,23.61,42.31c2.13-0.88,4.26-1.6,6.39-2.21     l-4.19-14.3l13.83,4.05c0.24-0.83,0.51-1.66,0.79-2.5C763.75,381.34,752.19,365.96,746.34,351.62z" />
		</g>
		<g>
			<g>
				<path class="st2" d="M880.08,315.34c0,3.36,0,6.73,0,10.09c0,3.84,5.97,3.85,5.97,0c0-3.36,0-6.73,0-10.09      C886.05,311.5,880.08,311.49,880.08,315.34L880.08,315.34z" />
			</g>
			<g>
				<path class="st2" d="M841.56,315.34c0,3.36,0,6.73,0,10.09c0,3.84,5.97,3.85,5.97,0c0-3.36,0-6.73,0-10.09      C847.53,311.5,841.56,311.49,841.56,315.34L841.56,315.34z" />
			</g>
		</g>
		<g>
			<path class="st4" d="M882.65,357.82h-37.68c-4.46,0-8.07-3.62-8.07-8.07l0,0c0-4.46,3.62-8.07,8.07-8.07h37.68     c4.46,0,8.07,3.62,8.07,8.07l0,0C890.72,354.2,887.11,357.82,882.65,357.82z" />
		</g>
		<path class="st5" d="M896.89,279.92c-1.92,6.73-10.38-0.27-22.31-3.67s-22.81-1.9-20.89-8.63c1.92-6.73,13.14-9.44,25.07-6.04    C890.69,264.98,898.8,273.19,896.89,279.92z" />
		<path class="st5" d="M958.53,326.48c-1.37,4.83-7.44-0.19-15.99-2.63c-8.55-2.43-16.35-1.36-14.97-6.19    c1.37-4.83,9.42-6.76,17.97-4.33C954.08,315.77,959.9,321.65,958.53,326.48z" />
		<g>
			<path class="st4" d="M820.22,399.59c-0.68-0.36-1.37-0.7-2.06-1.01c-2.4-1.11-4.81-1.98-7.21-2.67l4.05-13.83l-13.83,4.05     c-0.69-2.4-1.55-4.8-2.67-7.21c-0.31-0.69-0.65-1.37-1.01-2.06c-0.38-0.69-0.74-1.37-1.15-2.06c-0.82-1.37-1.72-2.74-2.88-4.12     v65.86c1.04-1.37,1.85-2.75,2.61-4.12l0.55-1.03l0.51-1.03c0.35-0.69,0.66-1.37,0.96-2.06c1.06-2.45,1.92-4.9,2.62-7.35     l14.3,4.19l-4.05-13.83c2.4-0.69,4.8-1.56,7.21-2.67c0.69-0.31,1.37-0.66,2.06-1.01c0.69-0.38,1.37-0.74,2.06-1.16     c0.27-0.16,0.55-0.33,0.83-0.5c1.09-0.68,2.19-1.45,3.29-2.37c-1.37-1.16-2.74-2.07-4.12-2.88     C821.6,400.33,820.91,399.97,820.22,399.59z" />
		</g>
		<g>
			<path class="st1" d="M790.59,374.81c-0.42,0.69-0.78,1.37-1.16,2.06c-0.35,0.69-0.7,1.37-1.01,2.06     c-1.11,2.4-1.98,4.81-2.66,7.21l-13.83-4.05l4.19,14.3c-2.13,0.61-4.26,1.33-6.39,2.21c-0.32,0.13-0.64,0.26-0.96,0.4     c-0.68,0.3-1.37,0.61-2.06,0.96l-1.03,0.51l-1.03,0.55c-1.37,0.76-2.74,1.57-4.12,2.61c1.37,1.04,2.75,1.85,4.12,2.61l1.03,0.55     l1.03,0.51c0.69,0.34,1.37,0.66,2.06,0.96c2.45,1.06,4.9,1.92,7.35,2.62l-4.19,14.3l14.3-4.19c0.7,2.45,1.55,4.9,2.62,7.35     c0.3,0.68,0.61,1.37,0.96,2.06l0.51,1.03l0.55,1.03c0.76,1.37,1.57,2.74,2.61,4.12V370.7     C792.31,372.07,791.4,373.44,790.59,374.81z" />
		</g>
		<g>
			<path class="st1" d="M860.93,421.24c-0.42,0.69-0.78,1.37-1.16,2.06c-0.35,0.69-0.7,1.37-1.01,2.06     c-1.11,2.4-1.98,4.81-2.66,7.21l-13.83-4.05l4.19,14.3c-2.45,0.7-4.9,1.55-7.35,2.62c-0.68,0.3-1.37,0.61-2.06,0.96l-1.03,0.51     l-1.03,0.55c-1.37,0.76-2.74,1.57-4.12,2.61c1.37,1.04,2.75,1.85,4.12,2.61l1.03,0.55l1.03,0.51c0.69,0.34,1.37,0.66,2.06,0.96     c2.45,1.06,4.9,1.92,7.35,2.62l-4.19,14.3l14.3-4.19c0.7,2.45,1.55,4.9,2.62,7.35c0.3,0.68,0.61,1.37,0.96,2.06l0.51,1.03     l0.55,1.03c0.76,1.37,1.57,2.74,2.61,4.12v-65.86C862.65,418.49,861.74,419.86,860.93,421.24z" />
		</g>
		<g>
			<path class="st4" d="M892.62,447.17c-0.69-0.42-1.37-0.77-2.06-1.15c-0.68-0.36-1.37-0.7-2.06-1.01     c-2.4-1.11-4.81-1.98-7.21-2.67l4.05-13.83l-13.83,4.05c-0.69-2.4-1.55-4.8-2.67-7.21c-0.31-0.69-0.65-1.37-1.01-2.06     c-0.38-0.69-0.74-1.37-1.15-2.06c-0.82-1.37-1.72-2.74-2.88-4.12v65.86c1.04-1.37,1.85-2.75,2.61-4.12l0.55-1.03l0.51-1.03     c0.35-0.69,0.66-1.37,0.96-2.06c1.06-2.45,1.92-4.9,2.62-7.35l14.3,4.19l-4.05-13.83c2.4-0.69,4.8-1.56,7.21-2.67     c0.69-0.31,1.37-0.66,2.06-1.01c0.69-0.38,1.37-0.74,2.06-1.16c1.37-0.81,2.74-1.72,4.12-2.88     C895.36,448.89,893.99,447.98,892.62,447.17z" />
		</g>
		<g>
			<path class="st1" d="M931.27,374.81c-0.42,0.69-0.78,1.37-1.16,2.06c-0.35,0.69-0.7,1.37-1.01,2.06     c-1.11,2.4-1.98,4.81-2.66,7.21l-13.83-4.05l4.19,14.3c-2.45,0.7-4.9,1.55-7.35,2.62c-0.68,0.3-1.37,0.61-2.06,0.96l-1.03,0.51     l-1.03,0.55c-1.37,0.76-2.74,1.57-4.12,2.61c1.23,0.94,2.47,1.69,3.7,2.37c0.14,0.08,0.27,0.16,0.41,0.23l1.03,0.55l1.03,0.51     c0.69,0.34,1.37,0.66,2.06,0.96c2.45,1.06,4.9,1.92,7.35,2.62l-4.19,14.3l14.3-4.19c0.7,2.45,1.55,4.9,2.62,7.35     c0.3,0.68,0.61,1.37,0.96,2.06l0.51,1.03l0.55,1.03c0.76,1.37,1.57,2.74,2.61,4.12V370.7     C932.99,372.07,932.08,373.44,931.27,374.81z" />
		</g>
		<g>
			<path class="st4" d="M962.96,400.75c-0.69-0.42-1.37-0.77-2.06-1.15c-0.68-0.36-1.37-0.7-2.06-1.01     c-0.18-0.08-0.36-0.16-0.54-0.24c-2.22-1-4.45-1.79-6.67-2.43l4.05-13.83l-13.83,4.05c-0.69-2.4-1.55-4.8-2.67-7.21     c-0.31-0.69-0.65-1.37-1.01-2.06c-0.38-0.69-0.74-1.37-1.15-2.06c-0.82-1.37-1.72-2.74-2.88-4.12v65.86     c1.04-1.37,1.85-2.75,2.61-4.12l0.55-1.03l0.51-1.03c0.35-0.69,0.66-1.37,0.96-2.06c1.07-2.45,1.92-4.9,2.62-7.35l14.3,4.19     l-4.05-13.83c2.4-0.69,4.8-1.56,7.21-2.67c0.69-0.31,1.37-0.66,2.06-1.01c0.69-0.38,1.37-0.74,2.06-1.16     c1.37-0.81,2.74-1.72,4.12-2.88C965.7,402.47,964.34,401.56,962.96,400.75z" />
		</g>
	</g>
	
</svg>
