<?xml version="1.0" encoding="utf-8"?>
<svg version="1.1" xmlns="http://www.w3.org/2000/svg" viewBox="741.33 1233.75 286.34 309.23">
<style type="text/css">
	.st0{fill:#43A6FF;}
	.st1{fill:#5AE0FF;}
	.st2{fill:#53415E;}
	.st3{fill:#37CDDD;}
	.st4{fill:#9CF1FF;}
	.st5{fill:#76C4FF;}
	.st6{fill:#0A95EA;}
	.st7{fill:#FFDE7C;}
	.st8{fill:#FF97D3;}
	.st9{fill:#FF9D5A;}
	.st10{fill:#FFE8AE;}
	.st11{fill:#FFCCED;}
	.st12{fill:#FF80D5;}
	.st13{fill:#FF7B7B;}
	.st14{fill:#FFA4A4;}
	.st15{fill:#FF5555;}
	.st16{fill:#5FBBFF;}
	.st17{fill:#3E2E49;}
	.st18{fill:#685A72;}
	.st19{fill:none;}
	.st20{fill:#24162B;}
</style>
<g>
		<g>
			<g>
				<path class="st6" d="M789.33,1414.75c-6.43-2.51-11.44-7.86-13.48-14.52c4.36,36.7,26.43,67.97,57.41,85.04      c0.59-1.6,0.92-3.33,0.92-5.14c0,2.29,0.52,4.46,1.45,6.4c5.86,3.05,12.02,5.6,18.42,7.58c4.87-1.75,8.56-5.97,9.56-11.15      C828.64,1463.08,804.45,1436.03,789.33,1414.75z" />
			</g>
			<g>
				<path class="st5" d="M891.45,1487.82c1.29-2.12,2.07-4.59,2.15-7.23c-25.18-16.63-43.26-43.14-48.74-73.99      c-0.76,0.07-1.54,0.11-2.33,0.11c-2.07,0-4.08-0.27-5.99-0.76C844.61,1433.36,860.64,1469.21,891.45,1487.82z" />
			</g>
			<g>
				<path class="st0" d="M836.52,1405.95c-7.37-1.9-13.37-7.23-16.19-14.18c0.02,0.29,0.04,0.58,0.05,0.88      c0.01,0.29,0.02,0.58,0.02,0.88c0,1.92-0.24,3.78-0.69,5.56c-0.15,0.59-0.32,1.18-0.51,1.75c-0.66,1.94-1.57,3.77-2.7,5.43      c-0.82,1.21-1.75,2.34-2.78,3.37c-4.12,4.12-9.82,6.67-16.11,6.67c-2.93,0-5.72-0.55-8.29-1.56      c15.12,21.28,39.31,48.33,74.28,68.22c0.18-0.92,0.28-1.87,0.28-2.84c0,1.1,0.12,2.16,0.35,3.19      c6.56,3.7,13.49,7.15,20.82,10.26c2.66-1.25,4.88-3.27,6.39-5.76C860.64,1469.21,844.61,1433.36,836.52,1405.95z" />
			</g>
		</g>
		<g>
			<path class="st19" d="M848.19,1406.04c0.54-0.13,1.07-0.28,1.6-0.45C849.26,1405.76,848.73,1405.91,848.19,1406.04z" />
		</g>
		<g>
			<path class="st19" d="M852.36,1404.6c1.66-0.75,3.22-1.69,4.66-2.78C855.58,1402.92,854.02,1403.86,852.36,1404.6z" />
		</g>
		<g>
			<path class="st19" d="M930.88,1343.42c-0.66,0.22-1.33,0.42-2.01,0.59C929.55,1343.84,930.22,1343.64,930.88,1343.42z" />
		</g>
		<g>
			<path class="st19" d="M938.77,1286.9c-0.39-0.2-0.78-0.4-1.17-0.6c0,0,0,0,0,0c-1.18-0.59-2.37-1.16-3.58-1.72     c-1.61-0.73-3.23-1.43-4.88-2.09c3.46,0.93,6.7,2.41,9.59,4.38C938.74,1286.88,938.76,1286.89,938.77,1286.9z" />
		</g>
		<g>
			<path class="st2" d="M815.93,1448.88c0-1.53,0-3.05,0-4.58c0.08,0.03,0.17,0.06,0.25,0.09c3.61,1.33,5.17-4.44,1.59-5.76     c-4.46-1.63-8.91-3.27-13.37-4.9c-3.61-1.33-5.17,4.44-1.59,5.76c2.41,0.88,4.82,1.77,7.23,2.65c-0.06,0.24-0.09,0.49-0.09,0.76     c0,1.99,0,3.98,0,5.98C809.96,1452.73,815.93,1452.73,815.93,1448.88z" />
			<path class="st2" d="M842.11,1433.73c-4.46,1.63-8.91,3.27-13.37,4.9c-3.58,1.31-2.03,7.09,1.59,5.76     c0.08-0.03,0.17-0.06,0.25-0.09c0,1.53,0,3.05,0,4.58c0,3.84,5.97,3.85,5.97,0c0-1.99,0-3.98,0-5.98c0-0.27-0.03-0.53-0.09-0.76     c2.41-0.88,4.82-1.77,7.23-2.65C847.27,1438.18,845.73,1432.41,842.11,1433.73z" />
			<path class="st2" d="M823.26,1449.54c-5.01-0.03-8.62,4.09-8.87,8.87c-0.21,3.84,5.77,3.83,5.97,0c0.2-3.74,5.6-3.74,5.8,0     c0.21,3.82,6.18,3.85,5.97,0C831.87,1453.59,828.26,1449.58,823.26,1449.54z" />
		</g>
		<path class="st19" d="M833.26,1485.27c0.78,0.43,1.57,0.86,2.36,1.26c-0.93-1.94-1.45-4.11-1.45-6.4    C834.17,1481.93,833.85,1483.66,833.26,1485.27z" />
		<g>
			<path class="st0" d="M902.24,1367.96l-2.33,2.83c0.28-0.29,0.56-0.6,0.82-0.91C901.26,1369.27,901.76,1368.62,902.24,1367.96z" />
		</g>
		<g>
			<path class="st0" d="M904.43,1364.25c0.36-0.74,0.68-1.51,0.97-2.29l-2.47,4.98c0.33-0.52,0.65-1.05,0.94-1.59     C904.06,1364.99,904.25,1364.63,904.43,1364.25z" />
		</g>
		<g>
			<path class="st0" d="M945.94,1332.85l-2.53,2.85C944.31,1334.8,945.15,1333.85,945.94,1332.85z" />
		</g>
		<g>
			<path class="st0" d="M947.72,1330.35c0.41-0.64,0.81-1.3,1.17-1.98L947.72,1330.35z" />
		</g>
		<g>
			<path class="st0" d="M949.25,1327.69c0.35-0.68,0.68-1.38,0.98-2.1L949.25,1327.69z" />
		</g>
		<g>
			<path class="st0" d="M946.89,1294.85c-0.92-1.29-1.93-2.51-3.03-3.66L946.89,1294.85z" />
		</g>
		<g>
			<path class="st0" d="M942.5,1289.86c-0.46-0.43-0.94-0.85-1.43-1.25L942.5,1289.86z" />
		</g>
		<g>
			<path class="st0" d="M937.6,1286.3l2.72,1.72l-1.54-1.12c-0.02-0.01-0.03-0.02-0.05-0.02     C938.35,1286.68,937.98,1286.49,937.6,1286.3z" />
		</g>
		<g>
			<path class="st0" d="M938.78,1286.9l1.54,1.12C939.82,1287.62,939.3,1287.25,938.78,1286.9z" />
		</g>
		<g>
			<path class="st0" d="M934.02,1284.58l2.97,1.43c0,0,0,0,0-0.01C936.01,1285.52,935.02,1285.04,934.02,1284.58z" />
		</g>
		<g>
			<path class="st0" d="M936.99,1286C936.99,1286,936.99,1286.01,936.99,1286l0.6,0.3C937.39,1286.2,937.19,1286.1,936.99,1286z" />
		</g>
		<g>
			<path class="st0" d="M927.23,1281.75c-1.91-0.73-3.85-1.4-5.81-2.03L927.23,1281.75z" />
		</g>
		<path class="st19" d="M863.61,1482.96c0.21,0.12,0.42,0.24,0.63,0.36c-0.23-1.03-0.35-2.1-0.35-3.19    C863.89,1481.1,863.78,1482.04,863.61,1482.96z" />
		<g>
			<path class="st5" d="M893.62,1480.6c0.24,7.99,6.79,14.38,14.84,14.38c3.14,0,6.04-0.97,8.44-2.63     C908.64,1489.34,900.84,1485.38,893.62,1480.6z" />
		</g>
		<g>
			<path class="st0" d="M878.74,1494.98c2.26,0,4.4-0.5,6.31-1.4c-7.32-3.11-14.26-6.56-20.82-10.26     C865.7,1489.99,871.63,1494.98,878.74,1494.98z" />
		</g>
		<path class="st1" d="M979.67,1480.19c-0.15,6.48-5.28,11.87-11.87,11.87c-6.59,0-11.72-5.39-11.87-11.87    c-0.09-3.84-5.88-3.85-5.97,0c-0.15,6.48-5.28,11.87-11.87,11.87c-6.59,0-11.72-5.39-11.87-11.87c-0.09-3.84-5.88-3.85-5.97,0    c-0.18,7.07-6.31,12.76-13.5,11.77c-5.94-0.82-10.05-5.91-10.24-11.77c-0.12-3.84-5.89-3.85-5.97,0    c-0.14,6.32-5.08,11.71-11.53,11.86c-6.73,0.15-12.06-5.22-12.21-11.86c-0.09-3.84-5.88-3.85-5.97,0    c-0.15,6.3-5,11.65-11.43,11.86c-6.78,0.22-12.12-5.18-12.31-11.86c-0.11-3.84-5.86-3.85-5.97,0    c-0.21,6.89-5.91,12.41-12.91,11.83c-6.17-0.51-10.68-5.77-10.82-11.83c-0.09-3.84-5.88-3.85-5.97,0    c-0.15,6.48-5.28,11.87-11.87,11.87c-6.59,0-11.72-5.39-11.87-11.87c-0.09-3.84-5.88-3.85-5.97,0    c-0.15,6.48-5.28,11.87-11.87,11.87c-6.59,0-11.72-5.39-11.87-11.87c-0.09-3.84-6.06-3.85-5.97,0    c0.22,9.72,7.97,17.82,17.85,17.84c6.27,0.01,11.68-3.29,14.85-8.18c3.17,4.88,8.58,8.16,14.86,8.18    c6.27,0.01,11.68-3.28,14.85-8.16c2.98,4.57,7.95,7.71,13.82,8.12c6.7,0.47,12.54-2.96,15.89-8.17c3.24,5.03,8.83,8.39,15.3,8.2    c6.12-0.18,11.34-3.4,14.43-8.16c3.23,4.98,8.79,8.31,15.19,8.16c6.13-0.14,11.41-3.38,14.52-8.16c2.84,4.4,7.51,7.48,13.15,8.07    c6.91,0.72,13.06-2.72,16.54-8.09c3.17,4.89,8.59,8.18,14.87,8.19c6.27,0.01,11.68-3.29,14.85-8.17    c3.17,4.88,8.58,8.16,14.86,8.17c9.87,0.02,17.62-8.15,17.84-17.84C985.73,1476.34,979.76,1476.34,979.67,1480.19z" />
		<g>
			<path class="st1" d="M937.03,1286.02c-1-0.49-2-0.98-3.02-1.44c-1.61-0.73-3.23-1.43-4.88-2.09c-0.63-0.25-1.27-0.5-1.91-0.74     c-0.96-0.36-1.92-0.71-2.89-1.05c-0.97-0.33-1.94-0.66-2.92-0.97c-10.74-3.41-22.17-5.25-34.03-5.25     c-62.04,0-112.34,50.29-112.34,112.33c0,0.94,0.02,1.88,0.04,2.82C811.94,1383.91,886.25,1362.94,937.03,1286.02z" />
		</g>
		<g>
			<path class="st3" d="M952.68,1311.49c0-0.03,0-0.05,0-0.07c-0.03-0.56-0.07-1.11-0.13-1.65c0-0.01,0-0.03,0-0.04     c-0.12-1.09-0.29-2.15-0.52-3.2c-0.01-0.05-0.02-0.1-0.03-0.15c-0.02-0.07-0.03-0.13-0.05-0.2c-0.06-0.28-0.13-0.56-0.2-0.84     c-0.03-0.1-0.05-0.21-0.08-0.31c-0.07-0.27-0.15-0.54-0.23-0.8c-0.02-0.07-0.04-0.14-0.06-0.21c-0.02-0.08-0.05-0.15-0.08-0.23     c-0.07-0.23-0.14-0.46-0.22-0.68c-0.04-0.13-0.09-0.25-0.13-0.38c-0.09-0.25-0.18-0.5-0.27-0.74c-0.04-0.1-0.08-0.21-0.12-0.31     c-0.1-0.26-0.2-0.52-0.31-0.77c-0.04-0.09-0.08-0.19-0.12-0.28c-0.11-0.26-0.23-0.52-0.35-0.77c-0.04-0.09-0.09-0.18-0.13-0.27     c-0.12-0.25-0.24-0.5-0.37-0.75c-0.05-0.1-0.11-0.2-0.16-0.3c-0.12-0.23-0.25-0.47-0.37-0.7c-0.08-0.14-0.16-0.28-0.24-0.42     c-0.11-0.19-0.22-0.38-0.33-0.57c-0.2-0.33-0.4-0.65-0.61-0.97c-0.22-0.33-0.44-0.66-0.67-0.99v-0.01     c-0.93-1.29-1.94-2.52-3.03-3.66v0c-0.22-0.23-0.45-0.45-0.67-0.67c-0.22-0.22-0.46-0.44-0.69-0.66     c-0.47-0.43-0.95-0.84-1.43-1.25c-0.25-0.19-0.5-0.39-0.75-0.59c-0.5-0.38-1.02-0.76-1.54-1.11c-0.01-0.01-0.01-0.01-0.02-0.01     c-0.38-0.19-0.77-0.39-1.15-0.59h0c-0.19-0.09-0.37-0.18-0.56-0.27c-50.79,76.92-125.09,97.89-161.95,103.6     c0,0.15,0,0.31,0.01,0.46c0.1,3.42,0.35,6.8,0.75,10.14c2.86,9.31,11.53,16.07,21.77,16.07c6.3,0,11.99-2.55,16.11-6.67     c1.03-1.03,1.97-2.16,2.78-3.37c1.12-1.67,2.04-3.49,2.7-5.43c0.19-0.57,0.36-1.16,0.51-1.75c0.44-1.78,0.68-3.64,0.68-5.55     c0-0.29,0-0.59-0.01-0.88c-0.01-0.29-0.03-0.59-0.05-0.88c3.55,8.76,12.14,14.94,22.18,14.94c0.79,0,1.57-0.04,2.33-0.11     c1.14-0.11,2.25-0.3,3.34-0.56c0.54-0.13,1.07-0.28,1.6-0.45c0.17-0.05,0.35-0.11,0.53-0.17c0.35-0.12,0.69-0.25,1.03-0.38     c0.34-0.13,0.68-0.28,1.01-0.43c0.42-0.19,0.83-0.38,1.23-0.6c1.01-0.53,1.97-1.12,2.89-1.78c0.18-0.13,0.37-0.27,0.55-0.4     c0.28-0.22,0.57-0.44,0.85-0.68c0.27-0.23,0.55-0.47,0.81-0.71c4.78-4.37,7.78-10.67,7.78-17.67c0-4.13-1.05-8.01-2.89-11.4     c4.6,4.53,10.91,7.32,17.88,7.32c7.26,0,13.8-3.04,18.45-7.9c0.28-0.29,0.55-0.6,0.82-0.91c0.26-0.31,0.53-0.62,0.78-0.95     c0.25-0.32,0.5-0.65,0.73-0.98c0.23-0.33,0.46-0.67,0.69-1.02c0.33-0.52,0.64-1.05,0.94-1.59c0.19-0.36,0.38-0.73,0.56-1.1     c0.36-0.74,0.68-1.51,0.97-2.29c1-2.73,1.55-5.68,1.55-8.76c0-5.09-1.49-9.82-4.06-13.8c5.13,3.54,11.34,5.61,18.04,5.61     c2.74,0,5.41-0.35,7.95-1c0.68-0.17,1.35-0.37,2.01-0.59c4.78-1.57,9.05-4.24,12.53-7.72c0.9-0.9,1.75-1.85,2.53-2.85     c0,0,0,0,0.01,0c0.31-0.4,0.62-0.81,0.91-1.22c0-0.01,0-0.01,0.01-0.01c0.29-0.41,0.58-0.84,0.85-1.26l0-0.01     c0.21-0.32,0.41-0.65,0.6-0.98c0.19-0.33,0.38-0.66,0.57-1c0.12-0.23,0.24-0.46,0.36-0.69c0.35-0.69,0.67-1.38,0.98-2.1     c0.2-0.48,0.39-0.96,0.57-1.45c0.08-0.21,0.15-0.43,0.23-0.64c0.04-0.12,0.08-0.25,0.12-0.37c0.07-0.2,0.13-0.4,0.19-0.6     c0.03-0.11,0.07-0.23,0.11-0.34c0.03-0.1,0.06-0.21,0.08-0.31c0.07-0.24,0.14-0.49,0.2-0.74c0.02-0.09,0.05-0.19,0.08-0.28     c0.03-0.12,0.05-0.23,0.08-0.35c0.04-0.17,0.08-0.34,0.12-0.51c0.05-0.23,0.1-0.47,0.14-0.7c0.06-0.33,0.12-0.66,0.17-0.99     c0.02-0.14,0.04-0.27,0.06-0.41c0.04-0.25,0.07-0.5,0.1-0.76c0.01-0.08,0.02-0.17,0.03-0.26c0.06-0.48,0.1-0.97,0.13-1.46     c0.01-0.12,0.02-0.25,0.02-0.37c0.01-0.26,0.03-0.52,0.04-0.78c0-0.12,0.01-0.24,0.01-0.36c0.01-0.24,0.02-0.48,0.02-0.71     C952.73,1312.63,952.71,1312.06,952.68,1311.49z" />
		</g>
		<path class="st4" d="M877.6,1288.1c1.83,5.82-10.44,3.35-23.33,7.41c-12.89,4.06-21.53,13.12-23.36,7.3    c-1.83-5.82,7.13-13.83,20.02-17.89C863.83,1280.85,875.77,1282.28,877.6,1288.1z" />
	</g>
	
</svg>
