<?xml version="1.0" encoding="utf-8"?>
<svg version="1.1" xmlns="http://www.w3.org/2000/svg" viewBox="223.86 259.09 316.11 235.69">
<style type="text/css">
	.st0{fill:#43A6FF;}
	.st1{fill:#5AE0FF;}
	.st2{fill:#53415E;}
	.st3{fill:#37CDDD;}
	.st4{fill:#9CF1FF;}
	.st5{fill:#76C4FF;}
	.st6{fill:#0A95EA;}
	.st7{fill:#FFDE7C;}
	.st8{fill:#FF97D3;}
	.st9{fill:#FF9D5A;}
	.st10{fill:#FFE8AE;}
	.st11{fill:#FFCCED;}
	.st12{fill:#FF80D5;}
	.st13{fill:#FF7B7B;}
	.st14{fill:#FFA4A4;}
	.st15{fill:#FF5555;}
	.st16{fill:#5FBBFF;}
	.st17{fill:#3E2E49;}
	.st18{fill:#685A72;}
	.st19{fill:none;}
	.st20{fill:#24162B;}
</style>
<g>
		<g>
			<path class="st10" d="M336.34,365.09c16.23,17.62,35.66,22.96,46.93,24.57c0.36-1.1,0.77-2.17,1.24-3.21     c-38.11-6.43-67.14-39.59-67.14-79.53c0-12.89,3.03-25.07,8.4-35.88C325.77,271.04,293.3,318.37,336.34,365.09z" />
		</g>
		<g>
			<path class="st7" d="M336.34,365.09c-43.04-46.73-10.57-94.05-10.57-94.05c-22.19,4.27-41.14,17.63-52.84,36.05     c-6.83,27.8-10.21,72.79,30.65,93.26c3.77-5.26,9.92-8.69,16.89-8.69c11.47,0,20.76,9.3,20.76,20.76c0,0.8-0.04,1.59-0.14,2.37     c0.84-0.34,1.71-0.63,2.6-0.85c5.98-7.77,15.38-12.77,25.95-12.77c4.33,0,8.46,0.84,12.25,2.37c-0.14-1.23-0.22-2.48-0.22-3.74     c0-3.54,0.56-6.95,1.61-10.15C372.01,388.06,352.57,382.71,336.34,365.09z" />
		</g>
		<g>
			<path class="st9" d="M272.93,307.09c-7.92,12.48-12.51,27.28-12.51,43.16c0,25.54,11.87,48.31,30.4,63.09     c0.42-0.02,0.84-0.03,1.26-0.03c2.75,0,5.36,0.53,7.76,1.5c-0.09-0.78-0.14-1.57-0.14-2.37c0-4.5,1.44-8.67,3.88-12.07     C262.72,379.88,266.1,334.89,272.93,307.09z" />
		</g>
		<g>
			<path class="st0" d="M369.61,434.06c0-2.76-0.54-5.39-1.51-7.79c-1.81-4.47-5.13-8.16-9.33-10.45c-2.95-1.6-6.33-2.52-9.92-2.52     c-1.79,0-3.51,0.22-5.17,0.65c-0.89,0.22-1.76,0.51-2.6,0.85c0.09-0.78,0.14-1.57,0.14-2.37c0-11.47-9.3-20.76-20.76-20.76     s-20.76,9.3-20.76,20.76c0,0.8,0.05,1.59,0.14,2.37c-2.4-0.97-5.02-1.5-7.76-1.5c-0.42,0-0.84,0.01-1.26,0.03     c-9.5,0.57-17.28,7.53-19.09,16.65c-0.26,1.32-0.4,2.68-0.4,4.08c0,1.61,0.19,3.18,0.54,4.68h97.21     C369.42,437.24,369.61,435.67,369.61,434.06z" />
		</g>
		<g>
			<path class="st6" d="M271.86,438.74c2.12,9.21,10.37,16.08,20.22,16.08h56.77c9.85,0,18.1-6.87,20.22-16.08H271.86z" />
		</g>
		<g>
			<path class="st1" d="M491.97,433.95c0-12.43-6.92-23.24-17.1-28.79c-4.65-2.53-9.98-3.98-15.66-3.98     c-4.33,0-8.46,0.84-12.24,2.37c0.14-1.23,0.21-2.48,0.21-3.74c0-18.09-14.67-32.76-32.76-32.76c-13.33,0-24.81,7.97-29.92,19.41     c-1.83,4.08-2.84,8.6-2.84,13.36c0,1.26,0.08,2.51,0.22,3.74c-3.78-1.53-7.92-2.37-12.25-2.37c-10.57,0-19.97,5-25.95,12.77     c1.65-0.43,3.38-0.65,5.17-0.65c3.59,0,6.97,0.92,9.92,2.52c4.2,2.29,7.51,5.98,9.33,10.45c0.98,2.4,1.51,5.04,1.51,7.79     c0,4.79-1.63,9.2-4.36,12.72h124.11C491.04,442.84,491.97,438.5,491.97,433.95z" />
		</g>
		<g>
			<path class="st3" d="M365.25,446.78c-3.8,4.89-9.73,8.04-16.4,8.04h-4.46c6.01,7.26,15.08,11.88,25.25,11.88h89.58     c13.54,0,25.15-8.21,30.14-19.92H365.25z" />
		</g>
		<g>
			<g>
				<g>
					<path class="st2" d="M279.96,347.42c0,3.16,0,6.33,0,9.49c0,3.84,5.97,3.85,5.97,0c0-3.16,0-6.33,0-9.49       C285.93,343.58,279.96,343.57,279.96,347.42L279.96,347.42z" />
				</g>
				<g>
					<path class="st2" d="M308.93,347.42c0,3.16,0,6.33,0,9.49c0,3.84,5.97,3.85,5.97,0c0-3.16,0-6.33,0-9.49       C314.9,343.58,308.93,343.57,308.93,347.42L308.93,347.42z" />
				</g>
			</g>
			<g>
				<path class="st2" d="M301.82,371.04c-0.25,5.66-8.52,5.67-8.78,0c-0.17-3.83-6.14-3.85-5.97,0c0.25,5.64,4.54,10.33,10.36,10.36      c5.82,0.03,10.11-4.76,10.36-10.36C307.96,367.2,301.99,367.21,301.82,371.04L301.82,371.04z" />
			</g>
		</g>
		<g>
			<g>
				<g>
					<path class="st2" d="M397.79,407.74c0,3.16,0,6.33,0,9.49c0,3.84,5.97,3.85,5.97,0c0-3.16,0-6.33,0-9.49       C403.77,403.9,397.79,403.89,397.79,407.74L397.79,407.74z" />
				</g>
				<g>
					<path class="st2" d="M426.76,407.74c0,3.16,0,6.33,0,9.49c0,3.84,5.97,3.85,5.97,0c0-3.16,0-6.33,0-9.49       C432.74,403.9,426.76,403.89,426.76,407.74L426.76,407.74z" />
				</g>
			</g>
			<g>
				<path class="st2" d="M419.65,431.37c-0.25,5.66-8.52,5.67-8.78,0c-0.17-3.83-6.14-3.85-5.97,0c0.25,5.64,4.54,10.33,10.36,10.36      c5.82,0.03,10.11-4.76,10.36-10.36C425.8,427.52,419.83,427.53,419.65,431.37L419.65,431.37z" />
			</g>
		</g>
		<path class="st4" d="M434.85,383.88c-1.32,4.62-7.12-0.18-15.31-2.52c-8.19-2.33-15.65-1.3-14.34-5.93    c1.32-4.62,9.02-6.48,17.21-4.15S436.17,379.26,434.85,383.88z" />
		<path class="st4" d="M475.65,413.39c-0.89,3.11-4.79-0.12-10.3-1.69s-10.53-0.88-9.64-3.99c0.89-3.11,6.07-4.36,11.57-2.79    C472.79,406.49,476.54,410.28,475.65,413.39z" />
		<path class="st5" d="M333.59,403.55c-0.89,3.11-4.79-0.12-10.3-1.69c-5.51-1.57-10.53-0.88-9.64-3.99    c0.89-3.11,6.07-4.36,11.57-2.79C330.73,396.65,334.48,400.44,333.59,403.55z" />
		<circle class="st9" cx="285.62" cy="315.13" r="6.81" />
		<circle class="st9" cx="295.65" cy="302.2" r="3.22" />
		<circle class="st9" cx="298.07" cy="311.99" r="2.41" />
		<circle class="st9" cx="332.57" cy="383.25" r="6.55" />
		<circle class="st9" cx="338.04" cy="393.86" r="2.96" />
		<circle class="st9" cx="350.69" cy="389.16" r="8.01" />
	</g>
	
</svg>
