<?xml version="1.0" encoding="utf-8"?>
<svg version="1.1" xmlns="http://www.w3.org/2000/svg" viewBox="213.27 2259.84 302.42 295.33">
<style type="text/css">
	.st0{fill:#43A6FF;}
	.st1{fill:#5AE0FF;}
	.st2{fill:#53415E;}
	.st3{fill:#37CDDD;}
	.st4{fill:#9CF1FF;}
	.st5{fill:#76C4FF;}
	.st6{fill:#0A95EA;}
	.st7{fill:#FFDE7C;}
	.st8{fill:#FF97D3;}
	.st9{fill:#FF9D5A;}
	.st10{fill:#FFE8AE;}
	.st11{fill:#FFCCED;}
	.st12{fill:#FF80D5;}
	.st13{fill:#FF7B7B;}
	.st14{fill:#FFA4A4;}
	.st15{fill:#FF5555;}
	.st16{fill:#5FBBFF;}
	.st17{fill:#3E2E49;}
	.st18{fill:#685A72;}
	.st19{fill:none;}
	.st20{fill:#24162B;}
</style>
<g>
		<g>
			<path class="st17" d="M405.79,2340.84c9.83,0,19.67,0,29.5,0c15.67,0,31.34,0,47.02,0c3.6,0,7.19,0,10.79,0     c3.84,0,3.85-5.97,0-5.97c-9.83,0-19.67,0-29.5,0c-15.67,0-31.34,0-47.02,0c-3.6,0-7.19,0-10.79,0     C401.95,2334.87,401.94,2340.84,405.79,2340.84L405.79,2340.84z" />
		</g>
		<g>
			<path class="st17" d="M405.79,2356.73c9.83,0,19.67,0,29.5,0c15.67,0,31.34,0,47.02,0c3.6,0,7.19,0,10.79,0     c3.84,0,3.85-5.97,0-5.97c-9.83,0-19.67,0-29.5,0c-15.67,0-31.34,0-47.02,0c-3.6,0-7.19,0-10.79,0     C401.95,2350.76,401.94,2356.73,405.79,2356.73L405.79,2356.73z" />
		</g>
		<g>
			<path class="st17" d="M452.22,2411.53c13.63,0,27.25,0,40.88,0c3.84,0,3.85-5.97,0-5.97c-13.63,0-27.25,0-40.88,0     C448.38,2405.56,448.37,2411.53,452.22,2411.53L452.22,2411.53z" />
		</g>
		<g>
			<path class="st17" d="M452.22,2427.68c13.63,0,27.25,0,40.88,0c3.84,0,3.85-5.97,0-5.97c-13.63,0-27.25,0-40.88,0     C448.38,2421.71,448.37,2427.68,452.22,2427.68L452.22,2427.68z" />
		</g>
		<g>
			<path class="st17" d="M405.79,2466.34c9.83,0,19.67,0,29.5,0c15.67,0,31.34,0,47.02,0c3.6,0,7.19,0,10.79,0     c3.84,0,3.85-5.97,0-5.97c-9.83,0-19.67,0-29.5,0c-15.67,0-31.34,0-47.02,0c-3.6,0-7.19,0-10.79,0     C401.95,2460.37,401.94,2466.34,405.79,2466.34L405.79,2466.34z" />
		</g>
		<g>
			<path class="st17" d="M405.79,2482.49c9.83,0,19.67,0,29.5,0c15.67,0,31.34,0,47.02,0c3.6,0,7.19,0,10.79,0     c3.84,0,3.85-5.97,0-5.97c-9.83,0-19.67,0-29.5,0c-15.67,0-31.34,0-47.02,0c-3.6,0-7.19,0-10.79,0     C401.95,2476.52,401.94,2482.49,405.79,2482.49L405.79,2482.49z" />
		</g>
		<g>
			<path class="st17" d="M422.13,2307.84c-0.21-8.88-6.83-16.25-15.76-17.05c-8.7-0.78-16.84,5.64-18.23,14.23     c-1.38,8.57,3.98,17.1,12.42,19.35c2.6,0.69,5.29,0.59,7.96,0.59c21.08,0,42.16,0,63.24,0c7.11,0,14.22,0,21.32,0     c3.84,0,3.85-5.97,0-5.97c-15.38,0-30.75,0-46.13,0c-10.07,0-20.14,0-30.21,0c-2.98,0-5.95,0-8.93,0c-2.4,0-4.82,0.11-7.1-0.83     c-7.91-3.29-9.17-14.36-2.24-19.36c7.38-5.32,17.46,0.22,17.67,9.05C416.25,2311.67,422.22,2311.69,422.13,2307.84     L422.13,2307.84z" />
		</g>
		<g>
			<path class="st17" d="M467.69,2381.17c-0.31-10.49-11.3-17.47-20.83-12.59c-9.32,4.77-9.99,18.14-1.63,24.16     c4.24,3.05,9.22,2.65,14.13,2.65c6.5,0,13,0,19.5,0c4.75,0,9.49,0,14.24,0c3.84,0,3.85-5.97,0-5.97c-8.57,0-17.14,0-25.71,0     c-4.17,0-8.33,0-12.5,0c-1.44,0-2.85,0.01-4.24-0.49c-3.54-1.29-5.84-4.96-5.38-8.71c0.51-4.24,4.27-7.47,8.54-7.28     c4.47,0.19,7.77,3.85,7.91,8.24C461.84,2385,467.81,2385.02,467.69,2381.17L467.69,2381.17z" />
		</g>
		<g>
			<path class="st17" d="M414.33,2507.17c-0.2,7.08-8.56,11.25-14.11,6.47c-5.54-4.76-2.62-14.17,4.64-14.97     c4.4-0.48,9.07-0.04,13.48-0.04c19.54,0,39.08,0,58.63,0c5.38,0,10.76,0,16.14,0c3.84,0,3.85-5.97,0-5.97     c-16.37,0-32.73,0-49.1,0c-10,0-20,0-30,0c-7.56,0-15.47-0.74-20.34,6.56c-5.28,7.91-1.17,18.89,7.76,21.78     c9.38,3.03,18.61-4.29,18.88-13.83C420.41,2503.33,414.44,2503.33,414.33,2507.17L414.33,2507.17z" />
		</g>
		<g>
			<path class="st17" d="M261.27,2342.1c-0.53,1.4-0.95,2.85-1.25,4.34c-0.35,1.75-0.53,3.55-0.53,5.4     c0,15.18,12.3,27.48,27.48,27.48h64.13c1.11-7.63,5.37-14.24,11.4-18.48h-80.08C269.43,2360.84,263.74,2351.33,261.27,2342.1z" />
		</g>
		<g>
			<path class="st2" d="M375.25,2327.69c-3.9-2.13-8.38-3.33-13.13-3.33c-3.63,0-7.1,0.7-10.27,1.99c0.12-1.04,0.18-2.08,0.18-3.14     c0-15.18-12.31-27.48-27.48-27.48s-27.48,12.31-27.48,27.48c0,1.06,0.06,2.1,0.18,3.14c-3.17-1.28-6.64-1.99-10.28-1.99     c-11.75,0-21.77,7.37-25.7,17.74c2.47,9.23,8.16,18.74,21.15,18.74h80.08c4.47-3.14,9.91-5,15.79-5c3.77,0,7.36,0.76,10.62,2.13     c0.45-1.97,0.69-4.02,0.69-6.13C389.6,2341.42,383.8,2332.35,375.25,2327.69z" />
		</g>
		<g>
			<path class="st3" d="M422.71,2429.14H348c1.89,3.09,3.19,6.58,3.73,10.31h64.13c15.18,0,27.48-12.3,27.48-27.48     c0-1.86-0.19-3.68-0.54-5.45C438.57,2424.9,422.71,2429.14,422.71,2429.14z" />
		</g>
		<g>
			<path class="st1" d="M442.8,2406.52c-1.62-8.08-6.79-14.88-13.8-18.71c-3.9-2.13-8.38-3.33-13.13-3.33     c-3.63,0-7.1,0.7-10.27,1.99c0.12-1.04,0.18-2.08,0.18-3.14c0-11.41-6.96-21.2-16.86-25.35c-3.27-1.37-6.86-2.13-10.62-2.13     c-13.81,0-25.26,10.2-27.19,23.48c-0.19,1.31-0.29,2.64-0.29,4.01c0,1.06,0.06,2.1,0.18,3.14c-3.17-1.28-6.64-1.99-10.28-1.99     c-13.33,0-24.44,9.49-26.95,22.09c-0.35,1.75-0.53,3.55-0.53,5.4c0,2.11,0.24,4.17,0.69,6.14c3.27-1.37,6.86-2.13,10.62-2.13     c9.93,0,18.63,5.27,23.46,13.16h74.71C422.71,2429.14,438.57,2424.9,442.8,2406.52z" />
		</g>
		<g>
			<path class="st6" d="M374.27,2482.49h-97.23c-9.3-0.08-14.41-8.62-17.04-15.64c-0.33,1.7-0.51,3.46-0.51,5.25     c0,15.18,12.3,27.48,27.48,27.48h75.15c15.18,0,27.48-12.3,27.48-27.48c0-1.57-0.13-3.12-0.39-4.62     C384.53,2479.92,374.27,2482.49,374.27,2482.49z" />
		</g>
		<g>
			<path class="st0" d="M277.04,2482.49h97.23c0,0,10.26-2.57,14.94-15.01c-1.43-8.44-6.7-15.58-13.96-19.53     c-3.9-2.13-8.38-3.33-13.13-3.33c-3.63,0-7.1,0.7-10.27,1.99c0.12-1.04,0.18-2.08,0.18-3.14c0-1.36-0.1-2.7-0.29-4.01     c-1.94-13.28-13.38-23.47-27.19-23.47c-3.77,0-7.36,0.76-10.62,2.13c-9.9,4.16-16.86,13.94-16.86,25.35     c0,1.06,0.06,2.1,0.18,3.14c-3.17-1.28-6.64-1.99-10.28-1.99c-13.33,0-24.44,9.49-26.95,22.09c-0.01,0.05-0.02,0.1-0.03,0.15     C262.62,2473.86,267.73,2482.4,277.04,2482.49z" />
		</g>
		<path class="st4" d="M396.84,2372.28c-1.28,4.51-6.94-0.18-14.93-2.45s-15.26-1.27-13.98-5.78c1.28-4.51,8.79-6.32,16.78-4.04    C392.69,2362.28,398.12,2367.77,396.84,2372.28z" />
		<path class="st4" d="M430.72,2396.39c-0.81,2.84-4.37-0.11-9.4-1.55s-9.61-0.8-8.8-3.64c0.81-2.84,5.54-3.98,10.57-2.55    C428.11,2390.09,431.53,2393.55,430.72,2396.39z" />
		<path class="st18" d="M341.66,2311.88c-1.28,4.51-6.94-0.18-14.93-2.45s-15.26-1.27-13.98-5.78c1.28-4.51,8.79-6.32,16.78-4.04    S342.94,2307.37,341.66,2311.88z" />
		<path class="st18" d="M375.54,2335.99c-0.81,2.84-4.37-0.11-9.4-1.54c-5.03-1.43-9.61-0.8-8.8-3.64    c0.81-2.84,5.54-3.98,10.57-2.55C372.93,2329.69,376.35,2333.15,375.54,2335.99z" />
		<path class="st5" d="M342.29,2433.43c-1.28,4.51-6.94-0.18-14.93-2.45c-7.98-2.27-15.26-1.27-13.98-5.78    c1.28-4.51,8.79-6.32,16.78-4.04S343.57,2428.92,342.29,2433.43z" />
		<path class="st5" d="M376.17,2457.54c-0.81,2.84-4.37-0.11-9.4-1.54c-5.03-1.43-9.61-0.8-8.8-3.64c0.81-2.84,5.54-3.98,10.57-2.55    C373.56,2451.24,376.98,2454.7,376.17,2457.54z" />
	</g>
	
</svg>
