<?xml version="1.0" encoding="utf-8"?>
<svg version="1.1" xmlns="http://www.w3.org/2000/svg" viewBox="1281.31 1243.14 244.09 282.96">
<style type="text/css">
	.st0{fill:#43A6FF;}
	.st1{fill:#5AE0FF;}
	.st2{fill:#53415E;}
	.st3{fill:#37CDDD;}
	.st4{fill:#9CF1FF;}
	.st5{fill:#76C4FF;}
	.st6{fill:#0A95EA;}
	.st7{fill:#FFDE7C;}
	.st8{fill:#FF97D3;}
	.st9{fill:#FF9D5A;}
	.st10{fill:#FFE8AE;}
	.st11{fill:#FFCCED;}
	.st12{fill:#FF80D5;}
	.st13{fill:#FF7B7B;}
	.st14{fill:#FFA4A4;}
	.st15{fill:#FF5555;}
	.st16{fill:#5FBBFF;}
	.st17{fill:#3E2E49;}
	.st18{fill:#685A72;}
	.st19{fill:none;}
	.st20{fill:#24162B;}
</style>
<g>
		<g>
			<path class="st15" d="M1446.53,1302.82v121.19l4.17,4.35l-17.87,18.66l3.49,25.61l-10.11,1.82     c5.08,14.86,19.17,25.54,35.76,25.54v-197.18H1446.53z" />
		</g>
		<g>
			<path class="st13" d="M1477.4,1427.73v-124.91h-15.43V1500c20.86,0,37.78-16.91,37.78-37.78     C1499.74,1446.86,1490.56,1433.63,1477.4,1427.73z" />
		</g>
		<g>
			<g>
				<path class="st7" d="M1450.7,1428.36l-4.17-4.35l-13.7-14.31l3.49-25.61l-25.44-4.58l-12.21-22.78l-23.27,11.26l-23.27-11.26      l-12.21,22.78l-25.44,4.58l3.48,25.61l-17.87,18.67l17.87,18.66l-3.48,25.61l25.44,4.58l12.21,22.78l23.27-11.26l23.27,11.26      l12.21-22.78l15.33-2.76l10.11-1.82l-3.49-25.61L1450.7,1428.36z M1375.39,1478.1c-27.47,0-49.74-22.27-49.74-49.74      c0-27.47,22.27-49.74,49.74-49.74s49.74,22.27,49.74,49.74C1425.13,1455.83,1402.86,1478.1,1375.39,1478.1z" />
			</g>
		</g>
		<g>
			<path class="st13" d="M1425.13,1428.36c0-27.47-22.27-49.74-49.74-49.74c-20.84,0-38.68,12.81-46.08,30.99     c7.06,22.67,26.5,62,75.93,58.54C1417.32,1459.08,1425.13,1444.63,1425.13,1428.36z" />
		</g>
		<g>
			<path class="st15" d="M1329.31,1409.61c-2.36,5.79-3.66,12.12-3.66,18.75c0,27.47,22.27,49.74,49.74,49.74     c11.2,0,21.53-3.7,29.85-9.95C1355.81,1471.62,1336.37,1432.29,1329.31,1409.61z" />
		</g>
		<g>
			<path class="st1" d="M1477.4,1296.78v6.04h-30.86v-6.04c0-8.52,6.91-15.43,15.43-15.43     C1470.48,1281.35,1477.4,1288.26,1477.4,1296.78z" />
		</g>
		<g>
			<path class="st2" d="M1472.64,1323.34c-2.85-2.85-5.71-5.71-8.56-8.56c-1.14-1.14-3.08-1.14-4.22,0     c-2.85,2.85-5.71,5.71-8.56,8.56c-2.72,2.72,1.5,6.94,4.22,4.22c1.16-1.16,2.31-2.31,3.47-3.47c0,4.38,0,8.77,0,13.15     c0,3.84,5.97,3.85,5.97,0c0-4.38,0-8.77,0-13.15c1.16,1.16,2.31,2.31,3.47,3.47C1471.14,1330.28,1475.36,1326.06,1472.64,1323.34     z" />
			<path class="st2" d="M1353.4,1410.03c0,2.47,0,4.93,0,7.4c0,3.84,5.97,3.85,5.97,0c0-2.47,0-4.93,0-7.4     C1359.37,1406.19,1353.4,1406.18,1353.4,1410.03z" />
			<path class="st2" d="M1391.41,1410.03c0,2.47,0,4.93,0,7.4c0,3.84,5.97,3.85,5.97,0c0-2.47,0-4.93,0-7.4     C1397.39,1406.19,1391.41,1406.18,1391.41,1410.03z" />
			<path class="st2" d="M1385.65,1432.55c-6.84,0-13.68,0-20.52,0c-3.84,0-3.85,5.97,0,5.97c6.84,0,13.68,0,20.52,0     C1389.5,1438.52,1389.5,1432.55,1385.65,1432.55z" />
		</g>
		<path class="st4" d="M1472.41,1291.14c-0.75,2.64-4.06-0.11-8.74-1.44s-8.93-0.74-8.18-3.38c0.75-2.64,5.15-3.7,9.82-2.37    S1473.16,1288.5,1472.41,1291.14z" />
	</g>
	
</svg>
