<?xml version="1.0" encoding="utf-8"?>
<svg version="1.1" xmlns="http://www.w3.org/2000/svg" viewBox="250.26 882.45 269.84 257.95">
<style type="text/css">
	.st0{fill:#43A6FF;}
	.st1{fill:#5AE0FF;}
	.st2{fill:#53415E;}
	.st3{fill:#37CDDD;}
	.st4{fill:#9CF1FF;}
	.st5{fill:#76C4FF;}
	.st6{fill:#0A95EA;}
	.st7{fill:#FFDE7C;}
	.st8{fill:#FF97D3;}
	.st9{fill:#FF9D5A;}
	.st10{fill:#FFE8AE;}
	.st11{fill:#FFCCED;}
	.st12{fill:#FF80D5;}
	.st13{fill:#FF7B7B;}
	.st14{fill:#FFA4A4;}
	.st15{fill:#FF5555;}
	.st16{fill:#5FBBFF;}
	.st17{fill:#3E2E49;}
	.st18{fill:#685A72;}
	.st19{fill:none;}
	.st20{fill:#24162B;}
</style>
<g>
		<g>
			<path class="st2" d="M298.26,1031.67h165.02c0,0,22.16-4.57,28.83-34.77c-2.97-14.43-12.22-26.56-24.77-33.4     c-7.01-3.82-15.05-5.99-23.6-5.99c-6.53,0-12.76,1.26-18.46,3.57c0.21-1.86,0.32-3.74,0.32-5.64c0-27.28-22.12-49.4-49.4-49.4     c-27.28,0-49.4,22.12-49.4,49.4c0,1.91,0.11,3.78,0.33,5.64c-5.71-2.3-11.94-3.57-18.47-3.57c-23.96,0-43.93,17.06-48.44,39.7     c-0.11,0.56-0.21,1.12-0.3,1.68C264.57,1011.9,275.06,1029.19,298.26,1031.67z" />
		</g>
		<g>
			<path class="st17" d="M463.28,1031.67H298.26c-23.2-2.47-33.69-19.77-38.34-32.78c-0.43,2.61-0.65,5.29-0.65,8.02     c0,27.28,22.11,49.39,49.39,49.39h135.08c27.28,0,49.39-22.11,49.39-49.39c0-3.43-0.35-6.77-1.02-10.01     C485.44,1027.1,463.28,1031.67,463.28,1031.67z" />
		</g>
		<g>
			<path class="st17" d="M376.2,1004.43c-6.97,0-12.25,5.71-12.49,12.49c-0.14,3.84,5.84,3.84,5.97,0c0.3-8.41,12.74-8.41,13.04,0     c0.13,3.83,6.11,3.85,5.97,0C388.45,1010.13,383.16,1004.43,376.2,1004.43z" />
			<path class="st17" d="M407.33,969.12c-8.19,4.15-16.37,8.3-24.56,12.45c-3.43,1.74-0.41,6.89,3.01,5.16     c1.89-0.96,3.79-1.92,5.68-2.88c0,2.47,0,4.94,0,7.41c0,3.84,5.97,3.85,5.97,0c0-3.36,0-6.73,0-10.09c0-0.12-0.01-0.23-0.02-0.34     c4.31-2.18,8.62-4.37,12.93-6.55C413.77,972.53,410.75,967.38,407.33,969.12z" />
			<path class="st17" d="M369.62,981.56c-8.19-4.15-16.37-8.3-24.56-12.45c-3.42-1.73-6.45,3.42-3.01,5.16     c4.31,2.18,8.62,4.37,12.93,6.55c-0.01,0.11-0.02,0.22-0.02,0.34c0,3.36,0,6.73,0,10.09c0,3.84,5.97,3.85,5.97,0     c0-2.47,0-4.94,0-7.41c1.89,0.96,3.79,1.92,5.68,2.88C370.03,988.45,373.06,983.3,369.62,981.56z" />
		</g>
		<g>
			<path class="st9" d="M359.32,1092.4l23.98-36.1h-3.45c-0.03,0.03-0.06,0.06-0.09,0.1l-2.06,2.4c-0.69,0.8-1.34,1.62-2.01,2.43     c-1.35,1.62-2.63,3.27-3.92,4.93c-5.11,6.63-9.83,13.49-14.27,20.51l-6.49,10.27l12.73,0.55c2.08,0.09,4.15,0.14,6.22,0.18     c2.08,0.04,4.15,0.06,6.23,0.06h0.66c-1.79,3.79-3.49,7.63-5.11,11.54c-0.79,1.94-1.58,3.88-2.3,5.86l-1.09,2.96l-1.05,2.99     c-1.35,4.01-2.62,8.07-3.55,12.32l20.53-38.55L359.32,1092.4z" />
		</g>
		<g>
			<path class="st7" d="M375.51,1082.81c1.79-3.8,3.5-7.65,5.11-11.55c0.79-1.94,1.58-3.88,2.3-5.86c0.37-0.99,0.75-1.96,1.1-2.96     l1.05-2.99c0.35-1.05,0.71-2.11,1.05-3.17h-2.81l-23.98,36.1l24.95,2.45l-20.53,38.55c3.21-2.94,6.1-6.07,8.89-9.24l2.06-2.4     l2.02-2.43c1.35-1.62,2.63-3.27,3.92-4.92c0.52-0.68,1.04-1.37,1.56-2.06l11.19-25.67L375.51,1082.81z" />
		</g>
		<g>
			<path class="st10" d="M401.38,1083.61l-12.73-0.56c-1.04-0.04-2.07-0.08-3.11-0.1c-1.04-0.03-2.08-0.06-3.11-0.07     c-2.08-0.04-4.15-0.05-6.23-0.06c-0.23,0-0.46,0-0.69,0.01l17.88,3.86l-11.19,25.67c4.51-6,8.73-12.16,12.7-18.46L401.38,1083.61     z" />
		</g>
		<path class="st18" d="M409.1,930.45c-2.03,5.6-10.72-1.01-22.82-5.39c-12.09-4.38-23-4.88-20.97-10.48    c2.03-5.6,13.48-6.58,25.57-2.2S411.13,924.85,409.1,930.45z" />
		<path class="st18" d="M472.1,976.06c-1.39,3.83-7.34-0.69-15.61-3.69c-8.27-3-15.74-3.34-14.35-7.17s9.22-4.5,17.49-1.51    C467.91,966.69,473.49,972.23,472.1,976.06z" />
	</g>
	
</svg>
