<?xml version="1.0" encoding="utf-8"?>
<svg version="1.1" xmlns="http://www.w3.org/2000/svg" viewBox="749.59 2265.12 268.07 296.11">
<style type="text/css">
	.st0{fill:#43A6FF;}
	.st1{fill:#5AE0FF;}
	.st2{fill:#53415E;}
	.st3{fill:#37CDDD;}
	.st4{fill:#9CF1FF;}
	.st5{fill:#76C4FF;}
	.st6{fill:#0A95EA;}
	.st7{fill:#FFDE7C;}
	.st8{fill:#FF97D3;}
	.st9{fill:#FF9D5A;}
	.st10{fill:#FFE8AE;}
	.st11{fill:#FFCCED;}
	.st12{fill:#FF80D5;}
	.st13{fill:#FF7B7B;}
	.st14{fill:#FFA4A4;}
	.st15{fill:#FF5555;}
	.st16{fill:#5FBBFF;}
	.st17{fill:#3E2E49;}
	.st18{fill:#685A72;}
	.st19{fill:none;}
	.st20{fill:#24162B;}
</style>
<g>
		<g>
			<path class="st5" d="M849.36,2313.12l15.89,17.92l15.89-17.92l15.89,17.92l3.6-4.06l-14.07-17.6c-10.87-13.6-31.55-13.6-42.41,0     l-14.16,17.71l3.5,3.94L849.36,2313.12z" />
		</g>
		<g>
			<path class="st0" d="M900.62,2326.98l-3.6,4.06l-15.89-17.92l-15.89,17.92l-15.89-17.92l-15.89,17.92l-3.5-3.94l-37.41,46.79     c8.53,11.15,21.44,23.96,40.6,35.03c3.02-6.38,9.51-10.79,17.03-10.79h107.3L900.62,2326.98z" />
		</g>
		<g>
			<path class="st6" d="M833.17,2408.91c-19.16-11.07-32.06-23.88-40.6-35.03l-21.26,26.59h10.92c4.34,0,7.87,3.52,7.87,7.87     c0,1.06-0.21,2.08-0.6,3.01h23.42c4.35,0,7.87,3.52,7.87,7.87c0,0.85-0.13,1.66-0.38,2.43c-0.39,1.2-1.05,2.27-1.92,3.14     c-1.42,1.43-3.39,2.31-5.57,2.31H796.4c3.83,0,6.93,3.11,6.93,6.93v1.88c0,2.24-1.06,4.24-2.72,5.51     c1.51-0.34,3.08-0.52,4.69-0.52h44.89c-10.4,0-18.84-8.44-18.84-18.84v-5.1C831.36,2414.08,832.01,2411.35,833.17,2408.91z" />
		</g>
		<g>
			<g>
				<g>
					<path class="st20" d="M797.59,2436.23c-0.5,0.37-1.01,0.66-1.58,0.91c0.48-0.2,0.96-0.4,1.43-0.6       c-0.59,0.23-1.18,0.38-1.81,0.47c0.53-0.07,1.06-0.14,1.6-0.21c-0.28,0.03-0.56,0.05-0.84,0.05c1.01,3.73,2.02,7.45,3.03,11.18       c0.18-0.08,0.36-0.16,0.54-0.24c-0.48,0.2-0.96,0.4-1.43,0.6c1.2-0.5,2.42-0.9,3.69-1.19c3.06-0.71,5.16-4.39,4.19-7.38       c-1.04-3.2-4.1-4.95-7.38-4.19c-1.97,0.45-3.82,1.2-5.66,2.03c-0.4,0.31-0.81,0.63-1.21,0.94c-0.59,0.54-1,1.19-1.24,1.93       c-0.5,1.19-0.71,2.64-0.3,3.91c0.82,2.52,3.06,4.41,5.79,4.41c2.51,0,5.22-0.75,7.25-2.25c1.3-0.96,2.31-1.97,2.76-3.59       c0.4-1.44,0.22-3.35-0.6-4.62c-0.83-1.28-2.06-2.41-3.59-2.76C800.74,2435.29,798.87,2435.29,797.59,2436.23z" />
				</g>
			</g>
			<g>
				<g>
					<path class="st20" d="M797.59,2436.23c-0.5,0.37-1.01,0.66-1.58,0.91c0.48-0.2,0.96-0.4,1.43-0.6       c-0.59,0.23-1.18,0.38-1.81,0.47c0.53-0.07,1.06-0.14,1.6-0.21c-0.28,0.03-0.56,0.05-0.84,0.05c1.01,3.73,2.02,7.45,3.03,11.18       c0.18-0.08,0.36-0.16,0.54-0.24c-0.48,0.2-0.96,0.4-1.43,0.6c1.2-0.5,2.42-0.9,3.69-1.19c3.06-0.71,5.16-4.39,4.19-7.38       c-1.04-3.2-4.1-4.95-7.38-4.19c-1.97,0.45-3.82,1.2-5.66,2.03c-0.4,0.31-0.81,0.63-1.21,0.94c-0.59,0.54-1,1.19-1.24,1.93       c-0.5,1.19-0.71,2.64-0.3,3.91c0.82,2.52,3.06,4.41,5.79,4.41c2.51,0,5.22-0.75,7.25-2.25c1.3-0.96,2.31-1.97,2.76-3.59       c0.4-1.44,0.22-3.35-0.6-4.62c-0.83-1.28-2.06-2.41-3.59-2.76C800.74,2435.29,798.87,2435.29,797.59,2436.23z" />
				</g>
			</g>
		</g>
		<g>
			<path class="st3" d="M820.8,2419.22c0,0.85-0.13,1.66-0.38,2.43c-0.39,1.2-1.06,2.27-1.92,3.14c-1.42,1.43-3.39,2.31-5.57,2.31     H796.4c3.83,0,6.93,3.11,6.93,6.93v1.88c0,2.24-1.06,4.24-2.72,5.51c-1.47,0.33-2.89,0.81-4.22,1.43h-42.04     c-3.83,0-6.93-3.11-6.93-6.94v-1.88c0-3.83,3.11-6.93,6.93-6.93h23.05c-3.5,0-6.46-2.28-7.49-5.44     c-0.25-0.77-0.38-1.58-0.38-2.43c0-1.07,0.21-2.08,0.6-3.02h-4.99c-1.89,0-3.63-0.67-4.99-1.78c-1.76-1.44-2.89-3.64-2.89-6.09     c0-2.17,0.88-4.15,2.31-5.57c1.42-1.42,3.39-2.3,5.56-2.3h17.09c4.34,0,7.87,3.52,7.87,7.87c0,1.06-0.21,2.08-0.6,3.01h23.42     C817.28,2411.35,820.8,2414.87,820.8,2419.22z" />
		</g>
		<g>
			<g>
				<path class="st2" d="M847.2,2345.48c0,4.19,0,8.38,0,12.57c0,3.84,5.97,3.85,5.97,0c0-4.19,0-8.38,0-12.57      C853.18,2341.64,847.2,2341.63,847.2,2345.48L847.2,2345.48z" />
			</g>
			<g>
				<path class="st2" d="M877.52,2345.48c0,4.19,0,8.38,0,12.57c0,3.84,5.97,3.85,5.97,0c0-4.19,0-8.38,0-12.57      C883.49,2341.64,877.52,2341.63,877.52,2345.48L877.52,2345.48z" />
			</g>
		</g>
		<g>
			<path class="st2" d="M857.31,2382.17c0.14-4.38,3.55-8.04,8.04-8.04c4.49,0,7.9,3.65,8.04,8.04c0.12,3.83,6.09,3.85,5.97,0     c-0.24-7.61-6.21-14.01-14.01-14.01s-13.77,6.4-14.01,14.01C851.22,2386.02,857.19,2386.01,857.31,2382.17L857.31,2382.17z" />
		</g>
		<g>
			<path class="st3" d="M888.7,2513.23h46.44c5.9,0,11.25-2.39,15.12-6.27c1.62-1.62,2.98-3.5,4.01-5.57h-84.7     C873.08,2508.41,880.32,2513.23,888.7,2513.23z" />
		</g>
		<g>
			<path class="st1" d="M964.43,2398.12H850.2c-10.4,0-18.84,8.44-18.84,18.84v5.1c0,10.4,8.44,18.84,18.84,18.84h-44.89     c-1.61,0-3.18,0.18-4.69,0.52c-1.17,0.9-2.63,1.43-4.22,1.43h-0.01c-2.32,1.06-4.41,2.53-6.2,4.32     c-3.87,3.87-6.27,9.22-6.27,15.12c0,11.81,9.57,21.39,21.38,21.39h63.62c-1.05,2.52-1.62,5.28-1.62,8.18     c0,3.43,0.81,6.68,2.25,9.55h84.7c1.44-2.88,2.25-6.12,2.25-9.55c0-11.81-9.57-21.38-21.38-21.38h-13.55     c1.05-2.52,1.62-5.28,1.62-8.19c0-11.81-9.57-21.38-21.38-21.38h62.6c10.4,0,18.84-8.44,18.84-18.84v-5.1     C983.27,2406.56,974.83,2398.12,964.43,2398.12z" />
		</g>
		<path class="st4" d="M969.66,2414.18h-30.78c-3.21,0-5.8-2.6-5.8-5.8l0,0c0-3.21,2.6-5.8,5.8-5.8h30.78c3.21,0,5.8,2.6,5.8,5.8    l0,0C975.46,2411.58,972.86,2414.18,969.66,2414.18z" />
		<path class="st4" d="M832.98,2461.37H802.2c-3.21,0-5.8-2.6-5.8-5.8l0,0c0-3.21,2.6-5.8,5.8-5.8h30.78c3.21,0,5.8,2.6,5.8,5.8l0,0    C838.79,2458.77,836.19,2461.37,832.98,2461.37z" />
	</g>
	
</svg>
