<?xml version="1.0" encoding="utf-8"?>
<svg version="1.1" xmlns="http://www.w3.org/2000/svg" viewBox="1841.78 1262.62 315.67 269.13">
<style type="text/css">
	.st0{fill:#43A6FF;}
	.st1{fill:#5AE0FF;}
	.st2{fill:#53415E;}
	.st3{fill:#37CDDD;}
	.st4{fill:#9CF1FF;}
	.st5{fill:#76C4FF;}
	.st6{fill:#0A95EA;}
	.st7{fill:#FFDE7C;}
	.st8{fill:#FF97D3;}
	.st9{fill:#FF9D5A;}
	.st10{fill:#FFE8AE;}
	.st11{fill:#FFCCED;}
	.st12{fill:#FF80D5;}
	.st13{fill:#FF7B7B;}
	.st14{fill:#FFA4A4;}
	.st15{fill:#FF5555;}
	.st16{fill:#5FBBFF;}
	.st17{fill:#3E2E49;}
	.st18{fill:#685A72;}
	.st19{fill:none;}
	.st20{fill:#24162B;}
</style>
<g>
		<g>
			<path class="st2" d="M2109.45,1411.05c0,62.71-50.84,113.55-113.55,113.55c-1.19,0-2.37-0.02-3.55-0.05     c-17.92-9.48-33-23.61-43.62-40.79c-8.84-14.29-14.6-30.69-16.34-48.27c-0.38-3.74-0.57-7.53-0.57-11.38     c0-62.71,50.83-113.54,113.55-113.54c1.19,0,2.37,0.02,3.55,0.05h0.01C2084.92,1329.66,2109.45,1367.49,2109.45,1411.05z" />
		</g>
		<g>
			<path class="st7" d="M1931.82,1424.11c0,3.84,0.19,7.63,0.57,11.38c1.74,17.58,7.5,33.98,16.34,48.27     c10.62,17.18,25.7,31.31,43.62,40.79c-61.07-1.88-110-51.97-110-113.49c0-62.71,50.83-113.55,113.55-113.55     c19.15,0,37.19,4.74,53.02,13.12c-1.18-0.03-2.36-0.05-3.55-0.05C1982.66,1310.56,1931.82,1361.4,1931.82,1424.11z" />
		</g>
		<g>
			<path class="st2" d="M1918.22,1363.86c0,4.37,0,8.75,0,13.12c0,3.84,5.97,3.85,5.97,0c0-4.37,0-8.75,0-13.12     C1924.19,1360.02,1918.22,1360.01,1918.22,1363.86L1918.22,1363.86z" />
		</g>
		<g>
			<circle class="st9" cx="1902.2" cy="1413.32" r="10.43" />
		</g>
		<g>
			<path class="st9" d="M1948.73,1483.75c-3.13,1.37-6.59,2.13-10.23,2.13c-14.12,0-25.57-11.45-25.57-25.57     c0-12.02,8.29-22.1,19.46-24.83C1934.13,1453.06,1939.89,1469.46,1948.73,1483.75z" />
		</g>
		<g>
			<path class="st9" d="M1889.78,1451.3c15.85,41.79,55.65,71.8,102.65,73.25c-7.8-4.12-15.05-9.13-21.64-14.89     C1930.33,1498.16,1904.5,1471.83,1889.78,1451.3z" />
		</g>
		<g>
			<path class="st10" d="M2048.92,1310.62c-15.83-8.38-33.87-13.12-53.02-13.12c-17.77,0-34.58,4.08-49.55,11.36     c21.3-2.38,45.62-1.96,66.64,6.4c10.26-3.05,21.13-4.69,32.38-4.69C2046.56,1310.56,2047.74,1310.58,2048.92,1310.62z" />
		</g>
		<g>
			<path class="st17" d="M2103.38,1374.3c-7.32,38.96-35.99,98.58-134.59,133.57c7.09,6.48,14.99,12.08,23.55,16.61     c1.18,0.03,2.36,0.05,3.55,0.05c62.71,0,113.55-50.84,113.55-113.55C2109.45,1398.15,2107.31,1385.81,2103.38,1374.3z" />
		</g>
	</g>
	
</svg>
