<?xml version="1.0" encoding="utf-8"?>
<svg version="1.1" xmlns="http://www.w3.org/2000/svg" viewBox="218.15 572.32 299.24 240.01">
<style type="text/css">
	.st0{fill:#43A6FF;}
	.st1{fill:#5AE0FF;}
	.st2{fill:#53415E;}
	.st3{fill:#37CDDD;}
	.st4{fill:#9CF1FF;}
	.st5{fill:#76C4FF;}
	.st6{fill:#0A95EA;}
	.st7{fill:#FFDE7C;}
	.st8{fill:#FF97D3;}
	.st9{fill:#FF9D5A;}
	.st10{fill:#FFE8AE;}
	.st11{fill:#FFCCED;}
	.st12{fill:#FF80D5;}
	.st13{fill:#FF7B7B;}
	.st14{fill:#FFA4A4;}
	.st15{fill:#FF5555;}
	.st16{fill:#5FBBFF;}
	.st17{fill:#3E2E49;}
	.st18{fill:#685A72;}
	.st19{fill:none;}
	.st20{fill:#24162B;}
</style>
<g>
		<g>
			<path class="st2" d="M467.65,655.75c-7.04-3.83-15.1-6.02-23.69-6.02c-6.55,0-12.8,1.27-18.52,3.58     c0.21-1.87,0.32-3.75,0.32-5.66c0-27.38-22.19-49.57-49.57-49.57c-27.38,0-49.57,22.19-49.57,49.57c0,1.91,0.12,3.8,0.33,5.66     c-5.73-2.31-11.98-3.58-18.53-3.58c-24.05,0-44.08,17.12-48.6,39.84c-0.63,3.15-0.96,6.4-0.96,9.73c0,5.01,0.75,9.85,2.13,14.41     c7.8-1.49,18.7-2.46,23.94,2.17c0,0,26.75-32.98,54.5,0c0,0,23.21-2.67,25.74,14.06h117.74c6.64-8.43,10.6-19.07,10.6-30.64     C493.53,680.51,483.07,664.15,467.65,655.75z" />
		</g>
		<g>
			<path class="st17" d="M339.45,715.89c-27.76-32.98-54.5,0-54.5,0c-5.24-4.63-16.15-3.66-23.94-2.17     c2.52,8.3,7.15,15.67,13.27,21.5c2.96-1.59,6.34-2.5,9.93-2.5c2.77,0,5.42,0.53,7.84,1.51c-0.09-0.79-0.14-1.59-0.14-2.39     c0-11.58,9.39-20.97,20.97-20.97s20.97,9.39,20.97,20.97c0,0.81-0.04,1.6-0.13,2.39c2.42-0.98,5.07-1.51,7.84-1.51     c3.63,0,7.04,0.92,10.02,2.54c5.16,2.81,9.01,7.73,10.39,13.61h82.02c15.81,0,29.88-7.4,38.96-18.92H365.18     C362.66,713.22,339.45,715.89,339.45,715.89z" />
		</g>
		<g>
			<g>
				<path class="st17" d="M389.61,677.73c0,2.78,0,5.55,0,8.33c0,3.84,5.97,3.85,5.97,0c0-2.78,0-5.55,0-8.33      C395.58,673.89,389.61,673.88,389.61,677.73L389.61,677.73z" />
			</g>
			<g>
				<path class="st17" d="M356.81,677.73c0,2.78,0,5.55,0,8.33c0,3.84,5.97,3.85,5.97,0c0-2.78,0-5.55,0-8.33      C362.78,673.89,356.81,673.88,356.81,677.73L356.81,677.73z" />
			</g>
		</g>
		<g>
			<path class="st17" d="M370.6,707.76c0.28-7.21,10.91-7.23,11.19,0c0.15,3.83,6.12,3.85,5.97,0c-0.24-6.26-5.1-11.59-11.56-11.57     c-6.47,0.02-11.32,5.27-11.56,11.57C364.48,711.6,370.46,711.59,370.6,707.76L370.6,707.76z" />
		</g>
		<g>
			<path class="st2" d="M362.51,753.68c0-1.66-0.19-3.27-0.56-4.82c-1.38-5.87-5.23-10.79-10.39-13.61     c-2.98-1.62-6.39-2.54-10.02-2.54c-2.77,0-5.42,0.53-7.84,1.51c0.09-0.79,0.13-1.59,0.13-2.39c0-11.58-9.39-20.97-20.97-20.97     s-20.97,9.39-20.97,20.97c0,0.81,0.05,1.6,0.14,2.39c-2.42-0.98-5.07-1.51-7.84-1.51c-3.59,0-6.98,0.91-9.93,2.5     c-5.41,2.91-9.39,8.13-10.62,14.35c-0.27,1.33-0.41,2.71-0.41,4.12c0,3.89,1.06,7.53,2.91,10.65h93.45     C361.44,761.21,362.51,757.57,362.51,753.68z" />
		</g>
		<g>
			<path class="st17" d="M266.15,764.33c3.65,6.17,10.37,10.31,18.06,10.31h57.34c7.69,0,14.41-4.14,18.05-10.31H266.15z" />
		</g>
		<path class="st18" d="M403.47,620.32c-1.5,5.8-10.04,1.83-21.11-1.04c-11.06-2.87-20.46-3.54-18.95-9.34    c1.5-5.8,11.69-8.18,22.75-5.31S404.97,614.52,403.47,620.32z" />
		<path class="st18" d="M469.39,668.69c-1.19,4.59-7.96,1.45-16.72-0.82c-8.76-2.27-16.2-2.81-15.01-7.4    c1.19-4.59,9.26-6.48,18.02-4.21C464.44,658.53,470.58,664.1,469.39,668.69z" />
	</g>
	
</svg>
