<?xml version="1.0" encoding="utf-8"?>
<svg version="1.1" xmlns="http://www.w3.org/2000/svg" viewBox="1241.03 552.86 306.32 313.04">
<style type="text/css">
	.st0{fill:#43A6FF;}
	.st1{fill:#5AE0FF;}
	.st2{fill:#53415E;}
	.st3{fill:#37CDDD;}
	.st4{fill:#9CF1FF;}
	.st5{fill:#76C4FF;}
	.st6{fill:#0A95EA;}
	.st7{fill:#FFDE7C;}
	.st8{fill:#FF97D3;}
	.st9{fill:#FF9D5A;}
	.st10{fill:#FFE8AE;}
	.st11{fill:#FFCCED;}
	.st12{fill:#FF80D5;}
	.st13{fill:#FF7B7B;}
	.st14{fill:#FFA4A4;}
	.st15{fill:#FF5555;}
	.st16{fill:#5FBBFF;}
	.st17{fill:#3E2E49;}
	.st18{fill:#685A72;}
	.st19{fill:none;}
	.st20{fill:#24162B;}
</style>
<g>
		<g>
			<path class="st3" d="M1491.59,817.9h-101.94c-17.46-1.27-26.8-8.66-31.78-15.72c0.1,1.21,0.25,2.4,0.47,3.57     c2.93,15.49,16.54,27.21,32.88,27.21h91.53c18.48,0,33.47-14.98,33.47-33.47c0-0.38-0.01-0.75-0.02-1.12     C1507.33,816.18,1491.59,817.9,1491.59,817.9z" />
		</g>
		<g>
			<path class="st1" d="M1389.65,817.9h101.94c0,0,15.74-1.72,24.61-19.53c-0.34-10.33-5.36-19.47-13-25.38     c-1.4-1.08-2.89-2.06-4.45-2.91c-4.32-2.35-9.22-3.78-14.43-4.02c-0.52-0.03-1.04-0.04-1.57-0.04c-4.42,0-8.65,0.86-12.51,2.42     c0.15-1.26,0.22-2.53,0.22-3.83c0-4.6-0.93-8.99-2.61-12.98c-3.24-7.7-9.28-13.93-16.84-17.42c-4.26-1.97-9.01-3.07-14.02-3.07     c-18.48,0-33.47,14.99-33.47,33.47c0,1.29,0.08,2.56,0.22,3.83c-3.71-1.5-7.74-2.34-11.96-2.41c-0.18,0-0.37,0-0.55,0     c-3.82,0-7.49,0.64-10.91,1.82c-7.94,2.74-14.53,8.38-18.49,15.66c-1.33,2.44-2.37,5.07-3.06,7.83     c-0.13,0.53-0.25,1.06-0.36,1.59c-0.42,2.13-0.65,4.32-0.65,6.57c0,0.91,0.04,1.8,0.11,2.69     C1362.85,809.23,1372.19,816.63,1389.65,817.9z" />
		</g>
		<g>
			<path class="st13" d="M1399.91,600.86c-64.64,0-117.04,52.4-117.04,117.04c0,15.08,2.85,29.49,8.05,42.72     c2.98-6.62,9.17-11.49,16.59-12.6c-3.09-9.49-4.76-19.61-4.76-30.12c0-53.66,43.5-97.16,97.16-97.16s97.16,43.5,97.16,97.16     c0,17.52-4.64,33.96-12.75,48.15c5.21,0.24,10.11,1.67,14.43,4.02c1.56,0.85,3.05,1.83,4.45,2.91     c8.78-16.42,13.75-35.17,13.75-55.08C1516.95,653.26,1464.55,600.86,1399.91,600.86z" />
		</g>
		<g>
			<path class="st7" d="M1399.91,620.74c-53.66,0-97.16,43.5-97.16,97.16c0,10.52,1.67,20.64,4.76,30.12     c1.06-0.16,2.15-0.24,3.26-0.24c2.88,0,5.62,0.56,8.14,1.57c-0.1-0.82-0.15-1.65-0.15-2.49c0-6.08,2.49-11.57,6.5-15.51     c-0.78-4.37-1.19-8.86-1.19-13.45c0-41.88,33.95-75.83,75.83-75.83s75.83,33.95,75.83,75.83c0,12.11-2.84,23.57-7.89,33.73     c1.68,3.99,2.61,8.38,2.61,12.98c0,1.29-0.07,2.56-0.22,3.83c3.86-1.56,8.09-2.42,12.51-2.42c0.53,0,1.05,0.01,1.57,0.04     c8.11-14.19,12.75-30.63,12.75-48.15C1497.07,664.24,1453.57,620.74,1399.91,620.74z" />
		</g>
		<g>
			<path class="st8" d="M1399.91,642.07c-41.88,0-75.83,33.95-75.83,75.83c0,4.59,0.41,9.08,1.19,13.45     c3.93-3.87,9.32-6.26,15.27-6.26c2.21,0,4.35,0.33,6.36,0.95c-0.4-2.65-0.61-5.37-0.61-8.14c0-29.61,24.01-53.62,53.62-53.62     s53.62,24.01,53.62,53.62c0,5.68-0.89,11.16-2.52,16.3c7.56,3.49,13.6,9.72,16.84,17.42c5.05-10.16,7.89-21.61,7.89-33.73     C1475.74,676.02,1441.8,642.07,1399.91,642.07z" />
		</g>
		<g>
			<g>
				<g>
					<path class="st2" d="M1418.53,777.01c0,2.86,0,5.72,0,8.58c0,3.84,5.97,3.85,5.97,0c0-2.86,0-5.72,0-8.58       C1424.5,773.17,1418.53,773.16,1418.53,777.01L1418.53,777.01z" />
				</g>
				<g>
					<path class="st2" d="M1450.77,777.01c0,2.86,0,5.72,0,8.58c0,3.84,5.97,3.85,5.97,0c0-2.86,0-5.72,0-8.58       C1456.74,773.17,1450.77,773.16,1450.77,777.01L1450.77,777.01z" />
				</g>
			</g>
			<g>
				<path class="st2" d="M1443.03,798.89c-0.28,6.96-10.51,6.97-10.8,0c-0.15-3.83-6.13-3.85-5.97,0      c0.25,6.15,5.01,11.39,11.37,11.37c6.37-0.02,11.12-5.18,11.37-11.37C1449.16,795.05,1443.19,795.05,1443.03,798.89      L1443.03,798.89z" />
			</g>
		</g>
		<g>
			<path class="st6" d="M1289.03,770.38c0.41,10.94,8.88,19.81,19.65,20.83c0.69,0.07,1.39,0.1,2.1,0.1h47.99     c0.69-2.76,1.73-5.39,3.06-7.83c1.27-2.33,2.8-4.48,4.56-6.43l-63.64-0.03C1295.78,777.44,1291.57,774.25,1289.03,770.38z" />
		</g>
		<g>
			<path class="st0" d="M1380.7,750.42c-3.09-1.69-6.63-2.64-10.4-2.64c-2.88,0-5.62,0.56-8.14,1.57c0.09-0.82,0.14-1.65,0.14-2.49     c0-9.81-6.49-18.1-15.41-20.82c-2.02-0.62-4.15-0.95-6.36-0.95c-5.95,0-11.34,2.39-15.27,6.26c-4.02,3.95-6.5,9.44-6.5,15.51     c0,0.84,0.05,1.67,0.15,2.49c-2.52-1.02-5.27-1.57-8.14-1.57c-1.11,0-2.2,0.08-3.26,0.24c-7.42,1.11-13.62,5.98-16.59,12.6     c-0.66,1.47-1.16,3.03-1.49,4.65c-0.28,1.38-0.42,2.82-0.42,4.28c0,0.28,0.01,0.55,0.02,0.83c2.54,3.87,6.75,7.06,13.73,6.64     l63.64,0.03c3.75-4.15,8.52-7.36,13.92-9.22c3.42-1.17,7.09-1.82,10.91-1.82c0.18,0,0.37,0,0.55,0     C1390.68,759.27,1386.49,753.57,1380.7,750.42z" />
		</g>
		<path class="st4" d="M1457.45,747.46c-1.33,4.66-7.18-0.19-15.44-2.54c-8.26-2.35-15.79-1.32-14.46-5.98    c1.33-4.66,9.1-6.53,17.35-4.18S1458.78,742.8,1457.45,747.46z" />
		<path class="st4" d="M1499.35,778.12c-0.94,3.29-5.07-0.13-10.9-1.79c-5.83-1.66-11.14-0.93-10.21-4.22s6.42-4.61,12.25-2.95    C1496.32,770.82,1500.29,774.83,1499.35,778.12z" />
		<path class="st5" d="M1354.01,737.9c-0.94,3.29-5.07-0.13-10.9-1.79c-5.83-1.66-11.14-0.93-10.21-4.22s6.42-4.61,12.25-2.95    C1350.98,730.6,1354.95,734.61,1354.01,737.9z" />
	</g>
	
</svg>
