<?xml version="1.0" encoding="utf-8"?>
<svg version="1.1" xmlns="http://www.w3.org/2000/svg" viewBox="1273.30 222.84 276.72 298.58">
<style type="text/css">
	.st0{fill:#43A6FF;}
	.st1{fill:#5AE0FF;}
	.st2{fill:#53415E;}
	.st3{fill:#37CDDD;}
	.st4{fill:#9CF1FF;}
	.st5{fill:#76C4FF;}
	.st6{fill:#0A95EA;}
	.st7{fill:#FFDE7C;}
	.st8{fill:#FF97D3;}
	.st9{fill:#FF9D5A;}
	.st10{fill:#FFE8AE;}
	.st11{fill:#FFCCED;}
	.st12{fill:#FF80D5;}
	.st13{fill:#FF7B7B;}
	.st14{fill:#FFA4A4;}
	.st15{fill:#FF5555;}
	.st16{fill:#5FBBFF;}
	.st17{fill:#3E2E49;}
	.st18{fill:#685A72;}
	.st19{fill:none;}
	.st20{fill:#24162B;}
</style>
<g>
		<g>
			<path class="st17" d="M1414.27,441.13c0,0.84,0.05,1.67,0.14,2.48c-2.51-1.02-5.25-1.57-8.12-1.57c-7.25,0-13.66,3.54-17.6,9     c-3.35-1.81-5.32-4.04-5.32-6.45c0-4.89,8.12-9.03,19.35-10.48c3.62,0.97,7.71,1.69,12.11,2.09     C1414.46,437.79,1414.27,439.44,1414.27,441.13z" />
		</g>
		<g>
			<path class="st17" d="M1388.48,451.34c-1.68,2.41-2.89,5.17-3.48,8.16c-0.28,1.38-0.42,2.81-0.42,4.27     c-1.21-1.64-2.76-3-4.56-3.98c-1.06-0.58-2.21-1.02-3.42-1.31C1376.73,455.32,1381.56,452.59,1388.48,451.34z" />
		</g>
		<g>
			<path class="st2" d="M1390.47,294.43c73.27-5.23,109.77-6.64,111.55-23.59c-18.48-11.3-57.26-19.08-102.11-19.08     c-54.4,0-99.87,11.45-111.01,26.74C1303.78,287.32,1334.23,298.45,1390.47,294.43z" />
		</g>
		<g>
			<path class="st17" d="M1502.02,270.84c-1.78,16.95-38.28,18.36-111.55,23.59c-56.24,4.02-86.7-7.11-101.57-15.94     c-1.71,2.35-2.62,4.78-2.62,7.29c0,9.19,12.16,17.52,31.91,23.65c20.66,6.4,49.64,10.38,81.72,10.38     c40.58,0,76.19-6.37,96.29-15.95c10.99-5.24,17.34-11.44,17.34-18.08C1513.55,280.42,1509.4,275.35,1502.02,270.84z" />
		</g>
		<g>
			<path class="st2" d="M1410.63,336.15c62.23-1.71,86.31-11.93,94.04-24.4c-1.54-2.79-4.43-5.44-8.47-7.89     c-20.1,9.58-55.71,15.95-96.29,15.95c-32.08,0-61.06-3.98-81.72-10.38c-1.9,2.25-2.91,4.6-2.91,7.03c0,0.51,0.05,1.02,0.14,1.53     C1327.93,325.25,1357.29,337.61,1410.63,336.15z" />
		</g>
		<g>
			<path class="st17" d="M1410.63,336.15c-53.34,1.46-82.7-10.91-95.2-18.16c1.39,7.88,13.44,14.91,31.91,19.82     c16.84,4.48,39.01,7.2,63.3,7.2c33,0,62.09-5.02,79.2-12.65c10.2-4.54,16.14-10.01,16.14-15.9c0-1.6-0.45-3.18-1.3-4.71     C1496.93,324.22,1472.86,334.44,1410.63,336.15z" />
		</g>
		<g>
			<path class="st2" d="M1501.02,341.26c-1.71-3.23-5.6-6.25-11.2-8.9c-17.11,7.63-46.2,12.65-79.2,12.65     c-24.29,0-46.46-2.72-63.3-7.2c-2.41,2.27-3.72,4.69-3.72,7.2c0,0.75,0.12,1.49,0.34,2.22c9.66,4.06,27.4,9.12,55.96,9.12     C1440.67,356.34,1487.76,355.95,1501.02,341.26z" />
		</g>
		<g>
			<path class="st17" d="M1399.91,356.34c-28.56,0-46.3-5.05-55.96-9.12c2.14,6.9,14.15,12.95,31.78,16.85     c13.16,2.92,29.45,4.65,47.09,4.65c20.3,0,38.81-2.28,52.82-6.05c16.19-4.34,26.38-10.65,26.38-17.67c0-1.27-0.35-2.52-1-3.75     C1487.76,355.95,1440.67,356.34,1399.91,356.34z" />
		</g>
		<g>
			<path class="st17" d="M1366.61,374.74c-0.14,0.66-0.22,1.33-0.22,2c0,6.12,5.92,11.7,15.63,15.9c11.07,4.8,27.08,7.81,44.88,7.81     c17.64,0,33.51-2.96,44.57-7.68c9.9-4.22,15.95-9.85,15.95-16.04c0-0.01,0-0.01,0-0.02c-8.49,7.36-26.87,13.07-58.26,15.92     C1398.42,395.43,1376.85,382.7,1366.61,374.74z" />
		</g>
		<g>
			<path class="st2" d="M1475.64,362.68c-14.01,3.76-32.53,6.05-52.82,6.05c-17.64,0-33.92-1.73-47.09-4.65     c-5.06,3.13-8.28,6.76-9.11,10.66c10.24,7.96,31.81,20.7,62.55,17.9c31.39-2.85,49.77-8.56,58.26-15.92     C1487.41,371.46,1483.04,366.6,1475.64,362.68z" />
		</g>
		<g>
			<path class="st2" d="M1474.7,398.36c-0.35-1.96-1.46-3.84-3.22-5.59c-11.06,4.72-26.93,7.68-44.57,7.68     c-17.81,0-33.81-3.02-44.88-7.81c-2.23,2.16-3.47,4.52-3.5,6.99c8.89,3.58,27,9.66,48.49,10.2     C1446.74,410.32,1459.38,408.8,1474.7,398.36z" />
		</g>
		<g>
			<path class="st17" d="M1427.02,409.83c-21.49-0.54-39.6-6.62-48.49-10.2c0,0.03,0,0.06,0,0.08c0,5.62,6.27,10.66,16.2,14.12     c8.5,2.96,19.69,4.75,31.95,4.75c10.03,0,19.35-1.2,27.06-3.26c12.73-3.39,21.09-9.12,21.09-15.61c0-0.46-0.05-0.91-0.14-1.36     C1459.38,408.8,1446.74,410.32,1427.02,409.83z" />
		</g>
		<path class="st19" d="M1417.39,429.92c1.6-0.01,3.25-0.08,4.93-0.24c13.04-1.21,21.59-2.78,27.88-4.98    c-3.81-3.29-8.77-5.29-14.2-5.29C1428.1,419.41,1421.19,423.62,1417.39,429.92z" />
		<g>
			<path class="st17" d="M1387.08,422.51c0,4.82,6.2,9.08,15.64,11.61c3.62,0.97,7.71,1.69,12.11,2.09c0.2-0.86,0.45-1.7,0.75-2.51     c0.48-1.32,1.09-2.59,1.81-3.77c-13.46,0.07-23.93-4.71-30.18-8.58C1387.12,421.73,1387.08,422.12,1387.08,422.51z" />
		</g>
		<g>
			<path class="st2" d="M1453.74,415.32c-7.71,2.06-17.03,3.26-27.06,3.26c-12.26,0-23.45-1.8-31.95-4.75     c-4.21,2.1-6.93,4.68-7.52,7.5c6.25,3.87,16.72,8.65,30.18,8.58c3.8-6.3,10.72-10.51,18.61-10.51c5.43,0,10.39,2,14.2,5.29     c3.27-1.14,5.94-2.46,8.29-3.98C1457.85,418.77,1456.2,416.94,1453.74,415.32z" />
		</g>
		<g>
			<path class="st17" d="M1450.2,424.7c1.56,1.35,2.93,2.91,4.06,4.65c2.88-2.03,4.52-4.35,4.52-6.84c0-0.61-0.1-1.21-0.29-1.79     C1456.13,422.25,1453.47,423.56,1450.2,424.7z" />
		</g>
		<g>
			<path class="st6" d="M1321.3,471.51c-0.01,0.18-0.01,0.35-0.01,0.53c0,7.7,6.24,13.94,13.94,13.94h38.12     c7.02,0,12.83-5.19,13.79-11.95c0.02-0.11,0.02-0.23,0.04-0.34c-6.34,2.73-16.78,4.27-32.89,4.44     C1336.24,478.32,1326.51,474.93,1321.3,471.51z" />
		</g>
		<g>
			<path class="st0" d="M1385.53,465.26c-0.29-0.51-0.61-1.01-0.96-1.48v0c-1.21-1.64-2.76-3-4.56-3.98     c-1.06-0.58-2.21-1.02-3.42-1.31c-1.04-0.24-2.13-0.38-3.24-0.38c-1.84,0-3.6,0.35-5.21,1.01c0.06-0.52,0.09-1.05,0.09-1.59     c0-7.7-6.24-13.94-13.94-13.94c-7.7,0-13.94,6.24-13.94,13.94c0,0.54,0.03,1.07,0.09,1.59c-1.61-0.65-3.37-1.01-5.22-1.01     c-6.76,0-12.4,4.81-13.67,11.2c-0.15,0.72-0.23,1.46-0.26,2.21c5.21,3.41,14.94,6.8,32.99,6.61c16.11-0.17,26.55-1.71,32.89-4.44     c0.06-0.54,0.11-1.09,0.11-1.65C1387.29,469.58,1386.65,467.27,1385.53,465.26z" />
		</g>
		<g>
			<path class="st1" d="M1400.57,473.42c15.48,1.35,70.99,0,70.99,0s11.89-1.86,15.09-15.41c-1.58-5.74-5.45-10.53-10.56-13.32     c-3.09-1.68-6.62-2.63-10.38-2.63c-2.87,0-5.61,0.55-8.12,1.57c0.09-0.82,0.14-1.64,0.14-2.48c0-4.34-1.27-8.39-3.47-11.78     c-3.87-5.98-10.6-9.94-18.26-9.94c-9.39,0-17.38,5.95-20.42,14.28c-0.3,0.82-0.55,1.66-0.75,2.51c-0.37,1.58-0.56,3.23-0.56,4.93     c0,0.84,0.05,1.67,0.14,2.48c-2.51-1.02-5.25-1.57-8.12-1.57c-7.25,0-13.66,3.54-17.6,9c-0.07,0.1-0.14,0.2-0.21,0.3     c-1.66,2.38-2.86,5.11-3.46,8.05C1387.43,465.6,1392.04,472.67,1400.57,473.42z" />
		</g>
		<g>
			<path class="st3" d="M1471.55,473.42c0,0-55.51,1.35-70.99,0c-8.53-0.74-13.13-7.82-15.55-14.02c-0.01,0.04-0.02,0.07-0.02,0.11     c-0.28,1.38-0.42,2.81-0.42,4.27v0c0.35,0.47,0.67,0.97,0.96,1.48c1.12,2.01,1.76,4.32,1.76,6.78c0,0.68-0.05,1.34-0.14,1.99     c3.66,6.82,10.86,11.46,19.15,11.46h59.41c12,0,21.72-9.72,21.72-21.72c0-2-0.27-3.93-0.78-5.77     C1483.45,471.56,1471.55,473.42,1471.55,473.42z" />
		</g>
		<path class="st4" d="M1449.82,430.09c-0.89,3.12-4.82-0.13-10.35-1.7s-10.58-0.88-9.69-4.01c0.89-3.12,6.1-4.38,11.63-2.8    C1446.95,423.16,1450.71,426.97,1449.82,430.09z" />
		<path class="st5" d="M1363.57,451.24c-0.62,2.16-3.33-0.09-7.16-1.18c-3.83-1.09-7.32-0.61-6.71-2.77    c0.62-2.16,4.22-3.03,8.05-1.94C1361.58,446.44,1364.19,449.08,1363.57,451.24z" />
		<path class="st5" d="M1380.67,464.04c-0.42,1.47-2.26-0.06-4.86-0.8c-2.6-0.74-4.97-0.41-4.55-1.88c0.42-1.47,2.86-2.06,5.46-1.32    C1379.32,460.78,1381.08,462.57,1380.67,464.04z" />
		<path class="st4" d="M1476.79,448.78c-0.47,1.64-2.53-0.07-5.43-0.89c-2.91-0.83-5.56-0.46-5.09-2.1c0.47-1.64,3.2-2.3,6.11-1.47    S1477.25,447.14,1476.79,448.78z" />
	</g>
	
</svg>
