<?xml version="1.0" encoding="utf-8"?>
<svg version="1.1" xmlns="http://www.w3.org/2000/svg" viewBox="1851.31 596.42 310.93 254.26">
<style type="text/css">
	.st0{fill:#43A6FF;}
	.st1{fill:#5AE0FF;}
	.st2{fill:#53415E;}
	.st3{fill:#37CDDD;}
	.st4{fill:#9CF1FF;}
	.st5{fill:#76C4FF;}
	.st6{fill:#0A95EA;}
	.st7{fill:#FFDE7C;}
	.st8{fill:#FF97D3;}
	.st9{fill:#FF9D5A;}
	.st10{fill:#FFE8AE;}
	.st11{fill:#FFCCED;}
	.st12{fill:#FF80D5;}
	.st13{fill:#FF7B7B;}
	.st14{fill:#FFA4A4;}
	.st15{fill:#FF5555;}
	.st16{fill:#5FBBFF;}
	.st17{fill:#3E2E49;}
	.st18{fill:#685A72;}
	.st19{fill:none;}
	.st20{fill:#24162B;}
</style>
<g>
		<g>
			<path class="st2" d="M2114.24,735.93c0,46.87-38,84.87-84.87,84.87c-18.23,0-35.12-5.75-48.95-15.53     c-8.38-5.93-15.64-13.34-21.39-21.85c-9.17-13.56-14.53-29.9-14.53-47.5c0-46.87,38-84.87,84.87-84.87     c4.77,0,9.44,0.39,13.99,1.15c12.33,2.05,23.77,6.75,33.69,13.51C2099.5,680.99,2114.24,706.73,2114.24,735.93z" />
		</g>
		<g>
			<path class="st7" d="M2077.45,644.42l-0.39,21.29c-9.92-6.76-21.36-11.46-33.69-13.51c-14.31-13.85-33.81-22.37-55.3-22.37     c-43.92,0-79.53,35.61-79.53,79.53c0,33.67,20.93,62.46,50.49,74.05c5.75,8.51,13.01,15.92,21.39,21.85l-26.49,9.19l-20.67-29.64     l-34.57-10.51l0.66-36.12l-21.76-28.82l21.76-28.83l-0.66-36.12l34.57-10.51l20.67-29.64l34.14,11.84l34.15-11.84l20.66,29.64     L2077.45,644.42z" />
		</g>
		<g>
			<path class="st8" d="M2043.36,652.21c-4.55-0.76-9.23-1.15-13.99-1.15c-46.87,0-84.87,38-84.87,84.87     c0,17.6,5.35,33.94,14.53,47.5c-29.56-11.6-50.49-40.38-50.49-74.05c0-43.93,35.61-79.53,79.53-79.53     C2009.55,629.84,2029.05,638.36,2043.36,652.21z" />
		</g>
		<g>
			<path class="st2" d="M1938.41,679.71c0,3.7,0,7.4,0,11.1c0,3.84,5.97,3.85,5.97,0c0-3.7,0-7.4,0-11.1     C1944.38,675.87,1938.41,675.86,1938.41,679.71L1938.41,679.71z" />
		</g>
		<g>
			<path class="st12" d="M1917.46,672.75c-5.7,10.96-8.92,23.42-8.92,36.63c0,33.67,20.93,62.46,50.49,74.05     c-9.17-13.56-14.53-29.9-14.53-47.5c0-4.09,0.3-8.12,0.86-12.06C1929.73,711.85,1921.62,690.22,1917.46,672.75z" />
		</g>
		<g>
			<path class="st9" d="M1899.31,680.57l-21.76,28.83l21.76,28.82l-0.66,36.12l34.57,10.51l20.67,29.64l26.49-9.19     c-8.38-5.93-15.64-13.34-21.39-21.85c-29.56-11.6-50.49-40.38-50.49-74.05c0-16.97,5.32-32.69,14.37-45.6l-24.22-19.35     L1899.31,680.57z" />
		</g>
		<g>
			<path class="st11" d="M2043.36,652.21c-14.31-13.85-33.81-22.37-55.3-22.37c-10.66,0-20.83,2.1-30.12,5.91     c17.88,0.05,38.95,3.65,56.06,16.7c4.99-0.91,10.12-1.39,15.37-1.39C2034.14,651.06,2038.81,651.45,2043.36,652.21z" />
		</g>
		<g>
			<path class="st17" d="M1976.95,802.68c1.14,0.89,2.29,1.76,3.47,2.6c13.83,9.78,30.72,15.53,48.95,15.53     c46.87,0,84.87-38,84.87-84.87c0-8.86-1.36-17.4-3.88-25.42C2089.91,748.16,2049.45,797.79,1976.95,802.68z" />
		</g>
		<circle class="st17" cx="1967.49" cy="747.52" r="8.46" />
		<circle class="st17" cx="1979.21" cy="725.8" r="11.72" />
		<circle class="st17" cx="1983.78" cy="747.07" r="4.57" />
		<circle class="st17" cx="2057.57" cy="685.5" r="16.34" />
		<circle class="st17" cx="2087.97" cy="701.1" r="6.03" />
		<circle class="st17" cx="2073.28" cy="707.59" r="6.49" />
		<circle class="st17" cx="2039.32" cy="764.22" r="9.95" />
	</g>
	
</svg>
