<?xml version="1.0" encoding="utf-8"?>
<svg version="1.1" xmlns="http://www.w3.org/2000/svg" viewBox="1834.71 896.18 250.86 190.68">
<style type="text/css">
	.st0{fill:#43A6FF;}
	.st1{fill:#5AE0FF;}
	.st2{fill:#53415E;}
	.st3{fill:#37CDDD;}
	.st4{fill:#9CF1FF;}
	.st5{fill:#76C4FF;}
	.st6{fill:#0A95EA;}
	.st7{fill:#FFDE7C;}
	.st8{fill:#FF97D3;}
	.st9{fill:#FF9D5A;}
	.st10{fill:#FFE8AE;}
	.st11{fill:#FFCCED;}
	.st12{fill:#FF80D5;}
	.st13{fill:#FF7B7B;}
	.st14{fill:#FFA4A4;}
	.st15{fill:#FF5555;}
	.st16{fill:#5FBBFF;}
	.st17{fill:#3E2E49;}
	.st18{fill:#685A72;}
	.st19{fill:none;}
	.st20{fill:#24162B;}
</style>
<g>
		<g>
			<path class="st9" d="M1882.71,1038.86c-1.17,6.59-1.79,13.37-1.79,20.29c0,51.82,34.28,95.62,81.4,109.99     C1917.17,1137.33,1894.24,1082.46,1882.71,1038.86z" />
		</g>
		<g>
			<path class="st10" d="M1995.9,944.18c-13,0-25.5,2.16-37.16,6.14c38.76,0.76,91.53,11,137.17,52.08     C2076.13,967.63,2038.76,944.18,1995.9,944.18z" />
		</g>
		<g>
			<path class="st7" d="M1958.74,950.32c-39.06,13.33-68.65,47.09-76.03,88.54c11.53,43.6,34.46,98.48,79.61,130.28     c10.62,3.24,21.9,4.99,33.58,4.99c63.5,0,114.98-51.48,114.98-114.98c0-20.64-5.44-40.01-14.97-56.76     C2050.27,961.32,1997.5,951.08,1958.74,950.32z" />
		</g>
		<g>
			<g>
				<circle class="st9" cx="1919.16" cy="1032.17" r="15.9" />
			</g>
			<g>
				<circle class="st9" cx="2072.63" cy="1032.17" r="15.9" />
			</g>
		</g>
		<g>
			<circle class="st9" cx="1969.68" cy="1118.8" r="37.5" />
		</g>
		<g>
			<circle class="st9" cx="2034.07" cy="1133.54" r="18.92" />
		</g>
		<g>
			<path class="st2" d="M2011.97,1028.48c-0.16,8.77-7.19,16.07-16.07,16.07c-8.89,0-15.92-7.31-16.07-16.07     c-0.07-3.84-6.04-3.85-5.97,0c0.22,11.98,9.89,22.07,22.05,22.05c12.16-0.02,21.83-10.04,22.05-22.05     C2018.01,1024.64,2012.04,1024.64,2011.97,1028.48L2011.97,1028.48z" />
		</g>
		<g>
			<g>
				<path class="st2" d="M2037.57,995.95c0,5.05,0,10.09,0,15.14c0,3.84,5.97,3.85,5.97,0c0-5.05,0-10.09,0-15.14      C2043.55,992.11,2037.57,992.1,2037.57,995.95L2037.57,995.95z" />
			</g>
			<g>
				<path class="st2" d="M1948.25,995.95c0,5.05,0,10.09,0,15.14c0,3.84,5.97,3.85,5.97,0c0-5.05,0-10.09,0-15.14      C1954.22,992.11,1948.25,992.1,1948.25,995.95L1948.25,995.95z" />
			</g>
		</g>
	</g>
	
</svg>
