<?xml version="1.0" encoding="utf-8"?>
<svg version="1.1" xmlns="http://www.w3.org/2000/svg" viewBox="234.27 1587.98 291.17 250.66">
<style type="text/css">
	.st0{fill:#43A6FF;}
	.st1{fill:#5AE0FF;}
	.st2{fill:#53415E;}
	.st3{fill:#37CDDD;}
	.st4{fill:#9CF1FF;}
	.st5{fill:#76C4FF;}
	.st6{fill:#0A95EA;}
	.st7{fill:#FFDE7C;}
	.st8{fill:#FF97D3;}
	.st9{fill:#FF9D5A;}
	.st10{fill:#FFE8AE;}
	.st11{fill:#FFCCED;}
	.st12{fill:#FF80D5;}
	.st13{fill:#FF7B7B;}
	.st14{fill:#FFA4A4;}
	.st15{fill:#FF5555;}
	.st16{fill:#5FBBFF;}
	.st17{fill:#3E2E49;}
	.st18{fill:#685A72;}
	.st19{fill:none;}
	.st20{fill:#24162B;}
</style>
<g>
		<g>
			<path class="st3" d="M458.09,1743.98H304.17c-25.75-3.42-38.56-25.71-44.47-41.42c-0.08,0.34-0.16,0.68-0.23,1.03     c-0.63,3.16-0.96,6.43-0.96,9.77c0,27.46,22.25,49.71,49.71,49.71h135.95c27.46,0,49.71-22.25,49.71-49.71     c0-2.59-0.21-5.14-0.59-7.63C482.95,1732.88,458.09,1743.98,458.09,1743.98z" />
		</g>
		<g>
			<path class="st1" d="M467.93,1669.67c-7.06-3.84-15.15-6.03-23.76-6.03c-6.57,0-12.85,1.27-18.58,3.59     c0.22-1.87,0.32-3.76,0.32-5.68c0-27.46-22.26-49.72-49.72-49.72s-49.72,22.26-49.72,49.72c0,1.92,0.12,3.81,0.33,5.68     c-5.74-2.32-12.02-3.59-18.59-3.59c-23.75,0-43.59,16.66-48.52,38.93c5.91,15.7,18.72,37.99,44.47,41.42h153.92     c0,0,24.87-11.1,35.21-38.25C490.9,1690.14,481.26,1676.93,467.93,1669.67z" />
		</g>
		<g>
			<path class="st0" d="M289.71,1789.3c0,4.09-3.31,7.4-7.4,7.4c-4.09,0-7.4-3.31-7.4-7.4s7.4-15.69,7.4-15.69     S289.71,1785.22,289.71,1789.3z" />
		</g>
		<path class="st5" d="M287.43,1790.64c0.78,1.25-0.11,3.21-1.99,4.37c-1.87,1.16-4.02,1.09-4.8-0.17    c-0.78-1.25,1.09-1.63,2.97-2.79S286.66,1789.39,287.43,1790.64z" />
		<path class="st19" d="M282.27,1779.36c-1.37,2.34-2.64,4.76-3.61,7.25c-0.92,2.35-1.29,4.91,1.42,6.49c3,1.76,6.5-0.5,6.64-3.81    c-0.1-2.43-2.24-5.96-3.56-8.36C282.87,1780.41,282.57,1779.88,282.27,1779.36z" />
		<g>
			<path class="st0" d="M321,1789.3c0,4.09-3.31,7.4-7.4,7.4c-4.09,0-7.4-3.31-7.4-7.4s7.4-15.69,7.4-15.69S321,1785.22,321,1789.3z     " />
		</g>
		<path class="st5" d="M318.72,1790.64c0.78,1.25-0.11,3.21-1.99,4.37s-4.02,1.09-4.8-0.17s1.09-1.63,2.97-2.79    S317.95,1789.39,318.72,1790.64z" />
		<path class="st19" d="M313.56,1779.36c-1.37,2.34-2.64,4.76-3.61,7.25c-0.92,2.35-1.29,4.91,1.42,6.49c3,1.76,6.5-0.5,6.64-3.81    c-0.1-2.43-2.24-5.96-3.56-8.36C314.16,1780.41,313.86,1779.88,313.56,1779.36z" />
		<g>
			<path class="st0" d="M352.28,1789.3c0,4.09-3.31,7.4-7.4,7.4c-4.09,0-7.4-3.31-7.4-7.4s7.4-15.69,7.4-15.69     S352.28,1785.22,352.28,1789.3z" />
		</g>
		<path class="st5" d="M350.01,1790.64c0.78,1.25-0.11,3.21-1.99,4.37s-4.02,1.09-4.8-0.17s1.09-1.63,2.97-2.79    C348.07,1790.9,349.24,1789.39,350.01,1790.64z" />
		<path class="st19" d="M344.85,1779.36c-1.37,2.34-2.64,4.76-3.61,7.25c-0.92,2.35-1.29,4.91,1.42,6.49c3,1.76,6.5-0.5,6.64-3.81    c-0.1-2.43-2.24-5.96-3.56-8.36C345.45,1780.41,345.14,1779.88,344.85,1779.36z" />
		<g>
			<path class="st0" d="M383.57,1789.3c0,4.09-3.31,7.4-7.4,7.4c-4.09,0-7.4-3.31-7.4-7.4s7.4-15.69,7.4-15.69     S383.57,1785.22,383.57,1789.3z" />
		</g>
		<path class="st5" d="M381.3,1790.64c0.78,1.25-0.11,3.21-1.99,4.37c-1.87,1.16-4.02,1.09-4.8-0.17c-0.78-1.25,1.09-1.63,2.97-2.79    C379.36,1790.9,380.52,1789.39,381.3,1790.64z" />
		<path class="st19" d="M376.13,1779.36c-1.37,2.34-2.64,4.76-3.61,7.25c-0.92,2.35-1.29,4.91,1.42,6.49c3,1.76,6.5-0.5,6.64-3.81    c-0.1-2.43-2.24-5.96-3.56-8.36C376.74,1780.41,376.43,1779.88,376.13,1779.36z" />
		<g>
			<path class="st0" d="M414.86,1789.3c0,4.09-3.31,7.4-7.4,7.4c-4.09,0-7.4-3.31-7.4-7.4s7.4-15.69,7.4-15.69     S414.86,1785.22,414.86,1789.3z" />
		</g>
		<path class="st5" d="M412.59,1790.64c0.78,1.25-0.11,3.21-1.99,4.37c-1.87,1.16-4.02,1.09-4.8-0.17    c-0.78-1.25,1.09-1.63,2.97-2.79S411.81,1789.39,412.59,1790.64z" />
		<path class="st19" d="M407.42,1779.36c-1.37,2.34-2.64,4.76-3.61,7.25c-0.92,2.35-1.29,4.91,1.42,6.49c3,1.76,6.5-0.5,6.64-3.81    c-0.1-2.43-2.24-5.96-3.56-8.36C408.03,1780.41,407.72,1779.88,407.42,1779.36z" />
		<g>
			<path class="st0" d="M446.15,1789.3c0,4.09-3.31,7.4-7.4,7.4s-7.4-3.31-7.4-7.4s7.4-15.69,7.4-15.69     S446.15,1785.22,446.15,1789.3z" />
		</g>
		<path class="st5" d="M443.88,1790.64c0.78,1.25-0.11,3.21-1.99,4.37c-1.87,1.16-4.02,1.09-4.8-0.17s1.09-1.63,2.97-2.79    S443.1,1789.39,443.88,1790.64z" />
		<path class="st19" d="M438.71,1779.36c-1.37,2.34-2.64,4.76-3.61,7.25c-0.92,2.35-1.29,4.91,1.42,6.49c3,1.76,6.5-0.5,6.64-3.81    c-0.1-2.43-2.24-5.96-3.56-8.36C439.32,1780.41,439.01,1779.88,438.71,1779.36z" />
		<g>
			<path class="st0" d="M477.44,1789.3c0,4.09-3.31,7.4-7.4,7.4c-4.09,0-7.4-3.31-7.4-7.4s7.4-15.69,7.4-15.69     S477.44,1785.22,477.44,1789.3z" />
		</g>
		<path class="st5" d="M475.17,1790.64c0.78,1.25-0.11,3.21-1.99,4.37s-4.02,1.09-4.8-0.17s1.09-1.63,2.97-2.79    C473.22,1790.9,474.39,1789.39,475.17,1790.64z" />
		<path class="st19" d="M470,1779.36c-1.37,2.34-2.64,4.76-3.61,7.25c-0.92,2.35-1.29,4.91,1.42,6.49c3,1.76,6.5-0.5,6.64-3.81    c-0.1-2.43-2.24-5.96-3.56-8.36C470.6,1780.41,470.3,1779.88,470,1779.36z" />
		<g>
			<g>
				<path class="st2" d="M397.36,1683.97c0.3-8.63,13.07-8.63,13.37,0c0.13,3.83,6.11,3.85,5.97,0c-0.24-6.87-5.6-12.66-12.66-12.66      c-7.06,0-12.42,5.78-12.66,12.66C391.25,1687.81,397.22,1687.81,397.36,1683.97L397.36,1683.97z" />
			</g>
			<g>
				<path class="st2" d="M341.66,1683.97c0.3-8.63,13.07-8.63,13.37,0c0.13,3.83,6.11,3.85,5.97,0c-0.24-6.87-5.6-12.66-12.66-12.66      c-7.06,0-12.42,5.78-12.66,12.66C335.56,1687.81,341.53,1687.81,341.66,1683.97L341.66,1683.97z" />
			</g>
		</g>
		<g>
			<path class="st2" d="M376.2,1724.24c9.22,0,17.57,3.69,23.67,9.68c1.22-2.99,1.9-6.25,1.9-9.68c0-14.12-11.45-25.57-25.57-25.57     c-14.12,0-25.57,11.45-25.57,25.57c0,3.43,0.68,6.69,1.9,9.68C358.63,1727.93,366.98,1724.24,376.2,1724.24z" />
		</g>
		<path class="st4" d="M407.22,1635.98c-1.92,6.73-10.38-0.27-22.31-3.67c-11.93-3.4-22.81-1.9-20.89-8.63s13.14-9.44,25.07-6.04    S409.14,1629.25,407.22,1635.98z" />
		<path class="st4" d="M468.45,1680.42c-1.27,4.47-6.88-0.18-14.8-2.43s-15.13-1.26-13.86-5.73s8.72-6.26,16.63-4.01    C464.34,1670.51,469.72,1675.95,468.45,1680.42z" />
	</g>
	
</svg>
