<?xml version="1.0" encoding="utf-8"?>
<svg version="1.1" xmlns="http://www.w3.org/2000/svg" viewBox="1888.21 2326.92 275.00 195.88">
<style type="text/css">
	.st0{fill:#43A6FF;}
	.st1{fill:#5AE0FF;}
	.st2{fill:#53415E;}
	.st3{fill:#37CDDD;}
	.st4{fill:#9CF1FF;}
	.st5{fill:#76C4FF;}
	.st6{fill:#0A95EA;}
	.st7{fill:#FFDE7C;}
	.st8{fill:#FF97D3;}
	.st9{fill:#FF9D5A;}
	.st10{fill:#FFE8AE;}
	.st11{fill:#FFCCED;}
	.st12{fill:#FF80D5;}
	.st13{fill:#FF7B7B;}
	.st14{fill:#FFA4A4;}
	.st15{fill:#FF5555;}
	.st16{fill:#5FBBFF;}
	.st17{fill:#3E2E49;}
	.st18{fill:#685A72;}
	.st19{fill:none;}
	.st20{fill:#24162B;}
</style>
<g>
		<g>
			<path class="st7" d="M2115.21,2406.21l-28.26-29.08l5.77-40.15l-39.98-6.9l-18.9-35.9l-36.4,17.95l-36.4-17.95l-18.9,35.9     l-39.99,6.9l5.77,40.15l-28.26,29.08l28.26,29.09l-5.77,40.15l39.99,6.9l18.9,35.9l36.4-17.95l36.4,17.95l18.9-35.9l39.98-6.9     l-5.77-40.15L2115.21,2406.21z M1997.44,2474.8c-37.89,0-68.6-30.71-68.6-68.6c0-37.88,30.71-68.59,68.6-68.59     c37.88,0,68.59,30.71,68.59,68.59C2066.03,2444.09,2035.32,2474.8,1997.44,2474.8z" />
		</g>
		<g>
			<path class="st8" d="M2066.03,2406.21c0,37.89-30.71,68.6-68.59,68.6c-37.89,0-68.6-30.71-68.6-68.6     c0-37.88,30.71-68.59,68.6-68.59C2035.32,2337.62,2066.03,2368.33,2066.03,2406.21z" />
		</g>
		<g>
			<g>
				<path class="st2" d="M2023.55,2380.69c0,4.04,0,8.07,0,12.11c0,3.84,5.97,3.85,5.97,0c0-4.04,0-8.07,0-12.11      C2029.52,2376.85,2023.55,2376.84,2023.55,2380.69L2023.55,2380.69z" />
			</g>
			<g>
				<path class="st2" d="M1965.35,2380.69c0,4.04,0,8.07,0,12.11c0,3.84,5.97,3.85,5.97,0c0-4.04,0-8.07,0-12.11      C1971.32,2376.85,1965.35,2376.84,1965.35,2380.69L1965.35,2380.69z" />
			</g>
		</g>
		<g>
			<path class="st2" d="M1984.44,2425.03c0.15-7.09,5.79-12.99,12.99-12.99s12.84,5.9,12.99,12.99c0.08,3.84,6.05,3.85,5.97,0     c-0.22-10.33-8.48-18.95-18.97-18.97c-10.49-0.02-18.75,8.66-18.97,18.97C1978.39,2428.88,1984.36,2428.88,1984.44,2425.03     L1984.44,2425.03z" />
		</g>
		<g>
			<path class="st9" d="M1997.44,2474.8c-37.89,0-68.6-30.71-68.6-68.6c0-12.58,3.39-24.36,9.3-34.49l-35.98-34.74l5.77,40.15     l-28.26,29.08l28.26,29.09l-5.77,40.15l39.99,6.9l18.9,35.9l36.4-17.95l36.4,17.95l18.9-35.9l-18.74-18.09     C2023.41,2470.93,2010.88,2474.8,1997.44,2474.8z" />
		</g>
		<g>
			<path class="st10" d="M2066.03,2406.28C2066.03,2406.28,2066.03,2406.28,2066.03,2406.28h49.18l-28.26-29.08l5.77-40.15     l-39.98-6.9l-18.9-35.9l-9.45,48.94C2048.87,2353.66,2066.03,2377.96,2066.03,2406.28z" />
		</g>
		<g>
			<path class="st11" d="M2064.99,2418.49c0.72-3.98,1.1-8.09,1.1-12.28c0-37.88-30.71-68.59-68.59-68.59     c-5.08,0-10.04,0.56-14.81,1.61C2011.74,2343.89,2055.99,2360.59,2064.99,2418.49z" />
		</g>
		<g>
			<path class="st12" d="M1936.21,2374.92c-4.86,9.42-7.61,20.1-7.61,31.43c0,37.89,30.71,68.6,68.6,68.6     c13.68,0,26.42-4,37.11-10.9C1962.44,2456.12,1941.65,2409.25,1936.21,2374.92z" />
		</g>
	</g>
	
</svg>
