<?xml version="1.0" encoding="utf-8"?>
<svg version="1.1" xmlns="http://www.w3.org/2000/svg" viewBox="1274.44 910.19 275.07 285.89">
<style type="text/css">
	.st0{fill:#43A6FF;}
	.st1{fill:#5AE0FF;}
	.st2{fill:#53415E;}
	.st3{fill:#37CDDD;}
	.st4{fill:#9CF1FF;}
	.st5{fill:#76C4FF;}
	.st6{fill:#0A95EA;}
	.st7{fill:#FFDE7C;}
	.st8{fill:#FF97D3;}
	.st9{fill:#FF9D5A;}
	.st10{fill:#FFE8AE;}
	.st11{fill:#FFCCED;}
	.st12{fill:#FF80D5;}
	.st13{fill:#FF7B7B;}
	.st14{fill:#FFA4A4;}
	.st15{fill:#FF5555;}
	.st16{fill:#5FBBFF;}
	.st17{fill:#3E2E49;}
	.st18{fill:#685A72;}
	.st19{fill:none;}
	.st20{fill:#24162B;}
</style>
<g>
		<path class="st19" d="M1364.05,1134.87h29.17c2.05,0,3.9-0.83,5.25-2.17c1.34-1.34,2.17-3.19,2.17-5.24c0-4.1-3.32-7.41-7.41-7.41    h-29.17c-2.05,0-3.9,0.83-5.24,2.17c-1.34,1.34-2.17,3.19-2.17,5.25C1356.64,1131.55,1359.96,1134.87,1364.05,1134.87z" />
		<g>
			<path class="st0" d="M1322.44,1148.08h118.59c0,0,13.44-5.8,17.26-22.17c-1.99-10.01-8.37-18.44-17.06-23.17     c-1.08-0.59-2.2-1.12-3.35-1.59c-3.97-1.63-8.31-2.52-12.86-2.52c-4.48,0-8.76,0.87-12.68,2.45c0.15-1.28,0.22-2.57,0.22-3.88     c0-18.74-15.19-33.93-33.93-33.93c-18.74,0-33.93,15.19-33.93,33.93c0,1.31,0.08,2.6,0.23,3.88c-3.92-1.58-8.2-2.45-12.69-2.45     c-16.46,0-30.17,11.71-33.27,27.26c-0.16,0.8-0.28,1.61-0.38,2.43C1303.4,1137.77,1310.96,1146.91,1322.44,1148.08z      M1358.81,1122.21c1.34-1.34,3.19-2.17,5.24-2.17h29.17c4.1,0,7.41,3.32,7.41,7.41c0,2.05-0.83,3.9-2.17,5.24     c-1.34,1.34-3.2,2.17-5.25,2.17h-29.17c-4.09,0-7.41-3.32-7.41-7.41C1356.64,1125.41,1357.47,1123.55,1358.81,1122.21z" />
		</g>
		<g>
			<path class="st6" d="M1441.03,1148.08h-118.59c-11.48-1.17-19.04-10.31-23.85-19.77c-0.17,1.39-0.28,2.81-0.28,4.24     c0,18.74,15.19,33.92,33.92,33.92h92.78c6.95,0,13.41-2.09,18.79-5.67c9.13-6.08,15.14-16.46,15.14-28.25     c0-2.27-0.23-4.49-0.65-6.64C1454.48,1142.28,1441.03,1148.08,1441.03,1148.08z" />
		</g>
		<g>
			<path class="st1" d="M1479.16,963.26v123.85h-30.86V963.26c0-8.52,6.91-15.43,15.43-15.43     C1472.25,947.83,1479.16,954.73,1479.16,963.26z" />
		</g>
		<g>
			<g>
				<path class="st2" d="M1367.4,1101.77c0,2.47,0,4.93,0,7.4c0,3.84,5.97,3.85,5.97,0c0-2.47,0-4.93,0-7.4      C1373.38,1097.93,1367.4,1097.92,1367.4,1101.77L1367.4,1101.77z" />
			</g>
			<g>
				<path class="st2" d="M1383.89,1101.77c0,2.47,0,4.93,0,7.4c0,3.84,5.97,3.85,5.97,0c0-2.47,0-4.93,0-7.4      C1389.86,1097.93,1383.89,1097.92,1383.89,1101.77L1383.89,1101.77z" />
			</g>
		</g>
		<g>
			<path class="st4" d="M1400.63,1127.46c0,2.05-0.83,3.9-2.17,5.24c-1.34,1.34-3.2,2.17-5.25,2.17h-29.17     c-4.09,0-7.41-3.32-7.41-7.41c0-2.05,0.83-3.9,2.17-5.25c1.34-1.34,3.19-2.17,5.24-2.17h29.17     C1397.31,1120.04,1400.63,1123.36,1400.63,1127.46z" />
		</g>
		<path class="st2" d="M1470.18,1063.21c-1.16,1.16-2.31,2.31-3.47,3.47c0-4.38,0-8.77,0-13.15c0-3.84-5.97-3.85-5.97,0    c0,4.38,0,8.77,0,13.15c-1.16-1.16-2.31-2.31-3.47-3.47c-2.72-2.72-6.94,1.5-4.22,4.22c2.85,2.85,5.71,5.71,8.56,8.56    c1.14,1.14,3.08,1.14,4.22,0c2.85-2.85,5.71-5.71,8.56-8.56C1477.12,1064.71,1472.9,1060.49,1470.18,1063.21z" />
		<path class="st5" d="M1398.57,1079.19c-1.3,4.56-7.03-0.18-15.11-2.48c-8.08-2.3-15.46-1.29-14.16-5.85s8.9-6.4,16.99-4.09    S1399.87,1074.63,1398.57,1079.19z" />
		<path class="st5" d="M1442.11,1110.61c-0.93,3.27-5.05-0.13-10.85-1.78c-5.8-1.65-11.09-0.92-10.16-4.2    c0.93-3.27,6.39-4.59,12.19-2.94S1443.04,1107.33,1442.11,1110.61z" />
		<path class="st4" d="M1474.99,958.19c-0.75,2.64-4.06-0.11-8.74-1.44c-4.67-1.33-8.93-0.74-8.18-3.38    c0.75-2.64,5.15-3.7,9.82-2.37C1472.56,952.34,1475.74,955.55,1474.99,958.19z" />
		<g>
			<path class="st15" d="M1448.3,1087.11v7.1c-3.86,1.73-7.38,4.09-10.42,6.94c1.15,0.47,2.27,1.01,3.35,1.59     c10.55,5.75,17.71,16.95,17.71,29.81c0,11.79-6.01,22.18-15.14,28.25c5.78,3.6,12.61,5.67,19.92,5.67l0,0v-79.37H1448.3z" />
		</g>
		<g>
			<path class="st13" d="M1501.51,1128.7c0-15.37-9.18-28.59-22.35-34.49v-7.1h-15.43v79.37     C1484.6,1166.48,1501.51,1149.57,1501.51,1128.7z" />
		</g>
	</g>
	
</svg>
